<svg width="890" height="863" viewBox="0 0 890 863" fill="none" xmlns="http://www.w3.org/2000/svg">
<path d="M870 631L270 331L50 441L650 741L870 631Z" stroke="#524E4C" stroke-opacity="0.5" stroke-width="2" stroke-miterlimit="1"/>
<path d="M870 631L270 331V91L870 391V631Z" stroke="#524E4C" stroke-opacity="0.5" stroke-width="2" stroke-miterlimit="1"/>
<path d="M270 331L50 441V201L270 91V331Z" stroke="#524E4C" stroke-opacity="0.5" stroke-width="2" stroke-miterlimit="1"/>
<path d="M650 741L50 441V201L650 501V741Z" stroke="#524E4C" stroke-opacity="0.5" stroke-width="2" stroke-miterlimit="1"/>
<path d="M650 741L870 631V391L650 501V741Z" stroke="#524E4C" stroke-opacity="0.5" stroke-width="2" stroke-miterlimit="1"/>
<path d="M870 391L270 91L50 201L650 501L870 391Z" stroke="#524E4C" stroke-opacity="0.5" stroke-width="2" stroke-miterlimit="1"/>
<path d="M51.0606 0.93934C50.4749 0.353553 49.5251 0.353553 48.9393 0.93934L39.3934 10.4853C38.8076 11.0711 38.8076 12.0208 39.3934 12.6066C39.9792 13.1924 40.9289 13.1924 41.5147 12.6066L50 4.12132L58.4853 12.6066C59.071 13.1924 60.0208 13.1924 60.6066 12.6066C61.1924 12.0208 61.1924 11.0711 60.6066 10.4853L51.0606 0.93934ZM51.5 441L51.5 2L48.5 2L48.5 441L51.5 441Z" fill="#1C41A0"/>
<path d="M870.471 854.424C871.258 854.163 871.684 853.315 871.424 852.528L867.18 839.713C866.919 838.926 866.071 838.5 865.284 838.76C864.498 839.021 864.071 839.87 864.332 840.656L868.104 852.048L856.713 855.82C855.926 856.081 855.5 856.929 855.76 857.716C856.021 858.502 856.87 858.928 857.656 858.668L870.471 854.424ZM49.3266 442.34L869.326 854.34L870.673 851.66L50.6734 439.66L49.3266 442.34Z" fill="#1C41A0"/>
<path d="M398.949 266.314C399.123 265.79 398.838 265.224 398.314 265.051L389.769 262.224C389.245 262.051 388.679 262.335 388.506 262.86C388.332 263.384 388.617 263.95 389.141 264.123L396.737 266.635L394.224 274.231C394.051 274.755 394.335 275.321 394.86 275.494C395.384 275.668 395.95 275.383 396.123 274.859L398.949 266.314ZM50.4493 441.893L398.449 266.893L397.551 265.107L49.5507 440.107L50.4493 441.893Z" fill="#1C41A0"/>
<path d="M765.847 830.091L771.335 839.457L776.824 830.091H780.881L773.483 841.545L780.881 853H776.824L771.335 844.111L765.847 853H761.79L769.068 841.545L761.79 830.091H765.847Z" fill="#1C41A0"/>
<path d="M2.56534 54V51.3153L15.571 34.6108V34.3722H2.98295V31.0909H20.1051V33.8949L7.45739 50.4801V50.7188H20.5227V54H2.56534Z" fill="#1C41A0"/>
<path d="M417.489 294.591C416.892 294.591 416.36 294.541 415.893 294.442C415.425 294.352 415.102 294.263 414.923 294.173L415.818 291.071C416.673 291.29 417.429 291.369 418.085 291.31C418.741 291.25 419.323 290.957 419.83 290.43C420.347 289.913 420.82 289.072 421.247 287.909L421.903 286.119L413.432 263.091H417.25L423.574 281.347H423.812L430.136 263.091H433.955L424.23 289.341C423.793 290.524 423.251 291.504 422.604 292.279C421.958 293.065 421.207 293.646 420.352 294.024C419.507 294.402 418.553 294.591 417.489 294.591Z" fill="#1C41A0"/>
<path d="M666.577 751.526C666.315 752.312 666.74 753.161 667.526 753.423L680.333 757.692C681.119 757.954 681.968 757.529 682.23 756.743C682.492 755.958 682.067 755.108 681.282 754.846L669.897 751.051L673.692 739.667C673.954 738.881 673.529 738.032 672.743 737.77C671.958 737.508 671.108 737.933 670.846 738.718L666.577 751.526ZM889.423 642.474C889.685 641.688 889.26 640.839 888.474 640.577L875.667 636.308C874.881 636.046 874.032 636.471 873.77 637.257C873.508 638.042 873.933 638.892 874.718 639.154L886.103 642.949L882.308 654.333C882.046 655.119 882.471 655.968 883.257 656.23C884.043 656.492 884.892 656.067 885.154 655.282L889.423 642.474ZM668.671 753.342L888.671 643.342L887.329 640.658L667.329 750.658L668.671 753.342Z" fill="#C61414"/>
<path d="M743.381 756.48L727.124 738.653L729.674 737.35L742.63 752.014L742.833 751.911L738.619 732.778L741.452 731.33L754.489 745.953L754.692 745.85L750.397 726.759L752.947 725.455L757.871 749.075L755.281 750.398L742.267 736.222L742.106 736.305L745.971 755.156L743.381 756.48ZM769.058 727.89L767.941 725.704L780.408 719.333L781.525 721.519L769.058 727.89ZM772.12 733.88L771.003 731.695L783.469 725.324L784.586 727.509L772.12 733.88ZM804.673 725.156L791.994 712.034L794.504 710.751L803.945 720.934L804.106 720.851L801.344 707.255L803.894 705.952L813.233 716.136L813.395 716.053L810.694 702.477L813.203 701.194L816.411 719.157L814.063 720.357L804.561 710.154L804.318 710.278L807.021 723.956L804.673 725.156ZM824.303 715.123L816.36 699.581L818.748 698.36L826.691 713.903L824.303 715.123ZM816.251 696.37C815.785 696.608 815.303 696.654 814.803 696.51C814.311 696.362 813.951 696.065 813.723 695.62C813.496 695.175 813.466 694.709 813.635 694.223C813.81 693.733 814.13 693.37 814.596 693.132C815.061 692.894 815.54 692.849 816.033 692.997C816.532 693.142 816.896 693.437 817.123 693.882C817.351 694.327 817.377 694.795 817.201 695.284C817.033 695.77 816.716 696.132 816.251 696.37ZM837.1 708.992C835.804 709.654 834.494 709.911 833.168 709.764C831.838 709.609 830.587 709.075 829.413 708.16C828.236 707.239 827.227 705.955 826.386 704.309C825.551 702.677 825.107 701.117 825.054 699.63C825 698.143 825.305 696.817 825.969 695.653C826.633 694.488 827.619 693.572 828.928 692.903C829.94 692.386 830.825 692.146 831.585 692.183C832.347 692.21 832.992 692.357 833.52 692.623C834.051 692.88 834.473 693.098 834.786 693.278L834.988 693.175L831.079 685.525L833.467 684.304L844.058 705.028L841.751 706.207L840.53 703.819L840.247 703.963C840.216 704.336 840.149 704.821 840.046 705.419C839.94 706.009 839.672 706.626 839.244 707.271C838.813 707.908 838.098 708.482 837.1 708.992ZM836.327 706.681C837.285 706.192 837.967 705.528 838.373 704.691C838.775 703.848 838.921 702.893 838.81 701.826C838.696 700.753 838.338 699.63 837.739 698.456C837.146 697.296 836.458 696.367 835.676 695.669C834.891 694.964 834.043 694.538 833.134 694.39C832.221 694.236 831.279 694.407 830.308 694.903C829.296 695.42 828.585 696.111 828.176 696.975C827.77 697.829 827.625 698.784 827.739 699.84C827.857 700.886 828.195 701.955 828.753 703.048C829.318 704.155 830.001 705.074 830.8 705.805C831.603 706.526 832.474 706.983 833.414 707.175C834.358 707.356 835.329 707.192 836.327 706.681ZM847.579 683.626L848.613 685.65L840.559 689.766L839.525 687.742L847.579 683.626ZM839.969 682.819L842.357 681.598L849.928 696.412C850.273 697.087 850.629 697.543 850.997 697.78C851.368 698.007 851.738 698.099 852.107 698.055C852.48 698.001 852.841 697.884 853.192 697.705C853.455 697.57 853.664 697.447 853.819 697.334C853.97 697.214 854.091 697.118 854.182 697.046L855.764 698.943C855.633 699.086 855.438 699.262 855.179 699.471C854.924 699.687 854.573 699.909 854.128 700.136C853.454 700.481 852.718 700.674 851.922 700.715C851.133 700.752 850.375 700.583 849.646 700.206C848.925 699.826 848.333 699.184 847.871 698.28L839.969 682.819ZM857.058 686.592L861.836 695.941L859.448 697.162L848.857 676.439L851.245 675.218L855.134 682.828L855.337 682.724C855.291 681.735 855.511 680.818 855.999 679.974C856.489 679.119 857.345 678.38 858.566 677.756C859.625 677.215 860.661 676.953 861.674 676.971C862.684 676.983 863.63 677.311 864.514 677.957C865.4 678.593 866.185 679.579 866.867 680.915L871.915 690.791L869.527 692.011L864.562 682.297C863.931 681.063 863.123 680.272 862.137 679.925C861.155 679.568 860.101 679.677 858.974 680.253C858.192 680.653 857.574 681.176 857.123 681.824C856.678 682.468 856.439 683.199 856.405 684.016C856.378 684.829 856.596 685.688 857.058 686.592Z" fill="#C61414"/>
<path d="M234.012 598.295L244.472 577.505L246.989 578.771L237.653 597.328L247.317 602.19L246.193 604.423L234.012 598.295ZM264.971 598.453L266.074 596.261L278.58 602.553L277.477 604.745L264.971 598.453ZM261.947 604.463L263.051 602.27L275.557 608.562L274.454 610.755L261.947 604.463ZM297.545 604.207L287.085 624.997L284.689 623.792L295.149 603.002L297.545 604.207ZM297.847 630.819C296.344 630.063 295.215 629.079 294.459 627.868C293.714 626.653 293.348 625.299 293.362 623.804C293.386 622.307 293.799 620.76 294.603 619.163C295.407 617.565 296.406 616.304 297.601 615.379C298.806 614.45 300.105 613.908 301.498 613.752C302.901 613.593 304.306 613.868 305.714 614.576C306.526 614.984 307.26 615.523 307.915 616.192C308.571 616.861 309.07 617.664 309.413 618.6C309.76 619.529 309.876 620.588 309.761 621.777C309.646 622.966 309.223 624.288 308.491 625.743L307.98 626.758L295.961 620.711L297.003 618.64L306.586 623.461C307.028 622.582 307.247 621.708 307.243 620.841C307.245 619.977 307.025 619.183 306.583 618.461C306.148 617.741 305.497 617.164 304.631 616.728C303.677 616.248 302.732 616.069 301.796 616.192C300.871 616.312 300.033 616.654 299.283 617.218C298.533 617.782 297.942 618.493 297.509 619.353L296.815 620.733C296.222 621.911 295.923 623.011 295.917 624.034C295.922 625.054 296.182 625.961 296.698 626.755C297.218 627.543 297.962 628.18 298.929 628.667C299.559 628.983 300.172 629.181 300.768 629.261C301.374 629.337 301.953 629.289 302.506 629.118C303.062 628.939 303.578 628.631 304.053 628.191L306.041 630.006C305.402 630.668 304.646 631.152 303.771 631.458C302.899 631.758 301.957 631.861 300.944 631.767C299.935 631.666 298.902 631.35 297.847 630.819ZM315.226 627.401L310.506 636.781L308.111 635.576L315.956 619.983L318.27 621.148L317.044 623.584L317.247 623.686C318.011 623.078 318.886 622.721 319.872 622.615C320.862 622.503 321.945 622.743 323.123 623.335C324.179 623.866 324.993 624.547 325.567 625.379C326.145 626.204 326.434 627.163 326.434 628.258C326.438 629.345 326.107 630.552 325.439 631.879L320.455 641.786L318.059 640.581L322.962 630.836C323.578 629.611 323.74 628.496 323.448 627.493C323.159 626.483 322.46 625.698 321.35 625.14C320.585 624.755 319.818 624.577 319.049 624.605C318.287 624.637 317.573 624.885 316.908 625.347C316.242 625.81 315.682 626.494 315.226 627.401ZM328.021 653.327C326.863 652.745 325.944 652.096 325.261 651.379C324.575 650.669 324.075 649.934 323.762 649.175C323.452 648.425 323.271 647.698 323.219 646.993L325.801 646.613C325.875 647.007 325.986 647.469 326.133 648.002C326.278 648.541 326.569 649.09 327.008 649.65C327.451 650.221 328.142 650.742 329.083 651.216C330.342 651.849 331.534 652.067 332.659 651.87C333.784 651.673 334.674 650.925 335.328 649.625L336.921 646.458L336.718 646.356C336.399 646.552 335.972 646.778 335.436 647.034C334.91 647.287 334.264 647.424 333.499 647.446C332.743 647.464 331.858 647.218 330.843 646.707C329.584 646.074 328.603 645.208 327.901 644.108C327.206 643.012 326.854 641.749 326.844 640.319C326.84 638.893 327.247 637.368 328.065 635.744C328.868 634.146 329.849 632.897 331.006 631.995C332.167 631.087 333.412 630.56 334.74 630.414C336.072 630.261 337.395 630.515 338.708 631.176C339.723 631.687 340.443 632.261 340.868 632.899C341.304 633.534 341.573 634.144 341.677 634.731C341.79 635.314 341.867 635.785 341.907 636.144L342.151 636.267L343.397 633.79L345.711 634.954L337.642 650.993C336.968 652.333 336.115 653.269 335.084 653.802C334.056 654.345 332.932 654.556 331.713 654.434C330.497 654.323 329.266 653.954 328.021 653.327ZM332.25 644.719C333.211 645.202 334.134 645.391 335.018 645.285C335.903 645.178 336.725 644.799 337.486 644.147C338.247 643.495 338.916 642.594 339.495 641.444C340.06 640.32 340.39 639.244 340.484 638.214C340.578 637.184 340.416 636.259 339.998 635.438C339.58 634.617 338.884 633.961 337.909 633.471C336.894 632.96 335.919 632.792 334.983 632.966C334.054 633.143 333.203 633.58 332.429 634.276C331.661 634.975 331.012 635.853 330.481 636.908C329.936 637.991 329.623 639.034 329.543 640.036C329.473 641.036 329.653 641.941 330.085 642.752C330.527 643.559 331.249 644.215 332.25 644.719ZM356.878 640.572L355.856 642.603L347.776 638.537L348.797 636.507L356.878 640.572ZM353.032 633.956L355.428 635.161L347.95 650.023C347.61 650.7 347.453 651.256 347.479 651.694C347.515 652.127 347.66 652.48 347.913 652.752C348.177 653.02 348.484 653.243 348.836 653.42C349.1 653.553 349.324 653.648 349.506 653.706C349.693 653.757 349.842 653.798 349.953 653.829L349.358 656.226C349.165 656.206 348.907 656.152 348.586 656.067C348.261 655.988 347.875 655.836 347.428 655.612C346.751 655.271 346.161 654.792 345.658 654.174C345.162 653.56 344.85 652.847 344.723 652.037C344.603 651.231 344.772 650.374 345.228 649.467L353.032 633.956ZM360.086 649.972L355.367 659.352L352.971 658.146L363.431 637.356L365.827 638.562L361.986 646.196L362.189 646.298C362.96 645.676 363.83 645.312 364.799 645.207C365.778 645.097 366.881 645.351 368.106 645.967C369.168 646.501 369.991 647.183 370.575 648.011C371.163 648.832 371.457 649.79 371.458 650.884C371.468 651.975 371.137 653.191 370.462 654.531L365.478 664.438L363.082 663.233L367.985 653.488C368.608 652.249 368.769 651.13 368.466 650.13C368.174 649.126 367.463 648.34 366.332 647.772C365.547 647.377 364.76 647.188 363.971 647.207C363.188 647.228 362.457 647.467 361.779 647.923C361.107 648.382 360.543 649.065 360.086 649.972Z" fill="#C61414"/>
<path d="M246 283.182L222.727 283.182L222.727 280.364L233.091 280.364L233.091 267.955L222.727 267.955L222.727 265.136L246 265.136L246 267.955L235.591 267.955L235.591 280.364L246 280.364L246 283.182ZM232.227 249.767L229.773 249.767L229.773 235.767L232.227 235.767L232.227 249.767ZM238.955 249.767L236.5 249.767L236.5 235.767L238.955 235.767L238.955 249.767ZM235.5 218.082L246 218.082L246 220.764L222.727 220.764L222.727 218.082L231.273 218.082L231.273 217.855C230.371 217.446 229.655 216.832 229.125 216.014C228.587 215.188 228.318 214.09 228.318 212.719C228.318 211.529 228.557 210.488 229.034 209.594C229.504 208.7 230.227 208.007 231.205 207.514C232.174 207.014 233.409 206.764 234.909 206.764L246 206.764L246 209.446L235.091 209.446C233.705 209.446 232.633 209.806 231.875 210.526C231.11 211.238 230.727 212.226 230.727 213.491C230.727 214.37 230.913 215.158 231.284 215.855C231.655 216.545 232.197 217.09 232.909 217.491C233.621 217.885 234.485 218.082 235.5 218.082ZM246.364 194.54C246.364 196.222 245.992 197.672 245.25 198.892C244.5 200.104 243.455 201.04 242.114 201.699C240.765 202.35 239.197 202.676 237.409 202.676C235.621 202.676 234.045 202.35 232.682 201.699C231.311 201.04 230.242 200.123 229.477 198.949C228.705 197.767 228.318 196.388 228.318 194.812C228.318 193.903 228.47 193.006 228.773 192.119C229.076 191.233 229.568 190.426 230.25 189.699C230.924 188.972 231.818 188.392 232.932 187.96C234.045 187.528 235.417 187.312 237.045 187.312L238.182 187.312L238.182 200.767L235.864 200.767L235.864 190.04C234.879 190.04 234 190.237 233.227 190.631C232.455 191.017 231.845 191.57 231.398 192.29C230.951 193.002 230.727 193.843 230.727 194.812C230.727 195.881 230.992 196.805 231.523 197.585C232.045 198.358 232.727 198.953 233.568 199.369C234.409 199.786 235.311 199.994 236.273 199.994L237.818 199.994C239.136 199.994 240.254 199.767 241.17 199.312C242.08 198.85 242.773 198.21 243.25 197.392C243.72 196.574 243.955 195.623 243.955 194.54C243.955 193.835 243.856 193.199 243.659 192.631C243.455 192.055 243.152 191.559 242.75 191.142C242.341 190.725 241.833 190.403 241.227 190.176L241.955 187.585C242.833 187.858 243.606 188.316 244.273 188.96C244.932 189.604 245.447 190.4 245.818 191.347C246.182 192.294 246.364 193.358 246.364 194.54ZM246 183.233L228.545 183.233L228.545 180.551L246 180.551L246 183.233ZM225.636 181.869C225.636 182.392 225.458 182.843 225.102 183.222C224.746 183.593 224.318 183.778 223.818 183.778C223.318 183.778 222.89 183.593 222.534 183.222C222.178 182.843 222 182.392 222 181.869C222 181.347 222.178 180.9 222.534 180.528C222.89 180.15 223.318 179.96 223.818 179.96C224.318 179.96 224.746 180.15 225.102 180.528C225.458 180.9 225.636 181.347 225.636 181.869ZM252.909 168.594C252.909 169.889 252.742 171.003 252.409 171.935C252.083 172.866 251.652 173.643 251.114 174.264C250.583 174.878 250.015 175.366 249.409 175.73L247.909 173.594C248.227 173.351 248.591 173.045 249 172.673C249.417 172.302 249.777 171.795 250.08 171.151C250.39 170.499 250.545 169.647 250.545 168.594C250.545 167.185 250.205 166.022 249.523 165.105C248.841 164.188 247.773 163.73 246.318 163.73L242.773 163.73L242.773 163.957C243.091 164.154 243.485 164.435 243.955 164.798C244.417 165.154 244.83 165.67 245.193 166.344C245.549 167.01 245.727 167.912 245.727 169.048C245.727 170.457 245.394 171.723 244.727 172.844C244.061 173.957 243.091 174.84 241.818 175.491C240.545 176.135 239 176.457 237.182 176.457C235.394 176.457 233.837 176.143 232.511 175.514C231.178 174.885 230.148 174.01 229.42 172.889C228.686 171.768 228.318 170.473 228.318 169.003C228.318 167.866 228.508 166.965 228.886 166.298C229.258 165.624 229.682 165.109 230.159 164.753C230.629 164.389 231.015 164.109 231.318 163.912L231.318 163.639L228.545 163.639L228.545 161.048L246.5 161.048C248 161.048 249.22 161.389 250.159 162.071C251.106 162.745 251.799 163.654 252.239 164.798C252.686 165.935 252.909 167.2 252.909 168.594ZM243.318 168.685C243.318 167.609 243.072 166.7 242.58 165.957C242.087 165.215 241.379 164.651 240.455 164.264C239.53 163.878 238.424 163.685 237.136 163.685C235.879 163.685 234.769 163.874 233.807 164.253C232.845 164.632 232.091 165.192 231.545 165.935C231 166.677 230.727 167.594 230.727 168.685C230.727 169.821 231.015 170.768 231.591 171.526C232.167 172.276 232.939 172.84 233.909 173.219C234.879 173.59 235.955 173.776 237.136 173.776C238.348 173.776 239.42 173.586 240.352 173.207C241.277 172.821 242.004 172.253 242.534 171.503C243.057 170.745 243.318 169.806 243.318 168.685ZM235.5 153.457L246 153.457L246 156.139L222.727 156.139L222.727 153.457L231.273 153.457L231.273 153.23C230.371 152.821 229.655 152.207 229.125 151.389C228.587 150.563 228.318 149.465 228.318 148.094C228.318 146.904 228.557 145.863 229.034 144.969C229.504 144.075 230.227 143.382 231.205 142.889C232.174 142.389 233.409 142.139 234.909 142.139L246 142.139L246 144.821L235.091 144.821C233.705 144.821 232.633 145.181 231.875 145.901C231.11 146.613 230.727 147.601 230.727 148.866C230.727 149.745 230.913 150.533 231.284 151.23C231.655 151.92 232.197 152.465 232.909 152.866C233.621 153.26 234.485 153.457 235.5 153.457ZM228.545 129.642L230.818 129.642L230.818 138.687L228.545 138.687L228.545 129.642ZM224.364 136.051L224.364 133.369L241 133.369C241.758 133.369 242.326 133.259 242.705 133.04C243.076 132.812 243.326 132.525 243.455 132.176C243.576 131.82 243.636 131.445 243.636 131.051C243.636 130.756 243.621 130.513 243.591 130.324C243.553 130.134 243.523 129.983 243.5 129.869L245.909 129.324C245.977 129.506 246.045 129.759 246.114 130.085C246.189 130.411 246.227 130.824 246.227 131.324C246.227 132.081 246.064 132.824 245.739 133.551C245.413 134.271 244.917 134.869 244.25 135.347C243.583 135.816 242.742 136.051 241.727 136.051L224.364 136.051Z" fill="#C61414"/>
<path d="M38.5257 450.577C37.7397 450.839 37.315 451.688 37.577 452.474L41.846 465.282C42.108 466.067 42.9575 466.492 43.7434 466.23C44.5293 465.968 44.9541 465.119 44.6921 464.333L40.8974 452.949L52.2816 449.154C53.0675 448.892 53.4922 448.042 53.2302 447.257C52.9683 446.471 52.1188 446.046 51.3329 446.308L38.5257 450.577ZM639.474 753.423C640.26 753.161 640.685 752.312 640.423 751.526L636.154 738.718C635.892 737.933 635.042 737.508 634.257 737.77C633.471 738.032 633.046 738.881 633.308 739.667L637.103 751.051L625.718 754.846C624.932 755.108 624.508 755.957 624.77 756.743C625.032 757.529 625.881 757.954 626.667 757.692L639.474 753.423ZM38.3292 453.342L638.329 753.342L639.671 750.658L39.6708 450.658L38.3292 453.342Z" fill="#C61414"/>
<path d="M259.061 93.9393C258.475 93.3536 257.525 93.3536 256.939 93.9393L247.393 103.485C246.808 104.071 246.808 105.021 247.393 105.607C247.979 106.192 248.929 106.192 249.515 105.607L258 97.1213L266.485 105.607C267.071 106.192 268.021 106.192 268.607 105.607C269.192 105.021 269.192 104.071 268.607 103.485L259.061 93.9393ZM256.939 336.061C257.525 336.646 258.475 336.646 259.061 336.061L268.607 326.515C269.192 325.929 269.192 324.979 268.607 324.393C268.021 323.808 267.071 323.808 266.485 324.393L258 332.879L249.515 324.393C248.929 323.808 247.979 323.808 247.393 324.393C246.808 324.979 246.808 325.929 247.393 326.515L256.939 336.061ZM256.5 95V335H259.5V95H256.5Z" fill="#C61414"/>
</svg>
