<svg width="869" height="729" viewBox="0 0 869 729" fill="none" xmlns="http://www.w3.org/2000/svg">
<path d="M822 617L222 317V77L822 377V617Z" stroke="#524E4C" stroke-width="3" stroke-miterlimit="1"/>
<path d="M222 317L2 427V187L222 77V317Z" stroke="#524E4C" stroke-width="3" stroke-miterlimit="1"/>
<path d="M822 617L222 317L2 427L602 727L822 617Z" stroke="#524E4C" stroke-width="3" stroke-miterlimit="1"/>
<path d="M602 727L2 427V187L602 487V727Z" stroke="#524E4C" stroke-width="3" stroke-miterlimit="1"/>
<path d="M602 727L822 617V377L602 487V727Z" stroke="#524E4C" stroke-width="3" stroke-miterlimit="1"/>
<path d="M202 426L102 376V276L202 326V426Z" fill="#C69222" stroke="#4A370D" stroke-miterlimit="1"/>
<path d="M202 426L302 376V276L202 326V426Z" fill="#C69222" stroke="#4A370D" stroke-miterlimit="1"/>
<path d="M302 276L202 226L102 276L202 326L302 276Z" fill="#F8B72A" stroke="#4A370D" stroke-miterlimit="1"/>
<path d="M102 476L2 426V326L102 376V476Z" fill="#C69222" stroke="#4A370D" stroke-miterlimit="1"/>
<path d="M202 326L302 276V176L202 226V326Z" fill="#C69222" stroke="#4A370D" stroke-miterlimit="1"/>
<path d="M302 176L202 126L102 176L202 226L302 176Z" fill="#F8B72A" stroke="#4A370D" stroke-miterlimit="1"/>
<path d="M402 326L302 276L202 326L302 376L402 326Z" fill="#F8B72A" stroke="#4A370D" stroke-miterlimit="1"/>
<path d="M202 526L102 476V376L202 426V526Z" fill="#C69222" stroke="#4A370D" stroke-miterlimit="1"/>
<path d="M102 376L2 326V226L102 276V376Z" fill="#C69222" stroke="#4A370D" stroke-miterlimit="1"/>
<path d="M202 226L102 176L2 226L102 276L202 226Z" fill="#F8B72A" stroke="#4A370D" stroke-miterlimit="1"/>
<path d="M402 327L302 277V177L402 227V327Z" stroke="black" stroke-miterlimit="1" stroke-dasharray="6 6"/>
<path d="M302 277L202 327V227L302 177V277Z" stroke="black" stroke-miterlimit="1" stroke-dasharray="6 6"/>
<path d="M302 377L402 327V227L302 277V377Z" stroke="black" stroke-miterlimit="1" stroke-dasharray="6 6"/>
<path d="M402 227L302 177L202 227L302 277L402 227Z" stroke="black" stroke-miterlimit="1" stroke-dasharray="6 6"/>
<path d="M202 426L102 376V276L202 326V426Z" fill="#C69222" stroke="#4A370D" stroke-miterlimit="1"/>
<path d="M202 426L302 376V276L202 326V426Z" fill="#C69222" stroke="#4A370D" stroke-miterlimit="1"/>
<path d="M302 276L202 226L102 276L202 326L302 276Z" fill="#F8B72A" stroke="#4A370D" stroke-miterlimit="1"/>
<path d="M277 564.5L202 527V437L277 474.5V564.5Z" fill="#2EB014" stroke="#114208" stroke-miterlimit="1"/>
<path d="M277 564.5L427 489.5V399.5L277 474.5V564.5Z" fill="#2EB014" stroke="#114208" stroke-miterlimit="1"/>
<path d="M277 474.5L202 437V347L277 384.5V474.5Z" fill="#2EB014" stroke="#114208" stroke-miterlimit="1"/>
<path d="M277 474.5L427 399.5V309.5L277 384.5V474.5Z" fill="#2EB014" stroke="#114208" stroke-miterlimit="1"/>
<path d="M427 309.5L352 272L202 347L277 384.5L427 309.5Z" fill="#3ADC19" stroke="#114208" stroke-miterlimit="1"/>
<path d="M768 201L668 151V51L768 101V201Z" fill="#C69222" stroke="#4A370D" stroke-miterlimit="1" stroke-dasharray="6 6"/>
<path d="M768 201L868 151V51L768 101V201Z" fill="#C69222" stroke="#4A370D" stroke-miterlimit="1" stroke-dasharray="6 6"/>
<path d="M868 51L768 1L668 51L768 101L868 51Z" fill="#F8B72B" stroke="#4A370D" stroke-miterlimit="1" stroke-dasharray="6 6"/>
<path d="M822 377L222 77L2 187L602 487L822 377Z" stroke="#524E4C" stroke-width="3" stroke-miterlimit="1"/>
<path d="M68.7812 499.789V497H81.9219V499.789H77.0234V513H73.6797V499.789H68.7812ZM90.9531 497V513H87.5703V500.211H87.4766L83.8125 502.508V499.508L87.7734 497H90.9531Z" fill="black"/>
<path d="M209.781 573.789V571H222.922V573.789H218.023V587H214.68V573.789H209.781ZM224.992 587V584.562L230.688 579.289C231.172 578.82 231.578 578.398 231.906 578.023C232.24 577.648 232.492 577.281 232.664 576.922C232.836 576.557 232.922 576.164 232.922 575.742C232.922 575.273 232.815 574.87 232.602 574.531C232.388 574.187 232.096 573.924 231.727 573.742C231.357 573.555 230.938 573.461 230.469 573.461C229.979 573.461 229.552 573.56 229.188 573.758C228.823 573.956 228.542 574.24 228.344 574.609C228.146 574.979 228.047 575.419 228.047 575.93H224.836C224.836 574.883 225.073 573.974 225.547 573.203C226.021 572.432 226.685 571.836 227.539 571.414C228.393 570.992 229.378 570.781 230.492 570.781C231.638 570.781 232.635 570.984 233.484 571.391C234.339 571.792 235.003 572.349 235.477 573.062C235.951 573.776 236.188 574.594 236.188 575.516C236.188 576.12 236.068 576.716 235.828 577.305C235.594 577.893 235.174 578.547 234.57 579.266C233.966 579.979 233.115 580.836 232.016 581.836L229.68 584.125V584.234H236.398V587H224.992Z" fill="black"/>
<path d="M363.549 205.382C363.76 206.183 364.581 206.661 365.382 206.45L378.437 203.012C379.238 202.801 379.716 201.981 379.505 201.18C379.294 200.379 378.474 199.9 377.673 200.111L366.069 203.167L363.012 191.563C362.801 190.762 361.981 190.284 361.18 190.495C360.379 190.706 359.9 191.526 360.111 192.327L363.549 205.382ZM607.825 84.0357C556.375 72.6024 435.72 80.731 363.704 204.244L366.296 205.756C437.48 83.6689 556.625 75.7309 607.175 86.9642L607.825 84.0357Z" fill="black"/>
</svg>
