<svg width="771" height="316" viewBox="0 0 771 316" fill="none" xmlns="http://www.w3.org/2000/svg">
<rect x="472" y="44" width="74" height="43" fill="#F6ADAD"/>
<rect x="472" y="229" width="74" height="43" fill="#F6ADAD"/>
<path d="M1.89631 80V58.1818H10.5043C12.1591 58.1818 13.5689 58.4979 14.7337 59.13C15.8984 59.755 16.7862 60.625 17.397 61.7401C18.0149 62.848 18.3239 64.1264 18.3239 65.5753C18.3239 67.0241 18.0114 68.3026 17.3864 69.4105C16.7614 70.5185 15.8558 71.3814 14.6697 71.9993C13.4908 72.6172 12.0632 72.9261 10.3871 72.9261H4.90057V69.2294H9.64134C10.5291 69.2294 11.2607 69.0767 11.8359 68.7713C12.4183 68.4588 12.8516 68.0291 13.1357 67.4822C13.4268 66.9283 13.5724 66.2926 13.5724 65.5753C13.5724 64.8509 13.4268 64.2187 13.1357 63.679C12.8516 63.1321 12.4183 62.7095 11.8359 62.4112C11.2536 62.1058 10.5149 61.9531 9.62003 61.9531H6.50923V80H1.89631ZM30.6845 58.1818V80H26.0716V62.5604H25.9437L20.9473 65.6925V61.6016L26.3485 58.1818H30.6845Z" fill="black"/>
<path d="M1.89631 265V243.182H10.5043C12.1591 243.182 13.5689 243.498 14.7337 244.13C15.8984 244.755 16.7862 245.625 17.397 246.74C18.0149 247.848 18.3239 249.126 18.3239 250.575C18.3239 252.024 18.0114 253.303 17.3864 254.411C16.7614 255.518 15.8558 256.381 14.6697 256.999C13.4908 257.617 12.0632 257.926 10.3871 257.926H4.90057V254.229H9.64134C10.5291 254.229 11.2607 254.077 11.8359 253.771C12.4183 253.459 12.8516 253.029 13.1357 252.482C13.4268 251.928 13.5724 251.293 13.5724 250.575C13.5724 249.851 13.4268 249.219 13.1357 248.679C12.8516 248.132 12.4183 247.71 11.8359 247.411C11.2536 247.106 10.5149 246.953 9.62003 246.953H6.50923V265H1.89631ZM30.6845 243.182V265H26.0716V247.56H25.9437L20.9473 250.692V246.602L26.3485 243.182H30.6845ZM39.7159 243.182V245.483C39.7159 246.136 39.5881 246.804 39.3324 247.486C39.0838 248.161 38.75 248.8 38.331 249.403C37.9119 250 37.4538 250.508 36.9567 250.927L34.9538 249.744C35.3089 249.183 35.6214 248.562 35.8913 247.88C36.1683 247.198 36.3068 246.406 36.3068 245.504V243.182H39.7159Z" fill="black"/>
<rect x="172.5" y="0.5" width="74.7449" height="43" fill="#D9D9D9" stroke="black"/>
<rect x="172.5" y="43.5" width="74.7449" height="44" stroke="black"/>
<rect x="172.5" y="87.5" width="74.7449" height="43" fill="#D9D9D9" stroke="black"/>
<rect x="172.5" y="185.5" width="74.7449" height="43" fill="#D9D9D9" stroke="black"/>
<rect x="172.5" y="228.5" width="74.7449" height="44" stroke="black"/>
<rect x="172.5" y="272.5" width="74.7449" height="43" fill="#D9D9D9" stroke="black"/>
<rect x="247.252" y="0.5" width="74.7449" height="43.1744" fill="#D9D9D9" stroke="black"/>
<rect x="247.252" y="43.9126" width="74.7449" height="43.1744" stroke="black"/>
<rect x="247.252" y="87.3257" width="74.7449" height="43.1744" fill="#D9D9D9" stroke="black"/>
<rect x="247.252" y="185.5" width="74.7449" height="43.1744" fill="#D9D9D9" stroke="black"/>
<rect x="247.252" y="228.913" width="74.7449" height="43.1744" stroke="black"/>
<rect x="247.252" y="272.326" width="74.7449" height="43.1744" fill="#D9D9D9" stroke="black"/>
<rect x="322.003" y="0.5" width="74.7449" height="43.1744" fill="#D9D9D9" stroke="black"/>
<rect x="322.003" y="43.9126" width="74.7449" height="43.1744" stroke="black"/>
<rect x="322.003" y="87.3257" width="74.7449" height="43.1744" fill="#D9D9D9" stroke="black"/>
<rect x="322.003" y="185.5" width="74.7449" height="43.1744" fill="#D9D9D9" stroke="black"/>
<rect x="322.003" y="228.913" width="74.7449" height="43.1744" stroke="black"/>
<rect x="322.003" y="272.326" width="74.7449" height="43.1744" fill="#D9D9D9" stroke="black"/>
<rect x="396.755" y="0.5" width="74.7449" height="43.1744" fill="#D9D9D9" stroke="black"/>
<rect x="396.755" y="43.9126" width="74.7449" height="43.1744" stroke="black"/>
<rect x="396.755" y="87.3257" width="74.7449" height="43.1744" fill="#D9D9D9" stroke="black"/>
<rect x="396.755" y="185.5" width="74.7449" height="43.1744" fill="#D9D9D9" stroke="black"/>
<rect x="396.755" y="228.913" width="74.7449" height="43.1744" stroke="black"/>
<rect x="396.755" y="272.326" width="74.7449" height="43.1744" fill="#D9D9D9" stroke="black"/>
<rect x="471.5" y="0.5" width="74.7449" height="43" fill="#D9D9D9" stroke="black"/>
<rect x="471.5" y="43.5" width="74.7449" height="44" stroke="black"/>
<rect x="471.5" y="87.5" width="74.7449" height="43" fill="#D9D9D9" stroke="black"/>
<rect x="471.5" y="185.5" width="74.7449" height="43" fill="#D9D9D9" stroke="black"/>
<rect x="471.5" y="228.5" width="74.7449" height="44" stroke="black"/>
<rect x="471.5" y="272.5" width="74.7449" height="43" fill="#D9D9D9" stroke="black"/>
<rect x="546.251" y="0.5" width="74.7449" height="43.1744" fill="#D9D9D9" stroke="black"/>
<rect x="546.251" y="43.9126" width="74.7449" height="43.1744" stroke="black"/>
<rect x="546.251" y="87.3257" width="74.7449" height="43.1744" fill="#D9D9D9" stroke="black"/>
<rect x="546.251" y="185.5" width="74.7449" height="43.1744" fill="#D9D9D9" stroke="black"/>
<rect x="546.251" y="228.913" width="74.7449" height="43.1744" stroke="black"/>
<rect x="546.251" y="272.326" width="74.7449" height="43.1744" fill="#D9D9D9" stroke="black"/>
<rect x="621.003" y="0.5" width="74.7449" height="43.1744" fill="#D9D9D9" stroke="black"/>
<rect x="621.003" y="43.9126" width="74.7449" height="43.1744" stroke="black"/>
<rect x="621.003" y="87.3257" width="74.7449" height="43.1744" fill="#D9D9D9" stroke="black"/>
<rect x="621.003" y="185.5" width="74.7449" height="43.1744" fill="#D9D9D9" stroke="black"/>
<rect x="621.003" y="228.913" width="74.7449" height="43.1744" stroke="black"/>
<rect x="621.003" y="272.326" width="74.7449" height="43.1744" fill="#D9D9D9" stroke="black"/>
<rect x="695.755" y="0.5" width="74.7449" height="43.1744" fill="#D9D9D9" stroke="black"/>
<rect x="695.755" y="43.9126" width="74.7449" height="43.1744" stroke="black"/>
<rect x="695.755" y="87.3257" width="74.7449" height="43.1744" fill="#D9D9D9" stroke="black"/>
<rect x="695.755" y="185.5" width="74.7449" height="43.1744" fill="#D9D9D9" stroke="black"/>
<rect x="695.755" y="228.913" width="74.7449" height="43.1744" stroke="black"/>
<rect x="695.755" y="272.326" width="74.7449" height="43.1744" fill="#D9D9D9" stroke="black"/>
<path d="M101.063 13.7187V12H113.062V13.7187H108.031V28H106.094V13.7187H101.063ZM115.803 28V16H117.646V28H115.803ZM116.74 14C116.381 14 116.071 13.8776 115.811 13.6328C115.555 13.388 115.428 13.0938 115.428 12.75C115.428 12.4063 115.555 12.112 115.811 11.8672C116.071 11.6224 116.381 11.5 116.74 11.5C117.1 11.5 117.407 11.6224 117.662 11.8672C117.923 12.112 118.053 12.4063 118.053 12.75C118.053 13.0938 117.923 13.388 117.662 13.6328C117.407 13.8776 117.1 14 116.74 14ZM121.023 32.5V16H122.805V17.9062H123.023C123.159 17.6979 123.346 17.4323 123.586 17.1094C123.831 16.7812 124.18 16.4896 124.633 16.2344C125.091 15.974 125.711 15.8438 126.492 15.8438C127.503 15.8438 128.393 16.0964 129.164 16.6016C129.935 17.1068 130.536 17.8229 130.969 18.75C131.401 19.6771 131.617 20.7708 131.617 22.0313C131.617 23.3021 131.401 24.4036 130.969 25.3359C130.536 26.263 129.938 26.9818 129.172 27.4922C128.406 27.9974 127.523 28.25 126.523 28.25C125.753 28.25 125.135 28.1224 124.672 27.8672C124.208 27.6068 123.852 27.3125 123.602 26.9844C123.352 26.651 123.159 26.375 123.023 26.1562H122.867V32.5H121.023ZM122.836 22C122.836 22.9062 122.969 23.7057 123.234 24.3984C123.5 25.0859 123.888 25.625 124.398 26.0156C124.909 26.401 125.534 26.5938 126.273 26.5938C127.044 26.5938 127.688 26.3906 128.203 25.9844C128.724 25.5729 129.115 25.0208 129.375 24.3281C129.641 23.6302 129.773 22.8542 129.773 22C129.773 21.1562 129.643 20.3958 129.383 19.7187C129.128 19.0365 128.74 18.4974 128.219 18.1016C127.703 17.7005 127.055 17.5 126.273 17.5C125.523 17.5 124.893 17.6901 124.383 18.0703C123.872 18.4453 123.487 18.9714 123.227 19.6484C122.966 20.3203 122.836 21.1042 122.836 22ZM139.305 28.25C138.221 28.25 137.271 27.9922 136.453 27.4766C135.641 26.9609 135.005 26.2396 134.547 25.3125C134.094 24.3854 133.867 23.3021 133.867 22.0625C133.867 20.8125 134.094 19.7214 134.547 18.7891C135.005 17.8568 135.641 17.1328 136.453 16.6172C137.271 16.1016 138.221 15.8438 139.305 15.8438C140.388 15.8438 141.336 16.1016 142.148 16.6172C142.966 17.1328 143.602 17.8568 144.055 18.7891C144.513 19.7214 144.742 20.8125 144.742 22.0625C144.742 23.3021 144.513 24.3854 144.055 25.3125C143.602 26.2396 142.966 26.9609 142.148 27.4766C141.336 27.9922 140.388 28.25 139.305 28.25ZM139.305 26.5938C140.128 26.5938 140.805 26.3828 141.336 25.9609C141.867 25.5391 142.26 24.9844 142.516 24.2969C142.771 23.6094 142.898 22.8646 142.898 22.0625C142.898 21.2604 142.771 20.513 142.516 19.8203C142.26 19.1276 141.867 18.5677 141.336 18.1406C140.805 17.7135 140.128 17.5 139.305 17.5C138.482 17.5 137.805 17.7135 137.273 18.1406C136.742 18.5677 136.349 19.1276 136.094 19.8203C135.839 20.513 135.711 21.2604 135.711 22.0625C135.711 22.8646 135.839 23.6094 136.094 24.2969C136.349 24.9844 136.742 25.5391 137.273 25.9609C137.805 26.3828 138.482 26.5938 139.305 26.5938Z" fill="black"/>
<path d="M101.063 198.719V197H113.062V198.719H108.031V213H106.094V198.719H101.063ZM115.803 213V201H117.646V213H115.803ZM116.74 199C116.381 199 116.071 198.878 115.811 198.633C115.555 198.388 115.428 198.094 115.428 197.75C115.428 197.406 115.555 197.112 115.811 196.867C116.071 196.622 116.381 196.5 116.74 196.5C117.1 196.5 117.407 196.622 117.662 196.867C117.923 197.112 118.053 197.406 118.053 197.75C118.053 198.094 117.923 198.388 117.662 198.633C117.407 198.878 117.1 199 116.74 199ZM121.023 217.5V201H122.805V202.906H123.023C123.159 202.698 123.346 202.432 123.586 202.109C123.831 201.781 124.18 201.49 124.633 201.234C125.091 200.974 125.711 200.844 126.492 200.844C127.503 200.844 128.393 201.096 129.164 201.602C129.935 202.107 130.536 202.823 130.969 203.75C131.401 204.677 131.617 205.771 131.617 207.031C131.617 208.302 131.401 209.404 130.969 210.336C130.536 211.263 129.938 211.982 129.172 212.492C128.406 212.997 127.523 213.25 126.523 213.25C125.753 213.25 125.135 213.122 124.672 212.867C124.208 212.607 123.852 212.312 123.602 211.984C123.352 211.651 123.159 211.375 123.023 211.156H122.867V217.5H121.023ZM122.836 207C122.836 207.906 122.969 208.706 123.234 209.398C123.5 210.086 123.888 210.625 124.398 211.016C124.909 211.401 125.534 211.594 126.273 211.594C127.044 211.594 127.688 211.391 128.203 210.984C128.724 210.573 129.115 210.021 129.375 209.328C129.641 208.63 129.773 207.854 129.773 207C129.773 206.156 129.643 205.396 129.383 204.719C129.128 204.036 128.74 203.497 128.219 203.102C127.703 202.701 127.055 202.5 126.273 202.5C125.523 202.5 124.893 202.69 124.383 203.07C123.872 203.445 123.487 203.971 123.227 204.648C122.966 205.32 122.836 206.104 122.836 207ZM139.305 213.25C138.221 213.25 137.271 212.992 136.453 212.477C135.641 211.961 135.005 211.24 134.547 210.312C134.094 209.385 133.867 208.302 133.867 207.062C133.867 205.812 134.094 204.721 134.547 203.789C135.005 202.857 135.641 202.133 136.453 201.617C137.271 201.102 138.221 200.844 139.305 200.844C140.388 200.844 141.336 201.102 142.148 201.617C142.966 202.133 143.602 202.857 144.055 203.789C144.513 204.721 144.742 205.812 144.742 207.062C144.742 208.302 144.513 209.385 144.055 210.312C143.602 211.24 142.966 211.961 142.148 212.477C141.336 212.992 140.388 213.25 139.305 213.25ZM139.305 211.594C140.128 211.594 140.805 211.383 141.336 210.961C141.867 210.539 142.26 209.984 142.516 209.297C142.771 208.609 142.898 207.865 142.898 207.062C142.898 206.26 142.771 205.513 142.516 204.82C142.26 204.128 141.867 203.568 141.336 203.141C140.805 202.714 140.128 202.5 139.305 202.5C138.482 202.5 137.805 202.714 137.273 203.141C136.742 203.568 136.349 204.128 136.094 204.82C135.839 205.513 135.711 206.26 135.711 207.062C135.711 207.865 135.839 208.609 136.094 209.297C136.349 209.984 136.742 210.539 137.273 210.961C137.805 211.383 138.482 211.594 139.305 211.594Z" fill="black"/>
<path d="M59.9375 74V58H65.3438C66.5938 58 67.6198 58.2135 68.4219 58.6406C69.224 59.0625 69.8177 59.6432 70.2031 60.3828C70.5885 61.1224 70.7813 61.9635 70.7813 62.9062C70.7813 63.849 70.5885 64.6849 70.2031 65.4141C69.8177 66.1432 69.2266 66.7161 68.4297 67.1328C67.6328 67.5443 66.6146 67.75 65.375 67.75H61V66H65.3125C66.1667 66 66.8542 65.875 67.375 65.625C67.901 65.375 68.2813 65.0208 68.5156 64.5625C68.7552 64.099 68.875 63.5469 68.875 62.9062C68.875 62.2656 68.7552 61.7057 68.5156 61.2266C68.276 60.7474 67.8932 60.3776 67.3672 60.1172C66.8411 59.8516 66.1458 59.7187 65.2812 59.7187H61.875V74H59.9375ZM67.4688 66.8125L71.4062 74H69.1563L65.2812 66.8125H67.4688ZM78.5059 74.25C77.4225 74.25 76.472 73.9922 75.6543 73.4766C74.8418 72.9609 74.2064 72.2396 73.748 71.3125C73.2949 70.3854 73.0684 69.3021 73.0684 68.0625C73.0684 66.8125 73.2949 65.7214 73.748 64.7891C74.2064 63.8568 74.8418 63.1328 75.6543 62.6172C76.472 62.1016 77.4225 61.8438 78.5059 61.8438C79.5892 61.8438 80.5371 62.1016 81.3496 62.6172C82.1673 63.1328 82.8027 63.8568 83.2559 64.7891C83.7142 65.7214 83.9434 66.8125 83.9434 68.0625C83.9434 69.3021 83.7142 70.3854 83.2559 71.3125C82.8027 72.2396 82.1673 72.9609 81.3496 73.4766C80.5371 73.9922 79.5892 74.25 78.5059 74.25ZM78.5059 72.5938C79.3288 72.5938 80.0059 72.3828 80.5371 71.9609C81.0684 71.5391 81.4616 70.9844 81.7168 70.2969C81.972 69.6094 82.0996 68.8646 82.0996 68.0625C82.0996 67.2604 81.972 66.513 81.7168 65.8203C81.4616 65.1276 81.0684 64.5677 80.5371 64.1406C80.0059 63.7135 79.3288 63.5 78.5059 63.5C77.6829 63.5 77.0059 63.7135 76.4746 64.1406C75.9434 64.5677 75.5501 65.1276 75.2949 65.8203C75.0397 66.513 74.9121 67.2604 74.9121 68.0625C74.9121 68.8646 75.0397 69.6094 75.2949 70.2969C75.5501 70.9844 75.9434 71.5391 76.4746 71.9609C77.0059 72.3828 77.6829 72.5938 78.5059 72.5938ZM91.9766 62V63.5625H85.7578V62H91.9766ZM87.5703 59.125H89.4141V70.5625C89.4141 71.0833 89.4896 71.474 89.6406 71.7344C89.7969 71.9896 89.9948 72.1615 90.2344 72.25C90.4792 72.3333 90.737 72.375 91.0078 72.375C91.2109 72.375 91.3776 72.3646 91.5078 72.3437C91.638 72.3177 91.7422 72.2969 91.8203 72.2812L92.1953 73.9375C92.0703 73.9844 91.8958 74.0313 91.6719 74.0781C91.4479 74.1302 91.1641 74.1563 90.8203 74.1563C90.2995 74.1563 89.7891 74.0443 89.2891 73.8203C88.7943 73.5964 88.3828 73.2552 88.0547 72.7969C87.7318 72.3385 87.5703 71.7604 87.5703 71.0625V59.125ZM98.2813 74.2813C97.5208 74.2813 96.8307 74.138 96.2109 73.8516C95.5911 73.5599 95.099 73.1406 94.7344 72.5938C94.3698 72.0417 94.1875 71.375 94.1875 70.5937C94.1875 69.9062 94.3229 69.349 94.5938 68.9219C94.8646 68.4896 95.2266 68.151 95.6797 67.9062C96.1328 67.6615 96.6328 67.4792 97.1797 67.3594C97.7318 67.2344 98.2865 67.1354 98.8438 67.0625C99.5729 66.9687 100.164 66.8984 100.617 66.8516C101.076 66.7995 101.409 66.7135 101.617 66.5937C101.831 66.474 101.938 66.2656 101.938 65.9687V65.9062C101.938 65.1354 101.727 64.5365 101.305 64.1094C100.888 63.6823 100.255 63.4687 99.4063 63.4687C98.526 63.4687 97.8359 63.6615 97.3359 64.0469C96.8359 64.4323 96.4844 64.8437 96.2813 65.2812L94.5313 64.6562C94.8438 63.9271 95.2604 63.3594 95.7813 62.9531C96.3073 62.5417 96.8802 62.2552 97.5 62.0937C98.125 61.9271 98.7396 61.8438 99.3438 61.8438C99.7292 61.8438 100.172 61.8906 100.672 61.9844C101.177 62.0729 101.664 62.2578 102.133 62.5391C102.607 62.8203 103 63.2448 103.313 63.8125C103.625 64.3802 103.781 65.1406 103.781 66.0938V74H101.938V72.375H101.844C101.719 72.6354 101.51 72.9141 101.219 73.2109C100.927 73.5078 100.539 73.7604 100.055 73.9687C99.5703 74.1771 98.9792 74.2813 98.2813 74.2813ZM98.5625 72.625C99.2917 72.625 99.9063 72.4818 100.406 72.1953C100.911 71.9089 101.292 71.5391 101.547 71.0859C101.807 70.6328 101.938 70.1562 101.938 69.6562V67.9687C101.859 68.0625 101.688 68.1484 101.422 68.2266C101.161 68.2995 100.859 68.3646 100.516 68.4219C100.177 68.474 99.8464 68.5208 99.5234 68.5625C99.2057 68.599 98.9479 68.6302 98.75 68.6562C98.2708 68.7187 97.8229 68.8203 97.4063 68.9609C96.9948 69.0964 96.6615 69.3021 96.4063 69.5781C96.1563 69.849 96.0313 70.2187 96.0313 70.6875C96.0313 71.3281 96.2682 71.8125 96.7422 72.1406C97.2214 72.4635 97.8281 72.625 98.5625 72.625ZM112.021 74.25C110.896 74.25 109.928 73.9844 109.115 73.4531C108.303 72.9219 107.678 72.1901 107.24 71.2578C106.803 70.3255 106.584 69.2604 106.584 68.0625C106.584 66.8437 106.808 65.7682 107.256 64.8359C107.709 63.8984 108.339 63.1667 109.146 62.6406C109.959 62.1094 110.907 61.8438 111.99 61.8438C112.834 61.8438 113.594 62 114.271 62.3125C114.949 62.625 115.503 63.0625 115.936 63.625C116.368 64.1875 116.636 64.8437 116.74 65.5937H114.896C114.756 65.0469 114.443 64.5625 113.959 64.1406C113.48 63.7135 112.834 63.5 112.021 63.5C111.303 63.5 110.673 63.6875 110.131 64.0625C109.594 64.4323 109.175 64.9557 108.873 65.6328C108.576 66.3047 108.428 67.0937 108.428 68C108.428 68.9271 108.574 69.7344 108.865 70.4219C109.162 71.1094 109.579 71.6432 110.115 72.0234C110.657 72.4036 111.292 72.5938 112.021 72.5938C112.501 72.5938 112.936 72.5104 113.326 72.3437C113.717 72.1771 114.048 71.9375 114.318 71.625C114.589 71.3125 114.782 70.9375 114.896 70.5H116.74C116.636 71.2083 116.378 71.8464 115.967 72.4141C115.561 72.9766 115.021 73.4245 114.35 73.7578C113.683 74.0859 112.907 74.25 112.021 74.25ZM119.436 74V62H121.279V74H119.436ZM120.373 60C120.014 60 119.704 59.8776 119.443 59.6328C119.188 59.388 119.061 59.0938 119.061 58.75C119.061 58.4063 119.188 58.112 119.443 57.8672C119.704 57.6224 120.014 57.5 120.373 57.5C120.732 57.5 121.04 57.6224 121.295 57.8672C121.555 58.112 121.686 58.4063 121.686 58.75C121.686 59.0938 121.555 59.388 121.295 59.6328C121.04 59.8776 120.732 60 120.373 60ZM129.531 74.25C128.448 74.25 127.497 73.9922 126.68 73.4766C125.867 72.9609 125.232 72.2396 124.773 71.3125C124.32 70.3854 124.094 69.3021 124.094 68.0625C124.094 66.8125 124.32 65.7214 124.773 64.7891C125.232 63.8568 125.867 63.1328 126.68 62.6172C127.497 62.1016 128.448 61.8438 129.531 61.8438C130.615 61.8438 131.563 62.1016 132.375 62.6172C133.193 63.1328 133.828 63.8568 134.281 64.7891C134.74 65.7214 134.969 66.8125 134.969 68.0625C134.969 69.3021 134.74 70.3854 134.281 71.3125C133.828 72.2396 133.193 72.9609 132.375 73.4766C131.563 73.9922 130.615 74.25 129.531 74.25ZM129.531 72.5938C130.354 72.5938 131.031 72.3828 131.562 71.9609C132.094 71.5391 132.487 70.9844 132.742 70.2969C132.997 69.6094 133.125 68.8646 133.125 68.0625C133.125 67.2604 132.997 66.513 132.742 65.8203C132.487 65.1276 132.094 64.5677 131.562 64.1406C131.031 63.7135 130.354 63.5 129.531 63.5C128.708 63.5 128.031 63.7135 127.5 64.1406C126.969 64.5677 126.576 65.1276 126.32 65.8203C126.065 66.513 125.938 67.2604 125.938 68.0625C125.938 68.8646 126.065 69.6094 126.32 70.2969C126.576 70.9844 126.969 71.5391 127.5 71.9609C128.031 72.3828 128.708 72.5938 129.531 72.5938ZM128.688 60.375L130.594 56.75H132.75L130.313 60.375H128.688ZM139.627 66.7812V74H137.783V62H139.564V63.875H139.721C140.002 63.2656 140.429 62.776 141.002 62.4063C141.575 62.0313 142.314 61.8438 143.221 61.8438C144.033 61.8438 144.744 62.0104 145.354 62.3437C145.963 62.6719 146.437 63.1719 146.775 63.8437C147.114 64.5104 147.283 65.3542 147.283 66.375V74H145.439V66.5C145.439 65.5573 145.195 64.8229 144.705 64.2969C144.215 63.7656 143.544 63.5 142.689 63.5C142.101 63.5 141.575 63.6276 141.111 63.8828C140.653 64.138 140.291 64.5104 140.025 65C139.76 65.4896 139.627 66.0833 139.627 66.7812Z" fill="black"/>
<path d="M59.9375 259V243H65.3438C66.5938 243 67.6198 243.214 68.4219 243.641C69.224 244.062 69.8177 244.643 70.2031 245.383C70.5885 246.122 70.7813 246.964 70.7813 247.906C70.7813 248.849 70.5885 249.685 70.2031 250.414C69.8177 251.143 69.2266 251.716 68.4297 252.133C67.6328 252.544 66.6146 252.75 65.375 252.75H61V251H65.3125C66.1667 251 66.8542 250.875 67.375 250.625C67.901 250.375 68.2813 250.021 68.5156 249.562C68.7552 249.099 68.875 248.547 68.875 247.906C68.875 247.266 68.7552 246.706 68.5156 246.227C68.276 245.747 67.8932 245.378 67.3672 245.117C66.8411 244.852 66.1458 244.719 65.2812 244.719H61.875V259H59.9375ZM67.4688 251.812L71.4062 259H69.1563L65.2812 251.812H67.4688ZM78.5059 259.25C77.4225 259.25 76.472 258.992 75.6543 258.477C74.8418 257.961 74.2064 257.24 73.748 256.312C73.2949 255.385 73.0684 254.302 73.0684 253.062C73.0684 251.812 73.2949 250.721 73.748 249.789C74.2064 248.857 74.8418 248.133 75.6543 247.617C76.472 247.102 77.4225 246.844 78.5059 246.844C79.5892 246.844 80.5371 247.102 81.3496 247.617C82.1673 248.133 82.8027 248.857 83.2559 249.789C83.7142 250.721 83.9434 251.812 83.9434 253.062C83.9434 254.302 83.7142 255.385 83.2559 256.312C82.8027 257.24 82.1673 257.961 81.3496 258.477C80.5371 258.992 79.5892 259.25 78.5059 259.25ZM78.5059 257.594C79.3288 257.594 80.0059 257.383 80.5371 256.961C81.0684 256.539 81.4616 255.984 81.7168 255.297C81.972 254.609 82.0996 253.865 82.0996 253.062C82.0996 252.26 81.972 251.513 81.7168 250.82C81.4616 250.128 81.0684 249.568 80.5371 249.141C80.0059 248.714 79.3288 248.5 78.5059 248.5C77.6829 248.5 77.0059 248.714 76.4746 249.141C75.9434 249.568 75.5501 250.128 75.2949 250.82C75.0397 251.513 74.9121 252.26 74.9121 253.062C74.9121 253.865 75.0397 254.609 75.2949 255.297C75.5501 255.984 75.9434 256.539 76.4746 256.961C77.0059 257.383 77.6829 257.594 78.5059 257.594ZM91.9766 247V248.562H85.7578V247H91.9766ZM87.5703 244.125H89.4141V255.562C89.4141 256.083 89.4896 256.474 89.6406 256.734C89.7969 256.99 89.9948 257.161 90.2344 257.25C90.4792 257.333 90.737 257.375 91.0078 257.375C91.2109 257.375 91.3776 257.365 91.5078 257.344C91.638 257.318 91.7422 257.297 91.8203 257.281L92.1953 258.937C92.0703 258.984 91.8958 259.031 91.6719 259.078C91.4479 259.13 91.1641 259.156 90.8203 259.156C90.2995 259.156 89.7891 259.044 89.2891 258.82C88.7943 258.596 88.3828 258.255 88.0547 257.797C87.7318 257.339 87.5703 256.76 87.5703 256.062V244.125ZM98.2813 259.281C97.5208 259.281 96.8307 259.138 96.2109 258.852C95.5911 258.56 95.099 258.141 94.7344 257.594C94.3698 257.042 94.1875 256.375 94.1875 255.594C94.1875 254.906 94.3229 254.349 94.5938 253.922C94.8646 253.49 95.2266 253.151 95.6797 252.906C96.1328 252.661 96.6328 252.479 97.1797 252.359C97.7318 252.234 98.2865 252.135 98.8438 252.063C99.5729 251.969 100.164 251.898 100.617 251.852C101.076 251.799 101.409 251.714 101.617 251.594C101.831 251.474 101.938 251.266 101.938 250.969V250.906C101.938 250.135 101.727 249.536 101.305 249.109C100.888 248.682 100.255 248.469 99.4063 248.469C98.526 248.469 97.8359 248.661 97.3359 249.047C96.8359 249.432 96.4844 249.844 96.2813 250.281L94.5313 249.656C94.8438 248.927 95.2604 248.359 95.7813 247.953C96.3073 247.542 96.8802 247.255 97.5 247.094C98.125 246.927 98.7396 246.844 99.3438 246.844C99.7292 246.844 100.172 246.891 100.672 246.984C101.177 247.073 101.664 247.258 102.133 247.539C102.607 247.82 103 248.245 103.313 248.812C103.625 249.38 103.781 250.141 103.781 251.094V259H101.938V257.375H101.844C101.719 257.635 101.51 257.914 101.219 258.211C100.927 258.508 100.539 258.76 100.055 258.969C99.5703 259.177 98.9792 259.281 98.2813 259.281ZM98.5625 257.625C99.2917 257.625 99.9063 257.482 100.406 257.195C100.911 256.909 101.292 256.539 101.547 256.086C101.807 255.633 101.938 255.156 101.938 254.656V252.969C101.859 253.062 101.688 253.148 101.422 253.227C101.161 253.299 100.859 253.365 100.516 253.422C100.177 253.474 99.8464 253.521 99.5234 253.562C99.2057 253.599 98.9479 253.63 98.75 253.656C98.2708 253.719 97.8229 253.82 97.4063 253.961C96.9948 254.096 96.6615 254.302 96.4063 254.578C96.1563 254.849 96.0313 255.219 96.0313 255.687C96.0313 256.328 96.2682 256.812 96.7422 257.141C97.2214 257.464 97.8281 257.625 98.5625 257.625ZM112.021 259.25C110.896 259.25 109.928 258.984 109.115 258.453C108.303 257.922 107.678 257.19 107.24 256.258C106.803 255.326 106.584 254.26 106.584 253.062C106.584 251.844 106.808 250.768 107.256 249.836C107.709 248.898 108.339 248.167 109.146 247.641C109.959 247.109 110.907 246.844 111.99 246.844C112.834 246.844 113.594 247 114.271 247.312C114.949 247.625 115.503 248.062 115.936 248.625C116.368 249.187 116.636 249.844 116.74 250.594H114.896C114.756 250.047 114.443 249.562 113.959 249.141C113.48 248.714 112.834 248.5 112.021 248.5C111.303 248.5 110.673 248.687 110.131 249.062C109.594 249.432 109.175 249.956 108.873 250.633C108.576 251.305 108.428 252.094 108.428 253C108.428 253.927 108.574 254.734 108.865 255.422C109.162 256.109 109.579 256.643 110.115 257.023C110.657 257.404 111.292 257.594 112.021 257.594C112.501 257.594 112.936 257.51 113.326 257.344C113.717 257.177 114.048 256.938 114.318 256.625C114.589 256.312 114.782 255.937 114.896 255.5H116.74C116.636 256.208 116.378 256.846 115.967 257.414C115.561 257.977 115.021 258.424 114.35 258.758C113.683 259.086 112.907 259.25 112.021 259.25ZM119.436 259V247H121.279V259H119.436ZM120.373 245C120.014 245 119.704 244.878 119.443 244.633C119.188 244.388 119.061 244.094 119.061 243.75C119.061 243.406 119.188 243.112 119.443 242.867C119.704 242.622 120.014 242.5 120.373 242.5C120.732 242.5 121.04 242.622 121.295 242.867C121.555 243.112 121.686 243.406 121.686 243.75C121.686 244.094 121.555 244.388 121.295 244.633C121.04 244.878 120.732 245 120.373 245ZM129.531 259.25C128.448 259.25 127.497 258.992 126.68 258.477C125.867 257.961 125.232 257.24 124.773 256.312C124.32 255.385 124.094 254.302 124.094 253.062C124.094 251.812 124.32 250.721 124.773 249.789C125.232 248.857 125.867 248.133 126.68 247.617C127.497 247.102 128.448 246.844 129.531 246.844C130.615 246.844 131.563 247.102 132.375 247.617C133.193 248.133 133.828 248.857 134.281 249.789C134.74 250.721 134.969 251.812 134.969 253.062C134.969 254.302 134.74 255.385 134.281 256.312C133.828 257.24 133.193 257.961 132.375 258.477C131.563 258.992 130.615 259.25 129.531 259.25ZM129.531 257.594C130.354 257.594 131.031 257.383 131.562 256.961C132.094 256.539 132.487 255.984 132.742 255.297C132.997 254.609 133.125 253.865 133.125 253.062C133.125 252.26 132.997 251.513 132.742 250.82C132.487 250.128 132.094 249.568 131.562 249.141C131.031 248.714 130.354 248.5 129.531 248.5C128.708 248.5 128.031 248.714 127.5 249.141C126.969 249.568 126.576 250.128 126.32 250.82C126.065 251.513 125.938 252.26 125.938 253.062C125.938 253.865 126.065 254.609 126.32 255.297C126.576 255.984 126.969 256.539 127.5 256.961C128.031 257.383 128.708 257.594 129.531 257.594ZM128.688 245.375L130.594 241.75H132.75L130.313 245.375H128.688ZM139.627 251.781V259H137.783V247H139.564V248.875H139.721C140.002 248.266 140.429 247.776 141.002 247.406C141.575 247.031 142.314 246.844 143.221 246.844C144.033 246.844 144.744 247.01 145.354 247.344C145.963 247.672 146.437 248.172 146.775 248.844C147.114 249.51 147.283 250.354 147.283 251.375V259H145.439V251.5C145.439 250.557 145.195 249.823 144.705 249.297C144.215 248.766 143.544 248.5 142.689 248.5C142.101 248.5 141.575 248.628 141.111 248.883C140.653 249.138 140.291 249.51 140.025 250C139.76 250.49 139.627 251.083 139.627 251.781Z" fill="black"/>
<path d="M68.8125 106H66.875C66.7604 105.443 66.5599 104.953 66.2734 104.531C65.9922 104.109 65.6484 103.755 65.2422 103.469C64.8411 103.177 64.3958 102.958 63.9063 102.812C63.4167 102.667 62.9063 102.594 62.375 102.594C61.4063 102.594 60.5286 102.839 59.7422 103.328C58.9609 103.818 58.3385 104.539 57.875 105.492C57.4167 106.445 57.1875 107.615 57.1875 109C57.1875 110.385 57.4167 111.555 57.875 112.508C58.3385 113.461 58.9609 114.182 59.7422 114.672C60.5286 115.161 61.4063 115.406 62.375 115.406C62.9063 115.406 63.4167 115.333 63.9063 115.187C64.3958 115.042 64.8411 114.826 65.2422 114.539C65.6484 114.247 65.9922 113.891 66.2734 113.469C66.5599 113.042 66.7604 112.552 66.875 112H68.8125C68.6667 112.818 68.401 113.549 68.0156 114.195C67.6302 114.841 67.151 115.391 66.5781 115.844C66.0052 116.292 65.362 116.633 64.6484 116.867C63.9401 117.102 63.1823 117.219 62.375 117.219C61.0104 117.219 59.7969 116.885 58.7344 116.219C57.6719 115.552 56.8359 114.604 56.2266 113.375C55.6172 112.146 55.3125 110.687 55.3125 109C55.3125 107.312 55.6172 105.854 56.2266 104.625C56.8359 103.396 57.6719 102.448 58.7344 101.781C59.7969 101.115 61.0104 100.781 62.375 100.781C63.1823 100.781 63.9401 100.898 64.6484 101.133C65.362 101.367 66.0052 101.711 66.5781 102.164C67.151 102.612 67.6302 103.159 68.0156 103.805C68.401 104.445 68.6667 105.177 68.8125 106ZM75.2246 117.281C74.4642 117.281 73.7741 117.138 73.1543 116.852C72.5345 116.56 72.0423 116.141 71.6777 115.594C71.3132 115.042 71.1309 114.375 71.1309 113.594C71.1309 112.906 71.2663 112.349 71.5371 111.922C71.8079 111.49 72.1699 111.151 72.623 110.906C73.0762 110.661 73.5762 110.479 74.123 110.359C74.6751 110.234 75.2298 110.135 75.7871 110.063C76.5163 109.969 77.1074 109.898 77.5605 109.852C78.0189 109.799 78.3522 109.714 78.5605 109.594C78.7741 109.474 78.8809 109.266 78.8809 108.969V108.906C78.8809 108.135 78.6699 107.536 78.248 107.109C77.8314 106.682 77.1986 106.469 76.3496 106.469C75.4694 106.469 74.7793 106.661 74.2793 107.047C73.7793 107.432 73.4277 107.844 73.2246 108.281L71.4746 107.656C71.7871 106.927 72.2038 106.359 72.7246 105.953C73.2507 105.542 73.8236 105.255 74.4434 105.094C75.0684 104.927 75.6829 104.844 76.2871 104.844C76.6725 104.844 77.1152 104.891 77.6152 104.984C78.1204 105.073 78.6074 105.258 79.0762 105.539C79.5501 105.82 79.9434 106.245 80.2559 106.812C80.5684 107.38 80.7246 108.141 80.7246 109.094V117H78.8809V115.375H78.7871C78.6621 115.635 78.4538 115.914 78.1621 116.211C77.8704 116.508 77.4824 116.76 76.998 116.969C76.5137 117.177 75.9225 117.281 75.2246 117.281ZM75.5059 115.625C76.235 115.625 76.8496 115.482 77.3496 115.195C77.8548 114.909 78.235 114.539 78.4902 114.086C78.7507 113.633 78.8809 113.156 78.8809 112.656V110.969C78.8027 111.062 78.6309 111.148 78.3652 111.227C78.1048 111.299 77.8027 111.365 77.459 111.422C77.1204 111.474 76.7897 111.521 76.4668 111.562C76.1491 111.599 75.8913 111.63 75.6934 111.656C75.2142 111.719 74.7663 111.82 74.3496 111.961C73.9382 112.096 73.6048 112.302 73.3496 112.578C73.0996 112.849 72.9746 113.219 72.9746 113.687C72.9746 114.328 73.2116 114.812 73.6855 115.141C74.1647 115.464 74.7715 115.625 75.5059 115.625ZM85.9336 109.781V117H84.0898V105H85.8711V106.875H86.0273C86.3086 106.266 86.7357 105.776 87.3086 105.406C87.8815 105.031 88.6211 104.844 89.5273 104.844C90.3398 104.844 91.0508 105.01 91.6602 105.344C92.2695 105.672 92.7435 106.172 93.082 106.844C93.4206 107.51 93.5898 108.354 93.5898 109.375V117H91.7461V109.5C91.7461 108.557 91.5013 107.823 91.0117 107.297C90.5221 106.766 89.8503 106.5 88.9961 106.5C88.4076 106.5 87.8815 106.628 87.418 106.883C86.9596 107.138 86.5977 107.51 86.332 108C86.0664 108.49 85.9336 109.083 85.9336 109.781ZM102.178 105V106.562H95.959V105H102.178ZM97.7715 102.125H99.6152V113.562C99.6152 114.083 99.6908 114.474 99.8418 114.734C99.998 114.99 100.196 115.161 100.436 115.25C100.68 115.333 100.938 115.375 101.209 115.375C101.412 115.375 101.579 115.365 101.709 115.344C101.839 115.318 101.943 115.297 102.021 115.281L102.396 116.937C102.271 116.984 102.097 117.031 101.873 117.078C101.649 117.13 101.365 117.156 101.021 117.156C100.501 117.156 99.9902 117.044 99.4902 116.82C98.9954 116.596 98.584 116.255 98.2559 115.797C97.9329 115.339 97.7715 114.76 97.7715 114.062V102.125ZM104.951 117V105H106.795V117H104.951ZM105.889 103C105.529 103 105.219 102.878 104.959 102.633C104.704 102.388 104.576 102.094 104.576 101.75C104.576 101.406 104.704 101.112 104.959 100.867C105.219 100.622 105.529 100.5 105.889 100.5C106.248 100.5 106.555 100.622 106.811 100.867C107.071 101.112 107.201 101.406 107.201 101.75C107.201 102.094 107.071 102.388 106.811 102.633C106.555 102.878 106.248 103 105.889 103ZM114.703 117.25C113.703 117.25 112.82 116.997 112.055 116.492C111.289 115.982 110.69 115.263 110.258 114.336C109.826 113.404 109.609 112.302 109.609 111.031C109.609 109.771 109.826 108.677 110.258 107.75C110.69 106.823 111.292 106.107 112.063 105.602C112.833 105.096 113.724 104.844 114.734 104.844C115.516 104.844 116.133 104.974 116.586 105.234C117.044 105.49 117.393 105.781 117.633 106.109C117.878 106.432 118.068 106.698 118.203 106.906H118.359V101H120.203V117H118.422V115.156H118.203C118.068 115.375 117.875 115.651 117.625 115.984C117.375 116.312 117.018 116.607 116.555 116.867C116.091 117.122 115.474 117.25 114.703 117.25ZM114.953 115.594C115.693 115.594 116.318 115.401 116.828 115.016C117.339 114.625 117.727 114.086 117.992 113.398C118.258 112.706 118.391 111.906 118.391 111C118.391 110.104 118.26 109.32 118 108.648C117.74 107.971 117.354 107.445 116.844 107.07C116.333 106.69 115.703 106.5 114.953 106.5C114.172 106.5 113.521 106.701 113 107.102C112.484 107.497 112.096 108.036 111.836 108.719C111.581 109.396 111.453 110.156 111.453 111C111.453 111.854 111.583 112.63 111.844 113.328C112.109 114.021 112.5 114.573 113.016 114.984C113.536 115.391 114.182 115.594 114.953 115.594ZM127.367 117.281C126.607 117.281 125.917 117.138 125.297 116.852C124.677 116.56 124.185 116.141 123.82 115.594C123.456 115.042 123.273 114.375 123.273 113.594C123.273 112.906 123.409 112.349 123.68 111.922C123.951 111.49 124.313 111.151 124.766 110.906C125.219 110.661 125.719 110.479 126.266 110.359C126.818 110.234 127.372 110.135 127.93 110.063C128.659 109.969 129.25 109.898 129.703 109.852C130.161 109.799 130.495 109.714 130.703 109.594C130.917 109.474 131.023 109.266 131.023 108.969V108.906C131.023 108.135 130.813 107.536 130.391 107.109C129.974 106.682 129.341 106.469 128.492 106.469C127.612 106.469 126.922 106.661 126.422 107.047C125.922 107.432 125.57 107.844 125.367 108.281L123.617 107.656C123.93 106.927 124.346 106.359 124.867 105.953C125.393 105.542 125.966 105.255 126.586 105.094C127.211 104.927 127.826 104.844 128.43 104.844C128.815 104.844 129.258 104.891 129.758 104.984C130.263 105.073 130.75 105.258 131.219 105.539C131.693 105.82 132.086 106.245 132.398 106.812C132.711 107.38 132.867 108.141 132.867 109.094V117H131.023V115.375H130.93C130.805 115.635 130.596 115.914 130.305 116.211C130.013 116.508 129.625 116.76 129.141 116.969C128.656 117.177 128.065 117.281 127.367 117.281ZM127.648 115.625C128.378 115.625 128.992 115.482 129.492 115.195C129.997 114.909 130.378 114.539 130.633 114.086C130.893 113.633 131.023 113.156 131.023 112.656V110.969C130.945 111.062 130.773 111.148 130.508 111.227C130.247 111.299 129.945 111.365 129.602 111.422C129.263 111.474 128.932 111.521 128.609 111.562C128.292 111.599 128.034 111.63 127.836 111.656C127.357 111.719 126.909 111.82 126.492 111.961C126.081 112.096 125.747 112.302 125.492 112.578C125.242 112.849 125.117 113.219 125.117 113.687C125.117 114.328 125.354 114.812 125.828 115.141C126.307 115.464 126.914 115.625 127.648 115.625ZM140.764 117.25C139.764 117.25 138.881 116.997 138.115 116.492C137.35 115.982 136.751 115.263 136.318 114.336C135.886 113.404 135.67 112.302 135.67 111.031C135.67 109.771 135.886 108.677 136.318 107.75C136.751 106.823 137.352 106.107 138.123 105.602C138.894 105.096 139.785 104.844 140.795 104.844C141.576 104.844 142.193 104.974 142.646 105.234C143.105 105.49 143.454 105.781 143.693 106.109C143.938 106.432 144.128 106.698 144.264 106.906H144.42V101H146.264V117H144.482V115.156H144.264C144.128 115.375 143.936 115.651 143.686 115.984C143.436 116.312 143.079 116.607 142.615 116.867C142.152 117.122 141.535 117.25 140.764 117.25ZM141.014 115.594C141.753 115.594 142.378 115.401 142.889 115.016C143.399 114.625 143.787 114.086 144.053 113.398C144.318 112.706 144.451 111.906 144.451 111C144.451 110.104 144.321 109.32 144.061 108.648C143.8 107.971 143.415 107.445 142.904 107.07C142.394 106.69 141.764 106.5 141.014 106.5C140.232 106.5 139.581 106.701 139.061 107.102C138.545 107.497 138.157 108.036 137.896 108.719C137.641 109.396 137.514 110.156 137.514 111C137.514 111.854 137.644 112.63 137.904 113.328C138.17 114.021 138.561 114.573 139.076 114.984C139.597 115.391 140.243 115.594 141.014 115.594Z" fill="black"/>
<path d="M68.8125 291H66.875C66.7604 290.443 66.5599 289.953 66.2734 289.531C65.9922 289.109 65.6484 288.755 65.2422 288.469C64.8411 288.177 64.3958 287.958 63.9063 287.812C63.4167 287.667 62.9063 287.594 62.375 287.594C61.4063 287.594 60.5286 287.839 59.7422 288.328C58.9609 288.818 58.3385 289.539 57.875 290.492C57.4167 291.445 57.1875 292.615 57.1875 294C57.1875 295.385 57.4167 296.555 57.875 297.508C58.3385 298.461 58.9609 299.182 59.7422 299.672C60.5286 300.161 61.4063 300.406 62.375 300.406C62.9063 300.406 63.4167 300.333 63.9063 300.187C64.3958 300.042 64.8411 299.826 65.2422 299.539C65.6484 299.247 65.9922 298.891 66.2734 298.469C66.5599 298.042 66.7604 297.552 66.875 297H68.8125C68.6667 297.818 68.401 298.549 68.0156 299.195C67.6302 299.841 67.151 300.391 66.5781 300.844C66.0052 301.292 65.362 301.633 64.6484 301.867C63.9401 302.102 63.1823 302.219 62.375 302.219C61.0104 302.219 59.7969 301.885 58.7344 301.219C57.6719 300.552 56.8359 299.604 56.2266 298.375C55.6172 297.146 55.3125 295.687 55.3125 294C55.3125 292.312 55.6172 290.854 56.2266 289.625C56.8359 288.396 57.6719 287.448 58.7344 286.781C59.7969 286.115 61.0104 285.781 62.375 285.781C63.1823 285.781 63.9401 285.898 64.6484 286.133C65.362 286.367 66.0052 286.711 66.5781 287.164C67.151 287.612 67.6302 288.159 68.0156 288.805C68.401 289.445 68.6667 290.177 68.8125 291ZM75.2246 302.281C74.4642 302.281 73.7741 302.138 73.1543 301.852C72.5345 301.56 72.0423 301.141 71.6777 300.594C71.3132 300.042 71.1309 299.375 71.1309 298.594C71.1309 297.906 71.2663 297.349 71.5371 296.922C71.8079 296.49 72.1699 296.151 72.623 295.906C73.0762 295.661 73.5762 295.479 74.123 295.359C74.6751 295.234 75.2298 295.135 75.7871 295.063C76.5163 294.969 77.1074 294.898 77.5605 294.852C78.0189 294.799 78.3522 294.714 78.5605 294.594C78.7741 294.474 78.8809 294.266 78.8809 293.969V293.906C78.8809 293.135 78.6699 292.536 78.248 292.109C77.8314 291.682 77.1986 291.469 76.3496 291.469C75.4694 291.469 74.7793 291.661 74.2793 292.047C73.7793 292.432 73.4277 292.844 73.2246 293.281L71.4746 292.656C71.7871 291.927 72.2038 291.359 72.7246 290.953C73.2507 290.542 73.8236 290.255 74.4434 290.094C75.0684 289.927 75.6829 289.844 76.2871 289.844C76.6725 289.844 77.1152 289.891 77.6152 289.984C78.1204 290.073 78.6074 290.258 79.0762 290.539C79.5501 290.82 79.9434 291.245 80.2559 291.812C80.5684 292.38 80.7246 293.141 80.7246 294.094V302H78.8809V300.375H78.7871C78.6621 300.635 78.4538 300.914 78.1621 301.211C77.8704 301.508 77.4824 301.76 76.998 301.969C76.5137 302.177 75.9225 302.281 75.2246 302.281ZM75.5059 300.625C76.235 300.625 76.8496 300.482 77.3496 300.195C77.8548 299.909 78.235 299.539 78.4902 299.086C78.7507 298.633 78.8809 298.156 78.8809 297.656V295.969C78.8027 296.062 78.6309 296.148 78.3652 296.227C78.1048 296.299 77.8027 296.365 77.459 296.422C77.1204 296.474 76.7897 296.521 76.4668 296.562C76.1491 296.599 75.8913 296.63 75.6934 296.656C75.2142 296.719 74.7663 296.82 74.3496 296.961C73.9382 297.096 73.6048 297.302 73.3496 297.578C73.0996 297.849 72.9746 298.219 72.9746 298.687C72.9746 299.328 73.2116 299.812 73.6855 300.141C74.1647 300.464 74.7715 300.625 75.5059 300.625ZM85.9336 294.781V302H84.0898V290H85.8711V291.875H86.0273C86.3086 291.266 86.7357 290.776 87.3086 290.406C87.8815 290.031 88.6211 289.844 89.5273 289.844C90.3398 289.844 91.0508 290.01 91.6602 290.344C92.2695 290.672 92.7435 291.172 93.082 291.844C93.4206 292.51 93.5898 293.354 93.5898 294.375V302H91.7461V294.5C91.7461 293.557 91.5013 292.823 91.0117 292.297C90.5221 291.766 89.8503 291.5 88.9961 291.5C88.4076 291.5 87.8815 291.628 87.418 291.883C86.9596 292.138 86.5977 292.51 86.332 293C86.0664 293.49 85.9336 294.083 85.9336 294.781ZM102.178 290V291.562H95.959V290H102.178ZM97.7715 287.125H99.6152V298.562C99.6152 299.083 99.6908 299.474 99.8418 299.734C99.998 299.99 100.196 300.161 100.436 300.25C100.68 300.333 100.938 300.375 101.209 300.375C101.412 300.375 101.579 300.365 101.709 300.344C101.839 300.318 101.943 300.297 102.021 300.281L102.396 301.937C102.271 301.984 102.097 302.031 101.873 302.078C101.649 302.13 101.365 302.156 101.021 302.156C100.501 302.156 99.9902 302.044 99.4902 301.82C98.9954 301.596 98.584 301.255 98.2559 300.797C97.9329 300.339 97.7715 299.76 97.7715 299.062V287.125ZM104.951 302V290H106.795V302H104.951ZM105.889 288C105.529 288 105.219 287.878 104.959 287.633C104.704 287.388 104.576 287.094 104.576 286.75C104.576 286.406 104.704 286.112 104.959 285.867C105.219 285.622 105.529 285.5 105.889 285.5C106.248 285.5 106.555 285.622 106.811 285.867C107.071 286.112 107.201 286.406 107.201 286.75C107.201 287.094 107.071 287.388 106.811 287.633C106.555 287.878 106.248 288 105.889 288ZM114.703 302.25C113.703 302.25 112.82 301.997 112.055 301.492C111.289 300.982 110.69 300.263 110.258 299.336C109.826 298.404 109.609 297.302 109.609 296.031C109.609 294.771 109.826 293.677 110.258 292.75C110.69 291.823 111.292 291.107 112.063 290.602C112.833 290.096 113.724 289.844 114.734 289.844C115.516 289.844 116.133 289.974 116.586 290.234C117.044 290.49 117.393 290.781 117.633 291.109C117.878 291.432 118.068 291.698 118.203 291.906H118.359V286H120.203V302H118.422V300.156H118.203C118.068 300.375 117.875 300.651 117.625 300.984C117.375 301.312 117.018 301.607 116.555 301.867C116.091 302.122 115.474 302.25 114.703 302.25ZM114.953 300.594C115.693 300.594 116.318 300.401 116.828 300.016C117.339 299.625 117.727 299.086 117.992 298.398C118.258 297.706 118.391 296.906 118.391 296C118.391 295.104 118.26 294.32 118 293.648C117.74 292.971 117.354 292.445 116.844 292.07C116.333 291.69 115.703 291.5 114.953 291.5C114.172 291.5 113.521 291.701 113 292.102C112.484 292.497 112.096 293.036 111.836 293.719C111.581 294.396 111.453 295.156 111.453 296C111.453 296.854 111.583 297.63 111.844 298.328C112.109 299.021 112.5 299.573 113.016 299.984C113.536 300.391 114.182 300.594 114.953 300.594ZM127.367 302.281C126.607 302.281 125.917 302.138 125.297 301.852C124.677 301.56 124.185 301.141 123.82 300.594C123.456 300.042 123.273 299.375 123.273 298.594C123.273 297.906 123.409 297.349 123.68 296.922C123.951 296.49 124.313 296.151 124.766 295.906C125.219 295.661 125.719 295.479 126.266 295.359C126.818 295.234 127.372 295.135 127.93 295.063C128.659 294.969 129.25 294.898 129.703 294.852C130.161 294.799 130.495 294.714 130.703 294.594C130.917 294.474 131.023 294.266 131.023 293.969V293.906C131.023 293.135 130.813 292.536 130.391 292.109C129.974 291.682 129.341 291.469 128.492 291.469C127.612 291.469 126.922 291.661 126.422 292.047C125.922 292.432 125.57 292.844 125.367 293.281L123.617 292.656C123.93 291.927 124.346 291.359 124.867 290.953C125.393 290.542 125.966 290.255 126.586 290.094C127.211 289.927 127.826 289.844 128.43 289.844C128.815 289.844 129.258 289.891 129.758 289.984C130.263 290.073 130.75 290.258 131.219 290.539C131.693 290.82 132.086 291.245 132.398 291.812C132.711 292.38 132.867 293.141 132.867 294.094V302H131.023V300.375H130.93C130.805 300.635 130.596 300.914 130.305 301.211C130.013 301.508 129.625 301.76 129.141 301.969C128.656 302.177 128.065 302.281 127.367 302.281ZM127.648 300.625C128.378 300.625 128.992 300.482 129.492 300.195C129.997 299.909 130.378 299.539 130.633 299.086C130.893 298.633 131.023 298.156 131.023 297.656V295.969C130.945 296.062 130.773 296.148 130.508 296.227C130.247 296.299 129.945 296.365 129.602 296.422C129.263 296.474 128.932 296.521 128.609 296.562C128.292 296.599 128.034 296.63 127.836 296.656C127.357 296.719 126.909 296.82 126.492 296.961C126.081 297.096 125.747 297.302 125.492 297.578C125.242 297.849 125.117 298.219 125.117 298.687C125.117 299.328 125.354 299.812 125.828 300.141C126.307 300.464 126.914 300.625 127.648 300.625ZM140.764 302.25C139.764 302.25 138.881 301.997 138.115 301.492C137.35 300.982 136.751 300.263 136.318 299.336C135.886 298.404 135.67 297.302 135.67 296.031C135.67 294.771 135.886 293.677 136.318 292.75C136.751 291.823 137.352 291.107 138.123 290.602C138.894 290.096 139.785 289.844 140.795 289.844C141.576 289.844 142.193 289.974 142.646 290.234C143.105 290.49 143.454 290.781 143.693 291.109C143.938 291.432 144.128 291.698 144.264 291.906H144.42V286H146.264V302H144.482V300.156H144.264C144.128 300.375 143.936 300.651 143.686 300.984C143.436 301.312 143.079 301.607 142.615 301.867C142.152 302.122 141.535 302.25 140.764 302.25ZM141.014 300.594C141.753 300.594 142.378 300.401 142.889 300.016C143.399 299.625 143.787 299.086 144.053 298.398C144.318 297.706 144.451 296.906 144.451 296C144.451 295.104 144.321 294.32 144.061 293.648C143.8 292.971 143.415 292.445 142.904 292.07C142.394 291.69 141.764 291.5 141.014 291.5C140.232 291.5 139.581 291.701 139.061 292.102C138.545 292.497 138.157 293.036 137.896 293.719C137.641 294.396 137.514 295.156 137.514 296C137.514 296.854 137.644 297.63 137.904 298.328C138.17 299.021 138.561 299.573 139.076 299.984C139.597 300.391 140.243 300.594 141.014 300.594Z" fill="black"/>
<path d="M199.957 33V31.3381L206.199 24.5057C206.931 23.7055 207.535 23.0099 208.009 22.419C208.482 21.822 208.833 21.2618 209.061 20.7386C209.295 20.2093 209.412 19.6553 209.412 19.0767C209.412 18.4119 209.252 17.8364 208.932 17.3501C208.618 16.8639 208.187 16.4884 207.639 16.2237C207.091 15.959 206.476 15.8267 205.793 15.8267C205.066 15.8267 204.432 15.9775 203.891 16.2791C203.355 16.5746 202.94 16.9901 202.644 17.5256C202.355 18.0611 202.21 18.6889 202.21 19.4091H200.031C200.031 18.3011 200.287 17.3286 200.798 16.4915C201.308 15.6544 202.004 15.0019 202.884 14.5341C203.771 14.0663 204.765 13.8324 205.866 13.8324C206.974 13.8324 207.956 14.0663 208.812 14.5341C209.667 15.0019 210.338 15.6328 210.825 16.4268C211.311 17.2209 211.554 18.1042 211.554 19.0767C211.554 19.7723 211.428 20.4524 211.175 21.1172C210.929 21.7758 210.498 22.5114 209.883 23.3239C209.273 24.1302 208.427 25.1151 207.344 26.2784L203.097 30.821V30.9688H211.886V33H199.957Z" fill="black"/>
<path d="M199.957 218V216.338L206.199 209.506C206.931 208.705 207.535 208.01 208.009 207.419C208.482 206.822 208.833 206.262 209.061 205.739C209.295 205.209 209.412 204.655 209.412 204.077C209.412 203.412 209.252 202.836 208.932 202.35C208.618 201.864 208.187 201.488 207.639 201.224C207.091 200.959 206.476 200.827 205.793 200.827C205.066 200.827 204.432 200.978 203.891 201.279C203.355 201.575 202.94 201.99 202.644 202.526C202.355 203.061 202.21 203.689 202.21 204.409H200.031C200.031 203.301 200.287 202.329 200.798 201.491C201.308 200.654 202.004 200.002 202.884 199.534C203.771 199.066 204.765 198.832 205.866 198.832C206.974 198.832 207.956 199.066 208.812 199.534C209.667 200.002 210.338 200.633 210.825 201.427C211.311 202.221 211.554 203.104 211.554 204.077C211.554 204.772 211.428 205.452 211.175 206.117C210.929 206.776 210.498 207.511 209.883 208.324C209.273 209.13 208.427 210.115 207.344 211.278L203.097 215.821V215.969H211.886V218H199.957Z" fill="black"/>
<path d="M280.866 33.2585C279.783 33.2585 278.808 33.0431 277.94 32.6122C277.072 32.1813 276.376 31.5904 275.853 30.8395C275.33 30.0885 275.044 29.233 274.994 28.2727H277.21C277.296 29.1283 277.684 29.8362 278.374 30.3963C279.069 30.9503 279.9 31.2273 280.866 31.2273C281.642 31.2273 282.331 31.0457 282.935 30.6825C283.544 30.3194 284.021 29.8208 284.366 29.1868C284.717 28.5466 284.892 27.8234 284.892 27.017C284.892 26.1922 284.71 25.4567 284.347 24.8104C283.99 24.1579 283.498 23.6439 282.87 23.2685C282.242 22.893 281.525 22.7022 280.719 22.696C280.14 22.6899 279.546 22.7791 278.937 22.9638C278.327 23.1423 277.826 23.3731 277.432 23.6562L275.29 23.3977L276.435 14.0909H286.259V16.1222H278.355L277.69 21.6989H277.801C278.189 21.3911 278.675 21.1357 279.26 20.9325C279.845 20.7294 280.454 20.6278 281.088 20.6278C282.245 20.6278 283.276 20.9048 284.181 21.4588C285.092 22.0066 285.806 22.7576 286.323 23.7116C286.846 24.6657 287.108 25.7552 287.108 26.9801C287.108 28.1866 286.837 29.2637 286.295 30.2116C285.76 31.1534 285.021 31.8982 284.08 32.446C283.138 32.9877 282.067 33.2585 280.866 33.2585Z" fill="black"/>
<path d="M280.866 218.259C279.783 218.259 278.808 218.043 277.94 217.612C277.072 217.181 276.376 216.59 275.853 215.839C275.33 215.089 275.044 214.233 274.994 213.273H277.21C277.296 214.128 277.684 214.836 278.374 215.396C279.069 215.95 279.9 216.227 280.866 216.227C281.642 216.227 282.331 216.046 282.935 215.683C283.544 215.319 284.021 214.821 284.366 214.187C284.717 213.547 284.892 212.823 284.892 212.017C284.892 211.192 284.71 210.457 284.347 209.81C283.99 209.158 283.498 208.644 282.87 208.268C282.242 207.893 281.525 207.702 280.719 207.696C280.14 207.69 279.546 207.779 278.937 207.964C278.327 208.142 277.826 208.373 277.432 208.656L275.29 208.398L276.435 199.091H286.259V201.122H278.355L277.69 206.699H277.801C278.189 206.391 278.675 206.136 279.26 205.933C279.845 205.729 280.454 205.628 281.088 205.628C282.245 205.628 283.276 205.905 284.181 206.459C285.092 207.007 285.806 207.758 286.323 208.712C286.846 209.666 287.108 210.755 287.108 211.98C287.108 213.187 286.837 214.264 286.295 215.212C285.76 216.153 285.021 216.898 284.08 217.446C283.138 217.988 282.067 218.259 280.866 218.259Z" fill="black"/>
<path d="M349.514 29.1222V27.2386L357.824 14.0909H359.19V17.0085H358.267L351.989 26.9432V27.0909H363.179V29.1222H349.514ZM358.415 33V28.5497V27.6726V14.0909H360.594V33H358.415Z" fill="black"/>
<path d="M349.514 214.122V212.239L357.824 199.091H359.19V202.009H358.267L351.989 211.943V212.091H363.179V214.122H349.514ZM358.415 218V213.55V212.673V199.091H360.594V218H358.415Z" fill="black"/>
<path d="M424.548 33L433.006 16.2699V16.1222H423.256V14.0909H435.369V16.233L426.949 33H424.548Z" fill="black"/>
<path d="M424.548 218L433.006 201.27V201.122H423.256V199.091H435.369V201.233L426.949 218H424.548Z" fill="black"/>
<path d="M206.125 76.2585C204.734 76.2585 203.549 75.88 202.57 75.1229C201.592 74.3596 200.844 73.2547 200.327 71.8082C199.81 70.3556 199.551 68.6013 199.551 66.5455C199.551 64.5019 199.81 62.7569 200.327 61.3104C200.85 59.8577 201.601 58.7498 202.58 57.9865C203.564 57.2171 204.746 56.8324 206.125 56.8324C207.504 56.8324 208.683 57.2171 209.661 57.9865C210.646 58.7498 211.397 59.8577 211.914 61.3104C212.437 62.7569 212.699 64.5019 212.699 66.5455C212.699 68.6013 212.44 70.3556 211.923 71.8082C211.406 73.2547 210.658 74.3596 209.68 75.1229C208.701 75.88 207.516 76.2585 206.125 76.2585ZM206.125 74.2273C207.504 74.2273 208.575 73.5625 209.338 72.233C210.101 70.9034 210.483 69.0076 210.483 66.5455C210.483 64.9081 210.308 63.514 209.957 62.3629C209.612 61.2119 209.113 60.3348 208.461 59.7315C207.815 59.1283 207.036 58.8267 206.125 58.8267C204.759 58.8267 203.691 59.5007 202.921 60.8487C202.152 62.1906 201.767 64.0895 201.767 66.5455C201.767 68.1828 201.939 69.5739 202.284 70.7188C202.629 71.8636 203.124 72.7346 203.771 73.3317C204.423 73.9287 205.208 74.2273 206.125 74.2273Z" fill="black"/>
<path d="M206.125 261.259C204.734 261.259 203.549 260.88 202.57 260.123C201.592 259.36 200.844 258.255 200.327 256.808C199.81 255.356 199.551 253.601 199.551 251.545C199.551 249.502 199.81 247.757 200.327 246.31C200.85 244.858 201.601 243.75 202.58 242.987C203.564 242.217 204.746 241.832 206.125 241.832C207.504 241.832 208.683 242.217 209.661 242.987C210.646 243.75 211.397 244.858 211.914 246.31C212.437 247.757 212.699 249.502 212.699 251.545C212.699 253.601 212.44 255.356 211.923 256.808C211.406 258.255 210.658 259.36 209.68 260.123C208.701 260.88 207.516 261.259 206.125 261.259ZM206.125 259.227C207.504 259.227 208.575 258.562 209.338 257.233C210.101 255.903 210.483 254.008 210.483 251.545C210.483 249.908 210.308 248.514 209.957 247.363C209.612 246.212 209.113 245.335 208.461 244.732C207.815 244.128 207.036 243.827 206.125 243.827C204.759 243.827 203.691 244.501 202.921 245.849C202.152 247.191 201.767 249.089 201.767 251.545C201.767 253.183 201.939 254.574 202.284 255.719C202.629 256.864 203.124 257.735 203.771 258.332C204.423 258.929 205.208 259.227 206.125 259.227Z" fill="black"/>
<path d="M281.605 57.0909V76H279.315V59.4915H279.205L274.588 62.5568V60.2301L279.315 57.0909H281.605Z" fill="black"/>
<path d="M281.605 242.091V261H279.315V244.491H279.205L274.588 247.557V245.23L279.315 242.091H281.605Z" fill="black"/>
<path d="M356.605 57.0909V76H354.315V59.4915H354.205L349.588 62.5568V60.2301L354.315 57.0909H356.605Z" fill="black"/>
<path d="M356.605 242.091V261H354.315V244.491H354.205L349.588 247.557V245.23L354.315 242.091H356.605Z" fill="black"/>
<path d="M430.125 76.2585C428.734 76.2585 427.549 75.88 426.57 75.1229C425.592 74.3596 424.844 73.2547 424.327 71.8082C423.81 70.3556 423.551 68.6013 423.551 66.5455C423.551 64.5019 423.81 62.7569 424.327 61.3104C424.85 59.8577 425.601 58.7498 426.58 57.9865C427.564 57.2171 428.746 56.8324 430.125 56.8324C431.504 56.8324 432.683 57.2171 433.661 57.9865C434.646 58.7498 435.397 59.8577 435.914 61.3104C436.437 62.7569 436.699 64.5019 436.699 66.5455C436.699 68.6013 436.44 70.3556 435.923 71.8082C435.406 73.2547 434.658 74.3596 433.68 75.1229C432.701 75.88 431.516 76.2585 430.125 76.2585ZM430.125 74.2273C431.504 74.2273 432.575 73.5625 433.338 72.233C434.101 70.9034 434.483 69.0076 434.483 66.5455C434.483 64.9081 434.308 63.514 433.957 62.3629C433.612 61.2119 433.113 60.3348 432.461 59.7315C431.815 59.1283 431.036 58.8267 430.125 58.8267C428.759 58.8267 427.691 59.5007 426.921 60.8487C426.152 62.1906 425.767 64.0895 425.767 66.5455C425.767 68.1828 425.939 69.5739 426.284 70.7188C426.629 71.8636 427.124 72.7346 427.771 73.3317C428.423 73.9287 429.208 74.2273 430.125 74.2273Z" fill="black"/>
<path d="M430.125 261.259C428.734 261.259 427.549 260.88 426.57 260.123C425.592 259.36 424.844 258.255 424.327 256.808C423.81 255.356 423.551 253.601 423.551 251.545C423.551 249.502 423.81 247.757 424.327 246.31C424.85 244.858 425.601 243.75 426.58 242.987C427.564 242.217 428.746 241.832 430.125 241.832C431.504 241.832 432.683 242.217 433.661 242.987C434.646 243.75 435.397 244.858 435.914 246.31C436.437 247.757 436.699 249.502 436.699 251.545C436.699 253.601 436.44 255.356 435.923 256.808C435.406 258.255 434.658 259.36 433.68 260.123C432.701 260.88 431.516 261.259 430.125 261.259ZM430.125 259.227C431.504 259.227 432.575 258.562 433.338 257.233C434.101 255.903 434.483 254.008 434.483 251.545C434.483 249.908 434.308 248.514 433.957 247.363C433.612 246.212 433.113 245.335 432.461 244.732C431.815 244.128 431.036 243.827 430.125 243.827C428.759 243.827 427.691 244.501 426.921 245.849C426.152 247.191 425.767 249.089 425.767 251.545C425.767 253.183 425.939 254.574 426.284 255.719C426.629 256.864 427.124 257.735 427.771 258.332C428.423 258.929 429.208 259.227 430.125 259.227Z" fill="black"/>
<path d="M196.957 119V117.338L203.199 110.506C203.931 109.705 204.535 109.01 205.009 108.419C205.482 107.822 205.833 107.262 206.061 106.739C206.295 106.209 206.412 105.655 206.412 105.077C206.412 104.412 206.252 103.836 205.932 103.35C205.618 102.864 205.187 102.488 204.639 102.224C204.091 101.959 203.476 101.827 202.793 101.827C202.066 101.827 201.432 101.978 200.891 102.279C200.355 102.575 199.94 102.99 199.644 103.526C199.355 104.061 199.21 104.689 199.21 105.409H197.031C197.031 104.301 197.287 103.329 197.798 102.491C198.308 101.654 199.004 101.002 199.884 100.534C200.771 100.066 201.765 99.8324 202.866 99.8324C203.974 99.8324 204.956 100.066 205.812 100.534C206.667 101.002 207.338 101.633 207.825 102.427C208.311 103.221 208.554 104.104 208.554 105.077C208.554 105.772 208.428 106.452 208.175 107.117C207.929 107.776 207.498 108.511 206.883 109.324C206.273 110.13 205.427 111.115 204.344 112.278L200.097 116.821V116.969H208.886V119H196.957ZM213.29 119L221.748 102.27V102.122H211.998V100.091H224.112V102.233L215.691 119H213.29Z" fill="black"/>
<path d="M196.957 304V302.338L203.199 295.506C203.931 294.705 204.535 294.01 205.009 293.419C205.482 292.822 205.833 292.262 206.061 291.739C206.295 291.209 206.412 290.655 206.412 290.077C206.412 289.412 206.252 288.836 205.932 288.35C205.618 287.864 205.187 287.488 204.639 287.224C204.091 286.959 203.476 286.827 202.793 286.827C202.066 286.827 201.432 286.978 200.891 287.279C200.355 287.575 199.94 287.99 199.644 288.526C199.355 289.061 199.21 289.689 199.21 290.409H197.031C197.031 289.301 197.287 288.329 197.798 287.491C198.308 286.654 199.004 286.002 199.884 285.534C200.771 285.066 201.765 284.832 202.866 284.832C203.974 284.832 204.956 285.066 205.812 285.534C206.667 286.002 207.338 286.633 207.825 287.427C208.311 288.221 208.554 289.104 208.554 290.077C208.554 290.772 208.428 291.452 208.175 292.117C207.929 292.776 207.498 293.511 206.883 294.324C206.273 295.13 205.427 296.115 204.344 297.278L200.097 301.821V301.969H208.886V304H196.957ZM213.29 304L221.748 287.27V287.122H211.998V285.091H224.112V287.233L215.691 304H213.29Z" fill="black"/>
<path d="M279.605 100.091V119H277.315V102.491H277.205L272.588 105.557V103.23L277.315 100.091H279.605ZM291.211 119.259C289.82 119.259 288.635 118.88 287.656 118.123C286.678 117.36 285.93 116.255 285.413 114.808C284.896 113.356 284.637 111.601 284.637 109.545C284.637 107.502 284.896 105.757 285.413 104.31C285.936 102.858 286.687 101.75 287.665 100.987C288.65 100.217 289.832 99.8324 291.211 99.8324C292.59 99.8324 293.768 100.217 294.747 100.987C295.732 101.75 296.483 102.858 297 104.31C297.523 105.757 297.785 107.502 297.785 109.545C297.785 111.601 297.526 113.356 297.009 114.808C296.492 116.255 295.744 117.36 294.766 118.123C293.787 118.88 292.602 119.259 291.211 119.259ZM291.211 117.227C292.59 117.227 293.661 116.562 294.424 115.233C295.187 113.903 295.569 112.008 295.569 109.545C295.569 107.908 295.393 106.514 295.043 105.363C294.698 104.212 294.199 103.335 293.547 102.732C292.901 102.128 292.122 101.827 291.211 101.827C289.844 101.827 288.777 102.501 288.007 103.849C287.238 105.191 286.853 107.089 286.853 109.545C286.853 111.183 287.025 112.574 287.37 113.719C287.715 114.864 288.21 115.735 288.857 116.332C289.509 116.929 290.294 117.227 291.211 117.227Z" fill="black"/>
<path d="M279.605 285.091V304H277.315V287.491H277.205L272.588 290.557V288.23L277.315 285.091H279.605ZM291.211 304.259C289.82 304.259 288.635 303.88 287.656 303.123C286.678 302.36 285.93 301.255 285.413 299.808C284.896 298.356 284.637 296.601 284.637 294.545C284.637 292.502 284.896 290.757 285.413 289.31C285.936 287.858 286.687 286.75 287.665 285.987C288.65 285.217 289.832 284.832 291.211 284.832C292.59 284.832 293.768 285.217 294.747 285.987C295.732 286.75 296.483 287.858 297 289.31C297.523 290.757 297.785 292.502 297.785 294.545C297.785 296.601 297.526 298.356 297.009 299.808C296.492 301.255 295.744 302.36 294.766 303.123C293.787 303.88 292.602 304.259 291.211 304.259ZM291.211 302.227C292.59 302.227 293.661 301.562 294.424 300.233C295.187 298.903 295.569 297.008 295.569 294.545C295.569 292.908 295.393 291.514 295.043 290.363C294.698 289.212 294.199 288.335 293.547 287.732C292.901 287.128 292.122 286.827 291.211 286.827C289.844 286.827 288.777 287.501 288.007 288.849C287.238 290.191 286.853 292.089 286.853 294.545C286.853 296.183 287.025 297.574 287.37 298.719C287.715 299.864 288.21 300.735 288.857 301.332C289.509 301.929 290.294 302.227 291.211 302.227Z" fill="black"/>
<path d="M354.605 100.091V119H352.315V102.491H352.205L347.588 105.557V103.23L352.315 100.091H354.605ZM366.1 119.259C364.832 119.259 363.712 119.034 362.739 118.585C361.773 118.129 361.019 117.504 360.477 116.71C359.936 115.91 359.668 114.999 359.674 113.977C359.668 113.177 359.825 112.438 360.145 111.761C360.465 111.078 360.902 110.509 361.456 110.053C362.016 109.592 362.641 109.299 363.33 109.176V109.065C362.425 108.831 361.705 108.324 361.17 107.542C360.634 106.754 360.37 105.858 360.376 104.855C360.37 103.895 360.613 103.036 361.105 102.279C361.598 101.522 362.275 100.925 363.136 100.488C364.004 100.051 364.992 99.8324 366.1 99.8324C367.196 99.8324 368.174 100.051 369.036 100.488C369.898 100.925 370.575 101.522 371.067 102.279C371.566 103.036 371.818 103.895 371.825 104.855C371.818 105.858 371.545 106.754 371.003 107.542C370.467 108.324 369.756 108.831 368.87 109.065V109.176C369.553 109.299 370.169 109.592 370.717 110.053C371.264 110.509 371.701 111.078 372.028 111.761C372.354 112.438 372.52 113.177 372.526 113.977C372.52 114.999 372.243 115.91 371.695 116.71C371.154 117.504 370.4 118.129 369.433 118.585C368.473 119.034 367.362 119.259 366.1 119.259ZM366.1 117.227C366.956 117.227 367.694 117.089 368.316 116.812C368.938 116.535 369.418 116.144 369.756 115.639C370.095 115.134 370.267 114.544 370.273 113.866C370.267 113.152 370.083 112.522 369.719 111.974C369.356 111.426 368.861 110.995 368.233 110.681C367.611 110.367 366.9 110.21 366.1 110.21C365.294 110.21 364.574 110.367 363.94 110.681C363.312 110.995 362.816 111.426 362.453 111.974C362.096 112.522 361.921 113.152 361.927 113.866C361.921 114.544 362.084 115.134 362.416 115.639C362.755 116.144 363.238 116.535 363.866 116.812C364.494 117.089 365.238 117.227 366.1 117.227ZM366.1 108.253C366.777 108.253 367.377 108.117 367.901 107.847C368.43 107.576 368.845 107.197 369.147 106.711C369.449 106.225 369.603 105.655 369.609 105.003C369.603 104.363 369.452 103.806 369.156 103.332C368.861 102.852 368.451 102.482 367.928 102.224C367.405 101.959 366.796 101.827 366.1 101.827C365.392 101.827 364.774 101.959 364.244 102.224C363.715 102.482 363.306 102.852 363.016 103.332C362.727 103.806 362.585 104.363 362.592 105.003C362.585 105.655 362.73 106.225 363.026 106.711C363.327 107.197 363.743 107.576 364.272 107.847C364.801 108.117 365.411 108.253 366.1 108.253Z" fill="black"/>
<path d="M354.605 285.091V304H352.315V287.491H352.205L347.588 290.557V288.23L352.315 285.091H354.605ZM366.1 304.259C364.832 304.259 363.712 304.034 362.739 303.585C361.773 303.129 361.019 302.504 360.477 301.71C359.936 300.91 359.668 299.999 359.674 298.977C359.668 298.177 359.825 297.438 360.145 296.761C360.465 296.078 360.902 295.509 361.456 295.053C362.016 294.592 362.641 294.299 363.33 294.176V294.065C362.425 293.831 361.705 293.324 361.17 292.542C360.634 291.754 360.37 290.858 360.376 289.855C360.37 288.895 360.613 288.036 361.105 287.279C361.598 286.522 362.275 285.925 363.136 285.488C364.004 285.051 364.992 284.832 366.1 284.832C367.196 284.832 368.174 285.051 369.036 285.488C369.898 285.925 370.575 286.522 371.067 287.279C371.566 288.036 371.818 288.895 371.825 289.855C371.818 290.858 371.545 291.754 371.003 292.542C370.467 293.324 369.756 293.831 368.87 294.065V294.176C369.553 294.299 370.169 294.592 370.717 295.053C371.264 295.509 371.701 296.078 372.028 296.761C372.354 297.438 372.52 298.177 372.526 298.977C372.52 299.999 372.243 300.91 371.695 301.71C371.154 302.504 370.4 303.129 369.433 303.585C368.473 304.034 367.362 304.259 366.1 304.259ZM366.1 302.227C366.956 302.227 367.694 302.089 368.316 301.812C368.938 301.535 369.418 301.144 369.756 300.639C370.095 300.134 370.267 299.544 370.273 298.866C370.267 298.152 370.083 297.522 369.719 296.974C369.356 296.426 368.861 295.995 368.233 295.681C367.611 295.367 366.9 295.21 366.1 295.21C365.294 295.21 364.574 295.367 363.94 295.681C363.312 295.995 362.816 296.426 362.453 296.974C362.096 297.522 361.921 298.152 361.927 298.866C361.921 299.544 362.084 300.134 362.416 300.639C362.755 301.144 363.238 301.535 363.866 301.812C364.494 302.089 365.238 302.227 366.1 302.227ZM366.1 293.253C366.777 293.253 367.377 293.117 367.901 292.847C368.43 292.576 368.845 292.197 369.147 291.711C369.449 291.225 369.603 290.655 369.609 290.003C369.603 289.363 369.452 288.806 369.156 288.332C368.861 287.852 368.451 287.482 367.928 287.224C367.405 286.959 366.796 286.827 366.1 286.827C365.392 286.827 364.774 286.959 364.244 287.224C363.715 287.482 363.306 287.852 363.016 288.332C362.727 288.806 362.585 289.363 362.592 290.003C362.585 290.655 362.73 291.225 363.026 291.711C363.327 292.197 363.743 292.576 364.272 292.847C364.801 293.117 365.411 293.253 366.1 293.253Z" fill="black"/>
<path d="M428.605 100.091V119H426.315V102.491H426.205L421.588 105.557V103.23L426.315 100.091H428.605ZM440.433 119.259C439.214 119.259 438.127 119.049 437.173 118.631C436.225 118.212 435.471 117.63 434.911 116.886C434.357 116.135 434.056 115.264 434.006 114.273H436.333C436.382 114.882 436.592 115.408 436.961 115.852C437.33 116.289 437.813 116.627 438.411 116.867C439.008 117.107 439.669 117.227 440.396 117.227C441.208 117.227 441.928 117.086 442.556 116.803C443.184 116.519 443.676 116.125 444.033 115.621C444.39 115.116 444.569 114.531 444.569 113.866C444.569 113.171 444.397 112.558 444.052 112.029C443.707 111.494 443.202 111.075 442.538 110.773C441.873 110.472 441.06 110.321 440.1 110.321H438.586V108.29H440.1C440.851 108.29 441.51 108.154 442.076 107.884C442.648 107.613 443.095 107.231 443.415 106.739C443.741 106.246 443.904 105.668 443.904 105.003C443.904 104.363 443.763 103.806 443.479 103.332C443.196 102.858 442.796 102.488 442.279 102.224C441.768 101.959 441.165 101.827 440.469 101.827C439.817 101.827 439.201 101.947 438.623 102.187C438.05 102.421 437.583 102.762 437.219 103.212C436.856 103.655 436.659 104.19 436.629 104.818H434.413C434.45 103.827 434.748 102.959 435.308 102.214C435.868 101.464 436.601 100.879 437.506 100.46C438.417 100.042 439.417 99.8324 440.506 99.8324C441.676 99.8324 442.679 100.069 443.516 100.543C444.353 101.011 444.997 101.63 445.446 102.399C445.895 103.169 446.12 104 446.12 104.892C446.12 105.957 445.84 106.865 445.28 107.616C444.726 108.367 443.972 108.887 443.018 109.176V109.324C444.212 109.521 445.144 110.029 445.815 110.847C446.486 111.66 446.822 112.666 446.822 113.866C446.822 114.894 446.542 115.818 445.982 116.636C445.428 117.449 444.67 118.089 443.71 118.557C442.75 119.025 441.657 119.259 440.433 119.259Z" fill="black"/>
<path d="M428.605 285.091V304H426.315V287.491H426.205L421.588 290.557V288.23L426.315 285.091H428.605ZM440.433 304.259C439.214 304.259 438.127 304.049 437.173 303.631C436.225 303.212 435.471 302.63 434.911 301.886C434.357 301.135 434.056 300.264 434.006 299.273H436.333C436.382 299.882 436.592 300.408 436.961 300.852C437.33 301.289 437.813 301.627 438.411 301.867C439.008 302.107 439.669 302.227 440.396 302.227C441.208 302.227 441.928 302.086 442.556 301.803C443.184 301.519 443.676 301.125 444.033 300.621C444.39 300.116 444.569 299.531 444.569 298.866C444.569 298.171 444.397 297.558 444.052 297.029C443.707 296.494 443.202 296.075 442.538 295.773C441.873 295.472 441.06 295.321 440.1 295.321H438.586V293.29H440.1C440.851 293.29 441.51 293.154 442.076 292.884C442.648 292.613 443.095 292.231 443.415 291.739C443.741 291.246 443.904 290.668 443.904 290.003C443.904 289.363 443.763 288.806 443.479 288.332C443.196 287.858 442.796 287.488 442.279 287.224C441.768 286.959 441.165 286.827 440.469 286.827C439.817 286.827 439.201 286.947 438.623 287.187C438.05 287.421 437.583 287.762 437.219 288.212C436.856 288.655 436.659 289.19 436.629 289.818H434.413C434.45 288.827 434.748 287.959 435.308 287.214C435.868 286.464 436.601 285.879 437.506 285.46C438.417 285.042 439.417 284.832 440.506 284.832C441.676 284.832 442.679 285.069 443.516 285.543C444.353 286.011 444.997 286.63 445.446 287.399C445.895 288.169 446.12 289 446.12 289.892C446.12 290.957 445.84 291.865 445.28 292.616C444.726 293.367 443.972 293.887 443.018 294.176V294.324C444.212 294.521 445.144 295.029 445.815 295.847C446.486 296.66 446.822 297.666 446.822 298.866C446.822 299.894 446.542 300.818 445.982 301.636C445.428 302.449 444.67 303.089 443.71 303.557C442.75 304.025 441.657 304.259 440.433 304.259Z" fill="black"/>
<path d="M504.014 34.2585C502.746 34.2585 501.626 34.0339 500.653 33.5845C499.687 33.129 498.933 32.5043 498.391 31.7102C497.85 30.91 497.582 29.9991 497.588 28.9773C497.582 28.1771 497.739 27.4384 498.059 26.7614C498.379 26.0781 498.816 25.5088 499.37 25.0533C499.93 24.5916 500.555 24.2992 501.244 24.1761V24.0653C500.339 23.8314 499.619 23.3236 499.084 22.5419C498.548 21.754 498.284 20.8584 498.29 19.8551C498.284 18.8949 498.527 18.0362 499.019 17.2791C499.512 16.522 500.189 15.925 501.05 15.4879C501.918 15.0509 502.906 14.8324 504.014 14.8324C505.11 14.8324 506.089 15.0509 506.95 15.4879C507.812 15.925 508.489 16.522 508.982 17.2791C509.48 18.0362 509.732 18.8949 509.739 19.8551C509.732 20.8584 509.459 21.754 508.917 22.5419C508.381 23.3236 507.67 23.8314 506.784 24.0653V24.1761C507.467 24.2992 508.083 24.5916 508.631 25.0533C509.179 25.5088 509.616 26.0781 509.942 26.7614C510.268 27.4384 510.434 28.1771 510.44 28.9773C510.434 29.9991 510.157 30.91 509.609 31.7102C509.068 32.5043 508.314 33.129 507.347 33.5845C506.387 34.0339 505.276 34.2585 504.014 34.2585ZM504.014 32.2273C504.87 32.2273 505.608 32.0888 506.23 31.8118C506.852 31.5348 507.332 31.1439 507.67 30.6392C508.009 30.1345 508.181 29.5436 508.188 28.8665C508.181 28.1525 507.997 27.5215 507.634 26.9737C507.27 26.4259 506.775 25.995 506.147 25.6811C505.525 25.3672 504.814 25.2102 504.014 25.2102C503.208 25.2102 502.488 25.3672 501.854 25.6811C501.226 25.995 500.73 26.4259 500.367 26.9737C500.01 27.5215 499.835 28.1525 499.841 28.8665C499.835 29.5436 499.998 30.1345 500.33 30.6392C500.669 31.1439 501.152 31.5348 501.78 31.8118C502.408 32.0888 503.152 32.2273 504.014 32.2273ZM504.014 23.2528C504.691 23.2528 505.291 23.1174 505.815 22.8466C506.344 22.5758 506.759 22.1972 507.061 21.7109C507.363 21.2247 507.517 20.6553 507.523 20.0028C507.517 19.3627 507.366 18.8056 507.07 18.3317C506.775 17.8516 506.366 17.4822 505.842 17.2237C505.319 16.959 504.71 16.8267 504.014 16.8267C503.306 16.8267 502.688 16.959 502.158 17.2237C501.629 17.4822 501.22 17.8516 500.93 18.3317C500.641 18.8056 500.5 19.3627 500.506 20.0028C500.5 20.6553 500.644 21.2247 500.94 21.7109C501.241 22.1972 501.657 22.5758 502.186 22.8466C502.715 23.1174 503.325 23.2528 504.014 23.2528Z" fill="black"/>
<path d="M504.014 219.259C502.746 219.259 501.626 219.034 500.653 218.585C499.687 218.129 498.933 217.504 498.391 216.71C497.85 215.91 497.582 214.999 497.588 213.977C497.582 213.177 497.739 212.438 498.059 211.761C498.379 211.078 498.816 210.509 499.37 210.053C499.93 209.592 500.555 209.299 501.244 209.176V209.065C500.339 208.831 499.619 208.324 499.084 207.542C498.548 206.754 498.284 205.858 498.29 204.855C498.284 203.895 498.527 203.036 499.019 202.279C499.512 201.522 500.189 200.925 501.05 200.488C501.918 200.051 502.906 199.832 504.014 199.832C505.11 199.832 506.089 200.051 506.95 200.488C507.812 200.925 508.489 201.522 508.982 202.279C509.48 203.036 509.732 203.895 509.739 204.855C509.732 205.858 509.459 206.754 508.917 207.542C508.381 208.324 507.67 208.831 506.784 209.065V209.176C507.467 209.299 508.083 209.592 508.631 210.053C509.179 210.509 509.616 211.078 509.942 211.761C510.268 212.438 510.434 213.177 510.44 213.977C510.434 214.999 510.157 215.91 509.609 216.71C509.068 217.504 508.314 218.129 507.347 218.585C506.387 219.034 505.276 219.259 504.014 219.259ZM504.014 217.227C504.87 217.227 505.608 217.089 506.23 216.812C506.852 216.535 507.332 216.144 507.67 215.639C508.009 215.134 508.181 214.544 508.188 213.866C508.181 213.152 507.997 212.522 507.634 211.974C507.27 211.426 506.775 210.995 506.147 210.681C505.525 210.367 504.814 210.21 504.014 210.21C503.208 210.21 502.488 210.367 501.854 210.681C501.226 210.995 500.73 211.426 500.367 211.974C500.01 212.522 499.835 213.152 499.841 213.866C499.835 214.544 499.998 215.134 500.33 215.639C500.669 216.144 501.152 216.535 501.78 216.812C502.408 217.089 503.152 217.227 504.014 217.227ZM504.014 208.253C504.691 208.253 505.291 208.117 505.815 207.847C506.344 207.576 506.759 207.197 507.061 206.711C507.363 206.225 507.517 205.655 507.523 205.003C507.517 204.363 507.366 203.806 507.07 203.332C506.775 202.852 506.366 202.482 505.842 202.224C505.319 201.959 504.71 201.827 504.014 201.827C503.306 201.827 502.688 201.959 502.158 202.224C501.629 202.482 501.22 202.852 500.93 203.332C500.641 203.806 500.5 204.363 500.506 205.003C500.5 205.655 500.644 206.225 500.94 206.711C501.241 207.197 501.657 207.576 502.186 207.847C502.715 208.117 503.325 208.253 504.014 208.253Z" fill="black"/>
<path d="M579.605 15.0909V34H577.315V17.4915H577.205L572.588 20.5568V18.2301L577.315 15.0909H579.605Z" fill="black"/>
<path d="M579.605 200.091V219H577.315V202.491H577.205L572.588 205.557V203.23L577.315 200.091H579.605Z" fill="black"/>
<path d="M654.236 34.2585C653.46 34.2462 652.685 34.0985 651.909 33.8153C651.134 33.5322 650.426 33.0552 649.786 32.3842C649.145 31.7071 648.631 30.7931 648.244 29.642C647.856 28.4848 647.662 27.0322 647.662 25.2841C647.662 23.6098 647.819 22.1264 648.133 20.8338C648.447 19.535 648.902 18.4425 649.499 17.5561C650.096 16.6636 650.817 15.9865 651.66 15.5249C652.509 15.0632 653.466 14.8324 654.531 14.8324C655.59 14.8324 656.532 15.0447 657.357 15.4695C658.188 15.888 658.865 16.4728 659.388 17.2237C659.911 17.9747 660.25 18.8395 660.403 19.8182H658.151C657.941 18.9687 657.535 18.264 656.932 17.7038C656.329 17.1437 655.528 16.8636 654.531 16.8636C653.066 16.8636 651.912 17.5007 651.069 18.7749C650.232 20.049 649.81 21.8371 649.804 24.1392H649.952C650.296 23.616 650.706 23.1697 651.18 22.8004C651.66 22.425 652.189 22.1357 652.768 21.9325C653.346 21.7294 653.959 21.6278 654.605 21.6278C655.688 21.6278 656.679 21.8987 657.578 22.4403C658.477 22.9759 659.197 23.7176 659.739 24.6655C660.28 25.6072 660.551 26.6875 660.551 27.9062C660.551 29.0758 660.29 30.1468 659.766 31.1193C659.243 32.0857 658.508 32.8551 657.56 33.4276C656.618 33.9938 655.51 34.2708 654.236 34.2585ZM654.236 32.2273C655.011 32.2273 655.707 32.0334 656.322 31.6456C656.944 31.2578 657.433 30.7377 657.79 30.0852C658.154 29.4328 658.335 28.7064 658.335 27.9062C658.335 27.1245 658.16 26.4136 657.809 25.7734C657.464 25.1271 656.987 24.6132 656.378 24.2315C655.775 23.8499 655.085 23.6591 654.31 23.6591C653.725 23.6591 653.18 23.776 652.675 24.0099C652.171 24.2377 651.728 24.5516 651.346 24.9517C650.97 25.3518 650.675 25.8104 650.46 26.3274C650.244 26.8383 650.136 27.3769 650.136 27.9432C650.136 28.6941 650.312 29.3958 650.663 30.0483C651.02 30.7008 651.506 31.227 652.121 31.6271C652.743 32.0272 653.448 32.2273 654.236 32.2273Z" fill="black"/>
<path d="M654.236 219.259C653.46 219.246 652.685 219.098 651.909 218.815C651.134 218.532 650.426 218.055 649.786 217.384C649.145 216.707 648.631 215.793 648.244 214.642C647.856 213.485 647.662 212.032 647.662 210.284C647.662 208.61 647.819 207.126 648.133 205.834C648.447 204.535 648.902 203.442 649.499 202.556C650.096 201.664 650.817 200.987 651.66 200.525C652.509 200.063 653.466 199.832 654.531 199.832C655.59 199.832 656.532 200.045 657.357 200.469C658.188 200.888 658.865 201.473 659.388 202.224C659.911 202.975 660.25 203.839 660.403 204.818H658.151C657.941 203.969 657.535 203.264 656.932 202.704C656.329 202.144 655.528 201.864 654.531 201.864C653.066 201.864 651.912 202.501 651.069 203.775C650.232 205.049 649.81 206.837 649.804 209.139H649.952C650.296 208.616 650.706 208.17 651.18 207.8C651.66 207.425 652.189 207.136 652.768 206.933C653.346 206.729 653.959 206.628 654.605 206.628C655.688 206.628 656.679 206.899 657.578 207.44C658.477 207.976 659.197 208.718 659.739 209.665C660.28 210.607 660.551 211.688 660.551 212.906C660.551 214.076 660.29 215.147 659.766 216.119C659.243 217.086 658.508 217.855 657.56 218.428C656.618 218.994 655.51 219.271 654.236 219.259ZM654.236 217.227C655.011 217.227 655.707 217.033 656.322 216.646C656.944 216.258 657.433 215.738 657.79 215.085C658.154 214.433 658.335 213.706 658.335 212.906C658.335 212.125 658.16 211.414 657.809 210.773C657.464 210.127 656.987 209.613 656.378 209.232C655.775 208.85 655.085 208.659 654.31 208.659C653.725 208.659 653.18 208.776 652.675 209.01C652.171 209.238 651.728 209.552 651.346 209.952C650.97 210.352 650.675 210.81 650.46 211.327C650.244 211.838 650.136 212.377 650.136 212.943C650.136 213.694 650.312 214.396 650.663 215.048C651.02 215.701 651.506 216.227 652.121 216.627C652.743 217.027 653.448 217.227 654.236 217.227Z" fill="black"/>
<path d="M728.347 34.2585C727.128 34.2585 726.041 34.0492 725.087 33.6307C724.139 33.2121 723.385 32.6304 722.825 31.8857C722.271 31.1347 721.97 30.2637 721.92 29.2727H724.247C724.296 29.8821 724.506 30.4084 724.875 30.8516C725.244 31.2886 725.728 31.6271 726.325 31.8672C726.922 32.1072 727.583 32.2273 728.31 32.2273C729.122 32.2273 729.842 32.0857 730.47 31.8026C731.098 31.5194 731.59 31.1255 731.947 30.6207C732.304 30.116 732.483 29.5312 732.483 28.8665C732.483 28.1709 732.311 27.5585 731.966 27.0291C731.621 26.4936 731.116 26.075 730.452 25.7734C729.787 25.4718 728.974 25.321 728.014 25.321H726.5V23.2898H728.014C728.765 23.2898 729.424 23.1544 729.99 22.8835C730.563 22.6127 731.009 22.2311 731.329 21.7386C731.655 21.2462 731.818 20.6676 731.818 20.0028C731.818 19.3627 731.677 18.8056 731.393 18.3317C731.11 17.8577 730.71 17.4884 730.193 17.2237C729.682 16.959 729.079 16.8267 728.384 16.8267C727.731 16.8267 727.116 16.9467 726.537 17.1868C725.964 17.4207 725.497 17.7623 725.134 18.2116C724.77 18.6548 724.573 19.1903 724.543 19.8182H722.327C722.364 18.8272 722.662 17.9593 723.222 17.2145C723.782 16.4635 724.515 15.8788 725.42 15.4602C726.331 15.0417 727.331 14.8324 728.42 14.8324C729.59 14.8324 730.593 15.0694 731.43 15.5433C732.268 16.0111 732.911 16.6297 733.36 17.3991C733.809 18.1686 734.034 18.9995 734.034 19.892C734.034 20.9569 733.754 21.8648 733.194 22.6158C732.64 23.3667 731.886 23.8868 730.932 24.1761V24.3239C732.126 24.5208 733.058 25.0286 733.729 25.8473C734.4 26.6598 734.736 27.6662 734.736 28.8665C734.736 29.8944 734.456 30.8177 733.896 31.6364C733.342 32.4489 732.585 33.089 731.624 33.5568C730.664 34.0246 729.571 34.2585 728.347 34.2585Z" fill="black"/>
<path d="M728.347 219.259C727.128 219.259 726.041 219.049 725.087 218.631C724.139 218.212 723.385 217.63 722.825 216.886C722.271 216.135 721.97 215.264 721.92 214.273H724.247C724.296 214.882 724.506 215.408 724.875 215.852C725.244 216.289 725.728 216.627 726.325 216.867C726.922 217.107 727.583 217.227 728.31 217.227C729.122 217.227 729.842 217.086 730.47 216.803C731.098 216.519 731.59 216.125 731.947 215.621C732.304 215.116 732.483 214.531 732.483 213.866C732.483 213.171 732.311 212.558 731.966 212.029C731.621 211.494 731.116 211.075 730.452 210.773C729.787 210.472 728.974 210.321 728.014 210.321H726.5V208.29H728.014C728.765 208.29 729.424 208.154 729.99 207.884C730.563 207.613 731.009 207.231 731.329 206.739C731.655 206.246 731.818 205.668 731.818 205.003C731.818 204.363 731.677 203.806 731.393 203.332C731.11 202.858 730.71 202.488 730.193 202.224C729.682 201.959 729.079 201.827 728.384 201.827C727.731 201.827 727.116 201.947 726.537 202.187C725.964 202.421 725.497 202.762 725.134 203.212C724.77 203.655 724.573 204.19 724.543 204.818H722.327C722.364 203.827 722.662 202.959 723.222 202.214C723.782 201.464 724.515 200.879 725.42 200.46C726.331 200.042 727.331 199.832 728.42 199.832C729.59 199.832 730.593 200.069 731.43 200.543C732.268 201.011 732.911 201.63 733.36 202.399C733.809 203.169 734.034 204 734.034 204.892C734.034 205.957 733.754 206.865 733.194 207.616C732.64 208.367 731.886 208.887 730.932 209.176V209.324C732.126 209.521 733.058 210.029 733.729 210.847C734.4 211.66 734.736 212.666 734.736 213.866C734.736 214.894 734.456 215.818 733.896 216.636C733.342 217.449 732.585 218.089 731.624 218.557C730.664 219.025 729.571 219.259 728.347 219.259Z" fill="black"/>
<path d="M504.125 77.2585C502.734 77.2585 501.549 76.88 500.57 76.1229C499.592 75.3596 498.844 74.2547 498.327 72.8082C497.81 71.3556 497.551 69.6013 497.551 67.5455C497.551 65.5019 497.81 63.7569 498.327 62.3104C498.85 60.8577 499.601 59.7498 500.58 58.9865C501.564 58.2171 502.746 57.8324 504.125 57.8324C505.504 57.8324 506.683 58.2171 507.661 58.9865C508.646 59.7498 509.397 60.8577 509.914 62.3104C510.437 63.7569 510.699 65.5019 510.699 67.5455C510.699 69.6013 510.44 71.3556 509.923 72.8082C509.406 74.2547 508.658 75.3596 507.68 76.1229C506.701 76.88 505.516 77.2585 504.125 77.2585ZM504.125 75.2273C505.504 75.2273 506.575 74.5625 507.338 73.233C508.101 71.9034 508.483 70.0076 508.483 67.5455C508.483 65.9081 508.308 64.514 507.957 63.3629C507.612 62.2119 507.113 61.3348 506.461 60.7315C505.815 60.1283 505.036 59.8267 504.125 59.8267C502.759 59.8267 501.691 60.5007 500.921 61.8487C500.152 63.1906 499.767 65.0895 499.767 67.5455C499.767 69.1828 499.939 70.5739 500.284 71.7188C500.629 72.8636 501.124 73.7346 501.771 74.3317C502.423 74.9287 503.208 75.2273 504.125 75.2273Z" fill="black"/>
<path d="M504.605 243.091V262H502.315V245.491H502.205L497.588 248.557V246.23L502.315 243.091H504.605Z" fill="black"/>
<path d="M579.605 58.0909V77H577.315V60.4915H577.205L572.588 63.5568V61.2301L577.315 58.0909H579.605Z" fill="black"/>
<path d="M579.605 243.091V262H577.315V245.491H577.205L572.588 248.557V246.23L577.315 243.091H579.605Z" fill="black"/>
<path d="M654.605 58.0909V77H652.315V60.4915H652.205L647.588 63.5568V61.2301L652.315 58.0909H654.605Z" fill="black"/>
<path d="M654.605 243.091V262H652.315V245.491H652.205L647.588 248.557V246.23L652.315 243.091H654.605Z" fill="black"/>
<path d="M728.125 77.2585C726.734 77.2585 725.549 76.88 724.57 76.1229C723.592 75.3596 722.844 74.2547 722.327 72.8082C721.81 71.3556 721.551 69.6013 721.551 67.5455C721.551 65.5019 721.81 63.7569 722.327 62.3104C722.85 60.8577 723.601 59.7498 724.58 58.9865C725.564 58.2171 726.746 57.8324 728.125 57.8324C729.504 57.8324 730.683 58.2171 731.661 58.9865C732.646 59.7498 733.397 60.8577 733.914 62.3104C734.437 63.7569 734.699 65.5019 734.699 67.5455C734.699 69.6013 734.44 71.3556 733.923 72.8082C733.406 74.2547 732.658 75.3596 731.68 76.1229C730.701 76.88 729.516 77.2585 728.125 77.2585ZM728.125 75.2273C729.504 75.2273 730.575 74.5625 731.338 73.233C732.101 71.9034 732.483 70.0076 732.483 67.5455C732.483 65.9081 732.308 64.514 731.957 63.3629C731.612 62.2119 731.113 61.3348 730.461 60.7315C729.815 60.1283 729.036 59.8267 728.125 59.8267C726.759 59.8267 725.691 60.5007 724.921 61.8487C724.152 63.1906 723.767 65.0895 723.767 67.5455C723.767 69.1828 723.939 70.5739 724.284 71.7188C724.629 72.8636 725.124 73.7346 725.771 74.3317C726.423 74.9287 727.208 75.2273 728.125 75.2273Z" fill="black"/>
<path d="M728.125 262.259C726.734 262.259 725.549 261.88 724.57 261.123C723.592 260.36 722.844 259.255 722.327 257.808C721.81 256.356 721.551 254.601 721.551 252.545C721.551 250.502 721.81 248.757 722.327 247.31C722.85 245.858 723.601 244.75 724.58 243.987C725.564 243.217 726.746 242.832 728.125 242.832C729.504 242.832 730.683 243.217 731.661 243.987C732.646 244.75 733.397 245.858 733.914 247.31C734.437 248.757 734.699 250.502 734.699 252.545C734.699 254.601 734.44 256.356 733.923 257.808C733.406 259.255 732.658 260.36 731.68 261.123C730.701 261.88 729.516 262.259 728.125 262.259ZM728.125 260.227C729.504 260.227 730.575 259.562 731.338 258.233C732.101 256.903 732.483 255.008 732.483 252.545C732.483 250.908 732.308 249.514 731.957 248.363C731.612 247.212 731.113 246.335 730.461 245.732C729.815 245.128 729.036 244.827 728.125 244.827C726.759 244.827 725.691 245.501 724.921 246.849C724.152 248.191 723.767 250.089 723.767 252.545C723.767 254.183 723.939 255.574 724.284 256.719C724.629 257.864 725.124 258.735 725.771 259.332C726.423 259.929 727.208 260.227 728.125 260.227Z" fill="black"/>
<path d="M501.605 101.091V120H499.315V103.491H499.205L494.588 106.557V104.23L499.315 101.091H501.605ZM507.634 120L516.092 103.27V103.122H506.342V101.091H518.455V103.233L510.035 120H507.634Z" fill="black"/>
<path d="M501.605 286.091V305H499.315V288.491H499.205L494.588 291.557V289.23L499.315 286.091H501.605ZM507.634 305L516.092 288.27V288.122H506.342V286.091H518.455V288.233L510.035 305H507.634Z" fill="black"/>
<path d="M577.347 120.259C576.128 120.259 575.041 120.049 574.087 119.631C573.139 119.212 572.385 118.63 571.825 117.886C571.271 117.135 570.97 116.264 570.92 115.273H573.247C573.296 115.882 573.506 116.408 573.875 116.852C574.244 117.289 574.728 117.627 575.325 117.867C575.922 118.107 576.583 118.227 577.31 118.227C578.122 118.227 578.842 118.086 579.47 117.803C580.098 117.519 580.59 117.125 580.947 116.621C581.304 116.116 581.483 115.531 581.483 114.866C581.483 114.171 581.311 113.558 580.966 113.029C580.621 112.494 580.116 112.075 579.452 111.773C578.787 111.472 577.974 111.321 577.014 111.321H575.5V109.29H577.014C577.765 109.29 578.424 109.154 578.99 108.884C579.563 108.613 580.009 108.231 580.329 107.739C580.655 107.246 580.818 106.668 580.818 106.003C580.818 105.363 580.677 104.806 580.393 104.332C580.11 103.858 579.71 103.488 579.193 103.224C578.682 102.959 578.079 102.827 577.384 102.827C576.731 102.827 576.116 102.947 575.537 103.187C574.964 103.421 574.497 103.762 574.134 104.212C573.77 104.655 573.573 105.19 573.543 105.818H571.327C571.364 104.827 571.662 103.959 572.222 103.214C572.782 102.464 573.515 101.879 574.42 101.46C575.331 101.042 576.331 100.832 577.42 100.832C578.59 100.832 579.593 101.069 580.43 101.543C581.268 102.011 581.911 102.63 582.36 103.399C582.809 104.169 583.034 105 583.034 105.892C583.034 106.957 582.754 107.865 582.194 108.616C581.64 109.367 580.886 109.887 579.932 110.176V110.324C581.126 110.521 582.058 111.029 582.729 111.847C583.4 112.66 583.736 113.666 583.736 114.866C583.736 115.894 583.456 116.818 582.896 117.636C582.342 118.449 581.585 119.089 580.624 119.557C579.664 120.025 578.571 120.259 577.347 120.259ZM594.16 101.091V120H591.87V103.491H591.759L587.143 106.557V104.23L591.87 101.091H594.16Z" fill="black"/>
<path d="M577.347 305.259C576.128 305.259 575.041 305.049 574.087 304.631C573.139 304.212 572.385 303.63 571.825 302.886C571.271 302.135 570.97 301.264 570.92 300.273H573.247C573.296 300.882 573.506 301.408 573.875 301.852C574.244 302.289 574.728 302.627 575.325 302.867C575.922 303.107 576.583 303.227 577.31 303.227C578.122 303.227 578.842 303.086 579.47 302.803C580.098 302.519 580.59 302.125 580.947 301.621C581.304 301.116 581.483 300.531 581.483 299.866C581.483 299.171 581.311 298.558 580.966 298.029C580.621 297.494 580.116 297.075 579.452 296.773C578.787 296.472 577.974 296.321 577.014 296.321H575.5V294.29H577.014C577.765 294.29 578.424 294.154 578.99 293.884C579.563 293.613 580.009 293.231 580.329 292.739C580.655 292.246 580.818 291.668 580.818 291.003C580.818 290.363 580.677 289.806 580.393 289.332C580.11 288.858 579.71 288.488 579.193 288.224C578.682 287.959 578.079 287.827 577.384 287.827C576.731 287.827 576.116 287.947 575.537 288.187C574.964 288.421 574.497 288.762 574.134 289.212C573.77 289.655 573.573 290.19 573.543 290.818H571.327C571.364 289.827 571.662 288.959 572.222 288.214C572.782 287.464 573.515 286.879 574.42 286.46C575.331 286.042 576.331 285.832 577.42 285.832C578.59 285.832 579.593 286.069 580.43 286.543C581.268 287.011 581.911 287.63 582.36 288.399C582.809 289.169 583.034 290 583.034 290.892C583.034 291.957 582.754 292.865 582.194 293.616C581.64 294.367 580.886 294.887 579.932 295.176V295.324C581.126 295.521 582.058 296.029 582.729 296.847C583.4 297.66 583.736 298.666 583.736 299.866C583.736 300.894 583.456 301.818 582.896 302.636C582.342 303.449 581.585 304.089 580.624 304.557C579.664 305.025 578.571 305.259 577.347 305.259ZM594.16 286.091V305H591.87V288.491H591.759L587.143 291.557V289.23L591.87 286.091H594.16Z" fill="black"/>
<path d="M652.605 101.091V120H650.315V103.491H650.205L645.588 106.557V104.23L650.315 101.091H652.605ZM657.6 116.122V114.239L665.91 101.091H667.276V104.009H666.353L660.075 113.943V114.091H671.265V116.122H657.6ZM666.501 120V115.55V114.673V101.091H668.68V120H666.501Z" fill="black"/>
<path d="M652.605 286.091V305H650.315V288.491H650.205L645.588 291.557V289.23L650.315 286.091H652.605ZM657.6 301.122V299.239L665.91 286.091H667.276V289.009H666.353L660.075 298.943V299.091H671.265V301.122H657.6ZM666.501 305V300.55V299.673V286.091H668.68V305H666.501Z" fill="black"/>
<path d="M727.977 100.832C728.753 100.839 729.528 100.986 730.304 101.276C731.08 101.565 731.787 102.045 732.428 102.716C733.068 103.381 733.582 104.289 733.969 105.44C734.357 106.591 734.551 108.034 734.551 109.77C734.551 111.45 734.391 112.943 734.071 114.248C733.757 115.547 733.302 116.642 732.705 117.535C732.114 118.427 731.393 119.104 730.544 119.566C729.701 120.028 728.747 120.259 727.682 120.259C726.623 120.259 725.678 120.049 724.847 119.631C724.022 119.206 723.345 118.618 722.816 117.867C722.293 117.11 721.957 116.233 721.81 115.236H724.062C724.266 116.104 724.669 116.821 725.272 117.387C725.881 117.947 726.685 118.227 727.682 118.227C729.141 118.227 730.292 117.59 731.135 116.316C731.984 115.042 732.409 113.241 732.409 110.915H732.261C731.917 111.432 731.507 111.878 731.033 112.254C730.559 112.629 730.033 112.918 729.455 113.121C728.876 113.325 728.26 113.426 727.608 113.426C726.525 113.426 725.531 113.158 724.626 112.623C723.727 112.081 723.007 111.339 722.465 110.398C721.93 109.45 721.662 108.366 721.662 107.148C721.662 105.991 721.92 104.932 722.438 103.972C722.961 103.005 723.693 102.236 724.635 101.663C725.583 101.091 726.697 100.814 727.977 100.832ZM727.977 102.864C727.202 102.864 726.503 103.058 725.881 103.445C725.266 103.827 724.777 104.344 724.413 104.996C724.056 105.643 723.878 106.36 723.878 107.148C723.878 107.936 724.05 108.653 724.395 109.299C724.746 109.939 725.223 110.45 725.826 110.832C726.435 111.207 727.128 111.395 727.903 111.395C728.488 111.395 729.033 111.281 729.538 111.053C730.042 110.819 730.482 110.502 730.858 110.102C731.24 109.696 731.538 109.237 731.754 108.727C731.969 108.21 732.077 107.671 732.077 107.111C732.077 106.372 731.898 105.68 731.541 105.033C731.19 104.387 730.704 103.864 730.082 103.464C729.467 103.064 728.765 102.864 727.977 102.864Z" fill="black"/>
<path d="M727.977 285.832C728.753 285.839 729.528 285.986 730.304 286.276C731.08 286.565 731.787 287.045 732.428 287.716C733.068 288.381 733.582 289.289 733.969 290.44C734.357 291.591 734.551 293.034 734.551 294.77C734.551 296.45 734.391 297.943 734.071 299.248C733.757 300.547 733.302 301.642 732.705 302.535C732.114 303.427 731.393 304.104 730.544 304.566C729.701 305.028 728.747 305.259 727.682 305.259C726.623 305.259 725.678 305.049 724.847 304.631C724.022 304.206 723.345 303.618 722.816 302.867C722.293 302.11 721.957 301.233 721.81 300.236H724.062C724.266 301.104 724.669 301.821 725.272 302.387C725.881 302.947 726.685 303.227 727.682 303.227C729.141 303.227 730.292 302.59 731.135 301.316C731.984 300.042 732.409 298.241 732.409 295.915H732.261C731.917 296.432 731.507 296.878 731.033 297.254C730.559 297.629 730.033 297.918 729.455 298.121C728.876 298.325 728.26 298.426 727.608 298.426C726.525 298.426 725.531 298.158 724.626 297.623C723.727 297.081 723.007 296.339 722.465 295.398C721.93 294.45 721.662 293.366 721.662 292.148C721.662 290.991 721.92 289.932 722.438 288.972C722.961 288.005 723.693 287.236 724.635 286.663C725.583 286.091 726.697 285.814 727.977 285.832ZM727.977 287.864C727.202 287.864 726.503 288.058 725.881 288.445C725.266 288.827 724.777 289.344 724.413 289.996C724.056 290.643 723.878 291.36 723.878 292.148C723.878 292.936 724.05 293.653 724.395 294.299C724.746 294.939 725.223 295.45 725.826 295.832C726.435 296.207 727.128 296.395 727.903 296.395C728.488 296.395 729.033 296.281 729.538 296.053C730.042 295.819 730.482 295.502 730.858 295.102C731.24 294.696 731.538 294.237 731.754 293.727C731.969 293.21 732.077 292.671 732.077 292.111C732.077 291.372 731.898 290.68 731.541 290.033C731.19 289.387 730.704 288.864 730.082 288.464C729.467 288.064 728.765 287.864 727.977 287.864Z" fill="black"/>
</svg>
