<svg width="1217" height="502" viewBox="0 0 1217 502" fill="none" xmlns="http://www.w3.org/2000/svg">
<path d="M521 391L221 241L1 351L301 501L521 391Z" fill="#4A370D" stroke="#4A370D" stroke-miterlimit="1"/>
<path d="M521 391L221 241V1L521 151V391Z" fill="#956E19" stroke="#4A370D" stroke-miterlimit="1"/>
<path d="M221 241L1 351V111L221 1V241Z" fill="#956E19" stroke="#4A370D" stroke-miterlimit="1"/>
<path d="M301 501L1 351V111L301 261V501Z" fill="#C69222" stroke="#4A370D" stroke-miterlimit="1"/>
<path d="M301 501L521 391V151L301 261V501Z" fill="#C69222" stroke="#4A370D" stroke-miterlimit="1"/>
<path d="M521 151L221 1L1 111L301 261L521 151Z" fill="#F8B72A" stroke="#4A370D" stroke-miterlimit="1"/>
<path d="M1216 351L996 241L696 391L916 501L1216 351Z" fill="#4A370D" stroke="#4A370D" stroke-miterlimit="1"/>
<path d="M1216 351L996 241V1L1216 111V351Z" fill="#956E19" stroke="#4A370D" stroke-miterlimit="1"/>
<path d="M996 241L696 391V151L996 1V241Z" fill="#956E19" stroke="#4A370D" stroke-miterlimit="1"/>
<path d="M916 501L696 391V151L916 261V501Z" fill="#C69222" stroke="#4A370D" stroke-miterlimit="1"/>
<path d="M916 501L1216 351V111L916 261V501Z" fill="#C69222" stroke="#4A370D" stroke-miterlimit="1"/>
<path d="M1216 111L996 1L696 151L916 261L1216 111Z" fill="#F8B72A" stroke="#4A370D" stroke-miterlimit="1"/>
<path d="M397.906 362.806L397.906 313.806" stroke="black" stroke-width="20"/>
<path d="M397.906 269.806L421.208 303.315L374.605 326.297L397.906 269.806Z" fill="black"/>
<path d="M451.719 336.269L451.719 287.269" stroke="black" stroke-width="20"/>
<path d="M451.718 243.269L475.02 276.778L428.417 299.76L451.718 243.269Z" fill="black"/>
<rect width="111" height="21" transform="matrix(0.896873 -0.442289 0 1 375.484 388.863)" fill="black"/>
<path d="M778.906 332.269L778.906 283.269" stroke="black" stroke-width="20"/>
<path d="M778.906 239.269L802.208 295.76L755.605 272.778L778.906 239.269Z" fill="black"/>
<path d="M832.719 358.806L832.719 309.806" stroke="black" stroke-width="20"/>
<path d="M832.718 265.806L856.02 322.297L809.417 299.315L832.718 265.806Z" fill="black"/>
<rect width="111" height="21" transform="matrix(0.896873 0.442289 0 1 756.484 336.211)" fill="black"/>
</svg>
