<svg width="824" height="654" viewBox="0 0 824 654" fill="none" xmlns="http://www.w3.org/2000/svg">
<path d="M822 542L222 242V2L822 302V542Z" stroke="#524E4C" stroke-width="3" stroke-miterlimit="1"/>
<path d="M222 242L2 352V112L222 2V242Z" stroke="#817D7C" stroke-width="3" stroke-miterlimit="1"/>
<path d="M822 542L222 242L2 352L602 652L822 542Z" stroke="#817D7C" stroke-width="3" stroke-miterlimit="1"/>
<path d="M602 652L2 352V112L602 412V652Z" stroke="#817D7C" stroke-width="3" stroke-miterlimit="1"/>
<path d="M602 652L822 542V302L602 412V652Z" stroke="#817D7C" stroke-width="3" stroke-miterlimit="1"/>
<path d="M302 301L202 251L102 301L202 351L302 301Z" fill="#4A370D" stroke="#4A370D" stroke-miterlimit="1"/>
<path d="M302 301L202 251V151L302 201V301Z" fill="#956E19" stroke="#4A370D" stroke-miterlimit="1"/>
<path d="M202 251L102 301V201L202 151V251Z" fill="#956E19" stroke="#4A370D" stroke-miterlimit="1"/>
<path d="M202 351L102 301V201L202 251V351Z" fill="#C69222" stroke="#4A370D" stroke-miterlimit="1"/>
<path d="M202 351L302 301V201L202 251V351Z" fill="#C69222" stroke="#4A370D" stroke-miterlimit="1"/>
<path d="M302 201L202 151L102 201L202 251L302 201Z" fill="#F8B72A" stroke="#4A370D" stroke-miterlimit="1"/>
<path d="M202 351L102 301L2 351L102 401L202 351Z" fill="#4A370D" stroke="#4A370D" stroke-miterlimit="1"/>
<path d="M202 351L102 301V201L202 251V351Z" fill="#956E19" stroke="#4A370D" stroke-miterlimit="1"/>
<path d="M102 301L2 351V251L102 201V301Z" fill="#956E19" stroke="#4A370D" stroke-miterlimit="1"/>
<path d="M102 401L2 351V251L102 301V401Z" fill="#C69222" stroke="#4A370D" stroke-miterlimit="1"/>
<path d="M102 401L202 351V251L102 301V401Z" fill="#C69222" stroke="#4A370D" stroke-miterlimit="1"/>
<path d="M202 251L102 201L2 251L102 301L202 251Z" fill="#F8B72A" stroke="#4A370D" stroke-miterlimit="1"/>
<path d="M302 201L202 151L102 201L202 251L302 201Z" fill="#4A370D" stroke="#4A370D" stroke-miterlimit="1"/>
<path d="M302 201L202 151V51L302 101V201Z" fill="#956E19" stroke="#4A370D" stroke-miterlimit="1"/>
<path d="M202 151L102 201V101L202 51V151Z" fill="#956E19" stroke="#4A370D" stroke-miterlimit="1"/>
<path d="M202 251L102 201V101L202 151V251Z" fill="#C69222" stroke="#4A370D" stroke-miterlimit="1"/>
<path d="M202 251L302 201V101L202 151V251Z" fill="#C69222" stroke="#4A370D" stroke-miterlimit="1"/>
<path d="M302 101L202 51L102 101L202 151L302 101Z" fill="#F8B72A" stroke="#4A370D" stroke-miterlimit="1"/>
<path d="M402 351L302 301L202 351L302 401L402 351Z" fill="#4A370D" stroke="#4A370D" stroke-miterlimit="1"/>
<path d="M402 351L302 301V201L402 251V351Z" fill="#956E19" stroke="#4A370D" stroke-miterlimit="1"/>
<path d="M302 301L202 351V251L302 201V301Z" fill="#956E19" stroke="#4A370D" stroke-miterlimit="1"/>
<path d="M302 401L202 351V251L302 301V401Z" fill="#C69222" stroke="#4A370D" stroke-miterlimit="1"/>
<path d="M302 401L402 351V251L302 301V401Z" fill="#C69222" stroke="#4A370D" stroke-miterlimit="1"/>
<path d="M402 251L302 201L202 251L302 301L402 251Z" fill="#F8B72A" stroke="#4A370D" stroke-miterlimit="1"/>
<path d="M302 402L202 352L102 402L202 452L302 402Z" fill="#4A370D" stroke="#4A370D" stroke-miterlimit="1"/>
<path d="M302 402L202 352V252L302 302V402Z" fill="#956E19" stroke="#4A370D" stroke-miterlimit="1"/>
<path d="M202 352L102 402V302L202 252V352Z" fill="#956E19" stroke="#4A370D" stroke-miterlimit="1"/>
<path d="M202 452L102 402V302L202 352V452Z" fill="#C69222" stroke="#4A370D" stroke-miterlimit="1"/>
<path d="M202 452L302 402V302L202 352V452Z" fill="#C69222" stroke="#4A370D" stroke-miterlimit="1"/>
<path d="M302 302L202 252L102 302L202 352L302 302Z" fill="#F8B72A" stroke="#4A370D" stroke-miterlimit="1"/>
<path d="M202 251L102 201L2 251L102 301L202 251Z" fill="#4A370D" stroke="#4A370D" stroke-miterlimit="1"/>
<path d="M202 251L102 201V101L202 151V251Z" fill="#956E19" stroke="#4A370D" stroke-miterlimit="1"/>
<path d="M102 201L2 251V151L102 101V201Z" fill="#956E19" stroke="#4A370D" stroke-miterlimit="1"/>
<path d="M102 301L2 251V151L102 201V301Z" fill="#C69222" stroke="#4A370D" stroke-miterlimit="1"/>
<path d="M102 301L202 251V151L102 201V301Z" fill="#C69222" stroke="#4A370D" stroke-miterlimit="1"/>
<path d="M202 151L102 101L2 151L102 201L202 151Z" fill="#F8B72A" stroke="#4A370D" stroke-miterlimit="1"/>
<path d="M372 242.5L297 205L232 237.5L307 275L372 242.5Z" fill="#114208" stroke="#114208" stroke-miterlimit="1"/>
<path d="M372 242.5L297 205V130L372 167.5V242.5Z" fill="#23840F" stroke="#114208" stroke-miterlimit="1"/>
<path d="M297 205L232 237.5V162.5L297 130V205Z" fill="#23840F" stroke="#114208" stroke-miterlimit="1"/>
<path d="M307 275L232 237.5V162.5L307 200V275Z" fill="#2EB014" stroke="#114208" stroke-miterlimit="1"/>
<path d="M307 275L372 242.5V167.5L307 200V275Z" fill="#2EB014" stroke="#114208" stroke-miterlimit="1"/>
<path d="M372 167.5L297 130L232 162.5L307 200L372 167.5Z" fill="#3ADC19" stroke="#114208" stroke-miterlimit="1"/>
<path d="M307 274.5L232 237L167 269.5L242 307L307 274.5Z" fill="#114208" stroke="#114208" stroke-miterlimit="1"/>
<path d="M307 274.5L232 237V162L307 199.5V274.5Z" fill="#23840F" stroke="#114208" stroke-miterlimit="1"/>
<path d="M232 237L167 269.5V194.5L232 162V237Z" fill="#23840F" stroke="#114208" stroke-miterlimit="1"/>
<path d="M242 307L167 269.5V194.5L242 232V307Z" fill="#2EB014" stroke="#114208" stroke-miterlimit="1"/>
<path d="M242 307L307 274.5V199.5L242 232V307Z" fill="#2EB014" stroke="#114208" stroke-miterlimit="1"/>
<path d="M307 199.5L232 162L167 194.5L242 232L307 199.5Z" fill="#3ADC19" stroke="#114208" stroke-miterlimit="1"/>
<path d="M242 306.5L167 269L102 301.5L177 339L242 306.5Z" fill="#114208" stroke="#114208" stroke-miterlimit="1"/>
<path d="M242 306.5L167 269V194L242 231.5V306.5Z" fill="#23840F" stroke="#114208" stroke-miterlimit="1"/>
<path d="M167 269L102 301.5V226.5L167 194V269Z" fill="#23840F" stroke="#114208" stroke-miterlimit="1"/>
<path d="M177 339L102 301.5V226.5L177 264V339Z" fill="#2EB014" stroke="#114208" stroke-miterlimit="1"/>
<path d="M177 339L242 306.5V231.5L177 264V339Z" fill="#2EB014" stroke="#114208" stroke-miterlimit="1"/>
<path d="M242 231.5L167 194L102 226.5L177 264L242 231.5Z" fill="#3ADC19" stroke="#114208" stroke-miterlimit="1"/>
<path d="M822 302L222 2L2 112L602 412L822 302Z" stroke="#817D7C" stroke-width="3" stroke-miterlimit="1"/>
</svg>
