<svg width="1094" height="669" viewBox="0 0 1094 669" fill="none" xmlns="http://www.w3.org/2000/svg">
<path d="M822 557L222 257V17L822 317V557Z" stroke="#524E4C" stroke-width="3" stroke-miterlimit="1"/>
<path d="M222 257L2 367V127L222 17V257Z" stroke="#817D7C" stroke-width="3" stroke-miterlimit="1"/>
<path d="M822 557L222 257L2 367L602 667L822 557Z" stroke="#817D7C" stroke-width="3" stroke-miterlimit="1"/>
<path d="M602 667L2 367V127L602 427V667Z" stroke="#817D7C" stroke-width="3" stroke-miterlimit="1"/>
<path d="M602 667L822 557V317L602 427V667Z" stroke="#817D7C" stroke-width="3" stroke-miterlimit="1"/>
<path d="M302 316L202 266L102 316L202 366L302 316Z" fill="#4A370D" stroke="#4A370D" stroke-miterlimit="1"/>
<path d="M302 316L202 266V166L302 216V316Z" fill="#956E19" stroke="#4A370D" stroke-miterlimit="1"/>
<path d="M202 266L102 316V216L202 166V266Z" fill="#956E19" stroke="#4A370D" stroke-miterlimit="1"/>
<path d="M202 366L102 316V216L202 266V366Z" fill="#C69222" stroke="#4A370D" stroke-miterlimit="1"/>
<path d="M202 366L302 316V216L202 266V366Z" fill="#C69222" stroke="#4A370D" stroke-miterlimit="1"/>
<path d="M302 216L202 166L102 216L202 266L302 216Z" fill="#F8B72A" stroke="#4A370D" stroke-miterlimit="1"/>
<path d="M202 366L102 316L2 366L102 416L202 366Z" fill="#4A370D" stroke="#4A370D" stroke-miterlimit="1"/>
<path d="M202 366L102 316V216L202 266V366Z" fill="#956E19" stroke="#4A370D" stroke-miterlimit="1"/>
<path d="M102 316L2 366V266L102 216V316Z" fill="#956E19" stroke="#4A370D" stroke-miterlimit="1"/>
<path d="M102 416L2 366V266L102 316V416Z" fill="#C69222" stroke="#4A370D" stroke-miterlimit="1"/>
<path d="M102 416L202 366V266L102 316V416Z" fill="#C69222" stroke="#4A370D" stroke-miterlimit="1"/>
<path d="M202 266L102 216L2 266L102 316L202 266Z" fill="#F8B72A" stroke="#4A370D" stroke-miterlimit="1"/>
<path d="M302 216L202 166L102 216L202 266L302 216Z" fill="#4A370D" stroke="#4A370D" stroke-miterlimit="1"/>
<path d="M302 216L202 166V66L302 116V216Z" fill="#956E19" stroke="#4A370D" stroke-miterlimit="1"/>
<path d="M202 166L102 216V116L202 66V166Z" fill="#956E19" stroke="#4A370D" stroke-miterlimit="1"/>
<path d="M202 266L102 216V116L202 166V266Z" fill="#C69222" stroke="#4A370D" stroke-miterlimit="1"/>
<path d="M202 266L302 216V116L202 166V266Z" fill="#C69222" stroke="#4A370D" stroke-miterlimit="1"/>
<path d="M302 116L202 66L102 116L202 166L302 116Z" fill="#F8B72A" stroke="#4A370D" stroke-miterlimit="1"/>
<path d="M402 366L302 316L202 366L302 416L402 366Z" fill="#4A370D" stroke="#4A370D" stroke-miterlimit="1"/>
<path d="M402 366L302 316V216L402 266V366Z" fill="#956E19" stroke="#4A370D" stroke-miterlimit="1"/>
<path d="M302 316L202 366V266L302 216V316Z" fill="#956E19" stroke="#4A370D" stroke-miterlimit="1"/>
<path d="M302 416L202 366V266L302 316V416Z" fill="#C69222" stroke="#4A370D" stroke-miterlimit="1"/>
<path d="M302 416L402 366V266L302 316V416Z" fill="#C69222" stroke="#4A370D" stroke-miterlimit="1"/>
<path d="M402 266L302 216L202 266L302 316L402 266Z" fill="#F8B72A" stroke="#4A370D" stroke-miterlimit="1"/>
<path d="M302 417L202 367L102 417L202 467L302 417Z" fill="#4A370D" stroke="#4A370D" stroke-miterlimit="1"/>
<path d="M302 417L202 367V267L302 317V417Z" fill="#956E19" stroke="#4A370D" stroke-miterlimit="1"/>
<path d="M202 367L102 417V317L202 267V367Z" fill="#956E19" stroke="#4A370D" stroke-miterlimit="1"/>
<path d="M202 467L102 417V317L202 367V467Z" fill="#C69222" stroke="#4A370D" stroke-miterlimit="1"/>
<path d="M202 467L302 417V317L202 367V467Z" fill="#C69222" stroke="#4A370D" stroke-miterlimit="1"/>
<path d="M302 317L202 267L102 317L202 367L302 317Z" fill="#F8B72A" stroke="#4A370D" stroke-miterlimit="1"/>
<path d="M202 266L102 216L2 266L102 316L202 266Z" fill="#4A370D" stroke="#4A370D" stroke-miterlimit="1"/>
<path d="M202 266L102 216V116L202 166V266Z" fill="#956E19" stroke="#4A370D" stroke-miterlimit="1"/>
<path d="M102 216L2 266V166L102 116V216Z" fill="#956E19" stroke="#4A370D" stroke-miterlimit="1"/>
<path d="M102 316L2 266V166L102 216V316Z" fill="#C69222" stroke="#4A370D" stroke-miterlimit="1"/>
<path d="M102 316L202 266V166L102 216V316Z" fill="#C69222" stroke="#4A370D" stroke-miterlimit="1"/>
<path d="M202 166L102 116L2 166L102 216L202 166Z" fill="#F8B72A" stroke="#4A370D" stroke-miterlimit="1"/>
<path d="M822 317L222 17L2 127L602 427L822 317Z" stroke="#817D7C" stroke-width="3" stroke-miterlimit="1"/>
<path d="M1093 101L1013 61L833 151L913 191L1093 101Z" fill="#114207" stroke="#114207" stroke-miterlimit="1"/>
<path d="M1093 101L1013 61V1L1093 41V101Z" fill="#22840E" stroke="#114207" stroke-miterlimit="1"/>
<path d="M1013 61L833 151V91L1013 1V61Z" fill="#22840E" stroke="#114207" stroke-miterlimit="1"/>
<path d="M913 191L833 151V91L913 131V191Z" fill="#2EB013" stroke="#114207" stroke-miterlimit="1"/>
<path d="M913 191L1093 101V41L913 131V191Z" fill="#2EB013" stroke="#114207" stroke-miterlimit="1"/>
<path d="M1093 41L1013 1L833 91L913 131L1093 41Z" fill="#39DC18" stroke="#114207" stroke-miterlimit="1"/>
<path d="M362 266L282 226L102 316L182 356L362 266Z" stroke="#1D5810" stroke-width="2" stroke-miterlimit="1" stroke-dasharray="8 8"/>
<path d="M362 266L282 226V166L362 206V266Z" stroke="#1D5810" stroke-width="2" stroke-miterlimit="1" stroke-dasharray="8 8"/>
<path d="M282 226L102 316V256L282 166V226Z" stroke="#1D5810" stroke-width="2" stroke-miterlimit="1" stroke-dasharray="8 8"/>
<path d="M182 356L102 316V256L182 296V356Z" stroke="#1D5810" stroke-width="2" stroke-miterlimit="1" stroke-dasharray="8 8"/>
<path d="M182 356L362 266V206L182 296V356Z" stroke="#1D5810" stroke-width="2" stroke-miterlimit="1" stroke-dasharray="8 8"/>
<path d="M362 206L282 166L102 256L182 296L362 206Z" stroke="#1D5810" stroke-width="2" stroke-miterlimit="1" stroke-dasharray="8 8"/>
<path d="M456.502 182.921C456.459 183.748 457.094 184.454 457.921 184.498L471.403 185.207C472.23 185.251 472.936 184.615 472.979 183.788C473.023 182.961 472.387 182.255 471.56 182.211L459.577 181.581L460.207 169.597C460.251 168.77 459.616 168.064 458.788 168.02C457.961 167.977 457.255 168.612 457.212 169.44L456.502 182.921ZM773.269 114.524C739.794 108.415 683.885 104.457 624.8 112.401C565.728 120.342 503.309 140.204 456.997 181.885L459.003 184.115C504.691 142.996 566.438 123.274 625.2 115.374C683.948 107.476 739.539 111.418 772.731 117.475L773.269 114.524Z" fill="black"/>
</svg>
