<svg width="824" height="654" viewBox="0 0 824 654" fill="none" xmlns="http://www.w3.org/2000/svg">
<path d="M822 542L222 242V2L822 302V542Z" stroke="#524E4C" stroke-width="3" stroke-miterlimit="1"/>
<path d="M222 242L2 352V112L222 2V242Z" stroke="#817D7C" stroke-width="3" stroke-miterlimit="1"/>
<path d="M822 542L222 242L2 352L602 652L822 542Z" stroke="#817D7C" stroke-width="3" stroke-miterlimit="1"/>
<path d="M602 652L2 352V112L602 412V652Z" stroke="#817D7C" stroke-width="3" stroke-miterlimit="1"/>
<path d="M602 652L822 542V302L602 412V652Z" stroke="#817D7C" stroke-width="3" stroke-miterlimit="1"/>
<path d="M225.888 143.206C224.387 143.506 223.744 143.863 222.304 145.179C221.4 145.993 220.864 146.608 220.511 147.28C220.22 147.809 219.792 148.51 219.546 148.853C218.627 150.111 218.52 150.711 218.52 154.343C218.52 158.103 218.673 159.046 219.669 161.505C220.006 162.32 220.389 163.421 220.511 163.964C220.711 164.794 220.894 165.108 221.599 165.909L222.457 166.881L222.564 168.253C222.671 169.554 222.671 169.669 222.35 169.998C219.684 172.886 218.75 173.643 214.691 176.231C212.393 177.689 209.237 180.449 208.609 181.535C207.966 182.622 208.012 182.35 206.955 194.517C206.511 199.606 206.327 201.794 205.576 209.886C205.071 215.261 204.917 221.723 205.04 232.903C205.132 241.339 205.178 243.169 205.362 243.397C205.53 243.626 205.576 244.241 205.576 245.999C205.576 247.357 205.653 248.501 205.745 248.787C205.974 249.402 207.491 251.175 208.104 251.504C208.778 251.89 210.018 252.118 210.861 252.004C211.458 251.918 211.749 251.747 212.561 251.046C213.327 250.388 213.634 250.203 214.017 250.203C214.399 250.203 214.66 250.045 215.257 249.473C215.702 249.073 216.13 248.773 216.284 248.801C216.59 248.859 216.667 249.159 217.831 254.492C218.336 256.808 218.918 259.252 219.133 259.924C220.205 263.456 221.078 267.816 221.722 273.034C223.008 283.257 223.039 283.5 223.621 284.429C224.295 285.487 224.372 286.059 224.035 287.617C223.636 289.461 223.774 291.163 224.555 293.993C225.168 296.195 225.184 296.295 225.184 298.669V301.085L225.858 302.857C226.241 303.844 226.761 305.045 227.022 305.545L227.497 306.46L227.236 308.605C226.96 310.949 226.991 313.666 227.328 314.266C227.435 314.452 227.65 314.709 227.803 314.824C228.017 314.981 228.125 315.296 228.186 315.968C228.278 316.825 228.247 316.94 227.834 317.497C227.604 317.826 226.608 318.87 225.628 319.813C223.575 321.786 223.207 322.373 223.085 323.859C223.008 324.76 223.039 324.946 223.315 325.261L223.621 325.604L228.875 325.661L234.145 325.718L234.819 325.046L235.508 324.36L237.086 324.46L238.679 324.546L238.924 324.017C239.169 323.445 239.583 320.328 239.583 318.941C239.583 318.241 239.644 318.055 240.027 317.64L240.471 317.169L240.578 313.466C240.655 310.506 240.64 309.563 240.471 308.819C240.272 307.961 240.272 307.804 240.532 306.961C240.732 306.26 240.808 305.531 240.808 304.044C240.808 302.257 240.762 301.928 240.333 300.556C239.874 299.097 239.858 298.969 239.874 296.324C239.889 293.879 239.812 293.05 239.2 288.461C238.771 285.244 238.296 282.499 237.959 281.098C237.668 279.868 237.331 278.453 237.208 277.938C237.086 277.424 236.887 275.107 236.749 272.791C236.442 267.201 236.259 264.657 235.891 260.711C235.477 256.379 235.309 249.273 235.615 249.373C235.723 249.402 235.876 249.716 235.952 250.074C236.029 250.417 236.626 253.005 237.3 255.821C237.959 258.638 238.572 261.368 238.664 261.897C238.74 262.426 239.047 264.642 239.353 266.815C239.644 269.003 240.165 272.277 240.486 274.107C240.823 275.937 241.176 278.053 241.252 278.796C241.344 279.539 241.482 280.812 241.574 281.627C241.712 282.799 241.85 283.3 242.279 284.143C242.784 285.129 242.845 285.387 243.106 287.975C244.01 296.581 243.994 296.495 244.561 297.267C244.868 297.668 245.128 298.24 245.189 298.597C245.235 298.954 245.205 300.727 245.113 302.543L244.959 305.846L245.94 306.903C247.058 308.104 247.119 308.29 246.629 309.606C246.246 310.664 246.246 310.935 246.69 312.636C246.89 313.423 247.104 314.752 247.165 315.624C247.303 317.726 247.426 318.084 248.1 318.198L248.62 318.284V319.742C248.62 320.528 248.682 321.415 248.774 321.686C248.85 321.958 249.019 322.816 249.141 323.588C249.264 324.36 249.402 325.032 249.463 325.089C249.524 325.146 250.336 325.218 251.271 325.261C252.496 325.318 253.293 325.432 254.089 325.689C255.177 326.018 255.223 326.018 258.072 325.875C261.289 325.704 262.652 325.418 263.51 324.703L264 324.303L263.816 323.388C263.54 321.972 262.315 319.828 260.952 318.412C259.435 316.811 259.297 316.111 260.416 315.682C260.86 315.51 260.875 315.482 260.798 314.767C260.768 314.366 260.661 313.065 260.569 311.893C260.477 310.706 260.308 308.848 260.186 307.747C260.048 306.503 259.941 302.972 259.879 298.383C259.787 290.705 259.65 287.817 259.267 285.844C258.93 284.172 257.919 280.912 257.214 279.282C256.785 278.267 256.525 277.338 256.295 276.008C255.1 268.917 254.334 260.024 254.181 251.532L254.089 246.371L255.299 245.799C256.555 245.199 256.923 244.913 257.49 244.026C257.674 243.726 258.271 243.111 258.822 242.64C259.941 241.682 260.063 241.424 260.201 239.623C260.278 238.636 260.37 238.336 260.661 238.05C261.074 237.621 261.166 237.135 261.779 232.546C262.591 226.541 263.372 219.536 263.617 216.248C264 211.244 263.985 209.585 263.571 204.667C263.341 202.065 263.096 199.592 263.004 199.163C262.82 198.262 261.963 195.403 260.875 192.086C257.582 182.064 257.291 181.078 256.739 178.29C256.203 175.531 255.774 174.83 254.212 174.101C253.155 173.615 249.616 172.299 244.576 170.512C239.705 168.782 238.311 168.153 237.086 167.124C235.585 165.88 235.431 165.165 236.412 163.964C237.162 163.049 237.147 163.092 237.3 161.605C237.377 160.748 237.576 159.904 237.821 159.347C238.388 158.017 239.001 155.601 239.001 154.686C239.001 153.399 238.357 150.854 237.729 149.625C237.254 148.71 234.941 145.879 233.731 144.735C232.49 143.577 232.337 143.506 230.009 143.191C228.125 142.934 227.252 142.934 225.888 143.206Z" fill="black"/>
<path d="M822 302L222 2L2 112L602 412L822 302Z" stroke="#817D7C" stroke-width="3" stroke-miterlimit="1"/>
<path d="M192 296L152 276L102 301L142 321L192 296Z" fill="#4A370D" stroke="#4A370D" stroke-miterlimit="1"/>
<path d="M192 296L152 276V236L192 256V296Z" fill="#956E1A" stroke="#4A370D" stroke-miterlimit="1"/>
<path d="M152 276L102 301V261L152 236V276Z" fill="#956E1A" stroke="#4A370D" stroke-miterlimit="1"/>
<path d="M142 321L102 301V261L142 281V321Z" fill="#C69222" stroke="#4A370D" stroke-miterlimit="1"/>
<path d="M142 321L192 296V256L142 281V321Z" fill="#C69222" stroke="#4A370D" stroke-miterlimit="1"/>
<path d="M192 256L152 236L102 261L142 281L192 256Z" fill="#F8B72B" stroke="#4A370D" stroke-miterlimit="1"/>
<path d="M142 321L102 301L52 326L92 346L142 321Z" fill="#4A370D" stroke="#4A370D" stroke-miterlimit="1"/>
<path d="M142 321L102 301V261L142 281V321Z" fill="#956E1A" stroke="#4A370D" stroke-miterlimit="1"/>
<path d="M102 301L52 326V286L102 261V301Z" fill="#956E1A" stroke="#4A370D" stroke-miterlimit="1"/>
<path d="M92 346L52 326V286L92 306V346Z" fill="#C69222" stroke="#4A370D" stroke-miterlimit="1"/>
<path d="M92 346L142 321V281L92 306V346Z" fill="#C69222" stroke="#4A370D" stroke-miterlimit="1"/>
<path d="M142 281L102 261L52 286L92 306L142 281Z" fill="#F8B72B" stroke="#4A370D" stroke-miterlimit="1"/>
<path d="M92 346L52 326L2 351L42 371L92 346Z" fill="#4A370D" stroke="#4A370D" stroke-miterlimit="1"/>
<path d="M92 346L52 326V286L92 306V346Z" fill="#956E1A" stroke="#4A370D" stroke-miterlimit="1"/>
<path d="M52 326L2 351V311L52 286V326Z" fill="#956E1A" stroke="#4A370D" stroke-miterlimit="1"/>
<path d="M42 371L2 351V311L42 331V371Z" fill="#C69222" stroke="#4A370D" stroke-miterlimit="1"/>
<path d="M42 371L92 346V306L42 331V371Z" fill="#C69222" stroke="#4A370D" stroke-miterlimit="1"/>
<path d="M92 306L52 286L2 311L42 331L92 306Z" fill="#F8B72B" stroke="#4A370D" stroke-miterlimit="1"/>
<path d="M202.157 367.081L272.168 331.588L753.749 576.837L683.333 612.409L202.157 367.081Z" fill="black" fill-opacity="0.42" stroke="black"/>
<path d="M272 331.5L202 367L207 369.5L276.5 334L272 331.5Z" fill="black" fill-opacity="0.77"/>
<path d="M280 336L210 371.5L215 374L284.5 338.5L280 336Z" fill="black" fill-opacity="0.77"/>
<path d="M289 340L219 375.5L224 378L293.5 342.5L289 340Z" fill="black" fill-opacity="0.77"/>
<path d="M297 344L227 379.5L232 382L301.5 346.5L297 344Z" fill="black" fill-opacity="0.77"/>
<path d="M305 348.5L235 384L240 386.5L309.5 351L305 348.5Z" fill="black" fill-opacity="0.77"/>
<path d="M314 352.5L244 388L249 390.5L318.5 355L314 352.5Z" fill="black" fill-opacity="0.77"/>
<path d="M323 357L253 392.5L258 395L327.5 359.5L323 357Z" fill="black" fill-opacity="0.77"/>
<path d="M331 361.5L261 397L266 399.5L335.5 364L331 361.5Z" fill="black" fill-opacity="0.77"/>
<path d="M340 365.5L270 401L275 403.5L344.5 368L340 365.5Z" fill="black" fill-opacity="0.77"/>
<path d="M348 369.5L278 405L283 407.5L352.5 372L348 369.5Z" fill="black" fill-opacity="0.77"/>
<path d="M356 374L286 409.5L291 412L360.5 376.5L356 374Z" fill="black" fill-opacity="0.77"/>
<path d="M365 378L295 413.5L300 416L369.5 380.5L365 378Z" fill="black" fill-opacity="0.77"/>
<path d="M372 382L302 417.5L307 420L376.5 384.5L372 382Z" fill="black" fill-opacity="0.77"/>
<path d="M422 408L352 443.5L357 446L426.5 410.5L422 408Z" fill="black" fill-opacity="0.77"/>
<path d="M473 433L403 468.5L408 471L477.5 435.5L473 433Z" fill="black" fill-opacity="0.77"/>
<path d="M524 459L454 494.5L459 497L528.5 461.5L524 459Z" fill="black" fill-opacity="0.77"/>
<path d="M574 485L504 520.5L509 523L578.5 487.5L574 485Z" fill="black" fill-opacity="0.77"/>
<path d="M624 510L554 545.5L559 548L628.5 512.5L624 510Z" fill="black" fill-opacity="0.77"/>
<path d="M673 536L603 571.5L608 574L677.5 538.5L673 536Z" fill="black" fill-opacity="0.77"/>
<path d="M722 561L652 596.5L657 599L726.5 563.5L722 561Z" fill="black" fill-opacity="0.77"/>
<path d="M430 412.5L360 448L365 450.5L434.5 415L430 412.5Z" fill="black" fill-opacity="0.77"/>
<path d="M380 386.5L310 422L315 424.5L384.5 389L380 386.5Z" fill="black" fill-opacity="0.77"/>
<path d="M481 437.5L411 473L416 475.5L485.5 440L481 437.5Z" fill="black" fill-opacity="0.77"/>
<path d="M582 489.5L512 525L517 527.5L586.5 492L582 489.5Z" fill="black" fill-opacity="0.77"/>
<path d="M532 463.5L462 499L467 501.5L536.5 466L532 463.5Z" fill="black" fill-opacity="0.77"/>
<path d="M439 416.5L369 452L374 454.5L443.5 419L439 416.5Z" fill="black" fill-opacity="0.77"/>
<path d="M632 514.5L562 550L567 552.5L636.5 517L632 514.5Z" fill="black" fill-opacity="0.77"/>
<path d="M681 540.5L611 576L616 578.5L685.5 543L681 540.5Z" fill="black" fill-opacity="0.77"/>
<path d="M730 565.5L660 601L665 603.5L734.5 568L730 565.5Z" fill="black" fill-opacity="0.77"/>
<path d="M447 420.5L377 456L382 458.5L451.5 423L447 420.5Z" fill="black" fill-opacity="0.77"/>
<path d="M490 441.5L420 477L425 479.5L494.5 444L490 441.5Z" fill="black" fill-opacity="0.77"/>
<path d="M591 493.5L521 529L526 531.5L595.5 496L591 493.5Z" fill="black" fill-opacity="0.77"/>
<path d="M389 390.5L319 426L324 428.5L393.5 393L389 390.5Z" fill="black" fill-opacity="0.77"/>
<path d="M541 467.5L471 503L476 505.5L545.5 470L541 467.5Z" fill="black" fill-opacity="0.77"/>
<path d="M455 425L385 460.5L390 463L459.5 427.5L455 425Z" fill="black" fill-opacity="0.77"/>
<path d="M498 445.5L428 481L433 483.5L502.5 448L498 445.5Z" fill="black" fill-opacity="0.77"/>
<path d="M641 518.5L571 554L576 556.5L645.5 521L641 518.5Z" fill="black" fill-opacity="0.77"/>
<path d="M690 544.5L620 580L625 582.5L694.5 547L690 544.5Z" fill="black" fill-opacity="0.77"/>
<path d="M739 569.5L669 605L674 607.5L743.5 572L739 569.5Z" fill="black" fill-opacity="0.77"/>
<path d="M506 450L436 485.5L441 488L510.5 452.5L506 450Z" fill="black" fill-opacity="0.77"/>
<path d="M599 497.5L529 533L534 535.5L603.5 500L599 497.5Z" fill="black" fill-opacity="0.77"/>
<path d="M549 471.5L479 507L484 509.5L553.5 474L549 471.5Z" fill="black" fill-opacity="0.77"/>
<path d="M607 502L537 537.5L542 540L611.5 504.5L607 502Z" fill="black" fill-opacity="0.77"/>
<path d="M464 429L394 464.5L399 467L468.5 431.5L464 429Z" fill="black" fill-opacity="0.77"/>
<path d="M616 506L546 541.5L551 544L620.5 508.5L616 506Z" fill="black" fill-opacity="0.77"/>
<path d="M557 476L487 511.5L492 514L561.5 478.5L557 476Z" fill="black" fill-opacity="0.77"/>
<path d="M515 454L445 489.5L450 492L519.5 456.5L515 454Z" fill="black" fill-opacity="0.77"/>
<path d="M566 480L496 515.5L501 518L570.5 482.5L566 480Z" fill="black" fill-opacity="0.77"/>
<path d="M649 522.5L579 558L584 560.5L653.5 525L649 522.5Z" fill="black" fill-opacity="0.77"/>
<path d="M698 548.5L628 584L633 586.5L702.5 551L698 548.5Z" fill="black" fill-opacity="0.77"/>
<path d="M747 573.5L677 609L682 611.5L751.5 576L747 573.5Z" fill="black" fill-opacity="0.77"/>
<path d="M397 394.5L327 430L332 432.5L401.5 397L397 394.5Z" fill="black" fill-opacity="0.77"/>
<path d="M657 527L587 562.5L592 565L661.5 529.5L657 527Z" fill="black" fill-opacity="0.77"/>
<path d="M706 553L636 588.5L641 591L710.5 555.5L706 553Z" fill="black" fill-opacity="0.77"/>
<path d="M405 399L335 434.5L340 437L409.5 401.5L405 399Z" fill="black" fill-opacity="0.77"/>
<path d="M414 403L344 438.5L349 441L418.5 405.5L414 403Z" fill="black" fill-opacity="0.77"/>
<path d="M666 531L596 566.5L601 569L670.5 533.5L666 531Z" fill="black" fill-opacity="0.77"/>
<path d="M715 557L645 592.5L650 595L719.5 559.5L715 557Z" fill="black" fill-opacity="0.77"/>
<path d="M331 378L291 358L241 383L281 403L331 378Z" fill="#4A370D" stroke="#4A370D" stroke-miterlimit="1"/>
<path d="M331 378L291 358V318L331 338V378Z" fill="#956E1A" stroke="#4A370D" stroke-miterlimit="1"/>
<path d="M291 358L241 383V343L291 318V358Z" fill="#956E1A" stroke="#4A370D" stroke-miterlimit="1"/>
<path d="M281 403L241 383V343L281 363V403Z" fill="#C69222" stroke="#4A370D" stroke-miterlimit="1"/>
<path d="M281 403L331 378V338L281 363V403Z" fill="#C69222" stroke="#4A370D" stroke-miterlimit="1"/>
<path d="M331 338L291 318L241 343L281 363L331 338Z" fill="#F8B72B" stroke="#4A370D" stroke-miterlimit="1"/>
<path d="M444 433L404 413L354 438L394 458L444 433Z" fill="#4A370D" stroke="#4A370D" stroke-miterlimit="1"/>
<path d="M444 433L404 413V373L444 393V433Z" fill="#956E1A" stroke="#4A370D" stroke-miterlimit="1"/>
<path d="M404 413L354 438V398L404 373V413Z" fill="#956E1A" stroke="#4A370D" stroke-miterlimit="1"/>
<path d="M394 458L354 438V398L394 418V458Z" fill="#C69222" stroke="#4A370D" stroke-miterlimit="1"/>
<path d="M394 458L444 433V393L394 418V458Z" fill="#C69222" stroke="#4A370D" stroke-miterlimit="1"/>
<path d="M444 393L404 373L354 398L394 418L444 393Z" fill="#F8B72B" stroke="#4A370D" stroke-miterlimit="1"/>
<path d="M570 498L530 478L480 503L520 523L570 498Z" fill="#4A370D" stroke="#4A370D" stroke-miterlimit="1"/>
<path d="M570 498L530 478V438L570 458V498Z" fill="#956E1A" stroke="#4A370D" stroke-miterlimit="1"/>
<path d="M530 478L480 503V463L530 438V478Z" fill="#956E1A" stroke="#4A370D" stroke-miterlimit="1"/>
<path d="M520 523L480 503V463L520 483V523Z" fill="#C69222" stroke="#4A370D" stroke-miterlimit="1"/>
<path d="M520 523L570 498V458L520 483V523Z" fill="#C69222" stroke="#4A370D" stroke-miterlimit="1"/>
<path d="M570 458L530 438L480 463L520 483L570 458Z" fill="#F8B72B" stroke="#4A370D" stroke-miterlimit="1"/>
<path d="M715 573L675 553L625 578L665 598L715 573Z" fill="#4A370D" stroke="#4A370D" stroke-miterlimit="1"/>
<path d="M715 573L675 553V513L715 533V573Z" fill="#956E1A" stroke="#4A370D" stroke-miterlimit="1"/>
<path d="M675 553L625 578V538L675 513V553Z" fill="#956E1A" stroke="#4A370D" stroke-miterlimit="1"/>
<path d="M665 598L625 578V538L665 558V598Z" fill="#C69222" stroke="#4A370D" stroke-miterlimit="1"/>
<path d="M665 598L715 573V533L665 558V598Z" fill="#C69222" stroke="#4A370D" stroke-miterlimit="1"/>
<path d="M715 533L675 513L625 538L665 558L715 533Z" fill="#F8B72B" stroke="#4A370D" stroke-miterlimit="1"/>
</svg>
