<svg width="418" height="131" viewBox="0 0 418 131" fill="none" xmlns="http://www.w3.org/2000/svg">
<rect x="118.5" y="0.5" width="74.7449" height="43" fill="#D9D9D9" stroke="black"/>
<rect x="118.5" y="43.5" width="74.7449" height="44" stroke="black"/>
<rect x="118.5" y="87.5" width="74.7449" height="43" fill="#D9D9D9" stroke="black"/>
<rect x="193.252" y="0.5" width="74.7449" height="43.1744" fill="#D9D9D9" stroke="black"/>
<rect x="193.252" y="43.9126" width="74.7449" height="43.1744" stroke="black"/>
<rect x="193.252" y="87.3257" width="74.7449" height="43.1744" fill="#D9D9D9" stroke="black"/>
<rect x="268.003" y="0.5" width="74.7449" height="43.1744" fill="#D9D9D9" stroke="black"/>
<rect x="268.003" y="43.9126" width="74.7449" height="43.1744" stroke="black"/>
<rect x="268.003" y="87.3257" width="74.7449" height="43.1744" fill="#D9D9D9" stroke="black"/>
<rect x="342.755" y="0.5" width="74.7449" height="43.1744" fill="#D9D9D9" stroke="black"/>
<rect x="342.755" y="43.9126" width="74.7449" height="43.1744" stroke="black"/>
<rect x="342.755" y="87.3257" width="74.7449" height="43.1744" fill="#D9D9D9" stroke="black"/>
<path d="M47.0625 13.7187V12H59.0625V13.7187H54.0313V28H52.0938V13.7187H47.0625ZM61.8027 28V16H63.6465V28H61.8027ZM62.7402 14C62.3809 14 62.071 13.8776 61.8105 13.6328C61.5553 13.388 61.4277 13.0938 61.4277 12.75C61.4277 12.4063 61.5553 12.112 61.8105 11.8672C62.071 11.6224 62.3809 11.5 62.7402 11.5C63.0996 11.5 63.4069 11.6224 63.6621 11.8672C63.9225 12.112 64.0527 12.4063 64.0527 12.75C64.0527 13.0938 63.9225 13.388 63.6621 13.6328C63.4069 13.8776 63.0996 14 62.7402 14ZM67.0234 32.5V16H68.8047V17.9062H69.0234C69.1589 17.6979 69.3464 17.4323 69.5859 17.1094C69.8307 16.7812 70.1797 16.4896 70.6328 16.2344C71.0911 15.974 71.7109 15.8438 72.4922 15.8438C73.5026 15.8438 74.3932 16.0964 75.1641 16.6016C75.9349 17.1068 76.5365 17.8229 76.9688 18.75C77.401 19.6771 77.6172 20.7708 77.6172 22.0313C77.6172 23.3021 77.401 24.4036 76.9688 25.3359C76.5365 26.263 75.9375 26.9818 75.1719 27.4922C74.4063 27.9974 73.5234 28.25 72.5234 28.25C71.7526 28.25 71.1354 28.1224 70.6719 27.8672C70.2083 27.6068 69.8516 27.3125 69.6016 26.9844C69.3516 26.651 69.1589 26.375 69.0234 26.1562H68.8672V32.5H67.0234ZM68.8359 22C68.8359 22.9062 68.9687 23.7057 69.2344 24.3984C69.5 25.0859 69.888 25.625 70.3984 26.0156C70.9089 26.401 71.5339 26.5938 72.2734 26.5938C73.0443 26.5938 73.6875 26.3906 74.2031 25.9844C74.724 25.5729 75.1146 25.0208 75.375 24.3281C75.6406 23.6302 75.7734 22.8542 75.7734 22C75.7734 21.1562 75.6432 20.3958 75.3828 19.7187C75.1276 19.0365 74.7396 18.4974 74.2188 18.1016C73.7031 17.7005 73.0547 17.5 72.2734 17.5C71.5234 17.5 70.8932 17.6901 70.3828 18.0703C69.8724 18.4453 69.487 18.9714 69.2266 19.6484C68.9661 20.3203 68.8359 21.1042 68.8359 22ZM85.3047 28.25C84.2214 28.25 83.2708 27.9922 82.4531 27.4766C81.6406 26.9609 81.0052 26.2396 80.5469 25.3125C80.0938 24.3854 79.8672 23.3021 79.8672 22.0625C79.8672 20.8125 80.0938 19.7214 80.5469 18.7891C81.0052 17.8568 81.6406 17.1328 82.4531 16.6172C83.2708 16.1016 84.2214 15.8438 85.3047 15.8438C86.388 15.8438 87.3359 16.1016 88.1484 16.6172C88.9661 17.1328 89.6016 17.8568 90.0547 18.7891C90.513 19.7214 90.7422 20.8125 90.7422 22.0625C90.7422 23.3021 90.513 24.3854 90.0547 25.3125C89.6016 26.2396 88.9661 26.9609 88.1484 27.4766C87.3359 27.9922 86.388 28.25 85.3047 28.25ZM85.3047 26.5938C86.1276 26.5938 86.8047 26.3828 87.3359 25.9609C87.8672 25.5391 88.2604 24.9844 88.5156 24.2969C88.7708 23.6094 88.8984 22.8646 88.8984 22.0625C88.8984 21.2604 88.7708 20.513 88.5156 19.8203C88.2604 19.1276 87.8672 18.5677 87.3359 18.1406C86.8047 17.7135 86.1276 17.5 85.3047 17.5C84.4818 17.5 83.8047 17.7135 83.2734 18.1406C82.7422 18.5677 82.349 19.1276 82.0938 19.8203C81.8385 20.513 81.7109 21.2604 81.7109 22.0625C81.7109 22.8646 81.8385 23.6094 82.0938 24.2969C82.349 24.9844 82.7422 25.5391 83.2734 25.9609C83.8047 26.3828 84.4818 26.5938 85.3047 26.5938Z" fill="black"/>
<path d="M5.9375 74V58H11.3438C12.5938 58 13.6198 58.2135 14.4219 58.6406C15.224 59.0625 15.8177 59.6432 16.2031 60.3828C16.5885 61.1224 16.7813 61.9635 16.7813 62.9062C16.7813 63.849 16.5885 64.6849 16.2031 65.4141C15.8177 66.1432 15.2266 66.7161 14.4297 67.1328C13.6328 67.5443 12.6146 67.75 11.375 67.75H7V66H11.3125C12.1667 66 12.8542 65.875 13.375 65.625C13.901 65.375 14.2813 65.0208 14.5156 64.5625C14.7552 64.099 14.875 63.5469 14.875 62.9062C14.875 62.2656 14.7552 61.7057 14.5156 61.2266C14.276 60.7474 13.8932 60.3776 13.3672 60.1172C12.8411 59.8516 12.1458 59.7187 11.2812 59.7187H7.875V74H5.9375ZM13.4688 66.8125L17.4062 74H15.1563L11.2812 66.8125H13.4688ZM24.5059 74.25C23.4225 74.25 22.472 73.9922 21.6543 73.4766C20.8418 72.9609 20.2064 72.2396 19.748 71.3125C19.2949 70.3854 19.0684 69.3021 19.0684 68.0625C19.0684 66.8125 19.2949 65.7214 19.748 64.7891C20.2064 63.8568 20.8418 63.1328 21.6543 62.6172C22.472 62.1016 23.4225 61.8438 24.5059 61.8438C25.5892 61.8438 26.5371 62.1016 27.3496 62.6172C28.1673 63.1328 28.8027 63.8568 29.2559 64.7891C29.7142 65.7214 29.9434 66.8125 29.9434 68.0625C29.9434 69.3021 29.7142 70.3854 29.2559 71.3125C28.8027 72.2396 28.1673 72.9609 27.3496 73.4766C26.5371 73.9922 25.5892 74.25 24.5059 74.25ZM24.5059 72.5938C25.3288 72.5938 26.0059 72.3828 26.5371 71.9609C27.0684 71.5391 27.4616 70.9844 27.7168 70.2969C27.972 69.6094 28.0996 68.8646 28.0996 68.0625C28.0996 67.2604 27.972 66.513 27.7168 65.8203C27.4616 65.1276 27.0684 64.5677 26.5371 64.1406C26.0059 63.7135 25.3288 63.5 24.5059 63.5C23.6829 63.5 23.0059 63.7135 22.4746 64.1406C21.9434 64.5677 21.5501 65.1276 21.2949 65.8203C21.0397 66.513 20.9121 67.2604 20.9121 68.0625C20.9121 68.8646 21.0397 69.6094 21.2949 70.2969C21.5501 70.9844 21.9434 71.5391 22.4746 71.9609C23.0059 72.3828 23.6829 72.5938 24.5059 72.5938ZM37.9766 62V63.5625H31.7578V62H37.9766ZM33.5703 59.125H35.4141V70.5625C35.4141 71.0833 35.4896 71.474 35.6406 71.7344C35.7969 71.9896 35.9948 72.1615 36.2344 72.25C36.4792 72.3333 36.737 72.375 37.0078 72.375C37.2109 72.375 37.3776 72.3646 37.5078 72.3437C37.638 72.3177 37.7422 72.2969 37.8203 72.2812L38.1953 73.9375C38.0703 73.9844 37.8958 74.0313 37.6719 74.0781C37.4479 74.1302 37.1641 74.1563 36.8203 74.1563C36.2995 74.1563 35.7891 74.0443 35.2891 73.8203C34.7943 73.5964 34.3828 73.2552 34.0547 72.7969C33.7318 72.3385 33.5703 71.7604 33.5703 71.0625V59.125ZM44.2813 74.2813C43.5208 74.2813 42.8307 74.138 42.2109 73.8516C41.5911 73.5599 41.099 73.1406 40.7344 72.5938C40.3698 72.0417 40.1875 71.375 40.1875 70.5937C40.1875 69.9062 40.3229 69.349 40.5938 68.9219C40.8646 68.4896 41.2266 68.151 41.6797 67.9062C42.1328 67.6615 42.6328 67.4792 43.1797 67.3594C43.7318 67.2344 44.2865 67.1354 44.8438 67.0625C45.5729 66.9687 46.1641 66.8984 46.6172 66.8516C47.0755 66.7995 47.4089 66.7135 47.6172 66.5937C47.8307 66.474 47.9375 66.2656 47.9375 65.9687V65.9062C47.9375 65.1354 47.7266 64.5365 47.3047 64.1094C46.888 63.6823 46.2552 63.4687 45.4063 63.4687C44.526 63.4687 43.8359 63.6615 43.3359 64.0469C42.8359 64.4323 42.4844 64.8437 42.2813 65.2812L40.5313 64.6562C40.8438 63.9271 41.2604 63.3594 41.7813 62.9531C42.3073 62.5417 42.8802 62.2552 43.5 62.0937C44.125 61.9271 44.7396 61.8438 45.3438 61.8438C45.7292 61.8438 46.1719 61.8906 46.6719 61.9844C47.1771 62.0729 47.6641 62.2578 48.1328 62.5391C48.6068 62.8203 49 63.2448 49.3125 63.8125C49.625 64.3802 49.7813 65.1406 49.7813 66.0938V74H47.9375V72.375H47.8438C47.7188 72.6354 47.5104 72.9141 47.2188 73.2109C46.9271 73.5078 46.5391 73.7604 46.0547 73.9687C45.5703 74.1771 44.9792 74.2813 44.2813 74.2813ZM44.5625 72.625C45.2917 72.625 45.9063 72.4818 46.4063 72.1953C46.9115 71.9089 47.2917 71.5391 47.5469 71.0859C47.8073 70.6328 47.9375 70.1562 47.9375 69.6562V67.9687C47.8594 68.0625 47.6875 68.1484 47.4219 68.2266C47.1615 68.2995 46.8594 68.3646 46.5156 68.4219C46.1771 68.474 45.8464 68.5208 45.5234 68.5625C45.2057 68.599 44.9479 68.6302 44.75 68.6562C44.2708 68.7187 43.8229 68.8203 43.4063 68.9609C42.9948 69.0964 42.6615 69.3021 42.4063 69.5781C42.1563 69.849 42.0313 70.2187 42.0313 70.6875C42.0313 71.3281 42.2682 71.8125 42.7422 72.1406C43.2214 72.4635 43.8281 72.625 44.5625 72.625ZM58.0215 74.25C56.8965 74.25 55.9277 73.9844 55.1152 73.4531C54.3027 72.9219 53.6777 72.1901 53.2402 71.2578C52.8027 70.3255 52.584 69.2604 52.584 68.0625C52.584 66.8437 52.8079 65.7682 53.2559 64.8359C53.709 63.8984 54.3392 63.1667 55.1465 62.6406C55.959 62.1094 56.9069 61.8438 57.9902 61.8438C58.834 61.8438 59.5944 62 60.2715 62.3125C60.9486 62.625 61.5033 63.0625 61.9355 63.625C62.3678 64.1875 62.6361 64.8437 62.7402 65.5937H60.8965C60.7559 65.0469 60.4434 64.5625 59.959 64.1406C59.4798 63.7135 58.834 63.5 58.0215 63.5C57.3027 63.5 56.6725 63.6875 56.1309 64.0625C55.5944 64.4323 55.1751 64.9557 54.873 65.6328C54.5762 66.3047 54.4277 67.0937 54.4277 68C54.4277 68.9271 54.5736 69.7344 54.8652 70.4219C55.1621 71.1094 55.5788 71.6432 56.1152 72.0234C56.6569 72.4036 57.2923 72.5938 58.0215 72.5938C58.5007 72.5938 58.9355 72.5104 59.3262 72.3437C59.7168 72.1771 60.0475 71.9375 60.3184 71.625C60.5892 71.3125 60.7819 70.9375 60.8965 70.5H62.7402C62.6361 71.2083 62.3783 71.8464 61.9668 72.4141C61.5605 72.9766 61.0215 73.4245 60.3496 73.7578C59.6829 74.0859 58.9069 74.25 58.0215 74.25ZM65.4355 74V62H67.2793V74H65.4355ZM66.373 60C66.0137 60 65.7038 59.8776 65.4434 59.6328C65.1882 59.388 65.0605 59.0938 65.0605 58.75C65.0605 58.4063 65.1882 58.112 65.4434 57.8672C65.7038 57.6224 66.0137 57.5 66.373 57.5C66.7324 57.5 67.0397 57.6224 67.2949 57.8672C67.5553 58.112 67.6855 58.4063 67.6855 58.75C67.6855 59.0938 67.5553 59.388 67.2949 59.6328C67.0397 59.8776 66.7324 60 66.373 60ZM75.5313 74.25C74.4479 74.25 73.4974 73.9922 72.6797 73.4766C71.8672 72.9609 71.2318 72.2396 70.7734 71.3125C70.3203 70.3854 70.0938 69.3021 70.0938 68.0625C70.0938 66.8125 70.3203 65.7214 70.7734 64.7891C71.2318 63.8568 71.8672 63.1328 72.6797 62.6172C73.4974 62.1016 74.4479 61.8438 75.5313 61.8438C76.6146 61.8438 77.5625 62.1016 78.375 62.6172C79.1927 63.1328 79.8281 63.8568 80.2813 64.7891C80.7396 65.7214 80.9688 66.8125 80.9688 68.0625C80.9688 69.3021 80.7396 70.3854 80.2813 71.3125C79.8281 72.2396 79.1927 72.9609 78.375 73.4766C77.5625 73.9922 76.6146 74.25 75.5313 74.25ZM75.5313 72.5938C76.3542 72.5938 77.0312 72.3828 77.5625 71.9609C78.0938 71.5391 78.487 70.9844 78.7422 70.2969C78.9974 69.6094 79.125 68.8646 79.125 68.0625C79.125 67.2604 78.9974 66.513 78.7422 65.8203C78.487 65.1276 78.0938 64.5677 77.5625 64.1406C77.0312 63.7135 76.3542 63.5 75.5313 63.5C74.7083 63.5 74.0313 63.7135 73.5 64.1406C72.9688 64.5677 72.5755 65.1276 72.3203 65.8203C72.0651 66.513 71.9375 67.2604 71.9375 68.0625C71.9375 68.8646 72.0651 69.6094 72.3203 70.2969C72.5755 70.9844 72.9688 71.5391 73.5 71.9609C74.0313 72.3828 74.7083 72.5938 75.5313 72.5938ZM74.6875 60.375L76.5937 56.75H78.75L76.3125 60.375H74.6875ZM85.627 66.7812V74H83.7832V62H85.5645V63.875H85.7207C86.002 63.2656 86.429 62.776 87.002 62.4063C87.5749 62.0313 88.3145 61.8438 89.2207 61.8438C90.0332 61.8438 90.7441 62.0104 91.3535 62.3437C91.9629 62.6719 92.4368 63.1719 92.7754 63.8437C93.1139 64.5104 93.2832 65.3542 93.2832 66.375V74H91.4395V66.5C91.4395 65.5573 91.1947 64.8229 90.7051 64.2969C90.2155 63.7656 89.5436 63.5 88.6895 63.5C88.1009 63.5 87.5749 63.6276 87.1113 63.8828C86.653 64.138 86.291 64.5104 86.0254 65C85.7598 65.4896 85.627 66.0833 85.627 66.7812Z" fill="black"/>
<path d="M14.8125 106H12.875C12.7604 105.443 12.5599 104.953 12.2734 104.531C11.9922 104.109 11.6484 103.755 11.2422 103.469C10.8411 103.177 10.3958 102.958 9.90625 102.812C9.41667 102.667 8.90625 102.594 8.375 102.594C7.40625 102.594 6.52865 102.839 5.74219 103.328C4.96094 103.818 4.33854 104.539 3.875 105.492C3.41667 106.445 3.1875 107.615 3.1875 109C3.1875 110.385 3.41667 111.555 3.875 112.508C4.33854 113.461 4.96094 114.182 5.74219 114.672C6.52865 115.161 7.40625 115.406 8.375 115.406C8.90625 115.406 9.41667 115.333 9.90625 115.187C10.3958 115.042 10.8411 114.826 11.2422 114.539C11.6484 114.247 11.9922 113.891 12.2734 113.469C12.5599 113.042 12.7604 112.552 12.875 112H14.8125C14.6667 112.818 14.401 113.549 14.0156 114.195C13.6302 114.841 13.151 115.391 12.5781 115.844C12.0052 116.292 11.362 116.633 10.6484 116.867C9.9401 117.102 9.18229 117.219 8.375 117.219C7.01042 117.219 5.79688 116.885 4.73438 116.219C3.67188 115.552 2.83594 114.604 2.22656 113.375C1.61719 112.146 1.3125 110.687 1.3125 109C1.3125 107.312 1.61719 105.854 2.22656 104.625C2.83594 103.396 3.67188 102.448 4.73438 101.781C5.79688 101.115 7.01042 100.781 8.375 100.781C9.18229 100.781 9.9401 100.898 10.6484 101.133C11.362 101.367 12.0052 101.711 12.5781 102.164C13.151 102.612 13.6302 103.159 14.0156 103.805C14.401 104.445 14.6667 105.177 14.8125 106ZM21.2246 117.281C20.4642 117.281 19.7741 117.138 19.1543 116.852C18.5345 116.56 18.0423 116.141 17.6777 115.594C17.3132 115.042 17.1309 114.375 17.1309 113.594C17.1309 112.906 17.2663 112.349 17.5371 111.922C17.8079 111.49 18.1699 111.151 18.623 110.906C19.0762 110.661 19.5762 110.479 20.123 110.359C20.6751 110.234 21.2298 110.135 21.7871 110.063C22.5163 109.969 23.1074 109.898 23.5605 109.852C24.0189 109.799 24.3522 109.714 24.5605 109.594C24.7741 109.474 24.8809 109.266 24.8809 108.969V108.906C24.8809 108.135 24.6699 107.536 24.248 107.109C23.8314 106.682 23.1986 106.469 22.3496 106.469C21.4694 106.469 20.7793 106.661 20.2793 107.047C19.7793 107.432 19.4277 107.844 19.2246 108.281L17.4746 107.656C17.7871 106.927 18.2038 106.359 18.7246 105.953C19.2507 105.542 19.8236 105.255 20.4434 105.094C21.0684 104.927 21.6829 104.844 22.2871 104.844C22.6725 104.844 23.1152 104.891 23.6152 104.984C24.1204 105.073 24.6074 105.258 25.0762 105.539C25.5501 105.82 25.9434 106.245 26.2559 106.812C26.5684 107.38 26.7246 108.141 26.7246 109.094V117H24.8809V115.375H24.7871C24.6621 115.635 24.4538 115.914 24.1621 116.211C23.8704 116.508 23.4824 116.76 22.998 116.969C22.5137 117.177 21.9225 117.281 21.2246 117.281ZM21.5059 115.625C22.235 115.625 22.8496 115.482 23.3496 115.195C23.8548 114.909 24.235 114.539 24.4902 114.086C24.7507 113.633 24.8809 113.156 24.8809 112.656V110.969C24.8027 111.062 24.6309 111.148 24.3652 111.227C24.1048 111.299 23.8027 111.365 23.459 111.422C23.1204 111.474 22.7897 111.521 22.4668 111.562C22.1491 111.599 21.8913 111.63 21.6934 111.656C21.2142 111.719 20.7663 111.82 20.3496 111.961C19.9382 112.096 19.6048 112.302 19.3496 112.578C19.0996 112.849 18.9746 113.219 18.9746 113.687C18.9746 114.328 19.2116 114.812 19.6855 115.141C20.1647 115.464 20.7715 115.625 21.5059 115.625ZM31.9336 109.781V117H30.0898V105H31.8711V106.875H32.0273C32.3086 106.266 32.7357 105.776 33.3086 105.406C33.8815 105.031 34.6211 104.844 35.5273 104.844C36.3398 104.844 37.0508 105.01 37.6602 105.344C38.2695 105.672 38.7435 106.172 39.082 106.844C39.4206 107.51 39.5898 108.354 39.5898 109.375V117H37.7461V109.5C37.7461 108.557 37.5013 107.823 37.0117 107.297C36.5221 106.766 35.8503 106.5 34.9961 106.5C34.4076 106.5 33.8815 106.628 33.418 106.883C32.9596 107.138 32.5977 107.51 32.332 108C32.0664 108.49 31.9336 109.083 31.9336 109.781ZM48.1777 105V106.562H41.959V105H48.1777ZM43.7715 102.125H45.6152V113.562C45.6152 114.083 45.6908 114.474 45.8418 114.734C45.998 114.99 46.196 115.161 46.4355 115.25C46.6803 115.333 46.9382 115.375 47.209 115.375C47.4121 115.375 47.5788 115.365 47.709 115.344C47.8392 115.318 47.9434 115.297 48.0215 115.281L48.3965 116.937C48.2715 116.984 48.097 117.031 47.873 117.078C47.6491 117.13 47.3652 117.156 47.0215 117.156C46.5007 117.156 45.9902 117.044 45.4902 116.82C44.9954 116.596 44.584 116.255 44.2559 115.797C43.9329 115.339 43.7715 114.76 43.7715 114.062V102.125ZM50.9512 117V105H52.7949V117H50.9512ZM51.8887 103C51.5293 103 51.2194 102.878 50.959 102.633C50.7038 102.388 50.5762 102.094 50.5762 101.75C50.5762 101.406 50.7038 101.112 50.959 100.867C51.2194 100.622 51.5293 100.5 51.8887 100.5C52.248 100.5 52.5553 100.622 52.8105 100.867C53.071 101.112 53.2012 101.406 53.2012 101.75C53.2012 102.094 53.071 102.388 52.8105 102.633C52.5553 102.878 52.248 103 51.8887 103ZM60.7031 117.25C59.7031 117.25 58.8203 116.997 58.0547 116.492C57.2891 115.982 56.6901 115.263 56.2578 114.336C55.8255 113.404 55.6094 112.302 55.6094 111.031C55.6094 109.771 55.8255 108.677 56.2578 107.75C56.6901 106.823 57.2917 106.107 58.0625 105.602C58.8333 105.096 59.724 104.844 60.7344 104.844C61.5156 104.844 62.1328 104.974 62.5859 105.234C63.0443 105.49 63.3932 105.781 63.6328 106.109C63.8776 106.432 64.0677 106.698 64.2031 106.906H64.3594V101H66.2031V117H64.4219V115.156H64.2031C64.0677 115.375 63.875 115.651 63.625 115.984C63.375 116.312 63.0182 116.607 62.5547 116.867C62.0911 117.122 61.474 117.25 60.7031 117.25ZM60.9531 115.594C61.6927 115.594 62.3177 115.401 62.8281 115.016C63.3385 114.625 63.7266 114.086 63.9922 113.398C64.2578 112.706 64.3906 111.906 64.3906 111C64.3906 110.104 64.2604 109.32 64 108.648C63.7396 107.971 63.3542 107.445 62.8438 107.07C62.3333 106.69 61.7031 106.5 60.9531 106.5C60.1719 106.5 59.5208 106.701 59 107.102C58.4844 107.497 58.0964 108.036 57.8359 108.719C57.5807 109.396 57.4531 110.156 57.4531 111C57.4531 111.854 57.5833 112.63 57.8438 113.328C58.1094 114.021 58.5 114.573 59.0156 114.984C59.5365 115.391 60.1823 115.594 60.9531 115.594ZM73.3672 117.281C72.6068 117.281 71.9167 117.138 71.2969 116.852C70.6771 116.56 70.1849 116.141 69.8203 115.594C69.4557 115.042 69.2734 114.375 69.2734 113.594C69.2734 112.906 69.4089 112.349 69.6797 111.922C69.9505 111.49 70.3125 111.151 70.7656 110.906C71.2187 110.661 71.7188 110.479 72.2656 110.359C72.8177 110.234 73.3724 110.135 73.9297 110.063C74.6589 109.969 75.25 109.898 75.7031 109.852C76.1615 109.799 76.4948 109.714 76.7031 109.594C76.9167 109.474 77.0234 109.266 77.0234 108.969V108.906C77.0234 108.135 76.8125 107.536 76.3906 107.109C75.974 106.682 75.3411 106.469 74.4922 106.469C73.612 106.469 72.9219 106.661 72.4219 107.047C71.9219 107.432 71.5703 107.844 71.3672 108.281L69.6172 107.656C69.9297 106.927 70.3464 106.359 70.8672 105.953C71.3932 105.542 71.9661 105.255 72.5859 105.094C73.2109 104.927 73.8255 104.844 74.4297 104.844C74.8151 104.844 75.2578 104.891 75.7578 104.984C76.263 105.073 76.75 105.258 77.2188 105.539C77.6927 105.82 78.0859 106.245 78.3984 106.812C78.7109 107.38 78.8672 108.141 78.8672 109.094V117H77.0234V115.375H76.9297C76.8047 115.635 76.5964 115.914 76.3047 116.211C76.013 116.508 75.625 116.76 75.1406 116.969C74.6563 117.177 74.0651 117.281 73.3672 117.281ZM73.6484 115.625C74.3776 115.625 74.9922 115.482 75.4922 115.195C75.9974 114.909 76.3776 114.539 76.6328 114.086C76.8932 113.633 77.0234 113.156 77.0234 112.656V110.969C76.9453 111.062 76.7734 111.148 76.5078 111.227C76.2474 111.299 75.9453 111.365 75.6016 111.422C75.263 111.474 74.9323 111.521 74.6094 111.562C74.2917 111.599 74.0339 111.63 73.8359 111.656C73.3568 111.719 72.9089 111.82 72.4922 111.961C72.0807 112.096 71.7474 112.302 71.4922 112.578C71.2422 112.849 71.1172 113.219 71.1172 113.687C71.1172 114.328 71.3542 114.812 71.8281 115.141C72.3073 115.464 72.9141 115.625 73.6484 115.625ZM86.7637 117.25C85.7637 117.25 84.8809 116.997 84.1152 116.492C83.3496 115.982 82.7507 115.263 82.3184 114.336C81.8861 113.404 81.6699 112.302 81.6699 111.031C81.6699 109.771 81.8861 108.677 82.3184 107.75C82.7507 106.823 83.3522 106.107 84.123 105.602C84.8939 105.096 85.7845 104.844 86.7949 104.844C87.5762 104.844 88.1934 104.974 88.6465 105.234C89.1048 105.49 89.4538 105.781 89.6934 106.109C89.9382 106.432 90.1283 106.698 90.2637 106.906H90.4199V101H92.2637V117H90.4824V115.156H90.2637C90.1283 115.375 89.9355 115.651 89.6855 115.984C89.4355 116.312 89.0788 116.607 88.6152 116.867C88.1517 117.122 87.5345 117.25 86.7637 117.25ZM87.0137 115.594C87.7533 115.594 88.3783 115.401 88.8887 115.016C89.3991 114.625 89.7871 114.086 90.0527 113.398C90.3184 112.706 90.4512 111.906 90.4512 111C90.4512 110.104 90.321 109.32 90.0605 108.648C89.8001 107.971 89.4147 107.445 88.9043 107.07C88.3939 106.69 87.7637 106.5 87.0137 106.5C86.2324 106.5 85.5814 106.701 85.0605 107.102C84.5449 107.497 84.1569 108.036 83.8965 108.719C83.6413 109.396 83.5137 110.156 83.5137 111C83.5137 111.854 83.6439 112.63 83.9043 113.328C84.1699 114.021 84.5605 114.573 85.0762 114.984C85.597 115.391 86.2428 115.594 87.0137 115.594Z" fill="black"/>
<path d="M147.957 34V32.3381L154.199 25.5057C154.931 24.7055 155.535 24.0099 156.009 23.419C156.482 22.822 156.833 22.2618 157.061 21.7386C157.295 21.2093 157.412 20.6553 157.412 20.0767C157.412 19.4119 157.252 18.8364 156.932 18.3501C156.618 17.8639 156.187 17.4884 155.639 17.2237C155.091 16.959 154.476 16.8267 153.793 16.8267C153.066 16.8267 152.432 16.9775 151.891 17.2791C151.355 17.5746 150.94 17.9901 150.644 18.5256C150.355 19.0611 150.21 19.6889 150.21 20.4091H148.031C148.031 19.3011 148.287 18.3286 148.798 17.4915C149.308 16.6544 150.004 16.0019 150.884 15.5341C151.771 15.0663 152.765 14.8324 153.866 14.8324C154.974 14.8324 155.956 15.0663 156.812 15.5341C157.667 16.0019 158.338 16.6328 158.825 17.4268C159.311 18.2209 159.554 19.1042 159.554 20.0767C159.554 20.7723 159.428 21.4524 159.175 22.1172C158.929 22.7758 158.498 23.5114 157.883 24.3239C157.273 25.1302 156.427 26.1151 155.344 27.2784L151.097 31.821V31.9688H159.886V34H147.957Z" fill="black"/>
<path d="M229.605 15.0909V34H227.315V17.4915H227.205L222.588 20.5568V18.2301L227.315 15.0909H229.605Z" fill="black"/>
<path d="M295.514 30.1222V28.2386L303.824 15.0909H305.19V18.0085H304.267L297.989 27.9432V28.0909H309.179V30.1222H295.514ZM304.415 34V29.5497V28.6726V15.0909H306.594V34H304.415Z" fill="black"/>
<path d="M378.347 33.2585C377.128 33.2585 376.041 33.0492 375.087 32.6307C374.139 32.2121 373.385 31.6304 372.825 30.8857C372.271 30.1347 371.97 29.2637 371.92 28.2727H374.247C374.296 28.8821 374.506 29.4084 374.875 29.8516C375.244 30.2886 375.728 30.6271 376.325 30.8672C376.922 31.1072 377.583 31.2273 378.31 31.2273C379.122 31.2273 379.842 31.0857 380.47 30.8026C381.098 30.5194 381.59 30.1255 381.947 29.6207C382.304 29.116 382.483 28.5312 382.483 27.8665C382.483 27.1709 382.311 26.5585 381.966 26.0291C381.621 25.4936 381.116 25.075 380.452 24.7734C379.787 24.4718 378.974 24.321 378.014 24.321H376.5V22.2898H378.014C378.765 22.2898 379.424 22.1544 379.99 21.8835C380.563 21.6127 381.009 21.2311 381.329 20.7386C381.655 20.2462 381.818 19.6676 381.818 19.0028C381.818 18.3627 381.677 17.8056 381.393 17.3317C381.11 16.8577 380.71 16.4884 380.193 16.2237C379.682 15.959 379.079 15.8267 378.384 15.8267C377.731 15.8267 377.116 15.9467 376.537 16.1868C375.964 16.4207 375.497 16.7623 375.134 17.2116C374.77 17.6548 374.573 18.1903 374.543 18.8182H372.327C372.364 17.8272 372.662 16.9593 373.222 16.2145C373.782 15.4635 374.515 14.8788 375.42 14.4602C376.331 14.0417 377.331 13.8324 378.42 13.8324C379.59 13.8324 380.593 14.0694 381.43 14.5433C382.268 15.0111 382.911 15.6297 383.36 16.3991C383.809 17.1686 384.034 17.9995 384.034 18.892C384.034 19.9569 383.754 20.8648 383.194 21.6158C382.64 22.3667 381.886 22.8868 380.932 23.1761V23.3239C382.126 23.5208 383.058 24.0286 383.729 24.8473C384.4 25.6598 384.736 26.6662 384.736 27.8665C384.736 28.8944 384.456 29.8177 383.896 30.6364C383.342 31.4489 382.585 32.089 381.624 32.5568C380.664 33.0246 379.571 33.2585 378.347 33.2585Z" fill="black"/>
<path d="M154.125 77.2585C152.734 77.2585 151.549 76.88 150.57 76.1229C149.592 75.3596 148.844 74.2547 148.327 72.8082C147.81 71.3556 147.551 69.6013 147.551 67.5455C147.551 65.5019 147.81 63.7569 148.327 62.3104C148.85 60.8577 149.601 59.7498 150.58 58.9865C151.564 58.2171 152.746 57.8324 154.125 57.8324C155.504 57.8324 156.683 58.2171 157.661 58.9865C158.646 59.7498 159.397 60.8577 159.914 62.3104C160.437 63.7569 160.699 65.5019 160.699 67.5455C160.699 69.6013 160.44 71.3556 159.923 72.8082C159.406 74.2547 158.658 75.3596 157.68 76.1229C156.701 76.88 155.516 77.2585 154.125 77.2585ZM154.125 75.2273C155.504 75.2273 156.575 74.5625 157.338 73.233C158.101 71.9034 158.483 70.0076 158.483 67.5455C158.483 65.9081 158.308 64.514 157.957 63.3629C157.612 62.2119 157.113 61.3348 156.461 60.7315C155.815 60.1283 155.036 59.8267 154.125 59.8267C152.759 59.8267 151.691 60.5007 150.921 61.8487C150.152 63.1906 149.767 65.0895 149.767 67.5455C149.767 69.1828 149.939 70.5739 150.284 71.7188C150.629 72.8636 151.124 73.7346 151.771 74.3317C152.423 74.9287 153.208 75.2273 154.125 75.2273Z" fill="black"/>
<path d="M230.605 58.0909V77H228.315V60.4915H228.205L223.588 63.5568V61.2301L228.315 58.0909H230.605Z" fill="black"/>
<path d="M304.605 58.0909V77H302.315V60.4915H302.205L297.588 63.5568V61.2301L302.315 58.0909H304.605Z" fill="black"/>
<path d="M378.125 77.2585C376.734 77.2585 375.549 76.88 374.57 76.1229C373.592 75.3596 372.844 74.2547 372.327 72.8082C371.81 71.3556 371.551 69.6013 371.551 67.5455C371.551 65.5019 371.81 63.7569 372.327 62.3104C372.85 60.8577 373.601 59.7498 374.58 58.9865C375.564 58.2171 376.746 57.8324 378.125 57.8324C379.504 57.8324 380.683 58.2171 381.661 58.9865C382.646 59.7498 383.397 60.8577 383.914 62.3104C384.437 63.7569 384.699 65.5019 384.699 67.5455C384.699 69.6013 384.44 71.3556 383.923 72.8082C383.406 74.2547 382.658 75.3596 381.68 76.1229C380.701 76.88 379.516 77.2585 378.125 77.2585ZM378.125 75.2273C379.504 75.2273 380.575 74.5625 381.338 73.233C382.101 71.9034 382.483 70.0076 382.483 67.5455C382.483 65.9081 382.308 64.514 381.957 63.3629C381.612 62.2119 381.113 61.3348 380.461 60.7315C379.815 60.1283 379.036 59.8267 378.125 59.8267C376.759 59.8267 375.691 60.5007 374.921 61.8487C374.152 63.1906 373.767 65.0895 373.767 67.5455C373.767 69.1828 373.939 70.5739 374.284 71.7188C374.629 72.8636 375.124 73.7346 375.771 74.3317C376.423 74.9287 377.208 75.2273 378.125 75.2273Z" fill="black"/>
<path d="M141.957 121V119.338L148.199 112.506C148.931 111.705 149.535 111.01 150.009 110.419C150.482 109.822 150.833 109.262 151.061 108.739C151.295 108.209 151.412 107.655 151.412 107.077C151.412 106.412 151.252 105.836 150.932 105.35C150.618 104.864 150.187 104.488 149.639 104.224C149.091 103.959 148.476 103.827 147.793 103.827C147.066 103.827 146.432 103.978 145.891 104.279C145.355 104.575 144.94 104.99 144.644 105.526C144.355 106.061 144.21 106.689 144.21 107.409H142.031C142.031 106.301 142.287 105.329 142.798 104.491C143.308 103.654 144.004 103.002 144.884 102.534C145.771 102.066 146.765 101.832 147.866 101.832C148.974 101.832 149.956 102.066 150.812 102.534C151.667 103.002 152.338 103.633 152.825 104.427C153.311 105.221 153.554 106.104 153.554 107.077C153.554 107.772 153.428 108.452 153.175 109.117C152.929 109.776 152.498 110.511 151.883 111.324C151.273 112.13 150.427 113.115 149.344 114.278L145.097 118.821V118.969H153.886V121H141.957ZM158.29 121L166.748 104.27V104.122H156.998V102.091H169.112V104.233L160.691 121H158.29Z" fill="black"/>
<path d="M223.605 101.091V120H221.315V103.491H221.205L216.588 106.557V104.23L221.315 101.091H223.605ZM235.211 120.259C233.82 120.259 232.635 119.88 231.656 119.123C230.678 118.36 229.93 117.255 229.413 115.808C228.896 114.356 228.637 112.601 228.637 110.545C228.637 108.502 228.896 106.757 229.413 105.31C229.936 103.858 230.687 102.75 231.665 101.987C232.65 101.217 233.832 100.832 235.211 100.832C236.59 100.832 237.768 101.217 238.747 101.987C239.732 102.75 240.483 103.858 241 105.31C241.523 106.757 241.785 108.502 241.785 110.545C241.785 112.601 241.526 114.356 241.009 115.808C240.492 117.255 239.744 118.36 238.766 119.123C237.787 119.88 236.602 120.259 235.211 120.259ZM235.211 118.227C236.59 118.227 237.661 117.562 238.424 116.233C239.187 114.903 239.569 113.008 239.569 110.545C239.569 108.908 239.393 107.514 239.043 106.363C238.698 105.212 238.199 104.335 237.547 103.732C236.901 103.128 236.122 102.827 235.211 102.827C233.844 102.827 232.777 103.501 232.007 104.849C231.238 106.191 230.853 108.089 230.853 110.545C230.853 112.183 231.025 113.574 231.37 114.719C231.715 115.864 232.21 116.735 232.857 117.332C233.509 117.929 234.294 118.227 235.211 118.227Z" fill="black"/>
<path d="M296.605 100.091V119H294.315V102.491H294.205L289.588 105.557V103.23L294.315 100.091H296.605ZM308.1 119.259C306.832 119.259 305.712 119.034 304.739 118.585C303.773 118.129 303.019 117.504 302.477 116.71C301.936 115.91 301.668 114.999 301.674 113.977C301.668 113.177 301.825 112.438 302.145 111.761C302.465 111.078 302.902 110.509 303.456 110.053C304.016 109.592 304.641 109.299 305.33 109.176V109.065C304.425 108.831 303.705 108.324 303.17 107.542C302.634 106.754 302.37 105.858 302.376 104.855C302.37 103.895 302.613 103.036 303.105 102.279C303.598 101.522 304.275 100.925 305.136 100.488C306.004 100.051 306.992 99.8324 308.1 99.8324C309.196 99.8324 310.174 100.051 311.036 100.488C311.898 100.925 312.575 101.522 313.067 102.279C313.566 103.036 313.818 103.895 313.825 104.855C313.818 105.858 313.545 106.754 313.003 107.542C312.467 108.324 311.756 108.831 310.87 109.065V109.176C311.553 109.299 312.169 109.592 312.717 110.053C313.264 110.509 313.701 111.078 314.028 111.761C314.354 112.438 314.52 113.177 314.526 113.977C314.52 114.999 314.243 115.91 313.695 116.71C313.154 117.504 312.4 118.129 311.433 118.585C310.473 119.034 309.362 119.259 308.1 119.259ZM308.1 117.227C308.956 117.227 309.694 117.089 310.316 116.812C310.938 116.535 311.418 116.144 311.756 115.639C312.095 115.134 312.267 114.544 312.273 113.866C312.267 113.152 312.083 112.522 311.719 111.974C311.356 111.426 310.861 110.995 310.233 110.681C309.611 110.367 308.9 110.21 308.1 110.21C307.294 110.21 306.574 110.367 305.94 110.681C305.312 110.995 304.816 111.426 304.453 111.974C304.096 112.522 303.921 113.152 303.927 113.866C303.921 114.544 304.084 115.134 304.416 115.639C304.755 116.144 305.238 116.535 305.866 116.812C306.494 117.089 307.238 117.227 308.1 117.227ZM308.1 108.253C308.777 108.253 309.377 108.117 309.901 107.847C310.43 107.576 310.845 107.197 311.147 106.711C311.449 106.225 311.603 105.655 311.609 105.003C311.603 104.363 311.452 103.806 311.156 103.332C310.861 102.852 310.451 102.482 309.928 102.224C309.405 101.959 308.796 101.827 308.1 101.827C307.392 101.827 306.774 101.959 306.244 102.224C305.715 102.482 305.306 102.852 305.016 103.332C304.727 103.806 304.585 104.363 304.592 105.003C304.585 105.655 304.73 106.225 305.026 106.711C305.327 107.197 305.743 107.576 306.272 107.847C306.801 108.117 307.411 108.253 308.1 108.253Z" fill="black"/>
<path d="M373.605 100.091V119H371.315V102.491H371.205L366.588 105.557V103.23L371.315 100.091H373.605ZM385.433 119.259C384.214 119.259 383.127 119.049 382.173 118.631C381.225 118.212 380.471 117.63 379.911 116.886C379.357 116.135 379.056 115.264 379.006 114.273H381.333C381.382 114.882 381.592 115.408 381.961 115.852C382.33 116.289 382.813 116.627 383.411 116.867C384.008 117.107 384.669 117.227 385.396 117.227C386.208 117.227 386.928 117.086 387.556 116.803C388.184 116.519 388.676 116.125 389.033 115.621C389.39 115.116 389.569 114.531 389.569 113.866C389.569 113.171 389.397 112.558 389.052 112.029C388.707 111.494 388.202 111.075 387.538 110.773C386.873 110.472 386.06 110.321 385.1 110.321H383.586V108.29H385.1C385.851 108.29 386.51 108.154 387.076 107.884C387.648 107.613 388.095 107.231 388.415 106.739C388.741 106.246 388.904 105.668 388.904 105.003C388.904 104.363 388.763 103.806 388.479 103.332C388.196 102.858 387.796 102.488 387.279 102.224C386.768 101.959 386.165 101.827 385.469 101.827C384.817 101.827 384.201 101.947 383.623 102.187C383.05 102.421 382.583 102.762 382.219 103.212C381.856 103.655 381.659 104.19 381.629 104.818H379.413C379.45 103.827 379.748 102.959 380.308 102.214C380.868 101.464 381.601 100.879 382.506 100.46C383.417 100.042 384.417 99.8324 385.506 99.8324C386.676 99.8324 387.679 100.069 388.516 100.543C389.353 101.011 389.997 101.63 390.446 102.399C390.895 103.169 391.12 104 391.12 104.892C391.12 105.957 390.84 106.865 390.28 107.616C389.726 108.367 388.972 108.887 388.018 109.176V109.324C389.212 109.521 390.144 110.029 390.815 110.847C391.486 111.66 391.822 112.666 391.822 113.866C391.822 114.894 391.542 115.818 390.982 116.636C390.428 117.449 389.67 118.089 388.71 118.557C387.75 119.025 386.657 119.259 385.433 119.259Z" fill="black"/>
</svg>
