<svg width="787" height="416" viewBox="0 0 787 416" fill="none" xmlns="http://www.w3.org/2000/svg">
<rect x="188.5" y="51.5" width="74.7449" height="43" fill="#5BDE78" fill-opacity="0.62" stroke="black"/>
<rect x="188.5" y="94.5" width="74.7449" height="44" stroke="black"/>
<rect x="188.5" y="138.5" width="74.7449" height="43" fill="#5BDE78" fill-opacity="0.62" stroke="black"/>
<rect x="263.252" y="51.5" width="74.7449" height="43.1744" fill="#5BDE78" fill-opacity="0.62" stroke="black"/>
<rect x="263.252" y="94.9126" width="74.7449" height="43.1744" stroke="black"/>
<rect x="263.252" y="138.326" width="74.7449" height="43.1744" fill="#5BDE78" fill-opacity="0.62" stroke="black"/>
<rect x="338.003" y="51.5" width="74.7449" height="43.1744" fill="#5BDE78" fill-opacity="0.62" stroke="black"/>
<rect x="338.003" y="94.9126" width="74.7449" height="43.1744" stroke="black"/>
<rect x="338.003" y="138.326" width="74.7449" height="43.1744" fill="#5BDE78" fill-opacity="0.62" stroke="black"/>
<rect x="412.755" y="51.5" width="74.7449" height="43.1744" fill="#5BDE78" fill-opacity="0.62" stroke="black"/>
<rect x="412.755" y="94.9126" width="74.7449" height="43.1744" stroke="black"/>
<rect x="412.755" y="138.326" width="74.7449" height="43.1744" fill="#5BDE78" fill-opacity="0.62" stroke="black"/>
<rect x="487.5" y="51.5" width="74.7449" height="43" fill="#95E7A7" stroke="black"/>
<rect x="487.5" y="94.5" width="74.7449" height="44" stroke="black"/>
<rect x="487.5" y="138.5" width="74.7449" height="43" fill="#95E7A7" stroke="black"/>
<rect x="562.252" y="51.5" width="74.7449" height="43.1744" fill="#F6ADAD" stroke="black"/>
<rect x="562.252" y="94.9126" width="74.7449" height="43.1744" stroke="black"/>
<rect x="562.252" y="138.326" width="74.7449" height="43.1744" fill="#F6ADAD" stroke="black"/>
<rect x="637.003" y="51.5" width="74.7449" height="43.1744" fill="#F6ADAD" stroke="black"/>
<rect x="637.003" y="94.9126" width="74.7449" height="43.1744" stroke="black"/>
<rect x="637.003" y="138.326" width="74.7449" height="43.1744" fill="#F6ADAD" stroke="black"/>
<rect x="711.755" y="51.5" width="74.7449" height="43.1744" fill="#F6ADAD" stroke="black"/>
<rect x="711.755" y="94.9126" width="74.7449" height="43.1744" stroke="black"/>
<rect x="711.755" y="138.326" width="74.7449" height="43.1744" fill="#F6ADAD" stroke="black"/>
<path d="M117.063 64.7187V63H129.062V64.7187H124.031V79H122.094V64.7187H117.063ZM131.803 79V67H133.646V79H131.803ZM132.74 65C132.381 65 132.071 64.8776 131.811 64.6328C131.555 64.388 131.428 64.0938 131.428 63.75C131.428 63.4063 131.555 63.112 131.811 62.8672C132.071 62.6224 132.381 62.5 132.74 62.5C133.1 62.5 133.407 62.6224 133.662 62.8672C133.923 63.112 134.053 63.4063 134.053 63.75C134.053 64.0938 133.923 64.388 133.662 64.6328C133.407 64.8776 133.1 65 132.74 65ZM137.023 83.5V67H138.805V68.9062H139.023C139.159 68.6979 139.346 68.4323 139.586 68.1094C139.831 67.7812 140.18 67.4896 140.633 67.2344C141.091 66.974 141.711 66.8438 142.492 66.8438C143.503 66.8438 144.393 67.0964 145.164 67.6016C145.935 68.1068 146.536 68.8229 146.969 69.75C147.401 70.6771 147.617 71.7708 147.617 73.0313C147.617 74.3021 147.401 75.4036 146.969 76.3359C146.536 77.263 145.938 77.9818 145.172 78.4922C144.406 78.9974 143.523 79.25 142.523 79.25C141.753 79.25 141.135 79.1224 140.672 78.8672C140.208 78.6068 139.852 78.3125 139.602 77.9844C139.352 77.651 139.159 77.375 139.023 77.1562H138.867V83.5H137.023ZM138.836 73C138.836 73.9062 138.969 74.7057 139.234 75.3984C139.5 76.0859 139.888 76.625 140.398 77.0156C140.909 77.401 141.534 77.5938 142.273 77.5938C143.044 77.5938 143.688 77.3906 144.203 76.9844C144.724 76.5729 145.115 76.0208 145.375 75.3281C145.641 74.6302 145.773 73.8542 145.773 73C145.773 72.1562 145.643 71.3958 145.383 70.7187C145.128 70.0365 144.74 69.4974 144.219 69.1016C143.703 68.7005 143.055 68.5 142.273 68.5C141.523 68.5 140.893 68.6901 140.383 69.0703C139.872 69.4453 139.487 69.9714 139.227 70.6484C138.966 71.3203 138.836 72.1042 138.836 73ZM155.305 79.25C154.221 79.25 153.271 78.9922 152.453 78.4766C151.641 77.9609 151.005 77.2396 150.547 76.3125C150.094 75.3854 149.867 74.3021 149.867 73.0625C149.867 71.8125 150.094 70.7214 150.547 69.7891C151.005 68.8568 151.641 68.1328 152.453 67.6172C153.271 67.1016 154.221 66.8438 155.305 66.8438C156.388 66.8438 157.336 67.1016 158.148 67.6172C158.966 68.1328 159.602 68.8568 160.055 69.7891C160.513 70.7214 160.742 71.8125 160.742 73.0625C160.742 74.3021 160.513 75.3854 160.055 76.3125C159.602 77.2396 158.966 77.9609 158.148 78.4766C157.336 78.9922 156.388 79.25 155.305 79.25ZM155.305 77.5938C156.128 77.5938 156.805 77.3828 157.336 76.9609C157.867 76.5391 158.26 75.9844 158.516 75.2969C158.771 74.6094 158.898 73.8646 158.898 73.0625C158.898 72.2604 158.771 71.513 158.516 70.8203C158.26 70.1276 157.867 69.5677 157.336 69.1406C156.805 68.7135 156.128 68.5 155.305 68.5C154.482 68.5 153.805 68.7135 153.273 69.1406C152.742 69.5677 152.349 70.1276 152.094 70.8203C151.839 71.513 151.711 72.2604 151.711 73.0625C151.711 73.8646 151.839 74.6094 152.094 75.2969C152.349 75.9844 152.742 76.5391 153.273 76.9609C153.805 77.3828 154.482 77.5938 155.305 77.5938Z" fill="black"/>
<path d="M75.9375 125V109H81.3438C82.5938 109 83.6198 109.214 84.4219 109.641C85.224 110.062 85.8177 110.643 86.2031 111.383C86.5885 112.122 86.7813 112.964 86.7813 113.906C86.7813 114.849 86.5885 115.685 86.2031 116.414C85.8177 117.143 85.2266 117.716 84.4297 118.133C83.6328 118.544 82.6146 118.75 81.375 118.75H77V117H81.3125C82.1667 117 82.8542 116.875 83.375 116.625C83.901 116.375 84.2813 116.021 84.5156 115.562C84.7552 115.099 84.875 114.547 84.875 113.906C84.875 113.266 84.7552 112.706 84.5156 112.227C84.276 111.747 83.8932 111.378 83.3672 111.117C82.8411 110.852 82.1458 110.719 81.2812 110.719H77.875V125H75.9375ZM83.4688 117.812L87.4062 125H85.1563L81.2812 117.812H83.4688ZM94.5059 125.25C93.4225 125.25 92.472 124.992 91.6543 124.477C90.8418 123.961 90.2064 123.24 89.748 122.312C89.2949 121.385 89.0684 120.302 89.0684 119.062C89.0684 117.812 89.2949 116.721 89.748 115.789C90.2064 114.857 90.8418 114.133 91.6543 113.617C92.472 113.102 93.4225 112.844 94.5059 112.844C95.5892 112.844 96.5371 113.102 97.3496 113.617C98.1673 114.133 98.8027 114.857 99.2559 115.789C99.7142 116.721 99.9434 117.812 99.9434 119.062C99.9434 120.302 99.7142 121.385 99.2559 122.312C98.8027 123.24 98.1673 123.961 97.3496 124.477C96.5371 124.992 95.5892 125.25 94.5059 125.25ZM94.5059 123.594C95.3288 123.594 96.0059 123.383 96.5371 122.961C97.0684 122.539 97.4616 121.984 97.7168 121.297C97.972 120.609 98.0996 119.865 98.0996 119.062C98.0996 118.26 97.972 117.513 97.7168 116.82C97.4616 116.128 97.0684 115.568 96.5371 115.141C96.0059 114.714 95.3288 114.5 94.5059 114.5C93.6829 114.5 93.0059 114.714 92.4746 115.141C91.9434 115.568 91.5501 116.128 91.2949 116.82C91.0397 117.513 90.9121 118.26 90.9121 119.062C90.9121 119.865 91.0397 120.609 91.2949 121.297C91.5501 121.984 91.9434 122.539 92.4746 122.961C93.0059 123.383 93.6829 123.594 94.5059 123.594ZM107.977 113V114.562H101.758V113H107.977ZM103.57 110.125H105.414V121.562C105.414 122.083 105.49 122.474 105.641 122.734C105.797 122.99 105.995 123.161 106.234 123.25C106.479 123.333 106.737 123.375 107.008 123.375C107.211 123.375 107.378 123.365 107.508 123.344C107.638 123.318 107.742 123.297 107.82 123.281L108.195 124.937C108.07 124.984 107.896 125.031 107.672 125.078C107.448 125.13 107.164 125.156 106.82 125.156C106.299 125.156 105.789 125.044 105.289 124.82C104.794 124.596 104.383 124.255 104.055 123.797C103.732 123.339 103.57 122.76 103.57 122.062V110.125ZM114.281 125.281C113.521 125.281 112.831 125.138 112.211 124.852C111.591 124.56 111.099 124.141 110.734 123.594C110.37 123.042 110.188 122.375 110.188 121.594C110.188 120.906 110.323 120.349 110.594 119.922C110.865 119.49 111.227 119.151 111.68 118.906C112.133 118.661 112.633 118.479 113.18 118.359C113.732 118.234 114.286 118.135 114.844 118.063C115.573 117.969 116.164 117.898 116.617 117.852C117.076 117.799 117.409 117.714 117.617 117.594C117.831 117.474 117.938 117.266 117.938 116.969V116.906C117.938 116.135 117.727 115.536 117.305 115.109C116.888 114.682 116.255 114.469 115.406 114.469C114.526 114.469 113.836 114.661 113.336 115.047C112.836 115.432 112.484 115.844 112.281 116.281L110.531 115.656C110.844 114.927 111.26 114.359 111.781 113.953C112.307 113.542 112.88 113.255 113.5 113.094C114.125 112.927 114.74 112.844 115.344 112.844C115.729 112.844 116.172 112.891 116.672 112.984C117.177 113.073 117.664 113.258 118.133 113.539C118.607 113.82 119 114.245 119.313 114.812C119.625 115.38 119.781 116.141 119.781 117.094V125H117.938V123.375H117.844C117.719 123.635 117.51 123.914 117.219 124.211C116.927 124.508 116.539 124.76 116.055 124.969C115.57 125.177 114.979 125.281 114.281 125.281ZM114.562 123.625C115.292 123.625 115.906 123.482 116.406 123.195C116.911 122.909 117.292 122.539 117.547 122.086C117.807 121.633 117.938 121.156 117.938 120.656V118.969C117.859 119.062 117.688 119.148 117.422 119.227C117.161 119.299 116.859 119.365 116.516 119.422C116.177 119.474 115.846 119.521 115.523 119.562C115.206 119.599 114.948 119.63 114.75 119.656C114.271 119.719 113.823 119.82 113.406 119.961C112.995 120.096 112.661 120.302 112.406 120.578C112.156 120.849 112.031 121.219 112.031 121.687C112.031 122.328 112.268 122.812 112.742 123.141C113.221 123.464 113.828 123.625 114.562 123.625ZM128.021 125.25C126.896 125.25 125.928 124.984 125.115 124.453C124.303 123.922 123.678 123.19 123.24 122.258C122.803 121.326 122.584 120.26 122.584 119.062C122.584 117.844 122.808 116.768 123.256 115.836C123.709 114.898 124.339 114.167 125.146 113.641C125.959 113.109 126.907 112.844 127.99 112.844C128.834 112.844 129.594 113 130.271 113.312C130.949 113.625 131.503 114.062 131.936 114.625C132.368 115.187 132.636 115.844 132.74 116.594H130.896C130.756 116.047 130.443 115.562 129.959 115.141C129.48 114.714 128.834 114.5 128.021 114.5C127.303 114.5 126.673 114.687 126.131 115.062C125.594 115.432 125.175 115.956 124.873 116.633C124.576 117.305 124.428 118.094 124.428 119C124.428 119.927 124.574 120.734 124.865 121.422C125.162 122.109 125.579 122.643 126.115 123.023C126.657 123.404 127.292 123.594 128.021 123.594C128.501 123.594 128.936 123.51 129.326 123.344C129.717 123.177 130.048 122.938 130.318 122.625C130.589 122.312 130.782 121.937 130.896 121.5H132.74C132.636 122.208 132.378 122.846 131.967 123.414C131.561 123.977 131.021 124.424 130.35 124.758C129.683 125.086 128.907 125.25 128.021 125.25ZM135.436 125V113H137.279V125H135.436ZM136.373 111C136.014 111 135.704 110.878 135.443 110.633C135.188 110.388 135.061 110.094 135.061 109.75C135.061 109.406 135.188 109.112 135.443 108.867C135.704 108.622 136.014 108.5 136.373 108.5C136.732 108.5 137.04 108.622 137.295 108.867C137.555 109.112 137.686 109.406 137.686 109.75C137.686 110.094 137.555 110.388 137.295 110.633C137.04 110.878 136.732 111 136.373 111ZM145.531 125.25C144.448 125.25 143.497 124.992 142.68 124.477C141.867 123.961 141.232 123.24 140.773 122.312C140.32 121.385 140.094 120.302 140.094 119.062C140.094 117.812 140.32 116.721 140.773 115.789C141.232 114.857 141.867 114.133 142.68 113.617C143.497 113.102 144.448 112.844 145.531 112.844C146.615 112.844 147.563 113.102 148.375 113.617C149.193 114.133 149.828 114.857 150.281 115.789C150.74 116.721 150.969 117.812 150.969 119.062C150.969 120.302 150.74 121.385 150.281 122.312C149.828 123.24 149.193 123.961 148.375 124.477C147.563 124.992 146.615 125.25 145.531 125.25ZM145.531 123.594C146.354 123.594 147.031 123.383 147.562 122.961C148.094 122.539 148.487 121.984 148.742 121.297C148.997 120.609 149.125 119.865 149.125 119.062C149.125 118.26 148.997 117.513 148.742 116.82C148.487 116.128 148.094 115.568 147.562 115.141C147.031 114.714 146.354 114.5 145.531 114.5C144.708 114.5 144.031 114.714 143.5 115.141C142.969 115.568 142.576 116.128 142.32 116.82C142.065 117.513 141.938 118.26 141.938 119.062C141.938 119.865 142.065 120.609 142.32 121.297C142.576 121.984 142.969 122.539 143.5 122.961C144.031 123.383 144.708 123.594 145.531 123.594ZM144.688 111.375L146.594 107.75H148.75L146.313 111.375H144.688ZM155.627 117.781V125H153.783V113H155.564V114.875H155.721C156.002 114.266 156.429 113.776 157.002 113.406C157.575 113.031 158.314 112.844 159.221 112.844C160.033 112.844 160.744 113.01 161.354 113.344C161.963 113.672 162.437 114.172 162.775 114.844C163.114 115.51 163.283 116.354 163.283 117.375V125H161.439V117.5C161.439 116.557 161.195 115.823 160.705 115.297C160.215 114.766 159.544 114.5 158.689 114.5C158.101 114.5 157.575 114.628 157.111 114.883C156.653 115.138 156.291 115.51 156.025 116C155.76 116.49 155.627 117.083 155.627 117.781Z" fill="black"/>
<path d="M84.8125 157H82.875C82.7604 156.443 82.5599 155.953 82.2734 155.531C81.9922 155.109 81.6484 154.755 81.2422 154.469C80.8411 154.177 80.3958 153.958 79.9063 153.812C79.4167 153.667 78.9063 153.594 78.375 153.594C77.4063 153.594 76.5286 153.839 75.7422 154.328C74.9609 154.818 74.3385 155.539 73.875 156.492C73.4167 157.445 73.1875 158.615 73.1875 160C73.1875 161.385 73.4167 162.555 73.875 163.508C74.3385 164.461 74.9609 165.182 75.7422 165.672C76.5286 166.161 77.4063 166.406 78.375 166.406C78.9063 166.406 79.4167 166.333 79.9063 166.187C80.3958 166.042 80.8411 165.826 81.2422 165.539C81.6484 165.247 81.9922 164.891 82.2734 164.469C82.5599 164.042 82.7604 163.552 82.875 163H84.8125C84.6667 163.818 84.401 164.549 84.0156 165.195C83.6302 165.841 83.151 166.391 82.5781 166.844C82.0052 167.292 81.362 167.633 80.6484 167.867C79.9401 168.102 79.1823 168.219 78.375 168.219C77.0104 168.219 75.7969 167.885 74.7344 167.219C73.6719 166.552 72.8359 165.604 72.2266 164.375C71.6172 163.146 71.3125 161.687 71.3125 160C71.3125 158.312 71.6172 156.854 72.2266 155.625C72.8359 154.396 73.6719 153.448 74.7344 152.781C75.7969 152.115 77.0104 151.781 78.375 151.781C79.1823 151.781 79.9401 151.898 80.6484 152.133C81.362 152.367 82.0052 152.711 82.5781 153.164C83.151 153.612 83.6302 154.159 84.0156 154.805C84.401 155.445 84.6667 156.177 84.8125 157ZM91.2246 168.281C90.4642 168.281 89.7741 168.138 89.1543 167.852C88.5345 167.56 88.0423 167.141 87.6777 166.594C87.3132 166.042 87.1309 165.375 87.1309 164.594C87.1309 163.906 87.2663 163.349 87.5371 162.922C87.8079 162.49 88.1699 162.151 88.623 161.906C89.0762 161.661 89.5762 161.479 90.123 161.359C90.6751 161.234 91.2298 161.135 91.7871 161.063C92.5163 160.969 93.1074 160.898 93.5605 160.852C94.0189 160.799 94.3522 160.714 94.5605 160.594C94.7741 160.474 94.8809 160.266 94.8809 159.969V159.906C94.8809 159.135 94.6699 158.536 94.248 158.109C93.8314 157.682 93.1986 157.469 92.3496 157.469C91.4694 157.469 90.7793 157.661 90.2793 158.047C89.7793 158.432 89.4277 158.844 89.2246 159.281L87.4746 158.656C87.7871 157.927 88.2038 157.359 88.7246 156.953C89.2507 156.542 89.8236 156.255 90.4434 156.094C91.0684 155.927 91.6829 155.844 92.2871 155.844C92.6725 155.844 93.1152 155.891 93.6152 155.984C94.1204 156.073 94.6074 156.258 95.0762 156.539C95.5501 156.82 95.9434 157.245 96.2559 157.812C96.5684 158.38 96.7246 159.141 96.7246 160.094V168H94.8809V166.375H94.7871C94.6621 166.635 94.4538 166.914 94.1621 167.211C93.8704 167.508 93.4824 167.76 92.998 167.969C92.5137 168.177 91.9225 168.281 91.2246 168.281ZM91.5059 166.625C92.235 166.625 92.8496 166.482 93.3496 166.195C93.8548 165.909 94.235 165.539 94.4902 165.086C94.7507 164.633 94.8809 164.156 94.8809 163.656V161.969C94.8027 162.062 94.6309 162.148 94.3652 162.227C94.1048 162.299 93.8027 162.365 93.459 162.422C93.1204 162.474 92.7897 162.521 92.4668 162.562C92.1491 162.599 91.8913 162.63 91.6934 162.656C91.2142 162.719 90.7663 162.82 90.3496 162.961C89.9382 163.096 89.6048 163.302 89.3496 163.578C89.0996 163.849 88.9746 164.219 88.9746 164.687C88.9746 165.328 89.2116 165.812 89.6855 166.141C90.1647 166.464 90.7715 166.625 91.5059 166.625ZM101.934 160.781V168H100.09V156H101.871V157.875H102.027C102.309 157.266 102.736 156.776 103.309 156.406C103.882 156.031 104.621 155.844 105.527 155.844C106.34 155.844 107.051 156.01 107.66 156.344C108.27 156.672 108.743 157.172 109.082 157.844C109.421 158.51 109.59 159.354 109.59 160.375V168H107.746V160.5C107.746 159.557 107.501 158.823 107.012 158.297C106.522 157.766 105.85 157.5 104.996 157.5C104.408 157.5 103.882 157.628 103.418 157.883C102.96 158.138 102.598 158.51 102.332 159C102.066 159.49 101.934 160.083 101.934 160.781ZM118.178 156V157.562H111.959V156H118.178ZM113.771 153.125H115.615V164.562C115.615 165.083 115.691 165.474 115.842 165.734C115.998 165.99 116.196 166.161 116.436 166.25C116.68 166.333 116.938 166.375 117.209 166.375C117.412 166.375 117.579 166.365 117.709 166.344C117.839 166.318 117.943 166.297 118.021 166.281L118.396 167.937C118.271 167.984 118.097 168.031 117.873 168.078C117.649 168.13 117.365 168.156 117.021 168.156C116.501 168.156 115.99 168.044 115.49 167.82C114.995 167.596 114.584 167.255 114.256 166.797C113.933 166.339 113.771 165.76 113.771 165.062V153.125ZM120.951 168V156H122.795V168H120.951ZM121.889 154C121.529 154 121.219 153.878 120.959 153.633C120.704 153.388 120.576 153.094 120.576 152.75C120.576 152.406 120.704 152.112 120.959 151.867C121.219 151.622 121.529 151.5 121.889 151.5C122.248 151.5 122.555 151.622 122.811 151.867C123.071 152.112 123.201 152.406 123.201 152.75C123.201 153.094 123.071 153.388 122.811 153.633C122.555 153.878 122.248 154 121.889 154ZM130.703 168.25C129.703 168.25 128.82 167.997 128.055 167.492C127.289 166.982 126.69 166.263 126.258 165.336C125.826 164.404 125.609 163.302 125.609 162.031C125.609 160.771 125.826 159.677 126.258 158.75C126.69 157.823 127.292 157.107 128.063 156.602C128.833 156.096 129.724 155.844 130.734 155.844C131.516 155.844 132.133 155.974 132.586 156.234C133.044 156.49 133.393 156.781 133.633 157.109C133.878 157.432 134.068 157.698 134.203 157.906H134.359V152H136.203V168H134.422V166.156H134.203C134.068 166.375 133.875 166.651 133.625 166.984C133.375 167.312 133.018 167.607 132.555 167.867C132.091 168.122 131.474 168.25 130.703 168.25ZM130.953 166.594C131.693 166.594 132.318 166.401 132.828 166.016C133.339 165.625 133.727 165.086 133.992 164.398C134.258 163.706 134.391 162.906 134.391 162C134.391 161.104 134.26 160.32 134 159.648C133.74 158.971 133.354 158.445 132.844 158.07C132.333 157.69 131.703 157.5 130.953 157.5C130.172 157.5 129.521 157.701 129 158.102C128.484 158.497 128.096 159.036 127.836 159.719C127.581 160.396 127.453 161.156 127.453 162C127.453 162.854 127.583 163.63 127.844 164.328C128.109 165.021 128.5 165.573 129.016 165.984C129.536 166.391 130.182 166.594 130.953 166.594ZM143.367 168.281C142.607 168.281 141.917 168.138 141.297 167.852C140.677 167.56 140.185 167.141 139.82 166.594C139.456 166.042 139.273 165.375 139.273 164.594C139.273 163.906 139.409 163.349 139.68 162.922C139.951 162.49 140.313 162.151 140.766 161.906C141.219 161.661 141.719 161.479 142.266 161.359C142.818 161.234 143.372 161.135 143.93 161.063C144.659 160.969 145.25 160.898 145.703 160.852C146.161 160.799 146.495 160.714 146.703 160.594C146.917 160.474 147.023 160.266 147.023 159.969V159.906C147.023 159.135 146.813 158.536 146.391 158.109C145.974 157.682 145.341 157.469 144.492 157.469C143.612 157.469 142.922 157.661 142.422 158.047C141.922 158.432 141.57 158.844 141.367 159.281L139.617 158.656C139.93 157.927 140.346 157.359 140.867 156.953C141.393 156.542 141.966 156.255 142.586 156.094C143.211 155.927 143.826 155.844 144.43 155.844C144.815 155.844 145.258 155.891 145.758 155.984C146.263 156.073 146.75 156.258 147.219 156.539C147.693 156.82 148.086 157.245 148.398 157.812C148.711 158.38 148.867 159.141 148.867 160.094V168H147.023V166.375H146.93C146.805 166.635 146.596 166.914 146.305 167.211C146.013 167.508 145.625 167.76 145.141 167.969C144.656 168.177 144.065 168.281 143.367 168.281ZM143.648 166.625C144.378 166.625 144.992 166.482 145.492 166.195C145.997 165.909 146.378 165.539 146.633 165.086C146.893 164.633 147.023 164.156 147.023 163.656V161.969C146.945 162.062 146.773 162.148 146.508 162.227C146.247 162.299 145.945 162.365 145.602 162.422C145.263 162.474 144.932 162.521 144.609 162.562C144.292 162.599 144.034 162.63 143.836 162.656C143.357 162.719 142.909 162.82 142.492 162.961C142.081 163.096 141.747 163.302 141.492 163.578C141.242 163.849 141.117 164.219 141.117 164.687C141.117 165.328 141.354 165.812 141.828 166.141C142.307 166.464 142.914 166.625 143.648 166.625ZM156.764 168.25C155.764 168.25 154.881 167.997 154.115 167.492C153.35 166.982 152.751 166.263 152.318 165.336C151.886 164.404 151.67 163.302 151.67 162.031C151.67 160.771 151.886 159.677 152.318 158.75C152.751 157.823 153.352 157.107 154.123 156.602C154.894 156.096 155.785 155.844 156.795 155.844C157.576 155.844 158.193 155.974 158.646 156.234C159.105 156.49 159.454 156.781 159.693 157.109C159.938 157.432 160.128 157.698 160.264 157.906H160.42V152H162.264V168H160.482V166.156H160.264C160.128 166.375 159.936 166.651 159.686 166.984C159.436 167.312 159.079 167.607 158.615 167.867C158.152 168.122 157.535 168.25 156.764 168.25ZM157.014 166.594C157.753 166.594 158.378 166.401 158.889 166.016C159.399 165.625 159.787 165.086 160.053 164.398C160.318 163.706 160.451 162.906 160.451 162C160.451 161.104 160.321 160.32 160.061 159.648C159.8 158.971 159.415 158.445 158.904 158.07C158.394 157.69 157.764 157.5 157.014 157.5C156.232 157.5 155.581 157.701 155.061 158.102C154.545 158.497 154.157 159.036 153.896 159.719C153.641 160.396 153.514 161.156 153.514 162C153.514 162.854 153.644 163.63 153.904 164.328C154.17 165.021 154.561 165.573 155.076 165.984C155.597 166.391 156.243 166.594 157.014 166.594Z" fill="black"/>
<path d="M215.957 84V82.3381L222.199 75.5057C222.931 74.7055 223.535 74.0099 224.009 73.419C224.482 72.822 224.833 72.2618 225.061 71.7386C225.295 71.2093 225.412 70.6553 225.412 70.0767C225.412 69.4119 225.252 68.8364 224.932 68.3501C224.618 67.8639 224.187 67.4884 223.639 67.2237C223.091 66.959 222.476 66.8267 221.793 66.8267C221.066 66.8267 220.432 66.9775 219.891 67.2791C219.355 67.5746 218.94 67.9901 218.644 68.5256C218.355 69.0611 218.21 69.6889 218.21 70.4091H216.031C216.031 69.3011 216.287 68.3286 216.798 67.4915C217.308 66.6544 218.004 66.0019 218.884 65.5341C219.771 65.0663 220.765 64.8324 221.866 64.8324C222.974 64.8324 223.956 65.0663 224.812 65.5341C225.667 66.0019 226.338 66.6328 226.825 67.4268C227.311 68.2209 227.554 69.1042 227.554 70.0767C227.554 70.7723 227.428 71.4524 227.175 72.1172C226.929 72.7758 226.498 73.5114 225.883 74.3239C225.273 75.1302 224.427 76.1151 223.344 77.2784L219.097 81.821V81.9688H227.886V84H215.957Z" fill="black"/>
<path d="M296.866 84.2585C295.783 84.2585 294.808 84.0431 293.94 83.6122C293.072 83.1813 292.376 82.5904 291.853 81.8395C291.33 81.0885 291.044 80.233 290.994 79.2727H293.21C293.296 80.1283 293.684 80.8362 294.374 81.3963C295.069 81.9503 295.9 82.2273 296.866 82.2273C297.642 82.2273 298.331 82.0457 298.935 81.6825C299.544 81.3194 300.021 80.8208 300.366 80.1868C300.717 79.5466 300.892 78.8234 300.892 78.017C300.892 77.1922 300.71 76.4567 300.347 75.8104C299.99 75.1579 299.498 74.6439 298.87 74.2685C298.242 73.893 297.525 73.7022 296.719 73.696C296.14 73.6899 295.546 73.7791 294.937 73.9638C294.327 74.1423 293.826 74.3731 293.432 74.6562L291.29 74.3977L292.435 65.0909H302.259V67.1222H294.355L293.69 72.6989H293.801C294.189 72.3911 294.675 72.1357 295.26 71.9325C295.845 71.7294 296.454 71.6278 297.088 71.6278C298.245 71.6278 299.276 71.9048 300.181 72.4588C301.092 73.0066 301.806 73.7576 302.323 74.7116C302.846 75.6657 303.108 76.7552 303.108 77.9801C303.108 79.1866 302.837 80.2637 302.295 81.2116C301.76 82.1534 301.021 82.8982 300.08 83.446C299.138 83.9877 298.067 84.2585 296.866 84.2585Z" fill="black"/>
<path d="M365.514 80.1222V78.2386L373.824 65.0909H375.19V68.0085H374.267L367.989 77.9432V78.0909H379.179V80.1222H365.514ZM374.415 84V79.5497V78.6726V65.0909H376.594V84H374.415Z" fill="black"/>
<path d="M440.548 84L449.006 67.2699V67.1222H439.256V65.0909H451.369V67.233L442.949 84H440.548Z" fill="black"/>
<path d="M222.125 127.259C220.734 127.259 219.549 126.88 218.57 126.123C217.592 125.36 216.844 124.255 216.327 122.808C215.81 121.356 215.551 119.601 215.551 117.545C215.551 115.502 215.81 113.757 216.327 112.31C216.85 110.858 217.601 109.75 218.58 108.987C219.564 108.217 220.746 107.832 222.125 107.832C223.504 107.832 224.683 108.217 225.661 108.987C226.646 109.75 227.397 110.858 227.914 112.31C228.437 113.757 228.699 115.502 228.699 117.545C228.699 119.601 228.44 121.356 227.923 122.808C227.406 124.255 226.658 125.36 225.68 126.123C224.701 126.88 223.516 127.259 222.125 127.259ZM222.125 125.227C223.504 125.227 224.575 124.562 225.338 123.233C226.101 121.903 226.483 120.008 226.483 117.545C226.483 115.908 226.308 114.514 225.957 113.363C225.612 112.212 225.113 111.335 224.461 110.732C223.815 110.128 223.036 109.827 222.125 109.827C220.759 109.827 219.691 110.501 218.921 111.849C218.152 113.191 217.767 115.089 217.767 117.545C217.767 119.183 217.939 120.574 218.284 121.719C218.629 122.864 219.124 123.735 219.771 124.332C220.423 124.929 221.208 125.227 222.125 125.227Z" fill="black"/>
<path d="M297.605 108.091V127H295.315V110.491H295.205L290.588 113.557V111.23L295.315 108.091H297.605Z" fill="black"/>
<path d="M372.605 108.091V127H370.315V110.491H370.205L365.588 113.557V111.23L370.315 108.091H372.605Z" fill="black"/>
<path d="M446.125 127.259C444.734 127.259 443.549 126.88 442.57 126.123C441.592 125.36 440.844 124.255 440.327 122.808C439.81 121.356 439.551 119.601 439.551 117.545C439.551 115.502 439.81 113.757 440.327 112.31C440.85 110.858 441.601 109.75 442.58 108.987C443.564 108.217 444.746 107.832 446.125 107.832C447.504 107.832 448.683 108.217 449.661 108.987C450.646 109.75 451.397 110.858 451.914 112.31C452.437 113.757 452.699 115.502 452.699 117.545C452.699 119.601 452.44 121.356 451.923 122.808C451.406 124.255 450.658 125.36 449.68 126.123C448.701 126.88 447.516 127.259 446.125 127.259ZM446.125 125.227C447.504 125.227 448.575 124.562 449.338 123.233C450.101 121.903 450.483 120.008 450.483 117.545C450.483 115.908 450.308 114.514 449.957 113.363C449.612 112.212 449.113 111.335 448.461 110.732C447.815 110.128 447.036 109.827 446.125 109.827C444.759 109.827 443.691 110.501 442.921 111.849C442.152 113.191 441.767 115.089 441.767 117.545C441.767 119.183 441.939 120.574 442.284 121.719C442.629 122.864 443.124 123.735 443.771 124.332C444.423 124.929 445.208 125.227 446.125 125.227Z" fill="black"/>
<path d="M212.957 170V168.338L219.199 161.506C219.931 160.705 220.535 160.01 221.009 159.419C221.482 158.822 221.833 158.262 222.061 157.739C222.295 157.209 222.412 156.655 222.412 156.077C222.412 155.412 222.252 154.836 221.932 154.35C221.618 153.864 221.187 153.488 220.639 153.224C220.091 152.959 219.476 152.827 218.793 152.827C218.066 152.827 217.432 152.978 216.891 153.279C216.355 153.575 215.94 153.99 215.644 154.526C215.355 155.061 215.21 155.689 215.21 156.409H213.031C213.031 155.301 213.287 154.329 213.798 153.491C214.308 152.654 215.004 152.002 215.884 151.534C216.771 151.066 217.765 150.832 218.866 150.832C219.974 150.832 220.956 151.066 221.812 151.534C222.667 152.002 223.338 152.633 223.825 153.427C224.311 154.221 224.554 155.104 224.554 156.077C224.554 156.772 224.428 157.452 224.175 158.117C223.929 158.776 223.498 159.511 222.883 160.324C222.273 161.13 221.427 162.115 220.344 163.278L216.097 167.821V167.969H224.886V170H212.957ZM229.29 170L237.748 153.27V153.122H227.998V151.091H240.112V153.233L231.691 170H229.29Z" fill="black"/>
<path d="M295.605 151.091V170H293.315V153.491H293.205L288.588 156.557V154.23L293.315 151.091H295.605ZM307.211 170.259C305.82 170.259 304.635 169.88 303.656 169.123C302.678 168.36 301.93 167.255 301.413 165.808C300.896 164.356 300.637 162.601 300.637 160.545C300.637 158.502 300.896 156.757 301.413 155.31C301.936 153.858 302.687 152.75 303.665 151.987C304.65 151.217 305.832 150.832 307.211 150.832C308.59 150.832 309.768 151.217 310.747 151.987C311.732 152.75 312.483 153.858 313 155.31C313.523 156.757 313.785 158.502 313.785 160.545C313.785 162.601 313.526 164.356 313.009 165.808C312.492 167.255 311.744 168.36 310.766 169.123C309.787 169.88 308.602 170.259 307.211 170.259ZM307.211 168.227C308.59 168.227 309.661 167.562 310.424 166.233C311.187 164.903 311.569 163.008 311.569 160.545C311.569 158.908 311.393 157.514 311.043 156.363C310.698 155.212 310.199 154.335 309.547 153.732C308.901 153.128 308.122 152.827 307.211 152.827C305.844 152.827 304.777 153.501 304.007 154.849C303.238 156.191 302.853 158.089 302.853 160.545C302.853 162.183 303.025 163.574 303.37 164.719C303.715 165.864 304.21 166.735 304.857 167.332C305.509 167.929 306.294 168.227 307.211 168.227Z" fill="black"/>
<path d="M370.605 151.091V170H368.315V153.491H368.205L363.588 156.557V154.23L368.315 151.091H370.605ZM382.1 170.259C380.832 170.259 379.712 170.034 378.739 169.585C377.773 169.129 377.019 168.504 376.477 167.71C375.936 166.91 375.668 165.999 375.674 164.977C375.668 164.177 375.825 163.438 376.145 162.761C376.465 162.078 376.902 161.509 377.456 161.053C378.016 160.592 378.641 160.299 379.33 160.176V160.065C378.425 159.831 377.705 159.324 377.17 158.542C376.634 157.754 376.37 156.858 376.376 155.855C376.37 154.895 376.613 154.036 377.105 153.279C377.598 152.522 378.275 151.925 379.136 151.488C380.004 151.051 380.992 150.832 382.1 150.832C383.196 150.832 384.174 151.051 385.036 151.488C385.898 151.925 386.575 152.522 387.067 153.279C387.566 154.036 387.818 154.895 387.825 155.855C387.818 156.858 387.545 157.754 387.003 158.542C386.467 159.324 385.756 159.831 384.87 160.065V160.176C385.553 160.299 386.169 160.592 386.717 161.053C387.264 161.509 387.701 162.078 388.028 162.761C388.354 163.438 388.52 164.177 388.526 164.977C388.52 165.999 388.243 166.91 387.695 167.71C387.154 168.504 386.4 169.129 385.433 169.585C384.473 170.034 383.362 170.259 382.1 170.259ZM382.1 168.227C382.956 168.227 383.694 168.089 384.316 167.812C384.938 167.535 385.418 167.144 385.756 166.639C386.095 166.134 386.267 165.544 386.273 164.866C386.267 164.152 386.083 163.522 385.719 162.974C385.356 162.426 384.861 161.995 384.233 161.681C383.611 161.367 382.9 161.21 382.1 161.21C381.294 161.21 380.574 161.367 379.94 161.681C379.312 161.995 378.816 162.426 378.453 162.974C378.096 163.522 377.921 164.152 377.927 164.866C377.921 165.544 378.084 166.134 378.416 166.639C378.755 167.144 379.238 167.535 379.866 167.812C380.494 168.089 381.238 168.227 382.1 168.227ZM382.1 159.253C382.777 159.253 383.377 159.117 383.901 158.847C384.43 158.576 384.845 158.197 385.147 157.711C385.449 157.225 385.603 156.655 385.609 156.003C385.603 155.363 385.452 154.806 385.156 154.332C384.861 153.852 384.451 153.482 383.928 153.224C383.405 152.959 382.796 152.827 382.1 152.827C381.392 152.827 380.774 152.959 380.244 153.224C379.715 153.482 379.306 153.852 379.016 154.332C378.727 154.806 378.585 155.363 378.592 156.003C378.585 156.655 378.73 157.225 379.026 157.711C379.327 158.197 379.743 158.576 380.272 158.847C380.801 159.117 381.411 159.253 382.1 159.253Z" fill="black"/>
<path d="M444.605 151.091V170H442.315V153.491H442.205L437.588 156.557V154.23L442.315 151.091H444.605ZM456.433 170.259C455.214 170.259 454.127 170.049 453.173 169.631C452.225 169.212 451.471 168.63 450.911 167.886C450.357 167.135 450.056 166.264 450.006 165.273H452.333C452.382 165.882 452.592 166.408 452.961 166.852C453.33 167.289 453.813 167.627 454.411 167.867C455.008 168.107 455.669 168.227 456.396 168.227C457.208 168.227 457.928 168.086 458.556 167.803C459.184 167.519 459.676 167.125 460.033 166.621C460.39 166.116 460.569 165.531 460.569 164.866C460.569 164.171 460.397 163.558 460.052 163.029C459.707 162.494 459.202 162.075 458.538 161.773C457.873 161.472 457.06 161.321 456.1 161.321H454.586V159.29H456.1C456.851 159.29 457.51 159.154 458.076 158.884C458.648 158.613 459.095 158.231 459.415 157.739C459.741 157.246 459.904 156.668 459.904 156.003C459.904 155.363 459.763 154.806 459.479 154.332C459.196 153.858 458.796 153.488 458.279 153.224C457.768 152.959 457.165 152.827 456.469 152.827C455.817 152.827 455.201 152.947 454.623 153.187C454.05 153.421 453.583 153.762 453.219 154.212C452.856 154.655 452.659 155.19 452.629 155.818H450.413C450.45 154.827 450.748 153.959 451.308 153.214C451.868 152.464 452.601 151.879 453.506 151.46C454.417 151.042 455.417 150.832 456.506 150.832C457.676 150.832 458.679 151.069 459.516 151.543C460.353 152.011 460.997 152.63 461.446 153.399C461.895 154.169 462.12 155 462.12 155.892C462.12 156.957 461.84 157.865 461.28 158.616C460.726 159.367 459.972 159.887 459.018 160.176V160.324C460.212 160.521 461.144 161.029 461.815 161.847C462.486 162.66 462.822 163.666 462.822 164.866C462.822 165.894 462.542 166.818 461.982 167.636C461.428 168.449 460.67 169.089 459.71 169.557C458.75 170.025 457.657 170.259 456.433 170.259Z" fill="black"/>
<path d="M520.014 85.2585C518.746 85.2585 517.626 85.0339 516.653 84.5845C515.687 84.129 514.933 83.5043 514.391 82.7102C513.85 81.91 513.582 80.9991 513.588 79.9773C513.582 79.1771 513.739 78.4384 514.059 77.7614C514.379 77.0781 514.816 76.5088 515.37 76.0533C515.93 75.5916 516.555 75.2992 517.244 75.1761V75.0653C516.339 74.8314 515.619 74.3236 515.084 73.5419C514.548 72.754 514.284 71.8584 514.29 70.8551C514.284 69.8949 514.527 69.0362 515.019 68.2791C515.512 67.522 516.189 66.925 517.05 66.4879C517.918 66.0509 518.906 65.8324 520.014 65.8324C521.11 65.8324 522.089 66.0509 522.95 66.4879C523.812 66.925 524.489 67.522 524.982 68.2791C525.48 69.0362 525.732 69.8949 525.739 70.8551C525.732 71.8584 525.459 72.754 524.917 73.5419C524.381 74.3236 523.67 74.8314 522.784 75.0653V75.1761C523.467 75.2992 524.083 75.5916 524.631 76.0533C525.179 76.5088 525.616 77.0781 525.942 77.7614C526.268 78.4384 526.434 79.1771 526.44 79.9773C526.434 80.9991 526.157 81.91 525.609 82.7102C525.068 83.5043 524.314 84.129 523.347 84.5845C522.387 85.0339 521.276 85.2585 520.014 85.2585ZM520.014 83.2273C520.87 83.2273 521.608 83.0888 522.23 82.8118C522.852 82.5348 523.332 82.1439 523.67 81.6392C524.009 81.1345 524.181 80.5436 524.188 79.8665C524.181 79.1525 523.997 78.5215 523.634 77.9737C523.27 77.4259 522.775 76.995 522.147 76.6811C521.525 76.3672 520.814 76.2102 520.014 76.2102C519.208 76.2102 518.488 76.3672 517.854 76.6811C517.226 76.995 516.73 77.4259 516.367 77.9737C516.01 78.5215 515.835 79.1525 515.841 79.8665C515.835 80.5436 515.998 81.1345 516.33 81.6392C516.669 82.1439 517.152 82.5348 517.78 82.8118C518.408 83.0888 519.152 83.2273 520.014 83.2273ZM520.014 74.2528C520.691 74.2528 521.291 74.1174 521.815 73.8466C522.344 73.5758 522.759 73.1972 523.061 72.7109C523.363 72.2247 523.517 71.6553 523.523 71.0028C523.517 70.3627 523.366 69.8056 523.07 69.3317C522.775 68.8516 522.366 68.4822 521.842 68.2237C521.319 67.959 520.71 67.8267 520.014 67.8267C519.306 67.8267 518.688 67.959 518.158 68.2237C517.629 68.4822 517.22 68.8516 516.93 69.3317C516.641 69.8056 516.5 70.3627 516.506 71.0028C516.5 71.6553 516.644 72.2247 516.94 72.7109C517.241 73.1972 517.657 73.5758 518.186 73.8466C518.715 74.1174 519.325 74.2528 520.014 74.2528Z" fill="black"/>
<path d="M595.605 66.0909V85H593.315V68.4915H593.205L588.588 71.5568V69.2301L593.315 66.0909H595.605Z" fill="black"/>
<path d="M670.236 85.2585C669.46 85.2462 668.685 85.0985 667.909 84.8153C667.134 84.5322 666.426 84.0552 665.786 83.3842C665.145 82.7071 664.631 81.7931 664.244 80.642C663.856 79.4848 663.662 78.0322 663.662 76.2841C663.662 74.6098 663.819 73.1264 664.133 71.8338C664.447 70.535 664.902 69.4425 665.499 68.5561C666.096 67.6636 666.817 66.9865 667.66 66.5249C668.509 66.0632 669.466 65.8324 670.531 65.8324C671.59 65.8324 672.532 66.0447 673.357 66.4695C674.188 66.888 674.865 67.4728 675.388 68.2237C675.911 68.9747 676.25 69.8395 676.403 70.8182H674.151C673.941 69.9687 673.535 69.264 672.932 68.7038C672.329 68.1437 671.528 67.8636 670.531 67.8636C669.066 67.8636 667.912 68.5007 667.069 69.7749C666.232 71.049 665.81 72.8371 665.804 75.1392H665.952C666.296 74.616 666.706 74.1697 667.18 73.8004C667.66 73.425 668.189 73.1357 668.768 72.9325C669.346 72.7294 669.959 72.6278 670.605 72.6278C671.688 72.6278 672.679 72.8987 673.578 73.4403C674.477 73.9759 675.197 74.7176 675.739 75.6655C676.28 76.6072 676.551 77.6875 676.551 78.9062C676.551 80.0758 676.29 81.1468 675.766 82.1193C675.243 83.0857 674.508 83.8551 673.56 84.4276C672.618 84.9938 671.51 85.2708 670.236 85.2585ZM670.236 83.2273C671.011 83.2273 671.707 83.0334 672.322 82.6456C672.944 82.2578 673.433 81.7377 673.79 81.0852C674.154 80.4328 674.335 79.7064 674.335 78.9062C674.335 78.1245 674.16 77.4136 673.809 76.7734C673.464 76.1271 672.987 75.6132 672.378 75.2315C671.775 74.8499 671.085 74.6591 670.31 74.6591C669.725 74.6591 669.18 74.776 668.675 75.0099C668.171 75.2377 667.728 75.5516 667.346 75.9517C666.97 76.3518 666.675 76.8104 666.46 77.3274C666.244 77.8383 666.136 78.3769 666.136 78.9432C666.136 79.6941 666.312 80.3958 666.663 81.0483C667.02 81.7008 667.506 82.227 668.121 82.6271C668.743 83.0272 669.448 83.2273 670.236 83.2273Z" fill="black"/>
<path d="M744.347 85.2585C743.128 85.2585 742.041 85.0492 741.087 84.6307C740.139 84.2121 739.385 83.6304 738.825 82.8857C738.271 82.1347 737.97 81.2637 737.92 80.2727H740.247C740.296 80.8821 740.506 81.4084 740.875 81.8516C741.244 82.2886 741.728 82.6271 742.325 82.8672C742.922 83.1072 743.583 83.2273 744.31 83.2273C745.122 83.2273 745.842 83.0857 746.47 82.8026C747.098 82.5194 747.59 82.1255 747.947 81.6207C748.304 81.116 748.483 80.5312 748.483 79.8665C748.483 79.1709 748.311 78.5585 747.966 78.0291C747.621 77.4936 747.116 77.075 746.452 76.7734C745.787 76.4718 744.974 76.321 744.014 76.321H742.5V74.2898H744.014C744.765 74.2898 745.424 74.1544 745.99 73.8835C746.563 73.6127 747.009 73.2311 747.329 72.7386C747.655 72.2462 747.818 71.6676 747.818 71.0028C747.818 70.3627 747.677 69.8056 747.393 69.3317C747.11 68.8577 746.71 68.4884 746.193 68.2237C745.682 67.959 745.079 67.8267 744.384 67.8267C743.731 67.8267 743.116 67.9467 742.537 68.1868C741.964 68.4207 741.497 68.7623 741.134 69.2116C740.77 69.6548 740.573 70.1903 740.543 70.8182H738.327C738.364 69.8272 738.662 68.9593 739.222 68.2145C739.782 67.4635 740.515 66.8788 741.42 66.4602C742.331 66.0417 743.331 65.8324 744.42 65.8324C745.59 65.8324 746.593 66.0694 747.43 66.5433C748.268 67.0111 748.911 67.6297 749.36 68.3991C749.809 69.1686 750.034 69.9995 750.034 70.892C750.034 71.9569 749.754 72.8648 749.194 73.6158C748.64 74.3667 747.886 74.8868 746.932 75.1761V75.3239C748.126 75.5208 749.058 76.0286 749.729 76.8473C750.4 77.6598 750.736 78.6662 750.736 79.8665C750.736 80.8944 750.456 81.8177 749.896 82.6364C749.342 83.4489 748.585 84.089 747.624 84.5568C746.664 85.0246 745.571 85.2585 744.347 85.2585Z" fill="black"/>
<path d="M520.125 128.259C518.734 128.259 517.549 127.88 516.57 127.123C515.592 126.36 514.844 125.255 514.327 123.808C513.81 122.356 513.551 120.601 513.551 118.545C513.551 116.502 513.81 114.757 514.327 113.31C514.85 111.858 515.601 110.75 516.58 109.987C517.564 109.217 518.746 108.832 520.125 108.832C521.504 108.832 522.683 109.217 523.661 109.987C524.646 110.75 525.397 111.858 525.914 113.31C526.437 114.757 526.699 116.502 526.699 118.545C526.699 120.601 526.44 122.356 525.923 123.808C525.406 125.255 524.658 126.36 523.68 127.123C522.701 127.88 521.516 128.259 520.125 128.259ZM520.125 126.227C521.504 126.227 522.575 125.562 523.338 124.233C524.101 122.903 524.483 121.008 524.483 118.545C524.483 116.908 524.308 115.514 523.957 114.363C523.612 113.212 523.113 112.335 522.461 111.732C521.815 111.128 521.036 110.827 520.125 110.827C518.759 110.827 517.691 111.501 516.921 112.849C516.152 114.191 515.767 116.089 515.767 118.545C515.767 120.183 515.939 121.574 516.284 122.719C516.629 123.864 517.124 124.735 517.771 125.332C518.423 125.929 519.208 126.227 520.125 126.227Z" fill="black"/>
<path d="M595.605 109.091V128H593.315V111.491H593.205L588.588 114.557V112.23L593.315 109.091H595.605Z" fill="black"/>
<path d="M670.605 109.091V128H668.315V111.491H668.205L663.588 114.557V112.23L668.315 109.091H670.605Z" fill="black"/>
<path d="M744.125 128.259C742.734 128.259 741.549 127.88 740.57 127.123C739.592 126.36 738.844 125.255 738.327 123.808C737.81 122.356 737.551 120.601 737.551 118.545C737.551 116.502 737.81 114.757 738.327 113.31C738.85 111.858 739.601 110.75 740.58 109.987C741.564 109.217 742.746 108.832 744.125 108.832C745.504 108.832 746.683 109.217 747.661 109.987C748.646 110.75 749.397 111.858 749.914 113.31C750.437 114.757 750.699 116.502 750.699 118.545C750.699 120.601 750.44 122.356 749.923 123.808C749.406 125.255 748.658 126.36 747.68 127.123C746.701 127.88 745.516 128.259 744.125 128.259ZM744.125 126.227C745.504 126.227 746.575 125.562 747.338 124.233C748.101 122.903 748.483 121.008 748.483 118.545C748.483 116.908 748.308 115.514 747.957 114.363C747.612 113.212 747.113 112.335 746.461 111.732C745.815 111.128 745.036 110.827 744.125 110.827C742.759 110.827 741.691 111.501 740.921 112.849C740.152 114.191 739.767 116.089 739.767 118.545C739.767 120.183 739.939 121.574 740.284 122.719C740.629 123.864 741.124 124.735 741.771 125.332C742.423 125.929 743.208 126.227 744.125 126.227Z" fill="black"/>
<path d="M517.605 152.091V171H515.315V154.491H515.205L510.588 157.557V155.23L515.315 152.091H517.605ZM523.634 171L532.092 154.27V154.122H522.342V152.091H534.455V154.233L526.035 171H523.634Z" fill="black"/>
<path d="M593.347 171.259C592.128 171.259 591.041 171.049 590.087 170.631C589.139 170.212 588.385 169.63 587.825 168.886C587.271 168.135 586.97 167.264 586.92 166.273H589.247C589.296 166.882 589.506 167.408 589.875 167.852C590.244 168.289 590.728 168.627 591.325 168.867C591.922 169.107 592.583 169.227 593.31 169.227C594.122 169.227 594.842 169.086 595.47 168.803C596.098 168.519 596.59 168.125 596.947 167.621C597.304 167.116 597.483 166.531 597.483 165.866C597.483 165.171 597.311 164.558 596.966 164.029C596.621 163.494 596.116 163.075 595.452 162.773C594.787 162.472 593.974 162.321 593.014 162.321H591.5V160.29H593.014C593.765 160.29 594.424 160.154 594.99 159.884C595.563 159.613 596.009 159.231 596.329 158.739C596.655 158.246 596.818 157.668 596.818 157.003C596.818 156.363 596.677 155.806 596.393 155.332C596.11 154.858 595.71 154.488 595.193 154.224C594.682 153.959 594.079 153.827 593.384 153.827C592.731 153.827 592.116 153.947 591.537 154.187C590.964 154.421 590.497 154.762 590.134 155.212C589.77 155.655 589.573 156.19 589.543 156.818H587.327C587.364 155.827 587.662 154.959 588.222 154.214C588.782 153.464 589.515 152.879 590.42 152.46C591.331 152.042 592.331 151.832 593.42 151.832C594.59 151.832 595.593 152.069 596.43 152.543C597.268 153.011 597.911 153.63 598.36 154.399C598.809 155.169 599.034 156 599.034 156.892C599.034 157.957 598.754 158.865 598.194 159.616C597.64 160.367 596.886 160.887 595.932 161.176V161.324C597.126 161.521 598.058 162.029 598.729 162.847C599.4 163.66 599.736 164.666 599.736 165.866C599.736 166.894 599.456 167.818 598.896 168.636C598.342 169.449 597.585 170.089 596.624 170.557C595.664 171.025 594.571 171.259 593.347 171.259ZM610.16 152.091V171H607.87V154.491H607.759L603.143 157.557V155.23L607.87 152.091H610.16Z" fill="black"/>
<path d="M668.605 152.091V171H666.315V154.491H666.205L661.588 157.557V155.23L666.315 152.091H668.605ZM673.6 167.122V165.239L681.91 152.091H683.276V155.009H682.353L676.075 164.943V165.091H687.265V167.122H673.6ZM682.501 171V166.55V165.673V152.091H684.68V171H682.501Z" fill="black"/>
<path d="M743.977 151.832C744.753 151.839 745.528 151.986 746.304 152.276C747.08 152.565 747.787 153.045 748.428 153.716C749.068 154.381 749.582 155.289 749.969 156.44C750.357 157.591 750.551 159.034 750.551 160.77C750.551 162.45 750.391 163.943 750.071 165.248C749.757 166.547 749.302 167.642 748.705 168.535C748.114 169.427 747.393 170.104 746.544 170.566C745.701 171.028 744.747 171.259 743.682 171.259C742.623 171.259 741.678 171.049 740.847 170.631C740.022 170.206 739.345 169.618 738.816 168.867C738.293 168.11 737.957 167.233 737.81 166.236H740.062C740.266 167.104 740.669 167.821 741.272 168.387C741.881 168.947 742.685 169.227 743.682 169.227C745.141 169.227 746.292 168.59 747.135 167.316C747.984 166.042 748.409 164.241 748.409 161.915H748.261C747.917 162.432 747.507 162.878 747.033 163.254C746.559 163.629 746.033 163.918 745.455 164.121C744.876 164.325 744.26 164.426 743.608 164.426C742.525 164.426 741.531 164.158 740.626 163.623C739.727 163.081 739.007 162.339 738.465 161.398C737.93 160.45 737.662 159.366 737.662 158.148C737.662 156.991 737.92 155.932 738.438 154.972C738.961 154.005 739.693 153.236 740.635 152.663C741.583 152.091 742.697 151.814 743.977 151.832ZM743.977 153.864C743.202 153.864 742.503 154.058 741.881 154.445C741.266 154.827 740.777 155.344 740.413 155.996C740.056 156.643 739.878 157.36 739.878 158.148C739.878 158.936 740.05 159.653 740.395 160.299C740.746 160.939 741.223 161.45 741.826 161.832C742.435 162.207 743.128 162.395 743.903 162.395C744.488 162.395 745.033 162.281 745.538 162.053C746.042 161.819 746.482 161.502 746.858 161.102C747.24 160.696 747.538 160.237 747.754 159.727C747.969 159.21 748.077 158.671 748.077 158.111C748.077 157.372 747.898 156.68 747.541 156.033C747.19 155.387 746.704 154.864 746.082 154.464C745.467 154.064 744.765 153.864 743.977 153.864Z" fill="black"/>
<rect x="188.5" y="243.5" width="74.7449" height="43" fill="#F96C6C" fill-opacity="0.52" stroke="black"/>
<rect x="188.5" y="286.5" width="74.7449" height="44" stroke="black"/>
<rect x="188.5" y="330.5" width="74.7449" height="43" fill="#F96C6C" fill-opacity="0.52" stroke="black"/>
<rect x="263.252" y="243.5" width="74.7449" height="43.1744" fill="#F96C6C" fill-opacity="0.52" stroke="black"/>
<rect x="263.252" y="286.913" width="74.7449" height="43.1744" stroke="black"/>
<rect x="263.252" y="330.326" width="74.7449" height="43.1744" fill="#F96C6C" fill-opacity="0.52" stroke="black"/>
<rect x="338.003" y="243.5" width="74.7449" height="43.1744" fill="#F96C6C" fill-opacity="0.52" stroke="black"/>
<rect x="338.003" y="286.913" width="74.7449" height="43.1744" stroke="black"/>
<rect x="338.003" y="330.326" width="74.7449" height="43.1744" fill="#F96C6C" fill-opacity="0.52" stroke="black"/>
<rect x="412.755" y="243.5" width="74.7449" height="43.1744" fill="#F96C6C" fill-opacity="0.52" stroke="black"/>
<rect x="412.755" y="286.913" width="74.7449" height="43.1744" stroke="black"/>
<rect x="412.755" y="330.326" width="74.7449" height="43.1744" fill="#F96C6C" fill-opacity="0.52" stroke="black"/>
<rect x="487.5" y="243.5" width="74.7449" height="43" fill="#F6ADAD" stroke="black"/>
<rect x="487.5" y="286.5" width="74.7449" height="44" stroke="black"/>
<rect x="487.5" y="330.5" width="74.7449" height="43" fill="#F6ADAD" stroke="black"/>
<rect x="562.252" y="243.5" width="74.7449" height="43.1744" fill="#95E7A7" stroke="black"/>
<rect x="562.252" y="286.913" width="74.7449" height="43.1744" stroke="black"/>
<rect x="562.252" y="330.326" width="74.7449" height="43.1744" fill="#95E7A7" stroke="black"/>
<rect x="637.003" y="243.5" width="74.7449" height="43.1744" fill="#95E7A7" stroke="black"/>
<rect x="637.003" y="286.913" width="74.7449" height="43.1744" stroke="black"/>
<rect x="637.003" y="330.326" width="74.7449" height="43.1744" fill="#95E7A7" stroke="black"/>
<rect x="711.755" y="243.5" width="74.7449" height="43.1744" fill="#95E7A7" stroke="black"/>
<rect x="711.755" y="286.913" width="74.7449" height="43.1744" stroke="black"/>
<rect x="711.755" y="330.326" width="74.7449" height="43.1744" fill="#95E7A7" stroke="black"/>
<path d="M117.063 256.719V255H129.062V256.719H124.031V271H122.094V256.719H117.063ZM131.803 271V259H133.646V271H131.803ZM132.74 257C132.381 257 132.071 256.878 131.811 256.633C131.555 256.388 131.428 256.094 131.428 255.75C131.428 255.406 131.555 255.112 131.811 254.867C132.071 254.622 132.381 254.5 132.74 254.5C133.1 254.5 133.407 254.622 133.662 254.867C133.923 255.112 134.053 255.406 134.053 255.75C134.053 256.094 133.923 256.388 133.662 256.633C133.407 256.878 133.1 257 132.74 257ZM137.023 275.5V259H138.805V260.906H139.023C139.159 260.698 139.346 260.432 139.586 260.109C139.831 259.781 140.18 259.49 140.633 259.234C141.091 258.974 141.711 258.844 142.492 258.844C143.503 258.844 144.393 259.096 145.164 259.602C145.935 260.107 146.536 260.823 146.969 261.75C147.401 262.677 147.617 263.771 147.617 265.031C147.617 266.302 147.401 267.404 146.969 268.336C146.536 269.263 145.938 269.982 145.172 270.492C144.406 270.997 143.523 271.25 142.523 271.25C141.753 271.25 141.135 271.122 140.672 270.867C140.208 270.607 139.852 270.312 139.602 269.984C139.352 269.651 139.159 269.375 139.023 269.156H138.867V275.5H137.023ZM138.836 265C138.836 265.906 138.969 266.706 139.234 267.398C139.5 268.086 139.888 268.625 140.398 269.016C140.909 269.401 141.534 269.594 142.273 269.594C143.044 269.594 143.688 269.391 144.203 268.984C144.724 268.573 145.115 268.021 145.375 267.328C145.641 266.63 145.773 265.854 145.773 265C145.773 264.156 145.643 263.396 145.383 262.719C145.128 262.036 144.74 261.497 144.219 261.102C143.703 260.701 143.055 260.5 142.273 260.5C141.523 260.5 140.893 260.69 140.383 261.07C139.872 261.445 139.487 261.971 139.227 262.648C138.966 263.32 138.836 264.104 138.836 265ZM155.305 271.25C154.221 271.25 153.271 270.992 152.453 270.477C151.641 269.961 151.005 269.24 150.547 268.312C150.094 267.385 149.867 266.302 149.867 265.062C149.867 263.812 150.094 262.721 150.547 261.789C151.005 260.857 151.641 260.133 152.453 259.617C153.271 259.102 154.221 258.844 155.305 258.844C156.388 258.844 157.336 259.102 158.148 259.617C158.966 260.133 159.602 260.857 160.055 261.789C160.513 262.721 160.742 263.812 160.742 265.062C160.742 266.302 160.513 267.385 160.055 268.312C159.602 269.24 158.966 269.961 158.148 270.477C157.336 270.992 156.388 271.25 155.305 271.25ZM155.305 269.594C156.128 269.594 156.805 269.383 157.336 268.961C157.867 268.539 158.26 267.984 158.516 267.297C158.771 266.609 158.898 265.865 158.898 265.062C158.898 264.26 158.771 263.513 158.516 262.82C158.26 262.128 157.867 261.568 157.336 261.141C156.805 260.714 156.128 260.5 155.305 260.5C154.482 260.5 153.805 260.714 153.273 261.141C152.742 261.568 152.349 262.128 152.094 262.82C151.839 263.513 151.711 264.26 151.711 265.062C151.711 265.865 151.839 266.609 152.094 267.297C152.349 267.984 152.742 268.539 153.273 268.961C153.805 269.383 154.482 269.594 155.305 269.594Z" fill="black"/>
<path d="M75.9375 317V301H81.3438C82.5938 301 83.6198 301.214 84.4219 301.641C85.224 302.062 85.8177 302.643 86.2031 303.383C86.5885 304.122 86.7813 304.964 86.7813 305.906C86.7813 306.849 86.5885 307.685 86.2031 308.414C85.8177 309.143 85.2266 309.716 84.4297 310.133C83.6328 310.544 82.6146 310.75 81.375 310.75H77V309H81.3125C82.1667 309 82.8542 308.875 83.375 308.625C83.901 308.375 84.2813 308.021 84.5156 307.562C84.7552 307.099 84.875 306.547 84.875 305.906C84.875 305.266 84.7552 304.706 84.5156 304.227C84.276 303.747 83.8932 303.378 83.3672 303.117C82.8411 302.852 82.1458 302.719 81.2812 302.719H77.875V317H75.9375ZM83.4688 309.812L87.4062 317H85.1563L81.2812 309.812H83.4688ZM94.5059 317.25C93.4225 317.25 92.472 316.992 91.6543 316.477C90.8418 315.961 90.2064 315.24 89.748 314.312C89.2949 313.385 89.0684 312.302 89.0684 311.062C89.0684 309.812 89.2949 308.721 89.748 307.789C90.2064 306.857 90.8418 306.133 91.6543 305.617C92.472 305.102 93.4225 304.844 94.5059 304.844C95.5892 304.844 96.5371 305.102 97.3496 305.617C98.1673 306.133 98.8027 306.857 99.2559 307.789C99.7142 308.721 99.9434 309.812 99.9434 311.062C99.9434 312.302 99.7142 313.385 99.2559 314.312C98.8027 315.24 98.1673 315.961 97.3496 316.477C96.5371 316.992 95.5892 317.25 94.5059 317.25ZM94.5059 315.594C95.3288 315.594 96.0059 315.383 96.5371 314.961C97.0684 314.539 97.4616 313.984 97.7168 313.297C97.972 312.609 98.0996 311.865 98.0996 311.062C98.0996 310.26 97.972 309.513 97.7168 308.82C97.4616 308.128 97.0684 307.568 96.5371 307.141C96.0059 306.714 95.3288 306.5 94.5059 306.5C93.6829 306.5 93.0059 306.714 92.4746 307.141C91.9434 307.568 91.5501 308.128 91.2949 308.82C91.0397 309.513 90.9121 310.26 90.9121 311.062C90.9121 311.865 91.0397 312.609 91.2949 313.297C91.5501 313.984 91.9434 314.539 92.4746 314.961C93.0059 315.383 93.6829 315.594 94.5059 315.594ZM107.977 305V306.562H101.758V305H107.977ZM103.57 302.125H105.414V313.562C105.414 314.083 105.49 314.474 105.641 314.734C105.797 314.99 105.995 315.161 106.234 315.25C106.479 315.333 106.737 315.375 107.008 315.375C107.211 315.375 107.378 315.365 107.508 315.344C107.638 315.318 107.742 315.297 107.82 315.281L108.195 316.937C108.07 316.984 107.896 317.031 107.672 317.078C107.448 317.13 107.164 317.156 106.82 317.156C106.299 317.156 105.789 317.044 105.289 316.82C104.794 316.596 104.383 316.255 104.055 315.797C103.732 315.339 103.57 314.76 103.57 314.062V302.125ZM114.281 317.281C113.521 317.281 112.831 317.138 112.211 316.852C111.591 316.56 111.099 316.141 110.734 315.594C110.37 315.042 110.188 314.375 110.188 313.594C110.188 312.906 110.323 312.349 110.594 311.922C110.865 311.49 111.227 311.151 111.68 310.906C112.133 310.661 112.633 310.479 113.18 310.359C113.732 310.234 114.286 310.135 114.844 310.063C115.573 309.969 116.164 309.898 116.617 309.852C117.076 309.799 117.409 309.714 117.617 309.594C117.831 309.474 117.938 309.266 117.938 308.969V308.906C117.938 308.135 117.727 307.536 117.305 307.109C116.888 306.682 116.255 306.469 115.406 306.469C114.526 306.469 113.836 306.661 113.336 307.047C112.836 307.432 112.484 307.844 112.281 308.281L110.531 307.656C110.844 306.927 111.26 306.359 111.781 305.953C112.307 305.542 112.88 305.255 113.5 305.094C114.125 304.927 114.74 304.844 115.344 304.844C115.729 304.844 116.172 304.891 116.672 304.984C117.177 305.073 117.664 305.258 118.133 305.539C118.607 305.82 119 306.245 119.313 306.812C119.625 307.38 119.781 308.141 119.781 309.094V317H117.938V315.375H117.844C117.719 315.635 117.51 315.914 117.219 316.211C116.927 316.508 116.539 316.76 116.055 316.969C115.57 317.177 114.979 317.281 114.281 317.281ZM114.562 315.625C115.292 315.625 115.906 315.482 116.406 315.195C116.911 314.909 117.292 314.539 117.547 314.086C117.807 313.633 117.938 313.156 117.938 312.656V310.969C117.859 311.062 117.688 311.148 117.422 311.227C117.161 311.299 116.859 311.365 116.516 311.422C116.177 311.474 115.846 311.521 115.523 311.562C115.206 311.599 114.948 311.63 114.75 311.656C114.271 311.719 113.823 311.82 113.406 311.961C112.995 312.096 112.661 312.302 112.406 312.578C112.156 312.849 112.031 313.219 112.031 313.687C112.031 314.328 112.268 314.812 112.742 315.141C113.221 315.464 113.828 315.625 114.562 315.625ZM128.021 317.25C126.896 317.25 125.928 316.984 125.115 316.453C124.303 315.922 123.678 315.19 123.24 314.258C122.803 313.326 122.584 312.26 122.584 311.062C122.584 309.844 122.808 308.768 123.256 307.836C123.709 306.898 124.339 306.167 125.146 305.641C125.959 305.109 126.907 304.844 127.99 304.844C128.834 304.844 129.594 305 130.271 305.312C130.949 305.625 131.503 306.062 131.936 306.625C132.368 307.187 132.636 307.844 132.74 308.594H130.896C130.756 308.047 130.443 307.562 129.959 307.141C129.48 306.714 128.834 306.5 128.021 306.5C127.303 306.5 126.673 306.687 126.131 307.062C125.594 307.432 125.175 307.956 124.873 308.633C124.576 309.305 124.428 310.094 124.428 311C124.428 311.927 124.574 312.734 124.865 313.422C125.162 314.109 125.579 314.643 126.115 315.023C126.657 315.404 127.292 315.594 128.021 315.594C128.501 315.594 128.936 315.51 129.326 315.344C129.717 315.177 130.048 314.938 130.318 314.625C130.589 314.312 130.782 313.937 130.896 313.5H132.74C132.636 314.208 132.378 314.846 131.967 315.414C131.561 315.977 131.021 316.424 130.35 316.758C129.683 317.086 128.907 317.25 128.021 317.25ZM135.436 317V305H137.279V317H135.436ZM136.373 303C136.014 303 135.704 302.878 135.443 302.633C135.188 302.388 135.061 302.094 135.061 301.75C135.061 301.406 135.188 301.112 135.443 300.867C135.704 300.622 136.014 300.5 136.373 300.5C136.732 300.5 137.04 300.622 137.295 300.867C137.555 301.112 137.686 301.406 137.686 301.75C137.686 302.094 137.555 302.388 137.295 302.633C137.04 302.878 136.732 303 136.373 303ZM145.531 317.25C144.448 317.25 143.497 316.992 142.68 316.477C141.867 315.961 141.232 315.24 140.773 314.312C140.32 313.385 140.094 312.302 140.094 311.062C140.094 309.812 140.32 308.721 140.773 307.789C141.232 306.857 141.867 306.133 142.68 305.617C143.497 305.102 144.448 304.844 145.531 304.844C146.615 304.844 147.563 305.102 148.375 305.617C149.193 306.133 149.828 306.857 150.281 307.789C150.74 308.721 150.969 309.812 150.969 311.062C150.969 312.302 150.74 313.385 150.281 314.312C149.828 315.24 149.193 315.961 148.375 316.477C147.563 316.992 146.615 317.25 145.531 317.25ZM145.531 315.594C146.354 315.594 147.031 315.383 147.562 314.961C148.094 314.539 148.487 313.984 148.742 313.297C148.997 312.609 149.125 311.865 149.125 311.062C149.125 310.26 148.997 309.513 148.742 308.82C148.487 308.128 148.094 307.568 147.562 307.141C147.031 306.714 146.354 306.5 145.531 306.5C144.708 306.5 144.031 306.714 143.5 307.141C142.969 307.568 142.576 308.128 142.32 308.82C142.065 309.513 141.938 310.26 141.938 311.062C141.938 311.865 142.065 312.609 142.32 313.297C142.576 313.984 142.969 314.539 143.5 314.961C144.031 315.383 144.708 315.594 145.531 315.594ZM144.688 303.375L146.594 299.75H148.75L146.313 303.375H144.688ZM155.627 309.781V317H153.783V305H155.564V306.875H155.721C156.002 306.266 156.429 305.776 157.002 305.406C157.575 305.031 158.314 304.844 159.221 304.844C160.033 304.844 160.744 305.01 161.354 305.344C161.963 305.672 162.437 306.172 162.775 306.844C163.114 307.51 163.283 308.354 163.283 309.375V317H161.439V309.5C161.439 308.557 161.195 307.823 160.705 307.297C160.215 306.766 159.544 306.5 158.689 306.5C158.101 306.5 157.575 306.628 157.111 306.883C156.653 307.138 156.291 307.51 156.025 308C155.76 308.49 155.627 309.083 155.627 309.781Z" fill="black"/>
<path d="M84.8125 349H82.875C82.7604 348.443 82.5599 347.953 82.2734 347.531C81.9922 347.109 81.6484 346.755 81.2422 346.469C80.8411 346.177 80.3958 345.958 79.9063 345.812C79.4167 345.667 78.9063 345.594 78.375 345.594C77.4063 345.594 76.5286 345.839 75.7422 346.328C74.9609 346.818 74.3385 347.539 73.875 348.492C73.4167 349.445 73.1875 350.615 73.1875 352C73.1875 353.385 73.4167 354.555 73.875 355.508C74.3385 356.461 74.9609 357.182 75.7422 357.672C76.5286 358.161 77.4063 358.406 78.375 358.406C78.9063 358.406 79.4167 358.333 79.9063 358.187C80.3958 358.042 80.8411 357.826 81.2422 357.539C81.6484 357.247 81.9922 356.891 82.2734 356.469C82.5599 356.042 82.7604 355.552 82.875 355H84.8125C84.6667 355.818 84.401 356.549 84.0156 357.195C83.6302 357.841 83.151 358.391 82.5781 358.844C82.0052 359.292 81.362 359.633 80.6484 359.867C79.9401 360.102 79.1823 360.219 78.375 360.219C77.0104 360.219 75.7969 359.885 74.7344 359.219C73.6719 358.552 72.8359 357.604 72.2266 356.375C71.6172 355.146 71.3125 353.687 71.3125 352C71.3125 350.312 71.6172 348.854 72.2266 347.625C72.8359 346.396 73.6719 345.448 74.7344 344.781C75.7969 344.115 77.0104 343.781 78.375 343.781C79.1823 343.781 79.9401 343.898 80.6484 344.133C81.362 344.367 82.0052 344.711 82.5781 345.164C83.151 345.612 83.6302 346.159 84.0156 346.805C84.401 347.445 84.6667 348.177 84.8125 349ZM91.2246 360.281C90.4642 360.281 89.7741 360.138 89.1543 359.852C88.5345 359.56 88.0423 359.141 87.6777 358.594C87.3132 358.042 87.1309 357.375 87.1309 356.594C87.1309 355.906 87.2663 355.349 87.5371 354.922C87.8079 354.49 88.1699 354.151 88.623 353.906C89.0762 353.661 89.5762 353.479 90.123 353.359C90.6751 353.234 91.2298 353.135 91.7871 353.063C92.5163 352.969 93.1074 352.898 93.5605 352.852C94.0189 352.799 94.3522 352.714 94.5605 352.594C94.7741 352.474 94.8809 352.266 94.8809 351.969V351.906C94.8809 351.135 94.6699 350.536 94.248 350.109C93.8314 349.682 93.1986 349.469 92.3496 349.469C91.4694 349.469 90.7793 349.661 90.2793 350.047C89.7793 350.432 89.4277 350.844 89.2246 351.281L87.4746 350.656C87.7871 349.927 88.2038 349.359 88.7246 348.953C89.2507 348.542 89.8236 348.255 90.4434 348.094C91.0684 347.927 91.6829 347.844 92.2871 347.844C92.6725 347.844 93.1152 347.891 93.6152 347.984C94.1204 348.073 94.6074 348.258 95.0762 348.539C95.5501 348.82 95.9434 349.245 96.2559 349.812C96.5684 350.38 96.7246 351.141 96.7246 352.094V360H94.8809V358.375H94.7871C94.6621 358.635 94.4538 358.914 94.1621 359.211C93.8704 359.508 93.4824 359.76 92.998 359.969C92.5137 360.177 91.9225 360.281 91.2246 360.281ZM91.5059 358.625C92.235 358.625 92.8496 358.482 93.3496 358.195C93.8548 357.909 94.235 357.539 94.4902 357.086C94.7507 356.633 94.8809 356.156 94.8809 355.656V353.969C94.8027 354.062 94.6309 354.148 94.3652 354.227C94.1048 354.299 93.8027 354.365 93.459 354.422C93.1204 354.474 92.7897 354.521 92.4668 354.562C92.1491 354.599 91.8913 354.63 91.6934 354.656C91.2142 354.719 90.7663 354.82 90.3496 354.961C89.9382 355.096 89.6048 355.302 89.3496 355.578C89.0996 355.849 88.9746 356.219 88.9746 356.687C88.9746 357.328 89.2116 357.812 89.6855 358.141C90.1647 358.464 90.7715 358.625 91.5059 358.625ZM101.934 352.781V360H100.09V348H101.871V349.875H102.027C102.309 349.266 102.736 348.776 103.309 348.406C103.882 348.031 104.621 347.844 105.527 347.844C106.34 347.844 107.051 348.01 107.66 348.344C108.27 348.672 108.743 349.172 109.082 349.844C109.421 350.51 109.59 351.354 109.59 352.375V360H107.746V352.5C107.746 351.557 107.501 350.823 107.012 350.297C106.522 349.766 105.85 349.5 104.996 349.5C104.408 349.5 103.882 349.628 103.418 349.883C102.96 350.138 102.598 350.51 102.332 351C102.066 351.49 101.934 352.083 101.934 352.781ZM118.178 348V349.562H111.959V348H118.178ZM113.771 345.125H115.615V356.562C115.615 357.083 115.691 357.474 115.842 357.734C115.998 357.99 116.196 358.161 116.436 358.25C116.68 358.333 116.938 358.375 117.209 358.375C117.412 358.375 117.579 358.365 117.709 358.344C117.839 358.318 117.943 358.297 118.021 358.281L118.396 359.937C118.271 359.984 118.097 360.031 117.873 360.078C117.649 360.13 117.365 360.156 117.021 360.156C116.501 360.156 115.99 360.044 115.49 359.82C114.995 359.596 114.584 359.255 114.256 358.797C113.933 358.339 113.771 357.76 113.771 357.062V345.125ZM120.951 360V348H122.795V360H120.951ZM121.889 346C121.529 346 121.219 345.878 120.959 345.633C120.704 345.388 120.576 345.094 120.576 344.75C120.576 344.406 120.704 344.112 120.959 343.867C121.219 343.622 121.529 343.5 121.889 343.5C122.248 343.5 122.555 343.622 122.811 343.867C123.071 344.112 123.201 344.406 123.201 344.75C123.201 345.094 123.071 345.388 122.811 345.633C122.555 345.878 122.248 346 121.889 346ZM130.703 360.25C129.703 360.25 128.82 359.997 128.055 359.492C127.289 358.982 126.69 358.263 126.258 357.336C125.826 356.404 125.609 355.302 125.609 354.031C125.609 352.771 125.826 351.677 126.258 350.75C126.69 349.823 127.292 349.107 128.063 348.602C128.833 348.096 129.724 347.844 130.734 347.844C131.516 347.844 132.133 347.974 132.586 348.234C133.044 348.49 133.393 348.781 133.633 349.109C133.878 349.432 134.068 349.698 134.203 349.906H134.359V344H136.203V360H134.422V358.156H134.203C134.068 358.375 133.875 358.651 133.625 358.984C133.375 359.312 133.018 359.607 132.555 359.867C132.091 360.122 131.474 360.25 130.703 360.25ZM130.953 358.594C131.693 358.594 132.318 358.401 132.828 358.016C133.339 357.625 133.727 357.086 133.992 356.398C134.258 355.706 134.391 354.906 134.391 354C134.391 353.104 134.26 352.32 134 351.648C133.74 350.971 133.354 350.445 132.844 350.07C132.333 349.69 131.703 349.5 130.953 349.5C130.172 349.5 129.521 349.701 129 350.102C128.484 350.497 128.096 351.036 127.836 351.719C127.581 352.396 127.453 353.156 127.453 354C127.453 354.854 127.583 355.63 127.844 356.328C128.109 357.021 128.5 357.573 129.016 357.984C129.536 358.391 130.182 358.594 130.953 358.594ZM143.367 360.281C142.607 360.281 141.917 360.138 141.297 359.852C140.677 359.56 140.185 359.141 139.82 358.594C139.456 358.042 139.273 357.375 139.273 356.594C139.273 355.906 139.409 355.349 139.68 354.922C139.951 354.49 140.313 354.151 140.766 353.906C141.219 353.661 141.719 353.479 142.266 353.359C142.818 353.234 143.372 353.135 143.93 353.063C144.659 352.969 145.25 352.898 145.703 352.852C146.161 352.799 146.495 352.714 146.703 352.594C146.917 352.474 147.023 352.266 147.023 351.969V351.906C147.023 351.135 146.813 350.536 146.391 350.109C145.974 349.682 145.341 349.469 144.492 349.469C143.612 349.469 142.922 349.661 142.422 350.047C141.922 350.432 141.57 350.844 141.367 351.281L139.617 350.656C139.93 349.927 140.346 349.359 140.867 348.953C141.393 348.542 141.966 348.255 142.586 348.094C143.211 347.927 143.826 347.844 144.43 347.844C144.815 347.844 145.258 347.891 145.758 347.984C146.263 348.073 146.75 348.258 147.219 348.539C147.693 348.82 148.086 349.245 148.398 349.812C148.711 350.38 148.867 351.141 148.867 352.094V360H147.023V358.375H146.93C146.805 358.635 146.596 358.914 146.305 359.211C146.013 359.508 145.625 359.76 145.141 359.969C144.656 360.177 144.065 360.281 143.367 360.281ZM143.648 358.625C144.378 358.625 144.992 358.482 145.492 358.195C145.997 357.909 146.378 357.539 146.633 357.086C146.893 356.633 147.023 356.156 147.023 355.656V353.969C146.945 354.062 146.773 354.148 146.508 354.227C146.247 354.299 145.945 354.365 145.602 354.422C145.263 354.474 144.932 354.521 144.609 354.562C144.292 354.599 144.034 354.63 143.836 354.656C143.357 354.719 142.909 354.82 142.492 354.961C142.081 355.096 141.747 355.302 141.492 355.578C141.242 355.849 141.117 356.219 141.117 356.687C141.117 357.328 141.354 357.812 141.828 358.141C142.307 358.464 142.914 358.625 143.648 358.625ZM156.764 360.25C155.764 360.25 154.881 359.997 154.115 359.492C153.35 358.982 152.751 358.263 152.318 357.336C151.886 356.404 151.67 355.302 151.67 354.031C151.67 352.771 151.886 351.677 152.318 350.75C152.751 349.823 153.352 349.107 154.123 348.602C154.894 348.096 155.785 347.844 156.795 347.844C157.576 347.844 158.193 347.974 158.646 348.234C159.105 348.49 159.454 348.781 159.693 349.109C159.938 349.432 160.128 349.698 160.264 349.906H160.42V344H162.264V360H160.482V358.156H160.264C160.128 358.375 159.936 358.651 159.686 358.984C159.436 359.312 159.079 359.607 158.615 359.867C158.152 360.122 157.535 360.25 156.764 360.25ZM157.014 358.594C157.753 358.594 158.378 358.401 158.889 358.016C159.399 357.625 159.787 357.086 160.053 356.398C160.318 355.706 160.451 354.906 160.451 354C160.451 353.104 160.321 352.32 160.061 351.648C159.8 350.971 159.415 350.445 158.904 350.07C158.394 349.69 157.764 349.5 157.014 349.5C156.232 349.5 155.581 349.701 155.061 350.102C154.545 350.497 154.157 351.036 153.896 351.719C153.641 352.396 153.514 353.156 153.514 354C153.514 354.854 153.644 355.63 153.904 356.328C154.17 357.021 154.561 357.573 155.076 357.984C155.597 358.391 156.243 358.594 157.014 358.594Z" fill="black"/>
<path d="M215.514 272.122V270.239L223.824 257.091H225.19V260.009H224.267L217.989 269.943V270.091H229.179V272.122H215.514ZM224.415 276V271.55V270.673V257.091H226.594V276H224.415Z" fill="black"/>
<path d="M297.014 276.259C295.746 276.259 294.626 276.034 293.653 275.585C292.687 275.129 291.933 274.504 291.391 273.71C290.85 272.91 290.582 271.999 290.588 270.977C290.582 270.177 290.739 269.438 291.059 268.761C291.379 268.078 291.816 267.509 292.37 267.053C292.93 266.592 293.555 266.299 294.244 266.176V266.065C293.339 265.831 292.619 265.324 292.084 264.542C291.548 263.754 291.284 262.858 291.29 261.855C291.284 260.895 291.527 260.036 292.019 259.279C292.512 258.522 293.189 257.925 294.05 257.488C294.918 257.051 295.906 256.832 297.014 256.832C298.11 256.832 299.089 257.051 299.95 257.488C300.812 257.925 301.489 258.522 301.982 259.279C302.48 260.036 302.732 260.895 302.739 261.855C302.732 262.858 302.459 263.754 301.917 264.542C301.381 265.324 300.67 265.831 299.784 266.065V266.176C300.467 266.299 301.083 266.592 301.631 267.053C302.179 267.509 302.616 268.078 302.942 268.761C303.268 269.438 303.434 270.177 303.44 270.977C303.434 271.999 303.157 272.91 302.609 273.71C302.068 274.504 301.314 275.129 300.347 275.585C299.387 276.034 298.276 276.259 297.014 276.259ZM297.014 274.227C297.87 274.227 298.608 274.089 299.23 273.812C299.852 273.535 300.332 273.144 300.67 272.639C301.009 272.134 301.181 271.544 301.188 270.866C301.181 270.152 300.997 269.522 300.634 268.974C300.27 268.426 299.775 267.995 299.147 267.681C298.525 267.367 297.814 267.21 297.014 267.21C296.208 267.21 295.488 267.367 294.854 267.681C294.226 267.995 293.73 268.426 293.367 268.974C293.01 269.522 292.835 270.152 292.841 270.866C292.835 271.544 292.998 272.134 293.33 272.639C293.669 273.144 294.152 273.535 294.78 273.812C295.408 274.089 296.152 274.227 297.014 274.227ZM297.014 265.253C297.691 265.253 298.291 265.117 298.815 264.847C299.344 264.576 299.759 264.197 300.061 263.711C300.363 263.225 300.517 262.655 300.523 262.003C300.517 261.363 300.366 260.806 300.07 260.332C299.775 259.852 299.366 259.482 298.842 259.224C298.319 258.959 297.71 258.827 297.014 258.827C296.306 258.827 295.688 258.959 295.158 259.224C294.629 259.482 294.22 259.852 293.93 260.332C293.641 260.806 293.5 261.363 293.506 262.003C293.5 262.655 293.644 263.225 293.94 263.711C294.241 264.197 294.657 264.576 295.186 264.847C295.715 265.117 296.325 265.253 297.014 265.253Z" fill="black"/>
<path d="M365.957 276V274.338L372.199 267.506C372.931 266.705 373.535 266.01 374.009 265.419C374.482 264.822 374.833 264.262 375.061 263.739C375.295 263.209 375.412 262.655 375.412 262.077C375.412 261.412 375.252 260.836 374.932 260.35C374.618 259.864 374.187 259.488 373.639 259.224C373.091 258.959 372.476 258.827 371.793 258.827C371.066 258.827 370.432 258.978 369.891 259.279C369.355 259.575 368.94 259.99 368.644 260.526C368.355 261.061 368.21 261.689 368.21 262.409H366.031C366.031 261.301 366.287 260.329 366.798 259.491C367.308 258.654 368.004 258.002 368.884 257.534C369.771 257.066 370.765 256.832 371.866 256.832C372.974 256.832 373.956 257.066 374.812 257.534C375.667 258.002 376.338 258.633 376.825 259.427C377.311 260.221 377.554 261.104 377.554 262.077C377.554 262.772 377.428 263.452 377.175 264.117C376.929 264.776 376.498 265.511 375.883 266.324C375.273 267.13 374.427 268.115 373.344 269.278L369.097 273.821V273.969H377.886V276H365.957Z" fill="black"/>
<path d="M446.236 276.259C445.46 276.246 444.685 276.098 443.909 275.815C443.134 275.532 442.426 275.055 441.786 274.384C441.145 273.707 440.631 272.793 440.244 271.642C439.856 270.485 439.662 269.032 439.662 267.284C439.662 265.61 439.819 264.126 440.133 262.834C440.447 261.535 440.902 260.442 441.499 259.556C442.096 258.664 442.817 257.987 443.66 257.525C444.509 257.063 445.466 256.832 446.531 256.832C447.59 256.832 448.532 257.045 449.357 257.469C450.188 257.888 450.865 258.473 451.388 259.224C451.911 259.975 452.25 260.839 452.403 261.818H450.151C449.941 260.969 449.535 260.264 448.932 259.704C448.329 259.144 447.528 258.864 446.531 258.864C445.066 258.864 443.912 259.501 443.069 260.775C442.232 262.049 441.81 263.837 441.804 266.139H441.952C442.296 265.616 442.706 265.17 443.18 264.8C443.66 264.425 444.189 264.136 444.768 263.933C445.346 263.729 445.959 263.628 446.605 263.628C447.688 263.628 448.679 263.899 449.578 264.44C450.477 264.976 451.197 265.718 451.739 266.665C452.28 267.607 452.551 268.688 452.551 269.906C452.551 271.076 452.29 272.147 451.766 273.119C451.243 274.086 450.508 274.855 449.56 275.428C448.618 275.994 447.51 276.271 446.236 276.259ZM446.236 274.227C447.011 274.227 447.707 274.033 448.322 273.646C448.944 273.258 449.433 272.738 449.79 272.085C450.154 271.433 450.335 270.706 450.335 269.906C450.335 269.125 450.16 268.414 449.809 267.773C449.464 267.127 448.987 266.613 448.378 266.232C447.775 265.85 447.085 265.659 446.31 265.659C445.725 265.659 445.18 265.776 444.675 266.01C444.171 266.238 443.728 266.552 443.346 266.952C442.97 267.352 442.675 267.81 442.46 268.327C442.244 268.838 442.136 269.377 442.136 269.943C442.136 270.694 442.312 271.396 442.663 272.048C443.02 272.701 443.506 273.227 444.121 273.627C444.743 274.027 445.448 274.227 446.236 274.227Z" fill="black"/>
<path d="M222.605 300.091V319H220.315V302.491H220.205L215.588 305.557V303.23L220.315 300.091H222.605Z" fill="black"/>
<path d="M297.605 300.091V319H295.315V302.491H295.205L290.588 305.557V303.23L295.315 300.091H297.605Z" fill="black"/>
<path d="M372.125 319.259C370.734 319.259 369.549 318.88 368.57 318.123C367.592 317.36 366.844 316.255 366.327 314.808C365.81 313.356 365.551 311.601 365.551 309.545C365.551 307.502 365.81 305.757 366.327 304.31C366.85 302.858 367.601 301.75 368.58 300.987C369.564 300.217 370.746 299.832 372.125 299.832C373.504 299.832 374.683 300.217 375.661 300.987C376.646 301.75 377.397 302.858 377.914 304.31C378.437 305.757 378.699 307.502 378.699 309.545C378.699 311.601 378.44 313.356 377.923 314.808C377.406 316.255 376.658 317.36 375.68 318.123C374.701 318.88 373.516 319.259 372.125 319.259ZM372.125 317.227C373.504 317.227 374.575 316.562 375.338 315.233C376.101 313.903 376.483 312.008 376.483 309.545C376.483 307.908 376.308 306.514 375.957 305.363C375.612 304.212 375.113 303.335 374.461 302.732C373.815 302.128 373.036 301.827 372.125 301.827C370.759 301.827 369.691 302.501 368.921 303.849C368.152 305.191 367.767 307.089 367.767 309.545C367.767 311.183 367.939 312.574 368.284 313.719C368.629 314.864 369.124 315.735 369.771 316.332C370.423 316.929 371.208 317.227 372.125 317.227Z" fill="black"/>
<path d="M446.605 300.091V319H444.315V302.491H444.205L439.588 305.557V303.23L444.315 300.091H446.605Z" fill="black"/>
<path d="M219.605 343.091V362H217.315V345.491H217.205L212.588 348.557V346.23L217.315 343.091H219.605ZM230.952 362.259C229.869 362.259 228.893 362.043 228.026 361.612C227.158 361.181 226.462 360.59 225.939 359.839C225.416 359.089 225.129 358.233 225.08 357.273H227.296C227.382 358.128 227.77 358.836 228.46 359.396C229.155 359.95 229.986 360.227 230.952 360.227C231.728 360.227 232.417 360.046 233.021 359.683C233.63 359.319 234.107 358.821 234.452 358.187C234.803 357.547 234.978 356.823 234.978 356.017C234.978 355.192 234.796 354.457 234.433 353.81C234.076 353.158 233.584 352.644 232.956 352.268C232.328 351.893 231.611 351.702 230.805 351.696C230.226 351.69 229.632 351.779 229.023 351.964C228.413 352.142 227.912 352.373 227.518 352.656L225.376 352.398L226.521 343.091H236.344V345.122H228.441L227.776 350.699H227.887C228.275 350.391 228.761 350.136 229.346 349.933C229.931 349.729 230.54 349.628 231.174 349.628C232.331 349.628 233.362 349.905 234.267 350.459C235.178 351.007 235.892 351.758 236.409 352.712C236.932 353.666 237.194 354.755 237.194 355.98C237.194 357.187 236.923 358.264 236.381 359.212C235.846 360.153 235.107 360.898 234.165 361.446C233.224 361.988 232.153 362.259 230.952 362.259Z" fill="black"/>
<path d="M295.605 343.091V362H293.315V345.491H293.205L288.588 348.557V346.23L293.315 343.091H295.605ZM307.1 362.259C305.832 362.259 304.712 362.034 303.739 361.585C302.773 361.129 302.019 360.504 301.477 359.71C300.936 358.91 300.668 357.999 300.674 356.977C300.668 356.177 300.825 355.438 301.145 354.761C301.465 354.078 301.902 353.509 302.456 353.053C303.016 352.592 303.641 352.299 304.33 352.176V352.065C303.425 351.831 302.705 351.324 302.17 350.542C301.634 349.754 301.37 348.858 301.376 347.855C301.37 346.895 301.613 346.036 302.105 345.279C302.598 344.522 303.275 343.925 304.136 343.488C305.004 343.051 305.992 342.832 307.1 342.832C308.196 342.832 309.174 343.051 310.036 343.488C310.898 343.925 311.575 344.522 312.067 345.279C312.566 346.036 312.818 346.895 312.825 347.855C312.818 348.858 312.545 349.754 312.003 350.542C311.467 351.324 310.756 351.831 309.87 352.065V352.176C310.553 352.299 311.169 352.592 311.717 353.053C312.264 353.509 312.701 354.078 313.028 354.761C313.354 355.438 313.52 356.177 313.526 356.977C313.52 357.999 313.243 358.91 312.695 359.71C312.154 360.504 311.4 361.129 310.433 361.585C309.473 362.034 308.362 362.259 307.1 362.259ZM307.1 360.227C307.956 360.227 308.694 360.089 309.316 359.812C309.938 359.535 310.418 359.144 310.756 358.639C311.095 358.134 311.267 357.544 311.273 356.866C311.267 356.152 311.083 355.522 310.719 354.974C310.356 354.426 309.861 353.995 309.233 353.681C308.611 353.367 307.9 353.21 307.1 353.21C306.294 353.21 305.574 353.367 304.94 353.681C304.312 353.995 303.816 354.426 303.453 354.974C303.096 355.522 302.921 356.152 302.927 356.866C302.921 357.544 303.084 358.134 303.416 358.639C303.755 359.144 304.238 359.535 304.866 359.812C305.494 360.089 306.238 360.227 307.1 360.227ZM307.1 351.253C307.777 351.253 308.377 351.117 308.901 350.847C309.43 350.576 309.845 350.197 310.147 349.711C310.449 349.225 310.603 348.655 310.609 348.003C310.603 347.363 310.452 346.806 310.156 346.332C309.861 345.852 309.451 345.482 308.928 345.224C308.405 344.959 307.796 344.827 307.1 344.827C306.392 344.827 305.774 344.959 305.244 345.224C304.715 345.482 304.306 345.852 304.016 346.332C303.727 346.806 303.585 347.363 303.592 348.003C303.585 348.655 303.73 349.225 304.026 349.711C304.327 350.197 304.743 350.576 305.272 350.847C305.801 351.117 306.411 351.253 307.1 351.253Z" fill="black"/>
<path d="M370.605 343.091V362H368.315V345.491H368.205L363.588 348.557V346.23L368.315 343.091H370.605ZM382.433 362.259C381.214 362.259 380.127 362.049 379.173 361.631C378.225 361.212 377.471 360.63 376.911 359.886C376.357 359.135 376.056 358.264 376.006 357.273H378.333C378.382 357.882 378.592 358.408 378.961 358.852C379.33 359.289 379.813 359.627 380.411 359.867C381.008 360.107 381.669 360.227 382.396 360.227C383.208 360.227 383.928 360.086 384.556 359.803C385.184 359.519 385.676 359.125 386.033 358.621C386.39 358.116 386.569 357.531 386.569 356.866C386.569 356.171 386.397 355.558 386.052 355.029C385.707 354.494 385.202 354.075 384.538 353.773C383.873 353.472 383.06 353.321 382.1 353.321H380.586V351.29H382.1C382.851 351.29 383.51 351.154 384.076 350.884C384.648 350.613 385.095 350.231 385.415 349.739C385.741 349.246 385.904 348.668 385.904 348.003C385.904 347.363 385.763 346.806 385.479 346.332C385.196 345.858 384.796 345.488 384.279 345.224C383.768 344.959 383.165 344.827 382.469 344.827C381.817 344.827 381.201 344.947 380.623 345.187C380.05 345.421 379.583 345.762 379.219 346.212C378.856 346.655 378.659 347.19 378.629 347.818H376.413C376.45 346.827 376.748 345.959 377.308 345.214C377.868 344.464 378.601 343.879 379.506 343.46C380.417 343.042 381.417 342.832 382.506 342.832C383.676 342.832 384.679 343.069 385.516 343.543C386.353 344.011 386.997 344.63 387.446 345.399C387.895 346.169 388.12 347 388.12 347.892C388.12 348.957 387.84 349.865 387.28 350.616C386.726 351.367 385.972 351.887 385.018 352.176V352.324C386.212 352.521 387.144 353.029 387.815 353.847C388.486 354.66 388.822 355.666 388.822 356.866C388.822 357.894 388.542 358.818 387.982 359.636C387.428 360.449 386.67 361.089 385.71 361.557C384.75 362.025 383.657 362.259 382.433 362.259Z" fill="black"/>
<path d="M437.957 362V360.338L444.199 353.506C444.931 352.705 445.535 352.01 446.009 351.419C446.482 350.822 446.833 350.262 447.061 349.739C447.295 349.209 447.412 348.655 447.412 348.077C447.412 347.412 447.252 346.836 446.932 346.35C446.618 345.864 446.187 345.488 445.639 345.224C445.091 344.959 444.476 344.827 443.793 344.827C443.066 344.827 442.432 344.978 441.891 345.279C441.355 345.575 440.94 345.99 440.644 346.526C440.355 347.061 440.21 347.689 440.21 348.409H438.031C438.031 347.301 438.287 346.329 438.798 345.491C439.308 344.654 440.004 344.002 440.884 343.534C441.771 343.066 442.765 342.832 443.866 342.832C444.974 342.832 445.956 343.066 446.812 343.534C447.667 344.002 448.338 344.633 448.825 345.427C449.311 346.221 449.554 347.104 449.554 348.077C449.554 348.772 449.428 349.452 449.175 350.117C448.929 350.776 448.498 351.511 447.883 352.324C447.273 353.13 446.427 354.115 445.344 355.278L441.097 359.821V359.969H449.886V362H437.957ZM460.347 343.091V362H458.058V345.491H457.947L453.33 348.557V346.23L458.058 343.091H460.347Z" fill="black"/>
<path d="M520.605 258.091V277H518.315V260.491H518.205L513.588 263.557V261.23L518.315 258.091H520.605Z" fill="black"/>
<path d="M595.347 277.259C594.128 277.259 593.041 277.049 592.087 276.631C591.139 276.212 590.385 275.63 589.825 274.886C589.271 274.135 588.97 273.264 588.92 272.273H591.247C591.296 272.882 591.506 273.408 591.875 273.852C592.244 274.289 592.728 274.627 593.325 274.867C593.922 275.107 594.583 275.227 595.31 275.227C596.122 275.227 596.842 275.086 597.47 274.803C598.098 274.519 598.59 274.125 598.947 273.621C599.304 273.116 599.483 272.531 599.483 271.866C599.483 271.171 599.311 270.558 598.966 270.029C598.621 269.494 598.116 269.075 597.452 268.773C596.787 268.472 595.974 268.321 595.014 268.321H593.5V266.29H595.014C595.765 266.29 596.424 266.154 596.99 265.884C597.563 265.613 598.009 265.231 598.329 264.739C598.655 264.246 598.818 263.668 598.818 263.003C598.818 262.363 598.677 261.806 598.393 261.332C598.11 260.858 597.71 260.488 597.193 260.224C596.682 259.959 596.079 259.827 595.384 259.827C594.731 259.827 594.116 259.947 593.537 260.187C592.964 260.421 592.497 260.762 592.134 261.212C591.77 261.655 591.573 262.19 591.543 262.818H589.327C589.364 261.827 589.662 260.959 590.222 260.214C590.782 259.464 591.515 258.879 592.42 258.46C593.331 258.042 594.331 257.832 595.42 257.832C596.59 257.832 597.593 258.069 598.43 258.543C599.268 259.011 599.911 259.63 600.36 260.399C600.809 261.169 601.034 262 601.034 262.892C601.034 263.957 600.754 264.865 600.194 265.616C599.64 266.367 598.886 266.887 597.932 267.176V267.324C599.126 267.521 600.058 268.029 600.729 268.847C601.4 269.66 601.736 270.666 601.736 271.866C601.736 272.894 601.456 273.818 600.896 274.636C600.342 275.449 599.585 276.089 598.624 276.557C597.664 277.025 596.571 277.259 595.347 277.259Z" fill="black"/>
<path d="M669.866 277.259C668.783 277.259 667.808 277.043 666.94 276.612C666.072 276.181 665.376 275.59 664.853 274.839C664.33 274.089 664.044 273.233 663.994 272.273H666.21C666.296 273.128 666.684 273.836 667.374 274.396C668.069 274.95 668.9 275.227 669.866 275.227C670.642 275.227 671.331 275.046 671.935 274.683C672.544 274.319 673.021 273.821 673.366 273.187C673.717 272.547 673.892 271.823 673.892 271.017C673.892 270.192 673.71 269.457 673.347 268.81C672.99 268.158 672.498 267.644 671.87 267.268C671.242 266.893 670.525 266.702 669.719 266.696C669.14 266.69 668.546 266.779 667.937 266.964C667.327 267.142 666.826 267.373 666.432 267.656L664.29 267.398L665.435 258.091H675.259V260.122H667.355L666.69 265.699H666.801C667.189 265.391 667.675 265.136 668.26 264.933C668.845 264.729 669.454 264.628 670.088 264.628C671.245 264.628 672.276 264.905 673.181 265.459C674.092 266.007 674.806 266.758 675.323 267.712C675.846 268.666 676.108 269.755 676.108 270.98C676.108 272.187 675.837 273.264 675.295 274.212C674.76 275.153 674.021 275.898 673.08 276.446C672.138 276.988 671.067 277.259 669.866 277.259Z" fill="black"/>
<path d="M738.548 277L747.006 260.27V260.122H737.256V258.091H749.369V260.233L740.949 277H738.548Z" fill="black"/>
<path d="M520.125 320.259C518.734 320.259 517.549 319.88 516.57 319.123C515.592 318.36 514.844 317.255 514.327 315.808C513.81 314.356 513.551 312.601 513.551 310.545C513.551 308.502 513.81 306.757 514.327 305.31C514.85 303.858 515.601 302.75 516.58 301.987C517.564 301.217 518.746 300.832 520.125 300.832C521.504 300.832 522.683 301.217 523.661 301.987C524.646 302.75 525.397 303.858 525.914 305.31C526.437 306.757 526.699 308.502 526.699 310.545C526.699 312.601 526.44 314.356 525.923 315.808C525.406 317.255 524.658 318.36 523.68 319.123C522.701 319.88 521.516 320.259 520.125 320.259ZM520.125 318.227C521.504 318.227 522.575 317.562 523.338 316.233C524.101 314.903 524.483 313.008 524.483 310.545C524.483 308.908 524.308 307.514 523.957 306.363C523.612 305.212 523.113 304.335 522.461 303.732C521.815 303.128 521.036 302.827 520.125 302.827C518.759 302.827 517.691 303.501 516.921 304.849C516.152 306.191 515.767 308.089 515.767 310.545C515.767 312.183 515.939 313.574 516.284 314.719C516.629 315.864 517.124 316.735 517.771 317.332C518.423 317.929 519.208 318.227 520.125 318.227Z" fill="black"/>
<path d="M595.125 320.259C593.734 320.259 592.549 319.88 591.57 319.123C590.592 318.36 589.844 317.255 589.327 315.808C588.81 314.356 588.551 312.601 588.551 310.545C588.551 308.502 588.81 306.757 589.327 305.31C589.85 303.858 590.601 302.75 591.58 301.987C592.564 301.217 593.746 300.832 595.125 300.832C596.504 300.832 597.683 301.217 598.661 301.987C599.646 302.75 600.397 303.858 600.914 305.31C601.437 306.757 601.699 308.502 601.699 310.545C601.699 312.601 601.44 314.356 600.923 315.808C600.406 317.255 599.658 318.36 598.68 319.123C597.701 319.88 596.516 320.259 595.125 320.259ZM595.125 318.227C596.504 318.227 597.575 317.562 598.338 316.233C599.101 314.903 599.483 313.008 599.483 310.545C599.483 308.908 599.308 307.514 598.957 306.363C598.612 305.212 598.113 304.335 597.461 303.732C596.815 303.128 596.036 302.827 595.125 302.827C593.759 302.827 592.691 303.501 591.921 304.849C591.152 306.191 590.767 308.089 590.767 310.545C590.767 312.183 590.939 313.574 591.284 314.719C591.629 315.864 592.124 316.735 592.771 317.332C593.423 317.929 594.208 318.227 595.125 318.227Z" fill="black"/>
<path d="M670.605 301.091V320H668.315V303.491H668.205L663.588 306.557V304.23L668.315 301.091H670.605Z" fill="black"/>
<path d="M744.125 320.259C742.734 320.259 741.549 319.88 740.57 319.123C739.592 318.36 738.844 317.255 738.327 315.808C737.81 314.356 737.551 312.601 737.551 310.545C737.551 308.502 737.81 306.757 738.327 305.31C738.85 303.858 739.601 302.75 740.58 301.987C741.564 301.217 742.746 300.832 744.125 300.832C745.504 300.832 746.683 301.217 747.661 301.987C748.646 302.75 749.397 303.858 749.914 305.31C750.437 306.757 750.699 308.502 750.699 310.545C750.699 312.601 750.44 314.356 749.923 315.808C749.406 317.255 748.658 318.36 747.68 319.123C746.701 319.88 745.516 320.259 744.125 320.259ZM744.125 318.227C745.504 318.227 746.575 317.562 747.338 316.233C748.101 314.903 748.483 313.008 748.483 310.545C748.483 308.908 748.308 307.514 747.957 306.363C747.612 305.212 747.113 304.335 746.461 303.732C745.815 303.128 745.036 302.827 744.125 302.827C742.759 302.827 741.691 303.501 740.921 304.849C740.152 306.191 739.767 308.089 739.767 310.545C739.767 312.183 739.939 313.574 740.284 314.719C740.629 315.864 741.124 316.735 741.771 317.332C742.423 317.929 743.208 318.227 744.125 318.227Z" fill="black"/>
<path d="M509.957 363V361.338L516.199 354.506C516.931 353.705 517.535 353.01 518.009 352.419C518.482 351.822 518.833 351.262 519.061 350.739C519.295 350.209 519.412 349.655 519.412 349.077C519.412 348.412 519.252 347.836 518.932 347.35C518.618 346.864 518.187 346.488 517.639 346.224C517.091 345.959 516.476 345.827 515.793 345.827C515.066 345.827 514.432 345.978 513.891 346.279C513.355 346.575 512.94 346.99 512.644 347.526C512.355 348.061 512.21 348.689 512.21 349.409H510.031C510.031 348.301 510.287 347.329 510.798 346.491C511.308 345.654 512.004 345.002 512.884 344.534C513.771 344.066 514.765 343.832 515.866 343.832C516.974 343.832 517.956 344.066 518.812 344.534C519.667 345.002 520.338 345.633 520.825 346.427C521.311 347.221 521.554 348.104 521.554 349.077C521.554 349.772 521.428 350.452 521.175 351.117C520.929 351.776 520.498 352.511 519.883 353.324C519.273 354.13 518.427 355.115 517.344 356.278L513.097 360.821V360.969H521.886V363H509.957ZM524.85 359.122V357.239L533.16 344.091H534.526V347.009H533.603L527.325 356.943V357.091H538.515V359.122H524.85ZM533.751 363V358.55V357.673V344.091H535.93V363H533.751Z" fill="black"/>
<path d="M593.605 344.091V363H591.315V346.491H591.205L586.588 349.557V347.23L591.315 344.091H593.605ZM605.211 363.259C603.82 363.259 602.635 362.88 601.656 362.123C600.678 361.36 599.93 360.255 599.413 358.808C598.896 357.356 598.637 355.601 598.637 353.545C598.637 351.502 598.896 349.757 599.413 348.31C599.936 346.858 600.687 345.75 601.665 344.987C602.65 344.217 603.832 343.832 605.211 343.832C606.59 343.832 607.768 344.217 608.747 344.987C609.732 345.75 610.483 346.858 611 348.31C611.523 349.757 611.785 351.502 611.785 353.545C611.785 355.601 611.526 357.356 611.009 358.808C610.492 360.255 609.744 361.36 608.766 362.123C607.787 362.88 606.602 363.259 605.211 363.259ZM605.211 361.227C606.59 361.227 607.661 360.562 608.424 359.233C609.187 357.903 609.569 356.008 609.569 353.545C609.569 351.908 609.393 350.514 609.043 349.363C608.698 348.212 608.199 347.335 607.547 346.732C606.901 346.128 606.122 345.827 605.211 345.827C603.844 345.827 602.777 346.501 602.007 347.849C601.238 349.191 600.853 351.089 600.853 353.545C600.853 355.183 601.025 356.574 601.37 357.719C601.715 358.864 602.21 359.735 602.857 360.332C603.509 360.929 604.294 361.227 605.211 361.227Z" fill="black"/>
<path d="M668.605 344.091V363H666.315V346.491H666.205L661.588 349.557V347.23L666.315 344.091H668.605ZM680.691 344.091V363H678.401V346.491H678.29L673.674 349.557V347.23L678.401 344.091H680.691Z" fill="black"/>
<path d="M744.014 363.259C742.746 363.259 741.626 363.034 740.653 362.585C739.687 362.129 738.933 361.504 738.391 360.71C737.85 359.91 737.582 358.999 737.588 357.977C737.582 357.177 737.739 356.438 738.059 355.761C738.379 355.078 738.816 354.509 739.37 354.053C739.93 353.592 740.555 353.299 741.244 353.176V353.065C740.339 352.831 739.619 352.324 739.084 351.542C738.548 350.754 738.284 349.858 738.29 348.855C738.284 347.895 738.527 347.036 739.019 346.279C739.512 345.522 740.189 344.925 741.05 344.488C741.918 344.051 742.906 343.832 744.014 343.832C745.11 343.832 746.089 344.051 746.95 344.488C747.812 344.925 748.489 345.522 748.982 346.279C749.48 347.036 749.732 347.895 749.739 348.855C749.732 349.858 749.459 350.754 748.917 351.542C748.381 352.324 747.67 352.831 746.784 353.065V353.176C747.467 353.299 748.083 353.592 748.631 354.053C749.179 354.509 749.616 355.078 749.942 355.761C750.268 356.438 750.434 357.177 750.44 357.977C750.434 358.999 750.157 359.91 749.609 360.71C749.068 361.504 748.314 362.129 747.347 362.585C746.387 363.034 745.276 363.259 744.014 363.259ZM744.014 361.227C744.87 361.227 745.608 361.089 746.23 360.812C746.852 360.535 747.332 360.144 747.67 359.639C748.009 359.134 748.181 358.544 748.188 357.866C748.181 357.152 747.997 356.522 747.634 355.974C747.27 355.426 746.775 354.995 746.147 354.681C745.525 354.367 744.814 354.21 744.014 354.21C743.208 354.21 742.488 354.367 741.854 354.681C741.226 354.995 740.73 355.426 740.367 355.974C740.01 356.522 739.835 357.152 739.841 357.866C739.835 358.544 739.998 359.134 740.33 359.639C740.669 360.144 741.152 360.535 741.78 360.812C742.408 361.089 743.152 361.227 744.014 361.227ZM744.014 352.253C744.691 352.253 745.291 352.117 745.815 351.847C746.344 351.576 746.759 351.197 747.061 350.711C747.363 350.225 747.517 349.655 747.523 349.003C747.517 348.363 747.366 347.806 747.07 347.332C746.775 346.852 746.366 346.482 745.842 346.224C745.319 345.959 744.71 345.827 744.014 345.827C743.306 345.827 742.688 345.959 742.158 346.224C741.629 346.482 741.22 346.852 740.93 347.332C740.641 347.806 740.5 348.363 740.506 349.003C740.5 349.655 740.644 350.225 740.94 350.711C741.241 351.197 741.657 351.576 742.186 351.847C742.715 352.117 743.325 352.253 744.014 352.253Z" fill="black"/>
<path d="M563 0V415.5" stroke="#FF0000" stroke-width="3"/>
<path d="M1.89631 131V109.182H10.5043C12.1591 109.182 13.5689 109.498 14.7337 110.13C15.8984 110.755 16.7862 111.625 17.397 112.74C18.0149 113.848 18.3239 115.126 18.3239 116.575C18.3239 118.024 18.0114 119.303 17.3864 120.411C16.7614 121.518 15.8558 122.381 14.6697 122.999C13.4908 123.617 12.0632 123.926 10.3871 123.926H4.90057V120.229H9.64134C10.5291 120.229 11.2607 120.077 11.8359 119.771C12.4183 119.459 12.8516 119.029 13.1357 118.482C13.4268 117.928 13.5724 117.293 13.5724 116.575C13.5724 115.851 13.4268 115.219 13.1357 114.679C12.8516 114.132 12.4183 113.71 11.8359 113.411C11.2536 113.106 10.5149 112.953 9.62003 112.953H6.50923V131H1.89631ZM30.6845 109.182V131H26.0716V113.56H25.9437L20.9473 116.692V112.602L26.3485 109.182H30.6845Z" fill="black"/>
<path d="M1.89631 324V302.182H10.5043C12.1591 302.182 13.5689 302.498 14.7337 303.13C15.8984 303.755 16.7862 304.625 17.397 305.74C18.0149 306.848 18.3239 308.126 18.3239 309.575C18.3239 311.024 18.0114 312.303 17.3864 313.411C16.7614 314.518 15.8558 315.381 14.6697 315.999C13.4908 316.617 12.0632 316.926 10.3871 316.926H4.90057V313.229H9.64134C10.5291 313.229 11.2607 313.077 11.8359 312.771C12.4183 312.459 12.8516 312.029 13.1357 311.482C13.4268 310.928 13.5724 310.293 13.5724 309.575C13.5724 308.851 13.4268 308.219 13.1357 307.679C12.8516 307.132 12.4183 306.71 11.8359 306.411C11.2536 306.106 10.5149 305.953 9.62003 305.953H6.50923V324H1.89631ZM21.1923 324V320.676L28.9586 313.485C29.6191 312.846 30.1731 312.271 30.6206 311.759C31.0751 311.248 31.4196 310.747 31.6539 310.257C31.8883 309.76 32.0055 309.224 32.0055 308.648C32.0055 308.009 31.8599 307.459 31.5687 306.997C31.2775 306.528 30.8798 306.17 30.3755 305.921C29.8713 305.665 29.2995 305.538 28.6603 305.538C27.9927 305.538 27.4103 305.673 26.9132 305.942C26.416 306.212 26.0325 306.599 25.7626 307.104C25.4927 307.608 25.3578 308.208 25.3578 308.904H20.9792C20.9792 307.477 21.3024 306.237 21.9487 305.186C22.595 304.135 23.5005 303.322 24.6653 302.746C25.8301 302.171 27.1724 301.884 28.6923 301.884C30.2548 301.884 31.6149 302.161 32.7726 302.714C33.9373 303.261 34.8429 304.021 35.4892 304.994C36.1355 305.967 36.4586 307.082 36.4586 308.339C36.4586 309.163 36.2953 309.977 35.9686 310.779C35.649 311.582 35.0772 312.473 34.2534 313.453C33.4295 314.426 32.2683 315.594 30.7697 316.958L27.5843 320.08V320.229H36.7463V324H21.1923Z" fill="black"/>
</svg>
