<svg width="771" height="325" viewBox="0 0 771 325" fill="none" xmlns="http://www.w3.org/2000/svg">
<path d="M1.89631 262V240.182H10.5043C12.1591 240.182 13.5689 240.498 14.7337 241.13C15.8984 241.755 16.7862 242.625 17.397 243.74C18.0149 244.848 18.3239 246.126 18.3239 247.575C18.3239 249.024 18.0114 250.303 17.3864 251.411C16.7614 252.518 15.8558 253.381 14.6697 253.999C13.4908 254.617 12.0632 254.926 10.3871 254.926H4.90057V251.229H9.64134C10.5291 251.229 11.2607 251.077 11.8359 250.771C12.4183 250.459 12.8516 250.029 13.1357 249.482C13.4268 248.928 13.5724 248.293 13.5724 247.575C13.5724 246.851 13.4268 246.219 13.1357 245.679C12.8516 245.132 12.4183 244.71 11.8359 244.411C11.2536 244.106 10.5149 243.953 9.62003 243.953H6.50923V262H1.89631ZM30.6845 240.182V262H26.0716V244.56H25.9437L20.9473 247.692V243.602L26.3485 240.182H30.6845ZM39.7159 240.182V242.483C39.7159 243.136 39.5881 243.804 39.3324 244.486C39.0838 245.161 38.75 245.8 38.331 246.403C37.9119 247 37.4538 247.508 36.9567 247.927L34.9538 246.744C35.3089 246.183 35.6214 245.562 35.8913 244.88C36.1683 244.198 36.3068 243.406 36.3068 242.504V240.182H39.7159Z" fill="black"/>
<path d="M1.89631 80V58.1818H10.5043C12.1591 58.1818 13.5689 58.4979 14.7337 59.13C15.8984 59.755 16.7862 60.625 17.397 61.7401C18.0149 62.848 18.3239 64.1264 18.3239 65.5753C18.3239 67.0241 18.0114 68.3026 17.3864 69.4105C16.7614 70.5185 15.8558 71.3814 14.6697 71.9993C13.4908 72.6172 12.0632 72.9261 10.3871 72.9261H4.90057V69.2294H9.64134C10.5291 69.2294 11.2607 69.0767 11.8359 68.7713C12.4183 68.4588 12.8516 68.0291 13.1357 67.4822C13.4268 66.9283 13.5724 66.2926 13.5724 65.5753C13.5724 64.8509 13.4268 64.2187 13.1357 63.679C12.8516 63.1321 12.4183 62.7095 11.8359 62.4112C11.2536 62.1058 10.5149 61.9531 9.62003 61.9531H6.50923V80H1.89631ZM30.6845 58.1818V80H26.0716V62.5604H25.9437L20.9473 65.6925V61.6016L26.3485 58.1818H30.6845Z" fill="black"/>
<rect x="172.5" y="0.5" width="74.7449" height="43" fill="#D9D9D9" stroke="black"/>
<rect x="172.5" y="43.5" width="74.7449" height="44" stroke="black"/>
<rect x="172.5" y="87.5" width="74.7449" height="43" fill="#D9D9D9" stroke="black"/>
<rect x="247.252" y="0.5" width="74.7449" height="43.1744" fill="#D9D9D9" stroke="black"/>
<rect x="247.252" y="43.9126" width="74.7449" height="43.1744" stroke="black"/>
<rect x="247.252" y="87.3257" width="74.7449" height="43.1744" fill="#D9D9D9" stroke="black"/>
<rect x="322.003" y="0.5" width="74.7449" height="43.1744" fill="#5BDE78" fill-opacity="0.62" stroke="black"/>
<rect x="322.003" y="43.9126" width="74.7449" height="43.1744" stroke="black"/>
<rect x="322.003" y="87.3257" width="74.7449" height="43.1744" fill="#5BDE78" fill-opacity="0.62" stroke="black"/>
<rect x="396.755" y="0.5" width="74.7449" height="43.1744" fill="#D9D9D9" stroke="black"/>
<rect x="396.755" y="43.9126" width="74.7449" height="43.1744" stroke="black"/>
<rect x="396.755" y="87.3257" width="74.7449" height="43.1744" fill="#D9D9D9" stroke="black"/>
<rect x="471.5" y="0.5" width="74.7449" height="43" fill="#D9D9D9" stroke="black"/>
<rect x="471.5" y="43.5" width="74.7449" height="44" stroke="black"/>
<rect x="471.5" y="87.5" width="74.7449" height="43" fill="#D9D9D9" stroke="black"/>
<rect x="546.252" y="0.5" width="74.7449" height="43.1744" fill="#F6ADAD" stroke="black"/>
<rect x="546.252" y="43.9126" width="74.7449" height="43.1744" stroke="black"/>
<rect x="546.252" y="87.3257" width="74.7449" height="43.1744" fill="#F6ADAD" stroke="black"/>
<rect x="621.003" y="0.5" width="74.7449" height="43.1744" fill="#D9D9D9" stroke="black"/>
<rect x="621.003" y="43.9126" width="74.7449" height="43.1744" stroke="black"/>
<rect x="621.003" y="87.3257" width="74.7449" height="43.1744" fill="#D9D9D9" stroke="black"/>
<rect x="695.755" y="0.5" width="74.7449" height="43.1744" fill="#D9D9D9" stroke="black"/>
<rect x="695.755" y="43.9126" width="74.7449" height="43.1744" stroke="black"/>
<rect x="695.755" y="87.3257" width="74.7449" height="43.1744" fill="#D9D9D9" stroke="black"/>
<path d="M101.063 13.7187V12H113.062V13.7187H108.031V28H106.094V13.7187H101.063ZM115.803 28V16H117.646V28H115.803ZM116.74 14C116.381 14 116.071 13.8776 115.811 13.6328C115.555 13.388 115.428 13.0938 115.428 12.75C115.428 12.4063 115.555 12.112 115.811 11.8672C116.071 11.6224 116.381 11.5 116.74 11.5C117.1 11.5 117.407 11.6224 117.662 11.8672C117.923 12.112 118.053 12.4063 118.053 12.75C118.053 13.0938 117.923 13.388 117.662 13.6328C117.407 13.8776 117.1 14 116.74 14ZM121.023 32.5V16H122.805V17.9062H123.023C123.159 17.6979 123.346 17.4323 123.586 17.1094C123.831 16.7812 124.18 16.4896 124.633 16.2344C125.091 15.974 125.711 15.8438 126.492 15.8438C127.503 15.8438 128.393 16.0964 129.164 16.6016C129.935 17.1068 130.536 17.8229 130.969 18.75C131.401 19.6771 131.617 20.7708 131.617 22.0313C131.617 23.3021 131.401 24.4036 130.969 25.3359C130.536 26.263 129.938 26.9818 129.172 27.4922C128.406 27.9974 127.523 28.25 126.523 28.25C125.753 28.25 125.135 28.1224 124.672 27.8672C124.208 27.6068 123.852 27.3125 123.602 26.9844C123.352 26.651 123.159 26.375 123.023 26.1562H122.867V32.5H121.023ZM122.836 22C122.836 22.9062 122.969 23.7057 123.234 24.3984C123.5 25.0859 123.888 25.625 124.398 26.0156C124.909 26.401 125.534 26.5938 126.273 26.5938C127.044 26.5938 127.688 26.3906 128.203 25.9844C128.724 25.5729 129.115 25.0208 129.375 24.3281C129.641 23.6302 129.773 22.8542 129.773 22C129.773 21.1562 129.643 20.3958 129.383 19.7187C129.128 19.0365 128.74 18.4974 128.219 18.1016C127.703 17.7005 127.055 17.5 126.273 17.5C125.523 17.5 124.893 17.6901 124.383 18.0703C123.872 18.4453 123.487 18.9714 123.227 19.6484C122.966 20.3203 122.836 21.1042 122.836 22ZM139.305 28.25C138.221 28.25 137.271 27.9922 136.453 27.4766C135.641 26.9609 135.005 26.2396 134.547 25.3125C134.094 24.3854 133.867 23.3021 133.867 22.0625C133.867 20.8125 134.094 19.7214 134.547 18.7891C135.005 17.8568 135.641 17.1328 136.453 16.6172C137.271 16.1016 138.221 15.8438 139.305 15.8438C140.388 15.8438 141.336 16.1016 142.148 16.6172C142.966 17.1328 143.602 17.8568 144.055 18.7891C144.513 19.7214 144.742 20.8125 144.742 22.0625C144.742 23.3021 144.513 24.3854 144.055 25.3125C143.602 26.2396 142.966 26.9609 142.148 27.4766C141.336 27.9922 140.388 28.25 139.305 28.25ZM139.305 26.5938C140.128 26.5938 140.805 26.3828 141.336 25.9609C141.867 25.5391 142.26 24.9844 142.516 24.2969C142.771 23.6094 142.898 22.8646 142.898 22.0625C142.898 21.2604 142.771 20.513 142.516 19.8203C142.26 19.1276 141.867 18.5677 141.336 18.1406C140.805 17.7135 140.128 17.5 139.305 17.5C138.482 17.5 137.805 17.7135 137.273 18.1406C136.742 18.5677 136.349 19.1276 136.094 19.8203C135.839 20.513 135.711 21.2604 135.711 22.0625C135.711 22.8646 135.839 23.6094 136.094 24.2969C136.349 24.9844 136.742 25.5391 137.273 25.9609C137.805 26.3828 138.482 26.5938 139.305 26.5938Z" fill="black"/>
<path d="M59.9375 74V58H65.3438C66.5938 58 67.6198 58.2135 68.4219 58.6406C69.224 59.0625 69.8177 59.6432 70.2031 60.3828C70.5885 61.1224 70.7813 61.9635 70.7813 62.9062C70.7813 63.849 70.5885 64.6849 70.2031 65.4141C69.8177 66.1432 69.2266 66.7161 68.4297 67.1328C67.6328 67.5443 66.6146 67.75 65.375 67.75H61V66H65.3125C66.1667 66 66.8542 65.875 67.375 65.625C67.901 65.375 68.2813 65.0208 68.5156 64.5625C68.7552 64.099 68.875 63.5469 68.875 62.9062C68.875 62.2656 68.7552 61.7057 68.5156 61.2266C68.276 60.7474 67.8932 60.3776 67.3672 60.1172C66.8411 59.8516 66.1458 59.7187 65.2812 59.7187H61.875V74H59.9375ZM67.4688 66.8125L71.4062 74H69.1563L65.2812 66.8125H67.4688ZM78.5059 74.25C77.4225 74.25 76.472 73.9922 75.6543 73.4766C74.8418 72.9609 74.2064 72.2396 73.748 71.3125C73.2949 70.3854 73.0684 69.3021 73.0684 68.0625C73.0684 66.8125 73.2949 65.7214 73.748 64.7891C74.2064 63.8568 74.8418 63.1328 75.6543 62.6172C76.472 62.1016 77.4225 61.8438 78.5059 61.8438C79.5892 61.8438 80.5371 62.1016 81.3496 62.6172C82.1673 63.1328 82.8027 63.8568 83.2559 64.7891C83.7142 65.7214 83.9434 66.8125 83.9434 68.0625C83.9434 69.3021 83.7142 70.3854 83.2559 71.3125C82.8027 72.2396 82.1673 72.9609 81.3496 73.4766C80.5371 73.9922 79.5892 74.25 78.5059 74.25ZM78.5059 72.5938C79.3288 72.5938 80.0059 72.3828 80.5371 71.9609C81.0684 71.5391 81.4616 70.9844 81.7168 70.2969C81.972 69.6094 82.0996 68.8646 82.0996 68.0625C82.0996 67.2604 81.972 66.513 81.7168 65.8203C81.4616 65.1276 81.0684 64.5677 80.5371 64.1406C80.0059 63.7135 79.3288 63.5 78.5059 63.5C77.6829 63.5 77.0059 63.7135 76.4746 64.1406C75.9434 64.5677 75.5501 65.1276 75.2949 65.8203C75.0397 66.513 74.9121 67.2604 74.9121 68.0625C74.9121 68.8646 75.0397 69.6094 75.2949 70.2969C75.5501 70.9844 75.9434 71.5391 76.4746 71.9609C77.0059 72.3828 77.6829 72.5938 78.5059 72.5938ZM91.9766 62V63.5625H85.7578V62H91.9766ZM87.5703 59.125H89.4141V70.5625C89.4141 71.0833 89.4896 71.474 89.6406 71.7344C89.7969 71.9896 89.9948 72.1615 90.2344 72.25C90.4792 72.3333 90.737 72.375 91.0078 72.375C91.2109 72.375 91.3776 72.3646 91.5078 72.3437C91.638 72.3177 91.7422 72.2969 91.8203 72.2812L92.1953 73.9375C92.0703 73.9844 91.8958 74.0313 91.6719 74.0781C91.4479 74.1302 91.1641 74.1563 90.8203 74.1563C90.2995 74.1563 89.7891 74.0443 89.2891 73.8203C88.7943 73.5964 88.3828 73.2552 88.0547 72.7969C87.7318 72.3385 87.5703 71.7604 87.5703 71.0625V59.125ZM98.2813 74.2813C97.5208 74.2813 96.8307 74.138 96.2109 73.8516C95.5911 73.5599 95.099 73.1406 94.7344 72.5938C94.3698 72.0417 94.1875 71.375 94.1875 70.5937C94.1875 69.9062 94.3229 69.349 94.5938 68.9219C94.8646 68.4896 95.2266 68.151 95.6797 67.9062C96.1328 67.6615 96.6328 67.4792 97.1797 67.3594C97.7318 67.2344 98.2865 67.1354 98.8438 67.0625C99.5729 66.9687 100.164 66.8984 100.617 66.8516C101.076 66.7995 101.409 66.7135 101.617 66.5937C101.831 66.474 101.938 66.2656 101.938 65.9687V65.9062C101.938 65.1354 101.727 64.5365 101.305 64.1094C100.888 63.6823 100.255 63.4687 99.4063 63.4687C98.526 63.4687 97.8359 63.6615 97.3359 64.0469C96.8359 64.4323 96.4844 64.8437 96.2813 65.2812L94.5313 64.6562C94.8438 63.9271 95.2604 63.3594 95.7813 62.9531C96.3073 62.5417 96.8802 62.2552 97.5 62.0937C98.125 61.9271 98.7396 61.8438 99.3438 61.8438C99.7292 61.8438 100.172 61.8906 100.672 61.9844C101.177 62.0729 101.664 62.2578 102.133 62.5391C102.607 62.8203 103 63.2448 103.313 63.8125C103.625 64.3802 103.781 65.1406 103.781 66.0938V74H101.938V72.375H101.844C101.719 72.6354 101.51 72.9141 101.219 73.2109C100.927 73.5078 100.539 73.7604 100.055 73.9687C99.5703 74.1771 98.9792 74.2813 98.2813 74.2813ZM98.5625 72.625C99.2917 72.625 99.9063 72.4818 100.406 72.1953C100.911 71.9089 101.292 71.5391 101.547 71.0859C101.807 70.6328 101.938 70.1562 101.938 69.6562V67.9687C101.859 68.0625 101.688 68.1484 101.422 68.2266C101.161 68.2995 100.859 68.3646 100.516 68.4219C100.177 68.474 99.8464 68.5208 99.5234 68.5625C99.2057 68.599 98.9479 68.6302 98.75 68.6562C98.2708 68.7187 97.8229 68.8203 97.4063 68.9609C96.9948 69.0964 96.6615 69.3021 96.4063 69.5781C96.1563 69.849 96.0313 70.2187 96.0313 70.6875C96.0313 71.3281 96.2682 71.8125 96.7422 72.1406C97.2214 72.4635 97.8281 72.625 98.5625 72.625ZM112.021 74.25C110.896 74.25 109.928 73.9844 109.115 73.4531C108.303 72.9219 107.678 72.1901 107.24 71.2578C106.803 70.3255 106.584 69.2604 106.584 68.0625C106.584 66.8437 106.808 65.7682 107.256 64.8359C107.709 63.8984 108.339 63.1667 109.146 62.6406C109.959 62.1094 110.907 61.8438 111.99 61.8438C112.834 61.8438 113.594 62 114.271 62.3125C114.949 62.625 115.503 63.0625 115.936 63.625C116.368 64.1875 116.636 64.8437 116.74 65.5937H114.896C114.756 65.0469 114.443 64.5625 113.959 64.1406C113.48 63.7135 112.834 63.5 112.021 63.5C111.303 63.5 110.673 63.6875 110.131 64.0625C109.594 64.4323 109.175 64.9557 108.873 65.6328C108.576 66.3047 108.428 67.0937 108.428 68C108.428 68.9271 108.574 69.7344 108.865 70.4219C109.162 71.1094 109.579 71.6432 110.115 72.0234C110.657 72.4036 111.292 72.5938 112.021 72.5938C112.501 72.5938 112.936 72.5104 113.326 72.3437C113.717 72.1771 114.048 71.9375 114.318 71.625C114.589 71.3125 114.782 70.9375 114.896 70.5H116.74C116.636 71.2083 116.378 71.8464 115.967 72.4141C115.561 72.9766 115.021 73.4245 114.35 73.7578C113.683 74.0859 112.907 74.25 112.021 74.25ZM119.436 74V62H121.279V74H119.436ZM120.373 60C120.014 60 119.704 59.8776 119.443 59.6328C119.188 59.388 119.061 59.0938 119.061 58.75C119.061 58.4063 119.188 58.112 119.443 57.8672C119.704 57.6224 120.014 57.5 120.373 57.5C120.732 57.5 121.04 57.6224 121.295 57.8672C121.555 58.112 121.686 58.4063 121.686 58.75C121.686 59.0938 121.555 59.388 121.295 59.6328C121.04 59.8776 120.732 60 120.373 60ZM129.531 74.25C128.448 74.25 127.497 73.9922 126.68 73.4766C125.867 72.9609 125.232 72.2396 124.773 71.3125C124.32 70.3854 124.094 69.3021 124.094 68.0625C124.094 66.8125 124.32 65.7214 124.773 64.7891C125.232 63.8568 125.867 63.1328 126.68 62.6172C127.497 62.1016 128.448 61.8438 129.531 61.8438C130.615 61.8438 131.563 62.1016 132.375 62.6172C133.193 63.1328 133.828 63.8568 134.281 64.7891C134.74 65.7214 134.969 66.8125 134.969 68.0625C134.969 69.3021 134.74 70.3854 134.281 71.3125C133.828 72.2396 133.193 72.9609 132.375 73.4766C131.563 73.9922 130.615 74.25 129.531 74.25ZM129.531 72.5938C130.354 72.5938 131.031 72.3828 131.562 71.9609C132.094 71.5391 132.487 70.9844 132.742 70.2969C132.997 69.6094 133.125 68.8646 133.125 68.0625C133.125 67.2604 132.997 66.513 132.742 65.8203C132.487 65.1276 132.094 64.5677 131.562 64.1406C131.031 63.7135 130.354 63.5 129.531 63.5C128.708 63.5 128.031 63.7135 127.5 64.1406C126.969 64.5677 126.576 65.1276 126.32 65.8203C126.065 66.513 125.938 67.2604 125.938 68.0625C125.938 68.8646 126.065 69.6094 126.32 70.2969C126.576 70.9844 126.969 71.5391 127.5 71.9609C128.031 72.3828 128.708 72.5938 129.531 72.5938ZM128.688 60.375L130.594 56.75H132.75L130.313 60.375H128.688ZM139.627 66.7812V74H137.783V62H139.564V63.875H139.721C140.002 63.2656 140.429 62.776 141.002 62.4063C141.575 62.0313 142.314 61.8438 143.221 61.8438C144.033 61.8438 144.744 62.0104 145.354 62.3437C145.963 62.6719 146.437 63.1719 146.775 63.8437C147.114 64.5104 147.283 65.3542 147.283 66.375V74H145.439V66.5C145.439 65.5573 145.195 64.8229 144.705 64.2969C144.215 63.7656 143.544 63.5 142.689 63.5C142.101 63.5 141.575 63.6276 141.111 63.8828C140.653 64.138 140.291 64.5104 140.025 65C139.76 65.4896 139.627 66.0833 139.627 66.7812Z" fill="black"/>
<path d="M68.8125 106H66.875C66.7604 105.443 66.5599 104.953 66.2734 104.531C65.9922 104.109 65.6484 103.755 65.2422 103.469C64.8411 103.177 64.3958 102.958 63.9063 102.812C63.4167 102.667 62.9063 102.594 62.375 102.594C61.4063 102.594 60.5286 102.839 59.7422 103.328C58.9609 103.818 58.3385 104.539 57.875 105.492C57.4167 106.445 57.1875 107.615 57.1875 109C57.1875 110.385 57.4167 111.555 57.875 112.508C58.3385 113.461 58.9609 114.182 59.7422 114.672C60.5286 115.161 61.4063 115.406 62.375 115.406C62.9063 115.406 63.4167 115.333 63.9063 115.187C64.3958 115.042 64.8411 114.826 65.2422 114.539C65.6484 114.247 65.9922 113.891 66.2734 113.469C66.5599 113.042 66.7604 112.552 66.875 112H68.8125C68.6667 112.818 68.401 113.549 68.0156 114.195C67.6302 114.841 67.151 115.391 66.5781 115.844C66.0052 116.292 65.362 116.633 64.6484 116.867C63.9401 117.102 63.1823 117.219 62.375 117.219C61.0104 117.219 59.7969 116.885 58.7344 116.219C57.6719 115.552 56.8359 114.604 56.2266 113.375C55.6172 112.146 55.3125 110.687 55.3125 109C55.3125 107.312 55.6172 105.854 56.2266 104.625C56.8359 103.396 57.6719 102.448 58.7344 101.781C59.7969 101.115 61.0104 100.781 62.375 100.781C63.1823 100.781 63.9401 100.898 64.6484 101.133C65.362 101.367 66.0052 101.711 66.5781 102.164C67.151 102.612 67.6302 103.159 68.0156 103.805C68.401 104.445 68.6667 105.177 68.8125 106ZM75.2246 117.281C74.4642 117.281 73.7741 117.138 73.1543 116.852C72.5345 116.56 72.0423 116.141 71.6777 115.594C71.3132 115.042 71.1309 114.375 71.1309 113.594C71.1309 112.906 71.2663 112.349 71.5371 111.922C71.8079 111.49 72.1699 111.151 72.623 110.906C73.0762 110.661 73.5762 110.479 74.123 110.359C74.6751 110.234 75.2298 110.135 75.7871 110.063C76.5163 109.969 77.1074 109.898 77.5605 109.852C78.0189 109.799 78.3522 109.714 78.5605 109.594C78.7741 109.474 78.8809 109.266 78.8809 108.969V108.906C78.8809 108.135 78.6699 107.536 78.248 107.109C77.8314 106.682 77.1986 106.469 76.3496 106.469C75.4694 106.469 74.7793 106.661 74.2793 107.047C73.7793 107.432 73.4277 107.844 73.2246 108.281L71.4746 107.656C71.7871 106.927 72.2038 106.359 72.7246 105.953C73.2507 105.542 73.8236 105.255 74.4434 105.094C75.0684 104.927 75.6829 104.844 76.2871 104.844C76.6725 104.844 77.1152 104.891 77.6152 104.984C78.1204 105.073 78.6074 105.258 79.0762 105.539C79.5501 105.82 79.9434 106.245 80.2559 106.812C80.5684 107.38 80.7246 108.141 80.7246 109.094V117H78.8809V115.375H78.7871C78.6621 115.635 78.4538 115.914 78.1621 116.211C77.8704 116.508 77.4824 116.76 76.998 116.969C76.5137 117.177 75.9225 117.281 75.2246 117.281ZM75.5059 115.625C76.235 115.625 76.8496 115.482 77.3496 115.195C77.8548 114.909 78.235 114.539 78.4902 114.086C78.7507 113.633 78.8809 113.156 78.8809 112.656V110.969C78.8027 111.062 78.6309 111.148 78.3652 111.227C78.1048 111.299 77.8027 111.365 77.459 111.422C77.1204 111.474 76.7897 111.521 76.4668 111.562C76.1491 111.599 75.8913 111.63 75.6934 111.656C75.2142 111.719 74.7663 111.82 74.3496 111.961C73.9382 112.096 73.6048 112.302 73.3496 112.578C73.0996 112.849 72.9746 113.219 72.9746 113.687C72.9746 114.328 73.2116 114.812 73.6855 115.141C74.1647 115.464 74.7715 115.625 75.5059 115.625ZM85.9336 109.781V117H84.0898V105H85.8711V106.875H86.0273C86.3086 106.266 86.7357 105.776 87.3086 105.406C87.8815 105.031 88.6211 104.844 89.5273 104.844C90.3398 104.844 91.0508 105.01 91.6602 105.344C92.2695 105.672 92.7435 106.172 93.082 106.844C93.4206 107.51 93.5898 108.354 93.5898 109.375V117H91.7461V109.5C91.7461 108.557 91.5013 107.823 91.0117 107.297C90.5221 106.766 89.8503 106.5 88.9961 106.5C88.4076 106.5 87.8815 106.628 87.418 106.883C86.9596 107.138 86.5977 107.51 86.332 108C86.0664 108.49 85.9336 109.083 85.9336 109.781ZM102.178 105V106.562H95.959V105H102.178ZM97.7715 102.125H99.6152V113.562C99.6152 114.083 99.6908 114.474 99.8418 114.734C99.998 114.99 100.196 115.161 100.436 115.25C100.68 115.333 100.938 115.375 101.209 115.375C101.412 115.375 101.579 115.365 101.709 115.344C101.839 115.318 101.943 115.297 102.021 115.281L102.396 116.937C102.271 116.984 102.097 117.031 101.873 117.078C101.649 117.13 101.365 117.156 101.021 117.156C100.501 117.156 99.9902 117.044 99.4902 116.82C98.9954 116.596 98.584 116.255 98.2559 115.797C97.9329 115.339 97.7715 114.76 97.7715 114.062V102.125ZM104.951 117V105H106.795V117H104.951ZM105.889 103C105.529 103 105.219 102.878 104.959 102.633C104.704 102.388 104.576 102.094 104.576 101.75C104.576 101.406 104.704 101.112 104.959 100.867C105.219 100.622 105.529 100.5 105.889 100.5C106.248 100.5 106.555 100.622 106.811 100.867C107.071 101.112 107.201 101.406 107.201 101.75C107.201 102.094 107.071 102.388 106.811 102.633C106.555 102.878 106.248 103 105.889 103ZM114.703 117.25C113.703 117.25 112.82 116.997 112.055 116.492C111.289 115.982 110.69 115.263 110.258 114.336C109.826 113.404 109.609 112.302 109.609 111.031C109.609 109.771 109.826 108.677 110.258 107.75C110.69 106.823 111.292 106.107 112.063 105.602C112.833 105.096 113.724 104.844 114.734 104.844C115.516 104.844 116.133 104.974 116.586 105.234C117.044 105.49 117.393 105.781 117.633 106.109C117.878 106.432 118.068 106.698 118.203 106.906H118.359V101H120.203V117H118.422V115.156H118.203C118.068 115.375 117.875 115.651 117.625 115.984C117.375 116.312 117.018 116.607 116.555 116.867C116.091 117.122 115.474 117.25 114.703 117.25ZM114.953 115.594C115.693 115.594 116.318 115.401 116.828 115.016C117.339 114.625 117.727 114.086 117.992 113.398C118.258 112.706 118.391 111.906 118.391 111C118.391 110.104 118.26 109.32 118 108.648C117.74 107.971 117.354 107.445 116.844 107.07C116.333 106.69 115.703 106.5 114.953 106.5C114.172 106.5 113.521 106.701 113 107.102C112.484 107.497 112.096 108.036 111.836 108.719C111.581 109.396 111.453 110.156 111.453 111C111.453 111.854 111.583 112.63 111.844 113.328C112.109 114.021 112.5 114.573 113.016 114.984C113.536 115.391 114.182 115.594 114.953 115.594ZM127.367 117.281C126.607 117.281 125.917 117.138 125.297 116.852C124.677 116.56 124.185 116.141 123.82 115.594C123.456 115.042 123.273 114.375 123.273 113.594C123.273 112.906 123.409 112.349 123.68 111.922C123.951 111.49 124.313 111.151 124.766 110.906C125.219 110.661 125.719 110.479 126.266 110.359C126.818 110.234 127.372 110.135 127.93 110.063C128.659 109.969 129.25 109.898 129.703 109.852C130.161 109.799 130.495 109.714 130.703 109.594C130.917 109.474 131.023 109.266 131.023 108.969V108.906C131.023 108.135 130.813 107.536 130.391 107.109C129.974 106.682 129.341 106.469 128.492 106.469C127.612 106.469 126.922 106.661 126.422 107.047C125.922 107.432 125.57 107.844 125.367 108.281L123.617 107.656C123.93 106.927 124.346 106.359 124.867 105.953C125.393 105.542 125.966 105.255 126.586 105.094C127.211 104.927 127.826 104.844 128.43 104.844C128.815 104.844 129.258 104.891 129.758 104.984C130.263 105.073 130.75 105.258 131.219 105.539C131.693 105.82 132.086 106.245 132.398 106.812C132.711 107.38 132.867 108.141 132.867 109.094V117H131.023V115.375H130.93C130.805 115.635 130.596 115.914 130.305 116.211C130.013 116.508 129.625 116.76 129.141 116.969C128.656 117.177 128.065 117.281 127.367 117.281ZM127.648 115.625C128.378 115.625 128.992 115.482 129.492 115.195C129.997 114.909 130.378 114.539 130.633 114.086C130.893 113.633 131.023 113.156 131.023 112.656V110.969C130.945 111.062 130.773 111.148 130.508 111.227C130.247 111.299 129.945 111.365 129.602 111.422C129.263 111.474 128.932 111.521 128.609 111.562C128.292 111.599 128.034 111.63 127.836 111.656C127.357 111.719 126.909 111.82 126.492 111.961C126.081 112.096 125.747 112.302 125.492 112.578C125.242 112.849 125.117 113.219 125.117 113.687C125.117 114.328 125.354 114.812 125.828 115.141C126.307 115.464 126.914 115.625 127.648 115.625ZM140.764 117.25C139.764 117.25 138.881 116.997 138.115 116.492C137.35 115.982 136.751 115.263 136.318 114.336C135.886 113.404 135.67 112.302 135.67 111.031C135.67 109.771 135.886 108.677 136.318 107.75C136.751 106.823 137.352 106.107 138.123 105.602C138.894 105.096 139.785 104.844 140.795 104.844C141.576 104.844 142.193 104.974 142.646 105.234C143.105 105.49 143.454 105.781 143.693 106.109C143.938 106.432 144.128 106.698 144.264 106.906H144.42V101H146.264V117H144.482V115.156H144.264C144.128 115.375 143.936 115.651 143.686 115.984C143.436 116.312 143.079 116.607 142.615 116.867C142.152 117.122 141.535 117.25 140.764 117.25ZM141.014 115.594C141.753 115.594 142.378 115.401 142.889 115.016C143.399 114.625 143.787 114.086 144.053 113.398C144.318 112.706 144.451 111.906 144.451 111C144.451 110.104 144.321 109.32 144.061 108.648C143.8 107.971 143.415 107.445 142.904 107.07C142.394 106.69 141.764 106.5 141.014 106.5C140.232 106.5 139.581 106.701 139.061 107.102C138.545 107.497 138.157 108.036 137.896 108.719C137.641 109.396 137.514 110.156 137.514 111C137.514 111.854 137.644 112.63 137.904 113.328C138.17 114.021 138.561 114.573 139.076 114.984C139.597 115.391 140.243 115.594 141.014 115.594Z" fill="black"/>
<path d="M199.957 33V31.3381L206.199 24.5057C206.931 23.7055 207.535 23.0099 208.009 22.419C208.482 21.822 208.833 21.2618 209.061 20.7386C209.295 20.2093 209.412 19.6553 209.412 19.0767C209.412 18.4119 209.252 17.8364 208.932 17.3501C208.618 16.8639 208.187 16.4884 207.639 16.2237C207.091 15.959 206.476 15.8267 205.793 15.8267C205.066 15.8267 204.432 15.9775 203.891 16.2791C203.355 16.5746 202.94 16.9901 202.644 17.5256C202.355 18.0611 202.21 18.6889 202.21 19.4091H200.031C200.031 18.3011 200.287 17.3286 200.798 16.4915C201.308 15.6544 202.004 15.0019 202.884 14.5341C203.771 14.0663 204.765 13.8324 205.866 13.8324C206.974 13.8324 207.956 14.0663 208.812 14.5341C209.667 15.0019 210.338 15.6328 210.825 16.4268C211.311 17.2209 211.554 18.1042 211.554 19.0767C211.554 19.7723 211.428 20.4524 211.175 21.1172C210.929 21.7758 210.498 22.5114 209.883 23.3239C209.273 24.1302 208.427 25.1151 207.344 26.2784L203.097 30.821V30.9688H211.886V33H199.957Z" fill="black"/>
<path d="M280.866 33.2585C279.783 33.2585 278.808 33.0431 277.94 32.6122C277.072 32.1813 276.376 31.5904 275.853 30.8395C275.33 30.0885 275.044 29.233 274.994 28.2727H277.21C277.296 29.1283 277.684 29.8362 278.374 30.3963C279.069 30.9503 279.9 31.2273 280.866 31.2273C281.642 31.2273 282.331 31.0457 282.935 30.6825C283.544 30.3194 284.021 29.8208 284.366 29.1868C284.717 28.5466 284.892 27.8234 284.892 27.017C284.892 26.1922 284.71 25.4567 284.347 24.8104C283.99 24.1579 283.498 23.6439 282.87 23.2685C282.242 22.893 281.525 22.7022 280.719 22.696C280.14 22.6899 279.546 22.7791 278.937 22.9638C278.327 23.1423 277.826 23.3731 277.432 23.6562L275.29 23.3977L276.435 14.0909H286.259V16.1222H278.355L277.69 21.6989H277.801C278.189 21.3911 278.675 21.1357 279.26 20.9325C279.845 20.7294 280.454 20.6278 281.088 20.6278C282.245 20.6278 283.276 20.9048 284.181 21.4588C285.092 22.0066 285.806 22.7576 286.323 23.7116C286.846 24.6657 287.108 25.7552 287.108 26.9801C287.108 28.1866 286.837 29.2637 286.295 30.2116C285.76 31.1534 285.021 31.8982 284.08 32.446C283.138 32.9877 282.067 33.2585 280.866 33.2585Z" fill="black"/>
<path d="M349.514 29.1222V27.2386L357.824 14.0909H359.19V17.0085H358.267L351.989 26.9432V27.0909H363.179V29.1222H349.514ZM358.415 33V28.5497V27.6726V14.0909H360.594V33H358.415Z" fill="black"/>
<path d="M424.548 33L433.006 16.2699V16.1222H423.256V14.0909H435.369V16.233L426.949 33H424.548Z" fill="black"/>
<path d="M206.125 76.2585C204.734 76.2585 203.549 75.88 202.57 75.1229C201.592 74.3596 200.844 73.2547 200.327 71.8082C199.81 70.3556 199.551 68.6013 199.551 66.5455C199.551 64.5019 199.81 62.7569 200.327 61.3104C200.85 59.8577 201.601 58.7498 202.58 57.9865C203.564 57.2171 204.746 56.8324 206.125 56.8324C207.504 56.8324 208.683 57.2171 209.661 57.9865C210.646 58.7498 211.397 59.8577 211.914 61.3104C212.437 62.7569 212.699 64.5019 212.699 66.5455C212.699 68.6013 212.44 70.3556 211.923 71.8082C211.406 73.2547 210.658 74.3596 209.68 75.1229C208.701 75.88 207.516 76.2585 206.125 76.2585ZM206.125 74.2273C207.504 74.2273 208.575 73.5625 209.338 72.233C210.101 70.9034 210.483 69.0076 210.483 66.5455C210.483 64.9081 210.308 63.514 209.957 62.3629C209.612 61.2119 209.113 60.3348 208.461 59.7315C207.815 59.1283 207.036 58.8267 206.125 58.8267C204.759 58.8267 203.691 59.5007 202.921 60.8487C202.152 62.1906 201.767 64.0895 201.767 66.5455C201.767 68.1828 201.939 69.5739 202.284 70.7188C202.629 71.8636 203.124 72.7346 203.771 73.3317C204.423 73.9287 205.208 74.2273 206.125 74.2273Z" fill="black"/>
<path d="M281.605 57.0909V76H279.315V59.4915H279.205L274.588 62.5568V60.2301L279.315 57.0909H281.605Z" fill="black"/>
<path d="M356.605 57.0909V76H354.315V59.4915H354.205L349.588 62.5568V60.2301L354.315 57.0909H356.605Z" fill="black"/>
<path d="M430.125 76.2585C428.734 76.2585 427.549 75.88 426.57 75.1229C425.592 74.3596 424.844 73.2547 424.327 71.8082C423.81 70.3556 423.551 68.6013 423.551 66.5455C423.551 64.5019 423.81 62.7569 424.327 61.3104C424.85 59.8577 425.601 58.7498 426.58 57.9865C427.564 57.2171 428.746 56.8324 430.125 56.8324C431.504 56.8324 432.683 57.2171 433.661 57.9865C434.646 58.7498 435.397 59.8577 435.914 61.3104C436.437 62.7569 436.699 64.5019 436.699 66.5455C436.699 68.6013 436.44 70.3556 435.923 71.8082C435.406 73.2547 434.658 74.3596 433.68 75.1229C432.701 75.88 431.516 76.2585 430.125 76.2585ZM430.125 74.2273C431.504 74.2273 432.575 73.5625 433.338 72.233C434.101 70.9034 434.483 69.0076 434.483 66.5455C434.483 64.9081 434.308 63.514 433.957 62.3629C433.612 61.2119 433.113 60.3348 432.461 59.7315C431.815 59.1283 431.036 58.8267 430.125 58.8267C428.759 58.8267 427.691 59.5007 426.921 60.8487C426.152 62.1906 425.767 64.0895 425.767 66.5455C425.767 68.1828 425.939 69.5739 426.284 70.7188C426.629 71.8636 427.124 72.7346 427.771 73.3317C428.423 73.9287 429.208 74.2273 430.125 74.2273Z" fill="black"/>
<path d="M196.957 119V117.338L203.199 110.506C203.931 109.705 204.535 109.01 205.009 108.419C205.482 107.822 205.833 107.262 206.061 106.739C206.295 106.209 206.412 105.655 206.412 105.077C206.412 104.412 206.252 103.836 205.932 103.35C205.618 102.864 205.187 102.488 204.639 102.224C204.091 101.959 203.476 101.827 202.793 101.827C202.066 101.827 201.432 101.978 200.891 102.279C200.355 102.575 199.94 102.99 199.644 103.526C199.355 104.061 199.21 104.689 199.21 105.409H197.031C197.031 104.301 197.287 103.329 197.798 102.491C198.308 101.654 199.004 101.002 199.884 100.534C200.771 100.066 201.765 99.8324 202.866 99.8324C203.974 99.8324 204.956 100.066 205.812 100.534C206.667 101.002 207.338 101.633 207.825 102.427C208.311 103.221 208.554 104.104 208.554 105.077C208.554 105.772 208.428 106.452 208.175 107.117C207.929 107.776 207.498 108.511 206.883 109.324C206.273 110.13 205.427 111.115 204.344 112.278L200.097 116.821V116.969H208.886V119H196.957ZM213.29 119L221.748 102.27V102.122H211.998V100.091H224.112V102.233L215.691 119H213.29Z" fill="black"/>
<path d="M279.605 100.091V119H277.315V102.491H277.205L272.588 105.557V103.23L277.315 100.091H279.605ZM291.211 119.259C289.82 119.259 288.635 118.88 287.656 118.123C286.678 117.36 285.93 116.255 285.413 114.808C284.896 113.356 284.637 111.601 284.637 109.545C284.637 107.502 284.896 105.757 285.413 104.31C285.936 102.858 286.687 101.75 287.665 100.987C288.65 100.217 289.832 99.8324 291.211 99.8324C292.59 99.8324 293.768 100.217 294.747 100.987C295.732 101.75 296.483 102.858 297 104.31C297.523 105.757 297.785 107.502 297.785 109.545C297.785 111.601 297.526 113.356 297.009 114.808C296.492 116.255 295.744 117.36 294.766 118.123C293.787 118.88 292.602 119.259 291.211 119.259ZM291.211 117.227C292.59 117.227 293.661 116.562 294.424 115.233C295.187 113.903 295.569 112.008 295.569 109.545C295.569 107.908 295.393 106.514 295.043 105.363C294.698 104.212 294.199 103.335 293.547 102.732C292.901 102.128 292.122 101.827 291.211 101.827C289.844 101.827 288.777 102.501 288.007 103.849C287.238 105.191 286.853 107.089 286.853 109.545C286.853 111.183 287.025 112.574 287.37 113.719C287.715 114.864 288.21 115.735 288.857 116.332C289.509 116.929 290.294 117.227 291.211 117.227Z" fill="black"/>
<path d="M354.605 100.091V119H352.315V102.491H352.205L347.588 105.557V103.23L352.315 100.091H354.605ZM366.1 119.259C364.832 119.259 363.712 119.034 362.739 118.585C361.773 118.129 361.019 117.504 360.477 116.71C359.936 115.91 359.668 114.999 359.674 113.977C359.668 113.177 359.825 112.438 360.145 111.761C360.465 111.078 360.902 110.509 361.456 110.053C362.016 109.592 362.641 109.299 363.33 109.176V109.065C362.425 108.831 361.705 108.324 361.17 107.542C360.634 106.754 360.37 105.858 360.376 104.855C360.37 103.895 360.613 103.036 361.105 102.279C361.598 101.522 362.275 100.925 363.136 100.488C364.004 100.051 364.992 99.8324 366.1 99.8324C367.196 99.8324 368.174 100.051 369.036 100.488C369.898 100.925 370.575 101.522 371.067 102.279C371.566 103.036 371.818 103.895 371.825 104.855C371.818 105.858 371.545 106.754 371.003 107.542C370.467 108.324 369.756 108.831 368.87 109.065V109.176C369.553 109.299 370.169 109.592 370.717 110.053C371.264 110.509 371.701 111.078 372.028 111.761C372.354 112.438 372.52 113.177 372.526 113.977C372.52 114.999 372.243 115.91 371.695 116.71C371.154 117.504 370.4 118.129 369.433 118.585C368.473 119.034 367.362 119.259 366.1 119.259ZM366.1 117.227C366.956 117.227 367.694 117.089 368.316 116.812C368.938 116.535 369.418 116.144 369.756 115.639C370.095 115.134 370.267 114.544 370.273 113.866C370.267 113.152 370.083 112.522 369.719 111.974C369.356 111.426 368.861 110.995 368.233 110.681C367.611 110.367 366.9 110.21 366.1 110.21C365.294 110.21 364.574 110.367 363.94 110.681C363.312 110.995 362.816 111.426 362.453 111.974C362.096 112.522 361.921 113.152 361.927 113.866C361.921 114.544 362.084 115.134 362.416 115.639C362.755 116.144 363.238 116.535 363.866 116.812C364.494 117.089 365.238 117.227 366.1 117.227ZM366.1 108.253C366.777 108.253 367.377 108.117 367.901 107.847C368.43 107.576 368.845 107.197 369.147 106.711C369.449 106.225 369.603 105.655 369.609 105.003C369.603 104.363 369.452 103.806 369.156 103.332C368.861 102.852 368.451 102.482 367.928 102.224C367.405 101.959 366.796 101.827 366.1 101.827C365.392 101.827 364.774 101.959 364.244 102.224C363.715 102.482 363.306 102.852 363.016 103.332C362.727 103.806 362.585 104.363 362.592 105.003C362.585 105.655 362.73 106.225 363.026 106.711C363.327 107.197 363.743 107.576 364.272 107.847C364.801 108.117 365.411 108.253 366.1 108.253Z" fill="black"/>
<path d="M428.605 100.091V119H426.315V102.491H426.205L421.588 105.557V103.23L426.315 100.091H428.605ZM440.433 119.259C439.214 119.259 438.127 119.049 437.173 118.631C436.225 118.212 435.471 117.63 434.911 116.886C434.357 116.135 434.056 115.264 434.006 114.273H436.333C436.382 114.882 436.592 115.408 436.961 115.852C437.33 116.289 437.813 116.627 438.411 116.867C439.008 117.107 439.669 117.227 440.396 117.227C441.208 117.227 441.928 117.086 442.556 116.803C443.184 116.519 443.676 116.125 444.033 115.621C444.39 115.116 444.569 114.531 444.569 113.866C444.569 113.171 444.397 112.558 444.052 112.029C443.707 111.494 443.202 111.075 442.538 110.773C441.873 110.472 441.06 110.321 440.1 110.321H438.586V108.29H440.1C440.851 108.29 441.51 108.154 442.076 107.884C442.648 107.613 443.095 107.231 443.415 106.739C443.741 106.246 443.904 105.668 443.904 105.003C443.904 104.363 443.763 103.806 443.479 103.332C443.196 102.858 442.796 102.488 442.279 102.224C441.768 101.959 441.165 101.827 440.469 101.827C439.817 101.827 439.201 101.947 438.623 102.187C438.05 102.421 437.583 102.762 437.219 103.212C436.856 103.655 436.659 104.19 436.629 104.818H434.413C434.45 103.827 434.748 102.959 435.308 102.214C435.868 101.464 436.601 100.879 437.506 100.46C438.417 100.042 439.417 99.8324 440.506 99.8324C441.676 99.8324 442.679 100.069 443.516 100.543C444.353 101.011 444.997 101.63 445.446 102.399C445.895 103.169 446.12 104 446.12 104.892C446.12 105.957 445.84 106.865 445.28 107.616C444.726 108.367 443.972 108.887 443.018 109.176V109.324C444.212 109.521 445.144 110.029 445.815 110.847C446.486 111.66 446.822 112.666 446.822 113.866C446.822 114.894 446.542 115.818 445.982 116.636C445.428 117.449 444.67 118.089 443.71 118.557C442.75 119.025 441.657 119.259 440.433 119.259Z" fill="black"/>
<path d="M504.014 34.2585C502.746 34.2585 501.626 34.0339 500.653 33.5845C499.687 33.129 498.933 32.5043 498.391 31.7102C497.85 30.91 497.582 29.9991 497.588 28.9773C497.582 28.1771 497.739 27.4384 498.059 26.7614C498.379 26.0781 498.816 25.5088 499.37 25.0533C499.93 24.5916 500.555 24.2992 501.244 24.1761V24.0653C500.339 23.8314 499.619 23.3236 499.084 22.5419C498.548 21.754 498.284 20.8584 498.29 19.8551C498.284 18.8949 498.527 18.0362 499.019 17.2791C499.512 16.522 500.189 15.925 501.05 15.4879C501.918 15.0509 502.906 14.8324 504.014 14.8324C505.11 14.8324 506.089 15.0509 506.95 15.4879C507.812 15.925 508.489 16.522 508.982 17.2791C509.48 18.0362 509.732 18.8949 509.739 19.8551C509.732 20.8584 509.459 21.754 508.917 22.5419C508.381 23.3236 507.67 23.8314 506.784 24.0653V24.1761C507.467 24.2992 508.083 24.5916 508.631 25.0533C509.179 25.5088 509.616 26.0781 509.942 26.7614C510.268 27.4384 510.434 28.1771 510.44 28.9773C510.434 29.9991 510.157 30.91 509.609 31.7102C509.068 32.5043 508.314 33.129 507.347 33.5845C506.387 34.0339 505.276 34.2585 504.014 34.2585ZM504.014 32.2273C504.87 32.2273 505.608 32.0888 506.23 31.8118C506.852 31.5348 507.332 31.1439 507.67 30.6392C508.009 30.1345 508.181 29.5436 508.188 28.8665C508.181 28.1525 507.997 27.5215 507.634 26.9737C507.27 26.4259 506.775 25.995 506.147 25.6811C505.525 25.3672 504.814 25.2102 504.014 25.2102C503.208 25.2102 502.488 25.3672 501.854 25.6811C501.226 25.995 500.73 26.4259 500.367 26.9737C500.01 27.5215 499.835 28.1525 499.841 28.8665C499.835 29.5436 499.998 30.1345 500.33 30.6392C500.669 31.1439 501.152 31.5348 501.78 31.8118C502.408 32.0888 503.152 32.2273 504.014 32.2273ZM504.014 23.2528C504.691 23.2528 505.291 23.1174 505.815 22.8466C506.344 22.5758 506.759 22.1972 507.061 21.7109C507.363 21.2247 507.517 20.6553 507.523 20.0028C507.517 19.3627 507.366 18.8056 507.07 18.3317C506.775 17.8516 506.366 17.4822 505.842 17.2237C505.319 16.959 504.71 16.8267 504.014 16.8267C503.306 16.8267 502.688 16.959 502.158 17.2237C501.629 17.4822 501.22 17.8516 500.93 18.3317C500.641 18.8056 500.5 19.3627 500.506 20.0028C500.5 20.6553 500.644 21.2247 500.94 21.7109C501.241 22.1972 501.657 22.5758 502.186 22.8466C502.715 23.1174 503.325 23.2528 504.014 23.2528Z" fill="black"/>
<path d="M579.605 15.0909V34H577.315V17.4915H577.205L572.588 20.5568V18.2301L577.315 15.0909H579.605Z" fill="black"/>
<path d="M654.236 34.2585C653.46 34.2462 652.685 34.0985 651.909 33.8153C651.134 33.5322 650.426 33.0552 649.786 32.3842C649.145 31.7071 648.631 30.7931 648.244 29.642C647.856 28.4848 647.662 27.0322 647.662 25.2841C647.662 23.6098 647.819 22.1264 648.133 20.8338C648.447 19.535 648.902 18.4425 649.499 17.5561C650.096 16.6636 650.817 15.9865 651.66 15.5249C652.509 15.0632 653.466 14.8324 654.531 14.8324C655.59 14.8324 656.532 15.0447 657.357 15.4695C658.188 15.888 658.865 16.4728 659.388 17.2237C659.911 17.9747 660.25 18.8395 660.403 19.8182H658.151C657.941 18.9687 657.535 18.264 656.932 17.7038C656.329 17.1437 655.528 16.8636 654.531 16.8636C653.066 16.8636 651.912 17.5007 651.069 18.7749C650.232 20.049 649.81 21.8371 649.804 24.1392H649.952C650.296 23.616 650.706 23.1697 651.18 22.8004C651.66 22.425 652.189 22.1357 652.768 21.9325C653.346 21.7294 653.959 21.6278 654.605 21.6278C655.688 21.6278 656.679 21.8987 657.578 22.4403C658.477 22.9759 659.197 23.7176 659.739 24.6655C660.28 25.6072 660.551 26.6875 660.551 27.9062C660.551 29.0758 660.29 30.1468 659.766 31.1193C659.243 32.0857 658.508 32.8551 657.56 33.4276C656.618 33.9938 655.51 34.2708 654.236 34.2585ZM654.236 32.2273C655.011 32.2273 655.707 32.0334 656.322 31.6456C656.944 31.2578 657.433 30.7377 657.79 30.0852C658.154 29.4328 658.335 28.7064 658.335 27.9062C658.335 27.1245 658.16 26.4136 657.809 25.7734C657.464 25.1271 656.987 24.6132 656.378 24.2315C655.775 23.8499 655.085 23.6591 654.31 23.6591C653.725 23.6591 653.18 23.776 652.675 24.0099C652.171 24.2377 651.728 24.5516 651.346 24.9517C650.97 25.3518 650.675 25.8104 650.46 26.3274C650.244 26.8383 650.136 27.3769 650.136 27.9432C650.136 28.6941 650.312 29.3958 650.663 30.0483C651.02 30.7008 651.506 31.227 652.121 31.6271C652.743 32.0272 653.448 32.2273 654.236 32.2273Z" fill="black"/>
<path d="M728.347 34.2585C727.128 34.2585 726.041 34.0492 725.087 33.6307C724.139 33.2121 723.385 32.6304 722.825 31.8857C722.271 31.1347 721.97 30.2637 721.92 29.2727H724.247C724.296 29.8821 724.506 30.4084 724.875 30.8516C725.244 31.2886 725.728 31.6271 726.325 31.8672C726.922 32.1072 727.583 32.2273 728.31 32.2273C729.122 32.2273 729.842 32.0857 730.47 31.8026C731.098 31.5194 731.59 31.1255 731.947 30.6207C732.304 30.116 732.483 29.5312 732.483 28.8665C732.483 28.1709 732.311 27.5585 731.966 27.0291C731.621 26.4936 731.116 26.075 730.452 25.7734C729.787 25.4718 728.974 25.321 728.014 25.321H726.5V23.2898H728.014C728.765 23.2898 729.424 23.1544 729.99 22.8835C730.563 22.6127 731.009 22.2311 731.329 21.7386C731.655 21.2462 731.818 20.6676 731.818 20.0028C731.818 19.3627 731.677 18.8056 731.393 18.3317C731.11 17.8577 730.71 17.4884 730.193 17.2237C729.682 16.959 729.079 16.8267 728.384 16.8267C727.731 16.8267 727.116 16.9467 726.537 17.1868C725.964 17.4207 725.497 17.7623 725.134 18.2116C724.77 18.6548 724.573 19.1903 724.543 19.8182H722.327C722.364 18.8272 722.662 17.9593 723.222 17.2145C723.782 16.4635 724.515 15.8788 725.42 15.4602C726.331 15.0417 727.331 14.8324 728.42 14.8324C729.59 14.8324 730.593 15.0694 731.43 15.5433C732.268 16.0111 732.911 16.6297 733.36 17.3991C733.809 18.1686 734.034 18.9995 734.034 19.892C734.034 20.9569 733.754 21.8648 733.194 22.6158C732.64 23.3667 731.886 23.8868 730.932 24.1761V24.3239C732.126 24.5208 733.058 25.0286 733.729 25.8473C734.4 26.6598 734.736 27.6662 734.736 28.8665C734.736 29.8944 734.456 30.8177 733.896 31.6364C733.342 32.4489 732.585 33.089 731.624 33.5568C730.664 34.0246 729.571 34.2585 728.347 34.2585Z" fill="black"/>
<path d="M504.125 77.2585C502.734 77.2585 501.549 76.88 500.57 76.1229C499.592 75.3596 498.844 74.2547 498.327 72.8082C497.81 71.3556 497.551 69.6013 497.551 67.5455C497.551 65.5019 497.81 63.7569 498.327 62.3104C498.85 60.8577 499.601 59.7498 500.58 58.9865C501.564 58.2171 502.746 57.8324 504.125 57.8324C505.504 57.8324 506.683 58.2171 507.661 58.9865C508.646 59.7498 509.397 60.8577 509.914 62.3104C510.437 63.7569 510.699 65.5019 510.699 67.5455C510.699 69.6013 510.44 71.3556 509.923 72.8082C509.406 74.2547 508.658 75.3596 507.68 76.1229C506.701 76.88 505.516 77.2585 504.125 77.2585ZM504.125 75.2273C505.504 75.2273 506.575 74.5625 507.338 73.233C508.101 71.9034 508.483 70.0076 508.483 67.5455C508.483 65.9081 508.308 64.514 507.957 63.3629C507.612 62.2119 507.113 61.3348 506.461 60.7315C505.815 60.1283 505.036 59.8267 504.125 59.8267C502.759 59.8267 501.691 60.5007 500.921 61.8487C500.152 63.1906 499.767 65.0895 499.767 67.5455C499.767 69.1828 499.939 70.5739 500.284 71.7188C500.629 72.8636 501.124 73.7346 501.771 74.3317C502.423 74.9287 503.208 75.2273 504.125 75.2273Z" fill="black"/>
<path d="M579.605 58.0909V77H577.315V60.4915H577.205L572.588 63.5568V61.2301L577.315 58.0909H579.605Z" fill="black"/>
<path d="M654.605 58.0909V77H652.315V60.4915H652.205L647.588 63.5568V61.2301L652.315 58.0909H654.605Z" fill="black"/>
<path d="M728.125 77.2585C726.734 77.2585 725.549 76.88 724.57 76.1229C723.592 75.3596 722.844 74.2547 722.327 72.8082C721.81 71.3556 721.551 69.6013 721.551 67.5455C721.551 65.5019 721.81 63.7569 722.327 62.3104C722.85 60.8577 723.601 59.7498 724.58 58.9865C725.564 58.2171 726.746 57.8324 728.125 57.8324C729.504 57.8324 730.683 58.2171 731.661 58.9865C732.646 59.7498 733.397 60.8577 733.914 62.3104C734.437 63.7569 734.699 65.5019 734.699 67.5455C734.699 69.6013 734.44 71.3556 733.923 72.8082C733.406 74.2547 732.658 75.3596 731.68 76.1229C730.701 76.88 729.516 77.2585 728.125 77.2585ZM728.125 75.2273C729.504 75.2273 730.575 74.5625 731.338 73.233C732.101 71.9034 732.483 70.0076 732.483 67.5455C732.483 65.9081 732.308 64.514 731.957 63.3629C731.612 62.2119 731.113 61.3348 730.461 60.7315C729.815 60.1283 729.036 59.8267 728.125 59.8267C726.759 59.8267 725.691 60.5007 724.921 61.8487C724.152 63.1906 723.767 65.0895 723.767 67.5455C723.767 69.1828 723.939 70.5739 724.284 71.7188C724.629 72.8636 725.124 73.7346 725.771 74.3317C726.423 74.9287 727.208 75.2273 728.125 75.2273Z" fill="black"/>
<path d="M501.605 101.091V120H499.315V103.491H499.205L494.588 106.557V104.23L499.315 101.091H501.605ZM507.634 120L516.092 103.27V103.122H506.342V101.091H518.455V103.233L510.035 120H507.634Z" fill="black"/>
<path d="M577.347 120.259C576.128 120.259 575.041 120.049 574.087 119.631C573.139 119.212 572.385 118.63 571.825 117.886C571.271 117.135 570.97 116.264 570.92 115.273H573.247C573.296 115.882 573.506 116.408 573.875 116.852C574.244 117.289 574.728 117.627 575.325 117.867C575.922 118.107 576.583 118.227 577.31 118.227C578.122 118.227 578.842 118.086 579.47 117.803C580.098 117.519 580.59 117.125 580.947 116.621C581.304 116.116 581.483 115.531 581.483 114.866C581.483 114.171 581.311 113.558 580.966 113.029C580.621 112.494 580.116 112.075 579.452 111.773C578.787 111.472 577.974 111.321 577.014 111.321H575.5V109.29H577.014C577.765 109.29 578.424 109.154 578.99 108.884C579.563 108.613 580.009 108.231 580.329 107.739C580.655 107.246 580.818 106.668 580.818 106.003C580.818 105.363 580.677 104.806 580.393 104.332C580.11 103.858 579.71 103.488 579.193 103.224C578.682 102.959 578.079 102.827 577.384 102.827C576.731 102.827 576.116 102.947 575.537 103.187C574.964 103.421 574.497 103.762 574.134 104.212C573.77 104.655 573.573 105.19 573.543 105.818H571.327C571.364 104.827 571.662 103.959 572.222 103.214C572.782 102.464 573.515 101.879 574.42 101.46C575.331 101.042 576.331 100.832 577.42 100.832C578.59 100.832 579.593 101.069 580.43 101.543C581.268 102.011 581.911 102.63 582.36 103.399C582.809 104.169 583.034 105 583.034 105.892C583.034 106.957 582.754 107.865 582.194 108.616C581.64 109.367 580.886 109.887 579.932 110.176V110.324C581.126 110.521 582.058 111.029 582.729 111.847C583.4 112.66 583.736 113.666 583.736 114.866C583.736 115.894 583.456 116.818 582.896 117.636C582.342 118.449 581.585 119.089 580.624 119.557C579.664 120.025 578.571 120.259 577.347 120.259ZM594.16 101.091V120H591.87V103.491H591.759L587.143 106.557V104.23L591.87 101.091H594.16Z" fill="black"/>
<path d="M652.605 101.091V120H650.315V103.491H650.205L645.588 106.557V104.23L650.315 101.091H652.605ZM657.6 116.122V114.239L665.91 101.091H667.276V104.009H666.353L660.075 113.943V114.091H671.265V116.122H657.6ZM666.501 120V115.55V114.673V101.091H668.68V120H666.501Z" fill="black"/>
<path d="M727.977 100.832C728.753 100.839 729.528 100.986 730.304 101.276C731.08 101.565 731.787 102.045 732.428 102.716C733.068 103.381 733.582 104.289 733.969 105.44C734.357 106.591 734.551 108.034 734.551 109.77C734.551 111.45 734.391 112.943 734.071 114.248C733.757 115.547 733.302 116.642 732.705 117.535C732.114 118.427 731.393 119.104 730.544 119.566C729.701 120.028 728.747 120.259 727.682 120.259C726.623 120.259 725.678 120.049 724.847 119.631C724.022 119.206 723.345 118.618 722.816 117.867C722.293 117.11 721.957 116.233 721.81 115.236H724.062C724.266 116.104 724.669 116.821 725.272 117.387C725.881 117.947 726.685 118.227 727.682 118.227C729.141 118.227 730.292 117.59 731.135 116.316C731.984 115.042 732.409 113.241 732.409 110.915H732.261C731.917 111.432 731.507 111.878 731.033 112.254C730.559 112.629 730.033 112.918 729.455 113.121C728.876 113.325 728.26 113.426 727.608 113.426C726.525 113.426 725.531 113.158 724.626 112.623C723.727 112.081 723.007 111.339 722.465 110.398C721.93 109.45 721.662 108.366 721.662 107.148C721.662 105.991 721.92 104.932 722.438 103.972C722.961 103.005 723.693 102.236 724.635 101.663C725.583 101.091 726.697 100.814 727.977 100.832ZM727.977 102.864C727.202 102.864 726.503 103.058 725.881 103.445C725.266 103.827 724.777 104.344 724.413 104.996C724.056 105.643 723.878 106.36 723.878 107.148C723.878 107.936 724.05 108.653 724.395 109.299C724.746 109.939 725.223 110.45 725.826 110.832C726.435 111.207 727.128 111.395 727.903 111.395C728.488 111.395 729.033 111.281 729.538 111.053C730.042 110.819 730.482 110.502 730.858 110.102C731.24 109.696 731.538 109.237 731.754 108.727C731.969 108.21 732.077 107.671 732.077 107.111C732.077 106.372 731.898 105.68 731.541 105.033C731.19 104.387 730.704 103.864 730.082 103.464C729.467 103.064 728.765 102.864 727.977 102.864Z" fill="black"/>
<rect x="172.5" y="194.5" width="74.7449" height="43" fill="#D9D9D9" stroke="black"/>
<rect x="172.5" y="237.5" width="74.7449" height="44" stroke="black"/>
<rect x="172.5" y="281.5" width="74.7449" height="43" fill="#D9D9D9" stroke="black"/>
<rect x="247.252" y="194.5" width="74.7449" height="43.1744" fill="#D9D9D9" stroke="black"/>
<rect x="247.252" y="237.913" width="74.7449" height="43.1744" stroke="black"/>
<rect x="247.252" y="281.326" width="74.7449" height="43.1744" fill="#D9D9D9" stroke="black"/>
<rect x="322.003" y="194.5" width="74.7449" height="43.1744" fill="#F6ADAD" stroke="black"/>
<rect x="322.003" y="237.913" width="74.7449" height="43.1744" stroke="black"/>
<rect x="322.003" y="281.326" width="74.7449" height="43.1744" fill="#F6ADAD" stroke="black"/>
<rect x="396.755" y="194.5" width="74.7449" height="43.1744" fill="#D9D9D9" stroke="black"/>
<rect x="396.755" y="237.913" width="74.7449" height="43.1744" stroke="black"/>
<rect x="396.755" y="281.326" width="74.7449" height="43.1744" fill="#D9D9D9" stroke="black"/>
<rect x="471.5" y="194.5" width="74.7449" height="43" fill="#D9D9D9" stroke="black"/>
<rect x="471.5" y="237.5" width="74.7449" height="44" stroke="black"/>
<rect x="471.5" y="281.5" width="74.7449" height="43" fill="#D9D9D9" stroke="black"/>
<rect x="546.252" y="194.5" width="74.7449" height="43.1744" fill="#95E7A7" stroke="black"/>
<rect x="546.252" y="237.913" width="74.7449" height="43.1744" stroke="black"/>
<rect x="546.252" y="281.326" width="74.7449" height="43.1744" fill="#95E7A7" stroke="black"/>
<rect x="621.003" y="194.5" width="74.7449" height="43.1744" fill="#D9D9D9" stroke="black"/>
<rect x="621.003" y="237.913" width="74.7449" height="43.1744" stroke="black"/>
<rect x="621.003" y="281.326" width="74.7449" height="43.1744" fill="#D9D9D9" stroke="black"/>
<rect x="695.755" y="194.5" width="74.7449" height="43.1744" fill="#D9D9D9" stroke="black"/>
<rect x="695.755" y="237.913" width="74.7449" height="43.1744" stroke="black"/>
<rect x="695.755" y="281.326" width="74.7449" height="43.1744" fill="#D9D9D9" stroke="black"/>
<path d="M101.063 207.719V206H113.062V207.719H108.031V222H106.094V207.719H101.063ZM115.803 222V210H117.646V222H115.803ZM116.74 208C116.381 208 116.071 207.878 115.811 207.633C115.555 207.388 115.428 207.094 115.428 206.75C115.428 206.406 115.555 206.112 115.811 205.867C116.071 205.622 116.381 205.5 116.74 205.5C117.1 205.5 117.407 205.622 117.662 205.867C117.923 206.112 118.053 206.406 118.053 206.75C118.053 207.094 117.923 207.388 117.662 207.633C117.407 207.878 117.1 208 116.74 208ZM121.023 226.5V210H122.805V211.906H123.023C123.159 211.698 123.346 211.432 123.586 211.109C123.831 210.781 124.18 210.49 124.633 210.234C125.091 209.974 125.711 209.844 126.492 209.844C127.503 209.844 128.393 210.096 129.164 210.602C129.935 211.107 130.536 211.823 130.969 212.75C131.401 213.677 131.617 214.771 131.617 216.031C131.617 217.302 131.401 218.404 130.969 219.336C130.536 220.263 129.938 220.982 129.172 221.492C128.406 221.997 127.523 222.25 126.523 222.25C125.753 222.25 125.135 222.122 124.672 221.867C124.208 221.607 123.852 221.312 123.602 220.984C123.352 220.651 123.159 220.375 123.023 220.156H122.867V226.5H121.023ZM122.836 216C122.836 216.906 122.969 217.706 123.234 218.398C123.5 219.086 123.888 219.625 124.398 220.016C124.909 220.401 125.534 220.594 126.273 220.594C127.044 220.594 127.688 220.391 128.203 219.984C128.724 219.573 129.115 219.021 129.375 218.328C129.641 217.63 129.773 216.854 129.773 216C129.773 215.156 129.643 214.396 129.383 213.719C129.128 213.036 128.74 212.497 128.219 212.102C127.703 211.701 127.055 211.5 126.273 211.5C125.523 211.5 124.893 211.69 124.383 212.07C123.872 212.445 123.487 212.971 123.227 213.648C122.966 214.32 122.836 215.104 122.836 216ZM139.305 222.25C138.221 222.25 137.271 221.992 136.453 221.477C135.641 220.961 135.005 220.24 134.547 219.312C134.094 218.385 133.867 217.302 133.867 216.062C133.867 214.812 134.094 213.721 134.547 212.789C135.005 211.857 135.641 211.133 136.453 210.617C137.271 210.102 138.221 209.844 139.305 209.844C140.388 209.844 141.336 210.102 142.148 210.617C142.966 211.133 143.602 211.857 144.055 212.789C144.513 213.721 144.742 214.812 144.742 216.062C144.742 217.302 144.513 218.385 144.055 219.312C143.602 220.24 142.966 220.961 142.148 221.477C141.336 221.992 140.388 222.25 139.305 222.25ZM139.305 220.594C140.128 220.594 140.805 220.383 141.336 219.961C141.867 219.539 142.26 218.984 142.516 218.297C142.771 217.609 142.898 216.865 142.898 216.062C142.898 215.26 142.771 214.513 142.516 213.82C142.26 213.128 141.867 212.568 141.336 212.141C140.805 211.714 140.128 211.5 139.305 211.5C138.482 211.5 137.805 211.714 137.273 212.141C136.742 212.568 136.349 213.128 136.094 213.82C135.839 214.513 135.711 215.26 135.711 216.062C135.711 216.865 135.839 217.609 136.094 218.297C136.349 218.984 136.742 219.539 137.273 219.961C137.805 220.383 138.482 220.594 139.305 220.594Z" fill="black"/>
<path d="M59.9375 268V252H65.3438C66.5938 252 67.6198 252.214 68.4219 252.641C69.224 253.062 69.8177 253.643 70.2031 254.383C70.5885 255.122 70.7813 255.964 70.7813 256.906C70.7813 257.849 70.5885 258.685 70.2031 259.414C69.8177 260.143 69.2266 260.716 68.4297 261.133C67.6328 261.544 66.6146 261.75 65.375 261.75H61V260H65.3125C66.1667 260 66.8542 259.875 67.375 259.625C67.901 259.375 68.2813 259.021 68.5156 258.562C68.7552 258.099 68.875 257.547 68.875 256.906C68.875 256.266 68.7552 255.706 68.5156 255.227C68.276 254.747 67.8932 254.378 67.3672 254.117C66.8411 253.852 66.1458 253.719 65.2812 253.719H61.875V268H59.9375ZM67.4688 260.812L71.4062 268H69.1563L65.2812 260.812H67.4688ZM78.5059 268.25C77.4225 268.25 76.472 267.992 75.6543 267.477C74.8418 266.961 74.2064 266.24 73.748 265.312C73.2949 264.385 73.0684 263.302 73.0684 262.062C73.0684 260.812 73.2949 259.721 73.748 258.789C74.2064 257.857 74.8418 257.133 75.6543 256.617C76.472 256.102 77.4225 255.844 78.5059 255.844C79.5892 255.844 80.5371 256.102 81.3496 256.617C82.1673 257.133 82.8027 257.857 83.2559 258.789C83.7142 259.721 83.9434 260.812 83.9434 262.062C83.9434 263.302 83.7142 264.385 83.2559 265.312C82.8027 266.24 82.1673 266.961 81.3496 267.477C80.5371 267.992 79.5892 268.25 78.5059 268.25ZM78.5059 266.594C79.3288 266.594 80.0059 266.383 80.5371 265.961C81.0684 265.539 81.4616 264.984 81.7168 264.297C81.972 263.609 82.0996 262.865 82.0996 262.062C82.0996 261.26 81.972 260.513 81.7168 259.82C81.4616 259.128 81.0684 258.568 80.5371 258.141C80.0059 257.714 79.3288 257.5 78.5059 257.5C77.6829 257.5 77.0059 257.714 76.4746 258.141C75.9434 258.568 75.5501 259.128 75.2949 259.82C75.0397 260.513 74.9121 261.26 74.9121 262.062C74.9121 262.865 75.0397 263.609 75.2949 264.297C75.5501 264.984 75.9434 265.539 76.4746 265.961C77.0059 266.383 77.6829 266.594 78.5059 266.594ZM91.9766 256V257.562H85.7578V256H91.9766ZM87.5703 253.125H89.4141V264.562C89.4141 265.083 89.4896 265.474 89.6406 265.734C89.7969 265.99 89.9948 266.161 90.2344 266.25C90.4792 266.333 90.737 266.375 91.0078 266.375C91.2109 266.375 91.3776 266.365 91.5078 266.344C91.638 266.318 91.7422 266.297 91.8203 266.281L92.1953 267.937C92.0703 267.984 91.8958 268.031 91.6719 268.078C91.4479 268.13 91.1641 268.156 90.8203 268.156C90.2995 268.156 89.7891 268.044 89.2891 267.82C88.7943 267.596 88.3828 267.255 88.0547 266.797C87.7318 266.339 87.5703 265.76 87.5703 265.062V253.125ZM98.2813 268.281C97.5208 268.281 96.8307 268.138 96.2109 267.852C95.5911 267.56 95.099 267.141 94.7344 266.594C94.3698 266.042 94.1875 265.375 94.1875 264.594C94.1875 263.906 94.3229 263.349 94.5938 262.922C94.8646 262.49 95.2266 262.151 95.6797 261.906C96.1328 261.661 96.6328 261.479 97.1797 261.359C97.7318 261.234 98.2865 261.135 98.8438 261.063C99.5729 260.969 100.164 260.898 100.617 260.852C101.076 260.799 101.409 260.714 101.617 260.594C101.831 260.474 101.938 260.266 101.938 259.969V259.906C101.938 259.135 101.727 258.536 101.305 258.109C100.888 257.682 100.255 257.469 99.4063 257.469C98.526 257.469 97.8359 257.661 97.3359 258.047C96.8359 258.432 96.4844 258.844 96.2813 259.281L94.5313 258.656C94.8438 257.927 95.2604 257.359 95.7813 256.953C96.3073 256.542 96.8802 256.255 97.5 256.094C98.125 255.927 98.7396 255.844 99.3438 255.844C99.7292 255.844 100.172 255.891 100.672 255.984C101.177 256.073 101.664 256.258 102.133 256.539C102.607 256.82 103 257.245 103.313 257.812C103.625 258.38 103.781 259.141 103.781 260.094V268H101.938V266.375H101.844C101.719 266.635 101.51 266.914 101.219 267.211C100.927 267.508 100.539 267.76 100.055 267.969C99.5703 268.177 98.9792 268.281 98.2813 268.281ZM98.5625 266.625C99.2917 266.625 99.9063 266.482 100.406 266.195C100.911 265.909 101.292 265.539 101.547 265.086C101.807 264.633 101.938 264.156 101.938 263.656V261.969C101.859 262.062 101.688 262.148 101.422 262.227C101.161 262.299 100.859 262.365 100.516 262.422C100.177 262.474 99.8464 262.521 99.5234 262.562C99.2057 262.599 98.9479 262.63 98.75 262.656C98.2708 262.719 97.8229 262.82 97.4063 262.961C96.9948 263.096 96.6615 263.302 96.4063 263.578C96.1563 263.849 96.0313 264.219 96.0313 264.687C96.0313 265.328 96.2682 265.812 96.7422 266.141C97.2214 266.464 97.8281 266.625 98.5625 266.625ZM112.021 268.25C110.896 268.25 109.928 267.984 109.115 267.453C108.303 266.922 107.678 266.19 107.24 265.258C106.803 264.326 106.584 263.26 106.584 262.062C106.584 260.844 106.808 259.768 107.256 258.836C107.709 257.898 108.339 257.167 109.146 256.641C109.959 256.109 110.907 255.844 111.99 255.844C112.834 255.844 113.594 256 114.271 256.312C114.949 256.625 115.503 257.062 115.936 257.625C116.368 258.187 116.636 258.844 116.74 259.594H114.896C114.756 259.047 114.443 258.562 113.959 258.141C113.48 257.714 112.834 257.5 112.021 257.5C111.303 257.5 110.673 257.687 110.131 258.062C109.594 258.432 109.175 258.956 108.873 259.633C108.576 260.305 108.428 261.094 108.428 262C108.428 262.927 108.574 263.734 108.865 264.422C109.162 265.109 109.579 265.643 110.115 266.023C110.657 266.404 111.292 266.594 112.021 266.594C112.501 266.594 112.936 266.51 113.326 266.344C113.717 266.177 114.048 265.938 114.318 265.625C114.589 265.312 114.782 264.937 114.896 264.5H116.74C116.636 265.208 116.378 265.846 115.967 266.414C115.561 266.977 115.021 267.424 114.35 267.758C113.683 268.086 112.907 268.25 112.021 268.25ZM119.436 268V256H121.279V268H119.436ZM120.373 254C120.014 254 119.704 253.878 119.443 253.633C119.188 253.388 119.061 253.094 119.061 252.75C119.061 252.406 119.188 252.112 119.443 251.867C119.704 251.622 120.014 251.5 120.373 251.5C120.732 251.5 121.04 251.622 121.295 251.867C121.555 252.112 121.686 252.406 121.686 252.75C121.686 253.094 121.555 253.388 121.295 253.633C121.04 253.878 120.732 254 120.373 254ZM129.531 268.25C128.448 268.25 127.497 267.992 126.68 267.477C125.867 266.961 125.232 266.24 124.773 265.312C124.32 264.385 124.094 263.302 124.094 262.062C124.094 260.812 124.32 259.721 124.773 258.789C125.232 257.857 125.867 257.133 126.68 256.617C127.497 256.102 128.448 255.844 129.531 255.844C130.615 255.844 131.563 256.102 132.375 256.617C133.193 257.133 133.828 257.857 134.281 258.789C134.74 259.721 134.969 260.812 134.969 262.062C134.969 263.302 134.74 264.385 134.281 265.312C133.828 266.24 133.193 266.961 132.375 267.477C131.563 267.992 130.615 268.25 129.531 268.25ZM129.531 266.594C130.354 266.594 131.031 266.383 131.562 265.961C132.094 265.539 132.487 264.984 132.742 264.297C132.997 263.609 133.125 262.865 133.125 262.062C133.125 261.26 132.997 260.513 132.742 259.82C132.487 259.128 132.094 258.568 131.562 258.141C131.031 257.714 130.354 257.5 129.531 257.5C128.708 257.5 128.031 257.714 127.5 258.141C126.969 258.568 126.576 259.128 126.32 259.82C126.065 260.513 125.938 261.26 125.938 262.062C125.938 262.865 126.065 263.609 126.32 264.297C126.576 264.984 126.969 265.539 127.5 265.961C128.031 266.383 128.708 266.594 129.531 266.594ZM128.688 254.375L130.594 250.75H132.75L130.313 254.375H128.688ZM139.627 260.781V268H137.783V256H139.564V257.875H139.721C140.002 257.266 140.429 256.776 141.002 256.406C141.575 256.031 142.314 255.844 143.221 255.844C144.033 255.844 144.744 256.01 145.354 256.344C145.963 256.672 146.437 257.172 146.775 257.844C147.114 258.51 147.283 259.354 147.283 260.375V268H145.439V260.5C145.439 259.557 145.195 258.823 144.705 258.297C144.215 257.766 143.544 257.5 142.689 257.5C142.101 257.5 141.575 257.628 141.111 257.883C140.653 258.138 140.291 258.51 140.025 259C139.76 259.49 139.627 260.083 139.627 260.781Z" fill="black"/>
<path d="M68.8125 300H66.875C66.7604 299.443 66.5599 298.953 66.2734 298.531C65.9922 298.109 65.6484 297.755 65.2422 297.469C64.8411 297.177 64.3958 296.958 63.9063 296.812C63.4167 296.667 62.9063 296.594 62.375 296.594C61.4063 296.594 60.5286 296.839 59.7422 297.328C58.9609 297.818 58.3385 298.539 57.875 299.492C57.4167 300.445 57.1875 301.615 57.1875 303C57.1875 304.385 57.4167 305.555 57.875 306.508C58.3385 307.461 58.9609 308.182 59.7422 308.672C60.5286 309.161 61.4063 309.406 62.375 309.406C62.9063 309.406 63.4167 309.333 63.9063 309.187C64.3958 309.042 64.8411 308.826 65.2422 308.539C65.6484 308.247 65.9922 307.891 66.2734 307.469C66.5599 307.042 66.7604 306.552 66.875 306H68.8125C68.6667 306.818 68.401 307.549 68.0156 308.195C67.6302 308.841 67.151 309.391 66.5781 309.844C66.0052 310.292 65.362 310.633 64.6484 310.867C63.9401 311.102 63.1823 311.219 62.375 311.219C61.0104 311.219 59.7969 310.885 58.7344 310.219C57.6719 309.552 56.8359 308.604 56.2266 307.375C55.6172 306.146 55.3125 304.687 55.3125 303C55.3125 301.312 55.6172 299.854 56.2266 298.625C56.8359 297.396 57.6719 296.448 58.7344 295.781C59.7969 295.115 61.0104 294.781 62.375 294.781C63.1823 294.781 63.9401 294.898 64.6484 295.133C65.362 295.367 66.0052 295.711 66.5781 296.164C67.151 296.612 67.6302 297.159 68.0156 297.805C68.401 298.445 68.6667 299.177 68.8125 300ZM75.2246 311.281C74.4642 311.281 73.7741 311.138 73.1543 310.852C72.5345 310.56 72.0423 310.141 71.6777 309.594C71.3132 309.042 71.1309 308.375 71.1309 307.594C71.1309 306.906 71.2663 306.349 71.5371 305.922C71.8079 305.49 72.1699 305.151 72.623 304.906C73.0762 304.661 73.5762 304.479 74.123 304.359C74.6751 304.234 75.2298 304.135 75.7871 304.063C76.5163 303.969 77.1074 303.898 77.5605 303.852C78.0189 303.799 78.3522 303.714 78.5605 303.594C78.7741 303.474 78.8809 303.266 78.8809 302.969V302.906C78.8809 302.135 78.6699 301.536 78.248 301.109C77.8314 300.682 77.1986 300.469 76.3496 300.469C75.4694 300.469 74.7793 300.661 74.2793 301.047C73.7793 301.432 73.4277 301.844 73.2246 302.281L71.4746 301.656C71.7871 300.927 72.2038 300.359 72.7246 299.953C73.2507 299.542 73.8236 299.255 74.4434 299.094C75.0684 298.927 75.6829 298.844 76.2871 298.844C76.6725 298.844 77.1152 298.891 77.6152 298.984C78.1204 299.073 78.6074 299.258 79.0762 299.539C79.5501 299.82 79.9434 300.245 80.2559 300.812C80.5684 301.38 80.7246 302.141 80.7246 303.094V311H78.8809V309.375H78.7871C78.6621 309.635 78.4538 309.914 78.1621 310.211C77.8704 310.508 77.4824 310.76 76.998 310.969C76.5137 311.177 75.9225 311.281 75.2246 311.281ZM75.5059 309.625C76.235 309.625 76.8496 309.482 77.3496 309.195C77.8548 308.909 78.235 308.539 78.4902 308.086C78.7507 307.633 78.8809 307.156 78.8809 306.656V304.969C78.8027 305.062 78.6309 305.148 78.3652 305.227C78.1048 305.299 77.8027 305.365 77.459 305.422C77.1204 305.474 76.7897 305.521 76.4668 305.562C76.1491 305.599 75.8913 305.63 75.6934 305.656C75.2142 305.719 74.7663 305.82 74.3496 305.961C73.9382 306.096 73.6048 306.302 73.3496 306.578C73.0996 306.849 72.9746 307.219 72.9746 307.687C72.9746 308.328 73.2116 308.812 73.6855 309.141C74.1647 309.464 74.7715 309.625 75.5059 309.625ZM85.9336 303.781V311H84.0898V299H85.8711V300.875H86.0273C86.3086 300.266 86.7357 299.776 87.3086 299.406C87.8815 299.031 88.6211 298.844 89.5273 298.844C90.3398 298.844 91.0508 299.01 91.6602 299.344C92.2695 299.672 92.7435 300.172 93.082 300.844C93.4206 301.51 93.5898 302.354 93.5898 303.375V311H91.7461V303.5C91.7461 302.557 91.5013 301.823 91.0117 301.297C90.5221 300.766 89.8503 300.5 88.9961 300.5C88.4076 300.5 87.8815 300.628 87.418 300.883C86.9596 301.138 86.5977 301.51 86.332 302C86.0664 302.49 85.9336 303.083 85.9336 303.781ZM102.178 299V300.562H95.959V299H102.178ZM97.7715 296.125H99.6152V307.562C99.6152 308.083 99.6908 308.474 99.8418 308.734C99.998 308.99 100.196 309.161 100.436 309.25C100.68 309.333 100.938 309.375 101.209 309.375C101.412 309.375 101.579 309.365 101.709 309.344C101.839 309.318 101.943 309.297 102.021 309.281L102.396 310.937C102.271 310.984 102.097 311.031 101.873 311.078C101.649 311.13 101.365 311.156 101.021 311.156C100.501 311.156 99.9902 311.044 99.4902 310.82C98.9954 310.596 98.584 310.255 98.2559 309.797C97.9329 309.339 97.7715 308.76 97.7715 308.062V296.125ZM104.951 311V299H106.795V311H104.951ZM105.889 297C105.529 297 105.219 296.878 104.959 296.633C104.704 296.388 104.576 296.094 104.576 295.75C104.576 295.406 104.704 295.112 104.959 294.867C105.219 294.622 105.529 294.5 105.889 294.5C106.248 294.5 106.555 294.622 106.811 294.867C107.071 295.112 107.201 295.406 107.201 295.75C107.201 296.094 107.071 296.388 106.811 296.633C106.555 296.878 106.248 297 105.889 297ZM114.703 311.25C113.703 311.25 112.82 310.997 112.055 310.492C111.289 309.982 110.69 309.263 110.258 308.336C109.826 307.404 109.609 306.302 109.609 305.031C109.609 303.771 109.826 302.677 110.258 301.75C110.69 300.823 111.292 300.107 112.063 299.602C112.833 299.096 113.724 298.844 114.734 298.844C115.516 298.844 116.133 298.974 116.586 299.234C117.044 299.49 117.393 299.781 117.633 300.109C117.878 300.432 118.068 300.698 118.203 300.906H118.359V295H120.203V311H118.422V309.156H118.203C118.068 309.375 117.875 309.651 117.625 309.984C117.375 310.312 117.018 310.607 116.555 310.867C116.091 311.122 115.474 311.25 114.703 311.25ZM114.953 309.594C115.693 309.594 116.318 309.401 116.828 309.016C117.339 308.625 117.727 308.086 117.992 307.398C118.258 306.706 118.391 305.906 118.391 305C118.391 304.104 118.26 303.32 118 302.648C117.74 301.971 117.354 301.445 116.844 301.07C116.333 300.69 115.703 300.5 114.953 300.5C114.172 300.5 113.521 300.701 113 301.102C112.484 301.497 112.096 302.036 111.836 302.719C111.581 303.396 111.453 304.156 111.453 305C111.453 305.854 111.583 306.63 111.844 307.328C112.109 308.021 112.5 308.573 113.016 308.984C113.536 309.391 114.182 309.594 114.953 309.594ZM127.367 311.281C126.607 311.281 125.917 311.138 125.297 310.852C124.677 310.56 124.185 310.141 123.82 309.594C123.456 309.042 123.273 308.375 123.273 307.594C123.273 306.906 123.409 306.349 123.68 305.922C123.951 305.49 124.313 305.151 124.766 304.906C125.219 304.661 125.719 304.479 126.266 304.359C126.818 304.234 127.372 304.135 127.93 304.063C128.659 303.969 129.25 303.898 129.703 303.852C130.161 303.799 130.495 303.714 130.703 303.594C130.917 303.474 131.023 303.266 131.023 302.969V302.906C131.023 302.135 130.813 301.536 130.391 301.109C129.974 300.682 129.341 300.469 128.492 300.469C127.612 300.469 126.922 300.661 126.422 301.047C125.922 301.432 125.57 301.844 125.367 302.281L123.617 301.656C123.93 300.927 124.346 300.359 124.867 299.953C125.393 299.542 125.966 299.255 126.586 299.094C127.211 298.927 127.826 298.844 128.43 298.844C128.815 298.844 129.258 298.891 129.758 298.984C130.263 299.073 130.75 299.258 131.219 299.539C131.693 299.82 132.086 300.245 132.398 300.812C132.711 301.38 132.867 302.141 132.867 303.094V311H131.023V309.375H130.93C130.805 309.635 130.596 309.914 130.305 310.211C130.013 310.508 129.625 310.76 129.141 310.969C128.656 311.177 128.065 311.281 127.367 311.281ZM127.648 309.625C128.378 309.625 128.992 309.482 129.492 309.195C129.997 308.909 130.378 308.539 130.633 308.086C130.893 307.633 131.023 307.156 131.023 306.656V304.969C130.945 305.062 130.773 305.148 130.508 305.227C130.247 305.299 129.945 305.365 129.602 305.422C129.263 305.474 128.932 305.521 128.609 305.562C128.292 305.599 128.034 305.63 127.836 305.656C127.357 305.719 126.909 305.82 126.492 305.961C126.081 306.096 125.747 306.302 125.492 306.578C125.242 306.849 125.117 307.219 125.117 307.687C125.117 308.328 125.354 308.812 125.828 309.141C126.307 309.464 126.914 309.625 127.648 309.625ZM140.764 311.25C139.764 311.25 138.881 310.997 138.115 310.492C137.35 309.982 136.751 309.263 136.318 308.336C135.886 307.404 135.67 306.302 135.67 305.031C135.67 303.771 135.886 302.677 136.318 301.75C136.751 300.823 137.352 300.107 138.123 299.602C138.894 299.096 139.785 298.844 140.795 298.844C141.576 298.844 142.193 298.974 142.646 299.234C143.105 299.49 143.454 299.781 143.693 300.109C143.938 300.432 144.128 300.698 144.264 300.906H144.42V295H146.264V311H144.482V309.156H144.264C144.128 309.375 143.936 309.651 143.686 309.984C143.436 310.312 143.079 310.607 142.615 310.867C142.152 311.122 141.535 311.25 140.764 311.25ZM141.014 309.594C141.753 309.594 142.378 309.401 142.889 309.016C143.399 308.625 143.787 308.086 144.053 307.398C144.318 306.706 144.451 305.906 144.451 305C144.451 304.104 144.321 303.32 144.061 302.648C143.8 301.971 143.415 301.445 142.904 301.07C142.394 300.69 141.764 300.5 141.014 300.5C140.232 300.5 139.581 300.701 139.061 301.102C138.545 301.497 138.157 302.036 137.896 302.719C137.641 303.396 137.514 304.156 137.514 305C137.514 305.854 137.644 306.63 137.904 307.328C138.17 308.021 138.561 308.573 139.076 308.984C139.597 309.391 140.243 309.594 141.014 309.594Z" fill="black"/>
<path d="M199.957 227V225.338L206.199 218.506C206.931 217.705 207.535 217.01 208.009 216.419C208.482 215.822 208.833 215.262 209.061 214.739C209.295 214.209 209.412 213.655 209.412 213.077C209.412 212.412 209.252 211.836 208.932 211.35C208.618 210.864 208.187 210.488 207.639 210.224C207.091 209.959 206.476 209.827 205.793 209.827C205.066 209.827 204.432 209.978 203.891 210.279C203.355 210.575 202.94 210.99 202.644 211.526C202.355 212.061 202.21 212.689 202.21 213.409H200.031C200.031 212.301 200.287 211.329 200.798 210.491C201.308 209.654 202.004 209.002 202.884 208.534C203.771 208.066 204.765 207.832 205.866 207.832C206.974 207.832 207.956 208.066 208.812 208.534C209.667 209.002 210.338 209.633 210.825 210.427C211.311 211.221 211.554 212.104 211.554 213.077C211.554 213.772 211.428 214.452 211.175 215.117C210.929 215.776 210.498 216.511 209.883 217.324C209.273 218.13 208.427 219.115 207.344 220.278L203.097 224.821V224.969H211.886V227H199.957Z" fill="black"/>
<path d="M280.866 227.259C279.783 227.259 278.808 227.043 277.94 226.612C277.072 226.181 276.376 225.59 275.853 224.839C275.33 224.089 275.044 223.233 274.994 222.273H277.21C277.296 223.128 277.684 223.836 278.374 224.396C279.069 224.95 279.9 225.227 280.866 225.227C281.642 225.227 282.331 225.046 282.935 224.683C283.544 224.319 284.021 223.821 284.366 223.187C284.717 222.547 284.892 221.823 284.892 221.017C284.892 220.192 284.71 219.457 284.347 218.81C283.99 218.158 283.498 217.644 282.87 217.268C282.242 216.893 281.525 216.702 280.719 216.696C280.14 216.69 279.546 216.779 278.937 216.964C278.327 217.142 277.826 217.373 277.432 217.656L275.29 217.398L276.435 208.091H286.259V210.122H278.355L277.69 215.699H277.801C278.189 215.391 278.675 215.136 279.26 214.933C279.845 214.729 280.454 214.628 281.088 214.628C282.245 214.628 283.276 214.905 284.181 215.459C285.092 216.007 285.806 216.758 286.323 217.712C286.846 218.666 287.108 219.755 287.108 220.98C287.108 222.187 286.837 223.264 286.295 224.212C285.76 225.153 285.021 225.898 284.08 226.446C283.138 226.988 282.067 227.259 280.866 227.259Z" fill="black"/>
<path d="M356.605 208.091V227H354.315V210.491H354.205L349.588 213.557V211.23L354.315 208.091H356.605Z" fill="black"/>
<path d="M424.548 227L433.006 210.27V210.122H423.256V208.091H435.369V210.233L426.949 227H424.548Z" fill="black"/>
<path d="M206.125 270.259C204.734 270.259 203.549 269.88 202.57 269.123C201.592 268.36 200.844 267.255 200.327 265.808C199.81 264.356 199.551 262.601 199.551 260.545C199.551 258.502 199.81 256.757 200.327 255.31C200.85 253.858 201.601 252.75 202.58 251.987C203.564 251.217 204.746 250.832 206.125 250.832C207.504 250.832 208.683 251.217 209.661 251.987C210.646 252.75 211.397 253.858 211.914 255.31C212.437 256.757 212.699 258.502 212.699 260.545C212.699 262.601 212.44 264.356 211.923 265.808C211.406 267.255 210.658 268.36 209.68 269.123C208.701 269.88 207.516 270.259 206.125 270.259ZM206.125 268.227C207.504 268.227 208.575 267.562 209.338 266.233C210.101 264.903 210.483 263.008 210.483 260.545C210.483 258.908 210.308 257.514 209.957 256.363C209.612 255.212 209.113 254.335 208.461 253.732C207.815 253.128 207.036 252.827 206.125 252.827C204.759 252.827 203.691 253.501 202.921 254.849C202.152 256.191 201.767 258.089 201.767 260.545C201.767 262.183 201.939 263.574 202.284 264.719C202.629 265.864 203.124 266.735 203.771 267.332C204.423 267.929 205.208 268.227 206.125 268.227Z" fill="black"/>
<path d="M281.605 251.091V270H279.315V253.491H279.205L274.588 256.557V254.23L279.315 251.091H281.605Z" fill="black"/>
<path d="M356.605 251.091V270H354.315V253.491H354.205L349.588 256.557V254.23L354.315 251.091H356.605Z" fill="black"/>
<path d="M430.125 270.259C428.734 270.259 427.549 269.88 426.57 269.123C425.592 268.36 424.844 267.255 424.327 265.808C423.81 264.356 423.551 262.601 423.551 260.545C423.551 258.502 423.81 256.757 424.327 255.31C424.85 253.858 425.601 252.75 426.58 251.987C427.564 251.217 428.746 250.832 430.125 250.832C431.504 250.832 432.683 251.217 433.661 251.987C434.646 252.75 435.397 253.858 435.914 255.31C436.437 256.757 436.699 258.502 436.699 260.545C436.699 262.601 436.44 264.356 435.923 265.808C435.406 267.255 434.658 268.36 433.68 269.123C432.701 269.88 431.516 270.259 430.125 270.259ZM430.125 268.227C431.504 268.227 432.575 267.562 433.338 266.233C434.101 264.903 434.483 263.008 434.483 260.545C434.483 258.908 434.308 257.514 433.957 256.363C433.612 255.212 433.113 254.335 432.461 253.732C431.815 253.128 431.036 252.827 430.125 252.827C428.759 252.827 427.691 253.501 426.921 254.849C426.152 256.191 425.767 258.089 425.767 260.545C425.767 262.183 425.939 263.574 426.284 264.719C426.629 265.864 427.124 266.735 427.771 267.332C428.423 267.929 429.208 268.227 430.125 268.227Z" fill="black"/>
<path d="M196.957 313V311.338L203.199 304.506C203.931 303.705 204.535 303.01 205.009 302.419C205.482 301.822 205.833 301.262 206.061 300.739C206.295 300.209 206.412 299.655 206.412 299.077C206.412 298.412 206.252 297.836 205.932 297.35C205.618 296.864 205.187 296.488 204.639 296.224C204.091 295.959 203.476 295.827 202.793 295.827C202.066 295.827 201.432 295.978 200.891 296.279C200.355 296.575 199.94 296.99 199.644 297.526C199.355 298.061 199.21 298.689 199.21 299.409H197.031C197.031 298.301 197.287 297.329 197.798 296.491C198.308 295.654 199.004 295.002 199.884 294.534C200.771 294.066 201.765 293.832 202.866 293.832C203.974 293.832 204.956 294.066 205.812 294.534C206.667 295.002 207.338 295.633 207.825 296.427C208.311 297.221 208.554 298.104 208.554 299.077C208.554 299.772 208.428 300.452 208.175 301.117C207.929 301.776 207.498 302.511 206.883 303.324C206.273 304.13 205.427 305.115 204.344 306.278L200.097 310.821V310.969H208.886V313H196.957ZM213.29 313L221.748 296.27V296.122H211.998V294.091H224.112V296.233L215.691 313H213.29Z" fill="black"/>
<path d="M279.605 294.091V313H277.315V296.491H277.205L272.588 299.557V297.23L277.315 294.091H279.605ZM291.211 313.259C289.82 313.259 288.635 312.88 287.656 312.123C286.678 311.36 285.93 310.255 285.413 308.808C284.896 307.356 284.637 305.601 284.637 303.545C284.637 301.502 284.896 299.757 285.413 298.31C285.936 296.858 286.687 295.75 287.665 294.987C288.65 294.217 289.832 293.832 291.211 293.832C292.59 293.832 293.768 294.217 294.747 294.987C295.732 295.75 296.483 296.858 297 298.31C297.523 299.757 297.785 301.502 297.785 303.545C297.785 305.601 297.526 307.356 297.009 308.808C296.492 310.255 295.744 311.36 294.766 312.123C293.787 312.88 292.602 313.259 291.211 313.259ZM291.211 311.227C292.59 311.227 293.661 310.562 294.424 309.233C295.187 307.903 295.569 306.008 295.569 303.545C295.569 301.908 295.393 300.514 295.043 299.363C294.698 298.212 294.199 297.335 293.547 296.732C292.901 296.128 292.122 295.827 291.211 295.827C289.844 295.827 288.777 296.501 288.007 297.849C287.238 299.191 286.853 301.089 286.853 303.545C286.853 305.183 287.025 306.574 287.37 307.719C287.715 308.864 288.21 309.735 288.857 310.332C289.509 310.929 290.294 311.227 291.211 311.227Z" fill="black"/>
<path d="M354.347 313.259C353.128 313.259 352.041 313.049 351.087 312.631C350.139 312.212 349.385 311.63 348.825 310.886C348.271 310.135 347.97 309.264 347.92 308.273H350.247C350.296 308.882 350.506 309.408 350.875 309.852C351.244 310.289 351.728 310.627 352.325 310.867C352.922 311.107 353.583 311.227 354.31 311.227C355.122 311.227 355.842 311.086 356.47 310.803C357.098 310.519 357.59 310.125 357.947 309.621C358.304 309.116 358.483 308.531 358.483 307.866C358.483 307.171 358.311 306.558 357.966 306.029C357.621 305.494 357.116 305.075 356.452 304.773C355.787 304.472 354.974 304.321 354.014 304.321H352.5V302.29H354.014C354.765 302.29 355.424 302.154 355.99 301.884C356.563 301.613 357.009 301.231 357.329 300.739C357.655 300.246 357.818 299.668 357.818 299.003C357.818 298.363 357.677 297.806 357.393 297.332C357.11 296.858 356.71 296.488 356.193 296.224C355.682 295.959 355.079 295.827 354.384 295.827C353.731 295.827 353.116 295.947 352.537 296.187C351.964 296.421 351.497 296.762 351.134 297.212C350.77 297.655 350.573 298.19 350.543 298.818H348.327C348.364 297.827 348.662 296.959 349.222 296.214C349.782 295.464 350.515 294.879 351.42 294.46C352.331 294.042 353.331 293.832 354.42 293.832C355.59 293.832 356.593 294.069 357.43 294.543C358.268 295.011 358.911 295.63 359.36 296.399C359.809 297.169 360.034 298 360.034 298.892C360.034 299.957 359.754 300.865 359.194 301.616C358.64 302.367 357.886 302.887 356.932 303.176V303.324C358.126 303.521 359.058 304.029 359.729 304.847C360.4 305.66 360.736 306.666 360.736 307.866C360.736 308.894 360.456 309.818 359.896 310.636C359.342 311.449 358.585 312.089 357.624 312.557C356.664 313.025 355.571 313.259 354.347 313.259ZM371.16 294.091V313H368.87V296.491H368.759L364.143 299.557V297.23L368.87 294.091H371.16Z" fill="black"/>
<path d="M428.605 294.091V313H426.315V296.491H426.205L421.588 299.557V297.23L426.315 294.091H428.605ZM440.433 313.259C439.214 313.259 438.127 313.049 437.173 312.631C436.225 312.212 435.471 311.63 434.911 310.886C434.357 310.135 434.056 309.264 434.006 308.273H436.333C436.382 308.882 436.592 309.408 436.961 309.852C437.33 310.289 437.813 310.627 438.411 310.867C439.008 311.107 439.669 311.227 440.396 311.227C441.208 311.227 441.928 311.086 442.556 310.803C443.184 310.519 443.676 310.125 444.033 309.621C444.39 309.116 444.569 308.531 444.569 307.866C444.569 307.171 444.397 306.558 444.052 306.029C443.707 305.494 443.202 305.075 442.538 304.773C441.873 304.472 441.06 304.321 440.1 304.321H438.586V302.29H440.1C440.851 302.29 441.51 302.154 442.076 301.884C442.648 301.613 443.095 301.231 443.415 300.739C443.741 300.246 443.904 299.668 443.904 299.003C443.904 298.363 443.763 297.806 443.479 297.332C443.196 296.858 442.796 296.488 442.279 296.224C441.768 295.959 441.165 295.827 440.469 295.827C439.817 295.827 439.201 295.947 438.623 296.187C438.05 296.421 437.583 296.762 437.219 297.212C436.856 297.655 436.659 298.19 436.629 298.818H434.413C434.45 297.827 434.748 296.959 435.308 296.214C435.868 295.464 436.601 294.879 437.506 294.46C438.417 294.042 439.417 293.832 440.506 293.832C441.676 293.832 442.679 294.069 443.516 294.543C444.353 295.011 444.997 295.63 445.446 296.399C445.895 297.169 446.12 298 446.12 298.892C446.12 299.957 445.84 300.865 445.28 301.616C444.726 302.367 443.972 302.887 443.018 303.176V303.324C444.212 303.521 445.144 304.029 445.815 304.847C446.486 305.66 446.822 306.666 446.822 307.866C446.822 308.894 446.542 309.818 445.982 310.636C445.428 311.449 444.67 312.089 443.71 312.557C442.75 313.025 441.657 313.259 440.433 313.259Z" fill="black"/>
<path d="M504.014 228.259C502.746 228.259 501.626 228.034 500.653 227.585C499.687 227.129 498.933 226.504 498.391 225.71C497.85 224.91 497.582 223.999 497.588 222.977C497.582 222.177 497.739 221.438 498.059 220.761C498.379 220.078 498.816 219.509 499.37 219.053C499.93 218.592 500.555 218.299 501.244 218.176V218.065C500.339 217.831 499.619 217.324 499.084 216.542C498.548 215.754 498.284 214.858 498.29 213.855C498.284 212.895 498.527 212.036 499.019 211.279C499.512 210.522 500.189 209.925 501.05 209.488C501.918 209.051 502.906 208.832 504.014 208.832C505.11 208.832 506.089 209.051 506.95 209.488C507.812 209.925 508.489 210.522 508.982 211.279C509.48 212.036 509.732 212.895 509.739 213.855C509.732 214.858 509.459 215.754 508.917 216.542C508.381 217.324 507.67 217.831 506.784 218.065V218.176C507.467 218.299 508.083 218.592 508.631 219.053C509.179 219.509 509.616 220.078 509.942 220.761C510.268 221.438 510.434 222.177 510.44 222.977C510.434 223.999 510.157 224.91 509.609 225.71C509.068 226.504 508.314 227.129 507.347 227.585C506.387 228.034 505.276 228.259 504.014 228.259ZM504.014 226.227C504.87 226.227 505.608 226.089 506.23 225.812C506.852 225.535 507.332 225.144 507.67 224.639C508.009 224.134 508.181 223.544 508.188 222.866C508.181 222.152 507.997 221.522 507.634 220.974C507.27 220.426 506.775 219.995 506.147 219.681C505.525 219.367 504.814 219.21 504.014 219.21C503.208 219.21 502.488 219.367 501.854 219.681C501.226 219.995 500.73 220.426 500.367 220.974C500.01 221.522 499.835 222.152 499.841 222.866C499.835 223.544 499.998 224.134 500.33 224.639C500.669 225.144 501.152 225.535 501.78 225.812C502.408 226.089 503.152 226.227 504.014 226.227ZM504.014 217.253C504.691 217.253 505.291 217.117 505.815 216.847C506.344 216.576 506.759 216.197 507.061 215.711C507.363 215.225 507.517 214.655 507.523 214.003C507.517 213.363 507.366 212.806 507.07 212.332C506.775 211.852 506.366 211.482 505.842 211.224C505.319 210.959 504.71 210.827 504.014 210.827C503.306 210.827 502.688 210.959 502.158 211.224C501.629 211.482 501.22 211.852 500.93 212.332C500.641 212.806 500.5 213.363 500.506 214.003C500.5 214.655 500.644 215.225 500.94 215.711C501.241 216.197 501.657 216.576 502.186 216.847C502.715 217.117 503.325 217.253 504.014 217.253Z" fill="black"/>
<path d="M572.514 224.122V222.239L580.824 209.091H582.19V212.009H581.267L574.989 221.943V222.091H586.179V224.122H572.514ZM581.415 228V223.55V222.673V209.091H583.594V228H581.415Z" fill="black"/>
<path d="M654.236 228.259C653.46 228.246 652.685 228.098 651.909 227.815C651.134 227.532 650.426 227.055 649.786 226.384C649.145 225.707 648.631 224.793 648.244 223.642C647.856 222.485 647.662 221.032 647.662 219.284C647.662 217.61 647.819 216.126 648.133 214.834C648.447 213.535 648.902 212.442 649.499 211.556C650.096 210.664 650.817 209.987 651.66 209.525C652.509 209.063 653.466 208.832 654.531 208.832C655.59 208.832 656.532 209.045 657.357 209.469C658.188 209.888 658.865 210.473 659.388 211.224C659.911 211.975 660.25 212.839 660.403 213.818H658.151C657.941 212.969 657.535 212.264 656.932 211.704C656.329 211.144 655.528 210.864 654.531 210.864C653.066 210.864 651.912 211.501 651.069 212.775C650.232 214.049 649.81 215.837 649.804 218.139H649.952C650.296 217.616 650.706 217.17 651.18 216.8C651.66 216.425 652.189 216.136 652.768 215.933C653.346 215.729 653.959 215.628 654.605 215.628C655.688 215.628 656.679 215.899 657.578 216.44C658.477 216.976 659.197 217.718 659.739 218.665C660.28 219.607 660.551 220.688 660.551 221.906C660.551 223.076 660.29 224.147 659.766 225.119C659.243 226.086 658.508 226.855 657.56 227.428C656.618 227.994 655.51 228.271 654.236 228.259ZM654.236 226.227C655.011 226.227 655.707 226.033 656.322 225.646C656.944 225.258 657.433 224.738 657.79 224.085C658.154 223.433 658.335 222.706 658.335 221.906C658.335 221.125 658.16 220.414 657.809 219.773C657.464 219.127 656.987 218.613 656.378 218.232C655.775 217.85 655.085 217.659 654.31 217.659C653.725 217.659 653.18 217.776 652.675 218.01C652.171 218.238 651.728 218.552 651.346 218.952C650.97 219.352 650.675 219.81 650.46 220.327C650.244 220.838 650.136 221.377 650.136 221.943C650.136 222.694 650.312 223.396 650.663 224.048C651.02 224.701 651.506 225.227 652.121 225.627C652.743 226.027 653.448 226.227 654.236 226.227Z" fill="black"/>
<path d="M728.347 228.259C727.128 228.259 726.041 228.049 725.087 227.631C724.139 227.212 723.385 226.63 722.825 225.886C722.271 225.135 721.97 224.264 721.92 223.273H724.247C724.296 223.882 724.506 224.408 724.875 224.852C725.244 225.289 725.728 225.627 726.325 225.867C726.922 226.107 727.583 226.227 728.31 226.227C729.122 226.227 729.842 226.086 730.47 225.803C731.098 225.519 731.59 225.125 731.947 224.621C732.304 224.116 732.483 223.531 732.483 222.866C732.483 222.171 732.311 221.558 731.966 221.029C731.621 220.494 731.116 220.075 730.452 219.773C729.787 219.472 728.974 219.321 728.014 219.321H726.5V217.29H728.014C728.765 217.29 729.424 217.154 729.99 216.884C730.563 216.613 731.009 216.231 731.329 215.739C731.655 215.246 731.818 214.668 731.818 214.003C731.818 213.363 731.677 212.806 731.393 212.332C731.11 211.858 730.71 211.488 730.193 211.224C729.682 210.959 729.079 210.827 728.384 210.827C727.731 210.827 727.116 210.947 726.537 211.187C725.964 211.421 725.497 211.762 725.134 212.212C724.77 212.655 724.573 213.19 724.543 213.818H722.327C722.364 212.827 722.662 211.959 723.222 211.214C723.782 210.464 724.515 209.879 725.42 209.46C726.331 209.042 727.331 208.832 728.42 208.832C729.59 208.832 730.593 209.069 731.43 209.543C732.268 210.011 732.911 210.63 733.36 211.399C733.809 212.169 734.034 213 734.034 213.892C734.034 214.957 733.754 215.865 733.194 216.616C732.64 217.367 731.886 217.887 730.932 218.176V218.324C732.126 218.521 733.058 219.029 733.729 219.847C734.4 220.66 734.736 221.666 734.736 222.866C734.736 223.894 734.456 224.818 733.896 225.636C733.342 226.449 732.585 227.089 731.624 227.557C730.664 228.025 729.571 228.259 728.347 228.259Z" fill="black"/>
<path d="M504.125 271.259C502.734 271.259 501.549 270.88 500.57 270.123C499.592 269.36 498.844 268.255 498.327 266.808C497.81 265.356 497.551 263.601 497.551 261.545C497.551 259.502 497.81 257.757 498.327 256.31C498.85 254.858 499.601 253.75 500.58 252.987C501.564 252.217 502.746 251.832 504.125 251.832C505.504 251.832 506.683 252.217 507.661 252.987C508.646 253.75 509.397 254.858 509.914 256.31C510.437 257.757 510.699 259.502 510.699 261.545C510.699 263.601 510.44 265.356 509.923 266.808C509.406 268.255 508.658 269.36 507.68 270.123C506.701 270.88 505.516 271.259 504.125 271.259ZM504.125 269.227C505.504 269.227 506.575 268.562 507.338 267.233C508.101 265.903 508.483 264.008 508.483 261.545C508.483 259.908 508.308 258.514 507.957 257.363C507.612 256.212 507.113 255.335 506.461 254.732C505.815 254.128 505.036 253.827 504.125 253.827C502.759 253.827 501.691 254.501 500.921 255.849C500.152 257.191 499.767 259.089 499.767 261.545C499.767 263.183 499.939 264.574 500.284 265.719C500.629 266.864 501.124 267.735 501.771 268.332C502.423 268.929 503.208 269.227 504.125 269.227Z" fill="black"/>
<path d="M579.605 252.091V271H577.315V254.491H577.205L572.588 257.557V255.23L577.315 252.091H579.605Z" fill="black"/>
<path d="M654.605 252.091V271H652.315V254.491H652.205L647.588 257.557V255.23L652.315 252.091H654.605Z" fill="black"/>
<path d="M728.125 271.259C726.734 271.259 725.549 270.88 724.57 270.123C723.592 269.36 722.844 268.255 722.327 266.808C721.81 265.356 721.551 263.601 721.551 261.545C721.551 259.502 721.81 257.757 722.327 256.31C722.85 254.858 723.601 253.75 724.58 252.987C725.564 252.217 726.746 251.832 728.125 251.832C729.504 251.832 730.683 252.217 731.661 252.987C732.646 253.75 733.397 254.858 733.914 256.31C734.437 257.757 734.699 259.502 734.699 261.545C734.699 263.601 734.44 265.356 733.923 266.808C733.406 268.255 732.658 269.36 731.68 270.123C730.701 270.88 729.516 271.259 728.125 271.259ZM728.125 269.227C729.504 269.227 730.575 268.562 731.338 267.233C732.101 265.903 732.483 264.008 732.483 261.545C732.483 259.908 732.308 258.514 731.957 257.363C731.612 256.212 731.113 255.335 730.461 254.732C729.815 254.128 729.036 253.827 728.125 253.827C726.759 253.827 725.691 254.501 724.921 255.849C724.152 257.191 723.767 259.089 723.767 261.545C723.767 263.183 723.939 264.574 724.284 265.719C724.629 266.864 725.124 267.735 725.771 268.332C726.423 268.929 727.208 269.227 728.125 269.227Z" fill="black"/>
<path d="M501.605 295.091V314H499.315V297.491H499.205L494.588 300.557V298.23L499.315 295.091H501.605ZM507.634 314L516.092 297.27V297.122H506.342V295.091H518.455V297.233L510.035 314H507.634Z" fill="black"/>
<path d="M577.605 295.091V314H575.315V297.491H575.205L570.588 300.557V298.23L575.315 295.091H577.605ZM589.1 314.259C587.832 314.259 586.712 314.034 585.739 313.585C584.773 313.129 584.019 312.504 583.477 311.71C582.936 310.91 582.668 309.999 582.674 308.977C582.668 308.177 582.825 307.438 583.145 306.761C583.465 306.078 583.902 305.509 584.456 305.053C585.016 304.592 585.641 304.299 586.33 304.176V304.065C585.425 303.831 584.705 303.324 584.17 302.542C583.634 301.754 583.37 300.858 583.376 299.855C583.37 298.895 583.613 298.036 584.105 297.279C584.598 296.522 585.275 295.925 586.136 295.488C587.004 295.051 587.992 294.832 589.1 294.832C590.196 294.832 591.174 295.051 592.036 295.488C592.898 295.925 593.575 296.522 594.067 297.279C594.566 298.036 594.818 298.895 594.825 299.855C594.818 300.858 594.545 301.754 594.003 302.542C593.467 303.324 592.756 303.831 591.87 304.065V304.176C592.553 304.299 593.169 304.592 593.717 305.053C594.264 305.509 594.701 306.078 595.028 306.761C595.354 307.438 595.52 308.177 595.526 308.977C595.52 309.999 595.243 310.91 594.695 311.71C594.154 312.504 593.4 313.129 592.433 313.585C591.473 314.034 590.362 314.259 589.1 314.259ZM589.1 312.227C589.956 312.227 590.694 312.089 591.316 311.812C591.938 311.535 592.418 311.144 592.756 310.639C593.095 310.134 593.267 309.544 593.273 308.866C593.267 308.152 593.083 307.522 592.719 306.974C592.356 306.426 591.861 305.995 591.233 305.681C590.611 305.367 589.9 305.21 589.1 305.21C588.294 305.21 587.574 305.367 586.94 305.681C586.312 305.995 585.816 306.426 585.453 306.974C585.096 307.522 584.921 308.152 584.927 308.866C584.921 309.544 585.084 310.134 585.416 310.639C585.755 311.144 586.238 311.535 586.866 311.812C587.494 312.089 588.238 312.227 589.1 312.227ZM589.1 303.253C589.777 303.253 590.377 303.117 590.901 302.847C591.43 302.576 591.845 302.197 592.147 301.711C592.449 301.225 592.603 300.655 592.609 300.003C592.603 299.363 592.452 298.806 592.156 298.332C591.861 297.852 591.451 297.482 590.928 297.224C590.405 296.959 589.796 296.827 589.1 296.827C588.392 296.827 587.774 296.959 587.244 297.224C586.715 297.482 586.306 297.852 586.016 298.332C585.727 298.806 585.585 299.363 585.592 300.003C585.585 300.655 585.73 301.225 586.026 301.711C586.327 302.197 586.743 302.576 587.272 302.847C587.801 303.117 588.411 303.253 589.1 303.253Z" fill="black"/>
<path d="M652.605 295.091V314H650.315V297.491H650.205L645.588 300.557V298.23L650.315 295.091H652.605ZM657.6 310.122V308.239L665.91 295.091H667.276V298.009H666.353L660.075 307.943V308.091H671.265V310.122H657.6ZM666.501 314V309.55V308.673V295.091H668.68V314H666.501Z" fill="black"/>
<path d="M727.977 294.832C728.753 294.839 729.528 294.986 730.304 295.276C731.08 295.565 731.787 296.045 732.428 296.716C733.068 297.381 733.582 298.289 733.969 299.44C734.357 300.591 734.551 302.034 734.551 303.77C734.551 305.45 734.391 306.943 734.071 308.248C733.757 309.547 733.302 310.642 732.705 311.535C732.114 312.427 731.393 313.104 730.544 313.566C729.701 314.028 728.747 314.259 727.682 314.259C726.623 314.259 725.678 314.049 724.847 313.631C724.022 313.206 723.345 312.618 722.816 311.867C722.293 311.11 721.957 310.233 721.81 309.236H724.062C724.266 310.104 724.669 310.821 725.272 311.387C725.881 311.947 726.685 312.227 727.682 312.227C729.141 312.227 730.292 311.59 731.135 310.316C731.984 309.042 732.409 307.241 732.409 304.915H732.261C731.917 305.432 731.507 305.878 731.033 306.254C730.559 306.629 730.033 306.918 729.455 307.121C728.876 307.325 728.26 307.426 727.608 307.426C726.525 307.426 725.531 307.158 724.626 306.623C723.727 306.081 723.007 305.339 722.465 304.398C721.93 303.45 721.662 302.366 721.662 301.148C721.662 299.991 721.92 298.932 722.438 297.972C722.961 297.005 723.693 296.236 724.635 295.663C725.583 295.091 726.697 294.814 727.977 294.832ZM727.977 296.864C727.202 296.864 726.503 297.058 725.881 297.445C725.266 297.827 724.777 298.344 724.413 298.996C724.056 299.643 723.878 300.36 723.878 301.148C723.878 301.936 724.05 302.653 724.395 303.299C724.746 303.939 725.223 304.45 725.826 304.832C726.435 305.207 727.128 305.395 727.903 305.395C728.488 305.395 729.033 305.281 729.538 305.053C730.042 304.819 730.482 304.502 730.858 304.102C731.24 303.696 731.538 303.237 731.754 302.727C731.969 302.21 732.077 301.671 732.077 301.111C732.077 300.372 731.898 299.68 731.541 299.033C731.19 298.387 730.704 297.864 730.082 297.464C729.467 297.064 728.765 296.864 727.977 296.864Z" fill="black"/>
<path d="M569 185L556.151 173.385L552.517 190.32L569 185ZM363.685 142.467L555.486 183.634L556.115 180.7L364.315 139.533L363.685 142.467Z" fill="#000AFF"/>
<path d="M385.5 185L402.03 190.174L398.246 173.272L385.5 185ZM586.172 138.536L398.346 180.587L399.002 183.514L586.828 141.464L586.172 138.536Z" fill="#000AFF"/>
</svg>
