<?xml version="1.0" encoding="utf-8" standalone="no"?>
<!DOCTYPE svg PUBLIC "-//W3C//DTD SVG 1.1//EN"
  "http://www.w3.org/Graphics/SVG/1.1/DTD/svg11.dtd">
<svg xmlns:xlink="http://www.w3.org/1999/xlink" width="720pt" height="432pt" viewBox="0 0 720 432" xmlns="http://www.w3.org/2000/svg" version="1.1">
 <metadata>
  <rdf:RDF xmlns:dc="http://purl.org/dc/elements/1.1/" xmlns:cc="http://creativecommons.org/ns#" xmlns:rdf="http://www.w3.org/1999/02/22-rdf-syntax-ns#">
   <cc:Work>
    <dc:type rdf:resource="http://purl.org/dc/dcmitype/StillImage"/>
    <dc:date>2024-06-03T03:06:19.809837</dc:date>
    <dc:format>image/svg+xml</dc:format>
    <dc:creator>
     <cc:Agent>
      <dc:title>Matplotlib v3.8.3, https://matplotlib.org/</dc:title>
     </cc:Agent>
    </dc:creator>
   </cc:Work>
  </rdf:RDF>
 </metadata>
 <defs>
  <style type="text/css">*{stroke-linejoin: round; stroke-linecap: butt}</style>
 </defs>
 <g id="figure_1">
  <g id="patch_1">
   <path d="M 0 432 
L 720 432 
L 720 0 
L 0 0 
z
" style="fill: #ffffff"/>
  </g>
  <g id="axes_1">
   <g id="patch_2">
    <path d="M 90 384.48 
L 648 384.48 
L 648 51.84 
L 90 51.84 
z
" style="fill: #ffffff"/>
   </g>
   <g id="matplotlib.axis_1">
    <g id="xtick_1">
     <g id="line2d_1">
      <path d="M 115.363636 384.48 
L 115.363636 51.84 
" clip-path="url(#p8cf07f8432)" style="fill: none; stroke-dasharray: 1.85,0.8; stroke-dashoffset: 0; stroke: #b0b0b0; stroke-width: 0.5"/>
     </g>
     <g id="line2d_2">
      <defs>
       <path id="m792cb346e5" d="M 0 0 
L 0 3.5 
" style="stroke: #000000; stroke-width: 0.8"/>
      </defs>
      <g>
       <use xlink:href="#m792cb346e5" x="115.363636" y="384.48" style="stroke: #000000; stroke-width: 0.8"/>
      </g>
     </g>
     <g id="text_1">
      <!-- 0s -->
      <g transform="translate(109.577699 399.078438) scale(0.1 -0.1)">
       <defs>
        <path id="DejaVuSans-30" d="M 2034 4250 
Q 1547 4250 1301 3770 
Q 1056 3291 1056 2328 
Q 1056 1369 1301 889 
Q 1547 409 2034 409 
Q 2525 409 2770 889 
Q 3016 1369 3016 2328 
Q 3016 3291 2770 3770 
Q 2525 4250 2034 4250 
z
M 2034 4750 
Q 2819 4750 3233 4129 
Q 3647 3509 3647 2328 
Q 3647 1150 3233 529 
Q 2819 -91 2034 -91 
Q 1250 -91 836 529 
Q 422 1150 422 2328 
Q 422 3509 836 4129 
Q 1250 4750 2034 4750 
z
" transform="scale(0.015625)"/>
        <path id="DejaVuSans-73" d="M 2834 3397 
L 2834 2853 
Q 2591 2978 2328 3040 
Q 2066 3103 1784 3103 
Q 1356 3103 1142 2972 
Q 928 2841 928 2578 
Q 928 2378 1081 2264 
Q 1234 2150 1697 2047 
L 1894 2003 
Q 2506 1872 2764 1633 
Q 3022 1394 3022 966 
Q 3022 478 2636 193 
Q 2250 -91 1575 -91 
Q 1294 -91 989 -36 
Q 684 19 347 128 
L 347 722 
Q 666 556 975 473 
Q 1284 391 1588 391 
Q 1994 391 2212 530 
Q 2431 669 2431 922 
Q 2431 1156 2273 1281 
Q 2116 1406 1581 1522 
L 1381 1569 
Q 847 1681 609 1914 
Q 372 2147 372 2553 
Q 372 3047 722 3315 
Q 1072 3584 1716 3584 
Q 2034 3584 2315 3537 
Q 2597 3491 2834 3397 
z
" transform="scale(0.015625)"/>
       </defs>
       <use xlink:href="#DejaVuSans-30"/>
       <use xlink:href="#DejaVuSans-73" x="63.623047"/>
      </g>
     </g>
    </g>
    <g id="xtick_2">
     <g id="line2d_3">
      <path d="M 199.852765 384.48 
L 199.852765 51.84 
" clip-path="url(#p8cf07f8432)" style="fill: none; stroke-dasharray: 1.85,0.8; stroke-dashoffset: 0; stroke: #b0b0b0; stroke-width: 0.5"/>
     </g>
     <g id="line2d_4">
      <g>
       <use xlink:href="#m792cb346e5" x="199.852765" y="384.48" style="stroke: #000000; stroke-width: 0.8"/>
      </g>
     </g>
     <g id="text_2">
      <!-- 50s -->
      <g transform="translate(190.885577 399.078438) scale(0.1 -0.1)">
       <defs>
        <path id="DejaVuSans-35" d="M 691 4666 
L 3169 4666 
L 3169 4134 
L 1269 4134 
L 1269 2991 
Q 1406 3038 1543 3061 
Q 1681 3084 1819 3084 
Q 2600 3084 3056 2656 
Q 3513 2228 3513 1497 
Q 3513 744 3044 326 
Q 2575 -91 1722 -91 
Q 1428 -91 1123 -41 
Q 819 9 494 109 
L 494 744 
Q 775 591 1075 516 
Q 1375 441 1709 441 
Q 2250 441 2565 725 
Q 2881 1009 2881 1497 
Q 2881 1984 2565 2268 
Q 2250 2553 1709 2553 
Q 1456 2553 1204 2497 
Q 953 2441 691 2322 
L 691 4666 
z
" transform="scale(0.015625)"/>
       </defs>
       <use xlink:href="#DejaVuSans-35"/>
       <use xlink:href="#DejaVuSans-30" x="63.623047"/>
       <use xlink:href="#DejaVuSans-73" x="127.246094"/>
      </g>
     </g>
    </g>
    <g id="xtick_3">
     <g id="line2d_5">
      <path d="M 284.341893 384.48 
L 284.341893 51.84 
" clip-path="url(#p8cf07f8432)" style="fill: none; stroke-dasharray: 1.85,0.8; stroke-dashoffset: 0; stroke: #b0b0b0; stroke-width: 0.5"/>
     </g>
     <g id="line2d_6">
      <g>
       <use xlink:href="#m792cb346e5" x="284.341893" y="384.48" style="stroke: #000000; stroke-width: 0.8"/>
      </g>
     </g>
     <g id="text_3">
      <!-- 100s -->
      <g transform="translate(272.193456 399.078438) scale(0.1 -0.1)">
       <defs>
        <path id="DejaVuSans-31" d="M 794 531 
L 1825 531 
L 1825 4091 
L 703 3866 
L 703 4441 
L 1819 4666 
L 2450 4666 
L 2450 531 
L 3481 531 
L 3481 0 
L 794 0 
L 794 531 
z
" transform="scale(0.015625)"/>
       </defs>
       <use xlink:href="#DejaVuSans-31"/>
       <use xlink:href="#DejaVuSans-30" x="63.623047"/>
       <use xlink:href="#DejaVuSans-30" x="127.246094"/>
       <use xlink:href="#DejaVuSans-73" x="190.869141"/>
      </g>
     </g>
    </g>
    <g id="xtick_4">
     <g id="line2d_7">
      <path d="M 368.831022 384.48 
L 368.831022 51.84 
" clip-path="url(#p8cf07f8432)" style="fill: none; stroke-dasharray: 1.85,0.8; stroke-dashoffset: 0; stroke: #b0b0b0; stroke-width: 0.5"/>
     </g>
     <g id="line2d_8">
      <g>
       <use xlink:href="#m792cb346e5" x="368.831022" y="384.48" style="stroke: #000000; stroke-width: 0.8"/>
      </g>
     </g>
     <g id="text_4">
      <!-- 150s -->
      <g transform="translate(356.682584 399.078438) scale(0.1 -0.1)">
       <use xlink:href="#DejaVuSans-31"/>
       <use xlink:href="#DejaVuSans-35" x="63.623047"/>
       <use xlink:href="#DejaVuSans-30" x="127.246094"/>
       <use xlink:href="#DejaVuSans-73" x="190.869141"/>
      </g>
     </g>
    </g>
    <g id="xtick_5">
     <g id="line2d_9">
      <path d="M 453.32015 384.48 
L 453.32015 51.84 
" clip-path="url(#p8cf07f8432)" style="fill: none; stroke-dasharray: 1.85,0.8; stroke-dashoffset: 0; stroke: #b0b0b0; stroke-width: 0.5"/>
     </g>
     <g id="line2d_10">
      <g>
       <use xlink:href="#m792cb346e5" x="453.32015" y="384.48" style="stroke: #000000; stroke-width: 0.8"/>
      </g>
     </g>
     <g id="text_5">
      <!-- 200s -->
      <g transform="translate(441.171713 399.078438) scale(0.1 -0.1)">
       <defs>
        <path id="DejaVuSans-32" d="M 1228 531 
L 3431 531 
L 3431 0 
L 469 0 
L 469 531 
Q 828 903 1448 1529 
Q 2069 2156 2228 2338 
Q 2531 2678 2651 2914 
Q 2772 3150 2772 3378 
Q 2772 3750 2511 3984 
Q 2250 4219 1831 4219 
Q 1534 4219 1204 4116 
Q 875 4013 500 3803 
L 500 4441 
Q 881 4594 1212 4672 
Q 1544 4750 1819 4750 
Q 2544 4750 2975 4387 
Q 3406 4025 3406 3419 
Q 3406 3131 3298 2873 
Q 3191 2616 2906 2266 
Q 2828 2175 2409 1742 
Q 1991 1309 1228 531 
z
" transform="scale(0.015625)"/>
       </defs>
       <use xlink:href="#DejaVuSans-32"/>
       <use xlink:href="#DejaVuSans-30" x="63.623047"/>
       <use xlink:href="#DejaVuSans-30" x="127.246094"/>
       <use xlink:href="#DejaVuSans-73" x="190.869141"/>
      </g>
     </g>
    </g>
    <g id="xtick_6">
     <g id="line2d_11">
      <path d="M 537.809279 384.48 
L 537.809279 51.84 
" clip-path="url(#p8cf07f8432)" style="fill: none; stroke-dasharray: 1.85,0.8; stroke-dashoffset: 0; stroke: #b0b0b0; stroke-width: 0.5"/>
     </g>
     <g id="line2d_12">
      <g>
       <use xlink:href="#m792cb346e5" x="537.809279" y="384.48" style="stroke: #000000; stroke-width: 0.8"/>
      </g>
     </g>
     <g id="text_6">
      <!-- 250s -->
      <g transform="translate(525.660841 399.078438) scale(0.1 -0.1)">
       <use xlink:href="#DejaVuSans-32"/>
       <use xlink:href="#DejaVuSans-35" x="63.623047"/>
       <use xlink:href="#DejaVuSans-30" x="127.246094"/>
       <use xlink:href="#DejaVuSans-73" x="190.869141"/>
      </g>
     </g>
    </g>
    <g id="xtick_7">
     <g id="line2d_13">
      <path d="M 622.298407 384.48 
L 622.298407 51.84 
" clip-path="url(#p8cf07f8432)" style="fill: none; stroke-dasharray: 1.85,0.8; stroke-dashoffset: 0; stroke: #b0b0b0; stroke-width: 0.5"/>
     </g>
     <g id="line2d_14">
      <g>
       <use xlink:href="#m792cb346e5" x="622.298407" y="384.48" style="stroke: #000000; stroke-width: 0.8"/>
      </g>
     </g>
     <g id="text_7">
      <!-- 300s -->
      <g transform="translate(610.14997 399.078438) scale(0.1 -0.1)">
       <defs>
        <path id="DejaVuSans-33" d="M 2597 2516 
Q 3050 2419 3304 2112 
Q 3559 1806 3559 1356 
Q 3559 666 3084 287 
Q 2609 -91 1734 -91 
Q 1441 -91 1130 -33 
Q 819 25 488 141 
L 488 750 
Q 750 597 1062 519 
Q 1375 441 1716 441 
Q 2309 441 2620 675 
Q 2931 909 2931 1356 
Q 2931 1769 2642 2001 
Q 2353 2234 1838 2234 
L 1294 2234 
L 1294 2753 
L 1863 2753 
Q 2328 2753 2575 2939 
Q 2822 3125 2822 3475 
Q 2822 3834 2567 4026 
Q 2313 4219 1838 4219 
Q 1578 4219 1281 4162 
Q 984 4106 628 3988 
L 628 4550 
Q 988 4650 1302 4700 
Q 1616 4750 1894 4750 
Q 2613 4750 3031 4423 
Q 3450 4097 3450 3541 
Q 3450 3153 3228 2886 
Q 3006 2619 2597 2516 
z
" transform="scale(0.015625)"/>
       </defs>
       <use xlink:href="#DejaVuSans-33"/>
       <use xlink:href="#DejaVuSans-30" x="63.623047"/>
       <use xlink:href="#DejaVuSans-30" x="127.246094"/>
       <use xlink:href="#DejaVuSans-73" x="190.869141"/>
      </g>
     </g>
    </g>
    <g id="text_8">
     <!-- Tiempo (segundos) -->
     <g transform="translate(321.010938 412.756563) scale(0.1 -0.1)">
      <defs>
       <path id="DejaVuSans-54" d="M -19 4666 
L 3928 4666 
L 3928 4134 
L 2272 4134 
L 2272 0 
L 1638 0 
L 1638 4134 
L -19 4134 
L -19 4666 
z
" transform="scale(0.015625)"/>
       <path id="DejaVuSans-69" d="M 603 3500 
L 1178 3500 
L 1178 0 
L 603 0 
L 603 3500 
z
M 603 4863 
L 1178 4863 
L 1178 4134 
L 603 4134 
L 603 4863 
z
" transform="scale(0.015625)"/>
       <path id="DejaVuSans-65" d="M 3597 1894 
L 3597 1613 
L 953 1613 
Q 991 1019 1311 708 
Q 1631 397 2203 397 
Q 2534 397 2845 478 
Q 3156 559 3463 722 
L 3463 178 
Q 3153 47 2828 -22 
Q 2503 -91 2169 -91 
Q 1331 -91 842 396 
Q 353 884 353 1716 
Q 353 2575 817 3079 
Q 1281 3584 2069 3584 
Q 2775 3584 3186 3129 
Q 3597 2675 3597 1894 
z
M 3022 2063 
Q 3016 2534 2758 2815 
Q 2500 3097 2075 3097 
Q 1594 3097 1305 2825 
Q 1016 2553 972 2059 
L 3022 2063 
z
" transform="scale(0.015625)"/>
       <path id="DejaVuSans-6d" d="M 3328 2828 
Q 3544 3216 3844 3400 
Q 4144 3584 4550 3584 
Q 5097 3584 5394 3201 
Q 5691 2819 5691 2113 
L 5691 0 
L 5113 0 
L 5113 2094 
Q 5113 2597 4934 2840 
Q 4756 3084 4391 3084 
Q 3944 3084 3684 2787 
Q 3425 2491 3425 1978 
L 3425 0 
L 2847 0 
L 2847 2094 
Q 2847 2600 2669 2842 
Q 2491 3084 2119 3084 
Q 1678 3084 1418 2786 
Q 1159 2488 1159 1978 
L 1159 0 
L 581 0 
L 581 3500 
L 1159 3500 
L 1159 2956 
Q 1356 3278 1631 3431 
Q 1906 3584 2284 3584 
Q 2666 3584 2933 3390 
Q 3200 3197 3328 2828 
z
" transform="scale(0.015625)"/>
       <path id="DejaVuSans-70" d="M 1159 525 
L 1159 -1331 
L 581 -1331 
L 581 3500 
L 1159 3500 
L 1159 2969 
Q 1341 3281 1617 3432 
Q 1894 3584 2278 3584 
Q 2916 3584 3314 3078 
Q 3713 2572 3713 1747 
Q 3713 922 3314 415 
Q 2916 -91 2278 -91 
Q 1894 -91 1617 61 
Q 1341 213 1159 525 
z
M 3116 1747 
Q 3116 2381 2855 2742 
Q 2594 3103 2138 3103 
Q 1681 3103 1420 2742 
Q 1159 2381 1159 1747 
Q 1159 1113 1420 752 
Q 1681 391 2138 391 
Q 2594 391 2855 752 
Q 3116 1113 3116 1747 
z
" transform="scale(0.015625)"/>
       <path id="DejaVuSans-6f" d="M 1959 3097 
Q 1497 3097 1228 2736 
Q 959 2375 959 1747 
Q 959 1119 1226 758 
Q 1494 397 1959 397 
Q 2419 397 2687 759 
Q 2956 1122 2956 1747 
Q 2956 2369 2687 2733 
Q 2419 3097 1959 3097 
z
M 1959 3584 
Q 2709 3584 3137 3096 
Q 3566 2609 3566 1747 
Q 3566 888 3137 398 
Q 2709 -91 1959 -91 
Q 1206 -91 779 398 
Q 353 888 353 1747 
Q 353 2609 779 3096 
Q 1206 3584 1959 3584 
z
" transform="scale(0.015625)"/>
       <path id="DejaVuSans-20" transform="scale(0.015625)"/>
       <path id="DejaVuSans-28" d="M 1984 4856 
Q 1566 4138 1362 3434 
Q 1159 2731 1159 2009 
Q 1159 1288 1364 580 
Q 1569 -128 1984 -844 
L 1484 -844 
Q 1016 -109 783 600 
Q 550 1309 550 2009 
Q 550 2706 781 3412 
Q 1013 4119 1484 4856 
L 1984 4856 
z
" transform="scale(0.015625)"/>
       <path id="DejaVuSans-67" d="M 2906 1791 
Q 2906 2416 2648 2759 
Q 2391 3103 1925 3103 
Q 1463 3103 1205 2759 
Q 947 2416 947 1791 
Q 947 1169 1205 825 
Q 1463 481 1925 481 
Q 2391 481 2648 825 
Q 2906 1169 2906 1791 
z
M 3481 434 
Q 3481 -459 3084 -895 
Q 2688 -1331 1869 -1331 
Q 1566 -1331 1297 -1286 
Q 1028 -1241 775 -1147 
L 775 -588 
Q 1028 -725 1275 -790 
Q 1522 -856 1778 -856 
Q 2344 -856 2625 -561 
Q 2906 -266 2906 331 
L 2906 616 
Q 2728 306 2450 153 
Q 2172 0 1784 0 
Q 1141 0 747 490 
Q 353 981 353 1791 
Q 353 2603 747 3093 
Q 1141 3584 1784 3584 
Q 2172 3584 2450 3431 
Q 2728 3278 2906 2969 
L 2906 3500 
L 3481 3500 
L 3481 434 
z
" transform="scale(0.015625)"/>
       <path id="DejaVuSans-75" d="M 544 1381 
L 544 3500 
L 1119 3500 
L 1119 1403 
Q 1119 906 1312 657 
Q 1506 409 1894 409 
Q 2359 409 2629 706 
Q 2900 1003 2900 1516 
L 2900 3500 
L 3475 3500 
L 3475 0 
L 2900 0 
L 2900 538 
Q 2691 219 2414 64 
Q 2138 -91 1772 -91 
Q 1169 -91 856 284 
Q 544 659 544 1381 
z
M 1991 3584 
L 1991 3584 
z
" transform="scale(0.015625)"/>
       <path id="DejaVuSans-6e" d="M 3513 2113 
L 3513 0 
L 2938 0 
L 2938 2094 
Q 2938 2591 2744 2837 
Q 2550 3084 2163 3084 
Q 1697 3084 1428 2787 
Q 1159 2491 1159 1978 
L 1159 0 
L 581 0 
L 581 3500 
L 1159 3500 
L 1159 2956 
Q 1366 3272 1645 3428 
Q 1925 3584 2291 3584 
Q 2894 3584 3203 3211 
Q 3513 2838 3513 2113 
z
" transform="scale(0.015625)"/>
       <path id="DejaVuSans-64" d="M 2906 2969 
L 2906 4863 
L 3481 4863 
L 3481 0 
L 2906 0 
L 2906 525 
Q 2725 213 2448 61 
Q 2172 -91 1784 -91 
Q 1150 -91 751 415 
Q 353 922 353 1747 
Q 353 2572 751 3078 
Q 1150 3584 1784 3584 
Q 2172 3584 2448 3432 
Q 2725 3281 2906 2969 
z
M 947 1747 
Q 947 1113 1208 752 
Q 1469 391 1925 391 
Q 2381 391 2643 752 
Q 2906 1113 2906 1747 
Q 2906 2381 2643 2742 
Q 2381 3103 1925 3103 
Q 1469 3103 1208 2742 
Q 947 2381 947 1747 
z
" transform="scale(0.015625)"/>
       <path id="DejaVuSans-29" d="M 513 4856 
L 1013 4856 
Q 1481 4119 1714 3412 
Q 1947 2706 1947 2009 
Q 1947 1309 1714 600 
Q 1481 -109 1013 -844 
L 513 -844 
Q 928 -128 1133 580 
Q 1338 1288 1338 2009 
Q 1338 2731 1133 3434 
Q 928 4138 513 4856 
z
" transform="scale(0.015625)"/>
      </defs>
      <use xlink:href="#DejaVuSans-54"/>
      <use xlink:href="#DejaVuSans-69" x="57.958984"/>
      <use xlink:href="#DejaVuSans-65" x="85.742188"/>
      <use xlink:href="#DejaVuSans-6d" x="147.265625"/>
      <use xlink:href="#DejaVuSans-70" x="244.677734"/>
      <use xlink:href="#DejaVuSans-6f" x="308.154297"/>
      <use xlink:href="#DejaVuSans-20" x="369.335938"/>
      <use xlink:href="#DejaVuSans-28" x="401.123047"/>
      <use xlink:href="#DejaVuSans-73" x="440.136719"/>
      <use xlink:href="#DejaVuSans-65" x="492.236328"/>
      <use xlink:href="#DejaVuSans-67" x="553.759766"/>
      <use xlink:href="#DejaVuSans-75" x="617.236328"/>
      <use xlink:href="#DejaVuSans-6e" x="680.615234"/>
      <use xlink:href="#DejaVuSans-64" x="743.994141"/>
      <use xlink:href="#DejaVuSans-6f" x="807.470703"/>
      <use xlink:href="#DejaVuSans-73" x="868.652344"/>
      <use xlink:href="#DejaVuSans-29" x="920.751953"/>
     </g>
    </g>
   </g>
   <g id="matplotlib.axis_2">
    <g id="ytick_1">
     <g id="line2d_15">
      <path d="M 90 369.36 
L 648 369.36 
" clip-path="url(#p8cf07f8432)" style="fill: none; stroke-dasharray: 1.85,0.8; stroke-dashoffset: 0; stroke: #b0b0b0; stroke-width: 0.5"/>
     </g>
     <g id="line2d_16">
      <defs>
       <path id="m87152a17ad" d="M 0 0 
L -3.5 0 
" style="stroke: #000000; stroke-width: 0.8"/>
      </defs>
      <g>
       <use xlink:href="#m87152a17ad" x="90" y="369.36" style="stroke: #000000; stroke-width: 0.8"/>
      </g>
     </g>
     <g id="text_9">
      <!-- 0% -->
      <g transform="translate(67.135937 373.159219) scale(0.1 -0.1)">
       <defs>
        <path id="DejaVuSans-25" d="M 4653 2053 
Q 4381 2053 4226 1822 
Q 4072 1591 4072 1178 
Q 4072 772 4226 539 
Q 4381 306 4653 306 
Q 4919 306 5073 539 
Q 5228 772 5228 1178 
Q 5228 1588 5073 1820 
Q 4919 2053 4653 2053 
z
M 4653 2450 
Q 5147 2450 5437 2106 
Q 5728 1763 5728 1178 
Q 5728 594 5436 251 
Q 5144 -91 4653 -91 
Q 4153 -91 3862 251 
Q 3572 594 3572 1178 
Q 3572 1766 3864 2108 
Q 4156 2450 4653 2450 
z
M 1428 4353 
Q 1159 4353 1004 4120 
Q 850 3888 850 3481 
Q 850 3069 1003 2837 
Q 1156 2606 1428 2606 
Q 1700 2606 1854 2837 
Q 2009 3069 2009 3481 
Q 2009 3884 1853 4118 
Q 1697 4353 1428 4353 
z
M 4250 4750 
L 4750 4750 
L 1831 -91 
L 1331 -91 
L 4250 4750 
z
M 1428 4750 
Q 1922 4750 2215 4408 
Q 2509 4066 2509 3481 
Q 2509 2891 2217 2550 
Q 1925 2209 1428 2209 
Q 931 2209 642 2551 
Q 353 2894 353 3481 
Q 353 4063 643 4406 
Q 934 4750 1428 4750 
z
" transform="scale(0.015625)"/>
       </defs>
       <use xlink:href="#DejaVuSans-30"/>
       <use xlink:href="#DejaVuSans-25" x="63.623047"/>
      </g>
     </g>
    </g>
    <g id="ytick_2">
     <g id="line2d_17">
      <path d="M 90 316.006418 
L 648 316.006418 
" clip-path="url(#p8cf07f8432)" style="fill: none; stroke-dasharray: 1.85,0.8; stroke-dashoffset: 0; stroke: #b0b0b0; stroke-width: 0.5"/>
     </g>
     <g id="line2d_18">
      <g>
       <use xlink:href="#m87152a17ad" x="90" y="316.006418" style="stroke: #000000; stroke-width: 0.8"/>
      </g>
     </g>
     <g id="text_10">
      <!-- 10% -->
      <g transform="translate(60.773438 319.805636) scale(0.1 -0.1)">
       <use xlink:href="#DejaVuSans-31"/>
       <use xlink:href="#DejaVuSans-30" x="63.623047"/>
       <use xlink:href="#DejaVuSans-25" x="127.246094"/>
      </g>
     </g>
    </g>
    <g id="ytick_3">
     <g id="line2d_19">
      <path d="M 90 262.652835 
L 648 262.652835 
" clip-path="url(#p8cf07f8432)" style="fill: none; stroke-dasharray: 1.85,0.8; stroke-dashoffset: 0; stroke: #b0b0b0; stroke-width: 0.5"/>
     </g>
     <g id="line2d_20">
      <g>
       <use xlink:href="#m87152a17ad" x="90" y="262.652835" style="stroke: #000000; stroke-width: 0.8"/>
      </g>
     </g>
     <g id="text_11">
      <!-- 20% -->
      <g transform="translate(60.773438 266.452054) scale(0.1 -0.1)">
       <use xlink:href="#DejaVuSans-32"/>
       <use xlink:href="#DejaVuSans-30" x="63.623047"/>
       <use xlink:href="#DejaVuSans-25" x="127.246094"/>
      </g>
     </g>
    </g>
    <g id="ytick_4">
     <g id="line2d_21">
      <path d="M 90 209.299253 
L 648 209.299253 
" clip-path="url(#p8cf07f8432)" style="fill: none; stroke-dasharray: 1.85,0.8; stroke-dashoffset: 0; stroke: #b0b0b0; stroke-width: 0.5"/>
     </g>
     <g id="line2d_22">
      <g>
       <use xlink:href="#m87152a17ad" x="90" y="209.299253" style="stroke: #000000; stroke-width: 0.8"/>
      </g>
     </g>
     <g id="text_12">
      <!-- 30% -->
      <g transform="translate(60.773438 213.098472) scale(0.1 -0.1)">
       <use xlink:href="#DejaVuSans-33"/>
       <use xlink:href="#DejaVuSans-30" x="63.623047"/>
       <use xlink:href="#DejaVuSans-25" x="127.246094"/>
      </g>
     </g>
    </g>
    <g id="ytick_5">
     <g id="line2d_23">
      <path d="M 90 155.945671 
L 648 155.945671 
" clip-path="url(#p8cf07f8432)" style="fill: none; stroke-dasharray: 1.85,0.8; stroke-dashoffset: 0; stroke: #b0b0b0; stroke-width: 0.5"/>
     </g>
     <g id="line2d_24">
      <g>
       <use xlink:href="#m87152a17ad" x="90" y="155.945671" style="stroke: #000000; stroke-width: 0.8"/>
      </g>
     </g>
     <g id="text_13">
      <!-- 40% -->
      <g transform="translate(60.773438 159.74489) scale(0.1 -0.1)">
       <defs>
        <path id="DejaVuSans-34" d="M 2419 4116 
L 825 1625 
L 2419 1625 
L 2419 4116 
z
M 2253 4666 
L 3047 4666 
L 3047 1625 
L 3713 1625 
L 3713 1100 
L 3047 1100 
L 3047 0 
L 2419 0 
L 2419 1100 
L 313 1100 
L 313 1709 
L 2253 4666 
z
" transform="scale(0.015625)"/>
       </defs>
       <use xlink:href="#DejaVuSans-34"/>
       <use xlink:href="#DejaVuSans-30" x="63.623047"/>
       <use xlink:href="#DejaVuSans-25" x="127.246094"/>
      </g>
     </g>
    </g>
    <g id="ytick_6">
     <g id="line2d_25">
      <path d="M 90 102.592089 
L 648 102.592089 
" clip-path="url(#p8cf07f8432)" style="fill: none; stroke-dasharray: 1.85,0.8; stroke-dashoffset: 0; stroke: #b0b0b0; stroke-width: 0.5"/>
     </g>
     <g id="line2d_26">
      <g>
       <use xlink:href="#m87152a17ad" x="90" y="102.592089" style="stroke: #000000; stroke-width: 0.8"/>
      </g>
     </g>
     <g id="text_14">
      <!-- 50% -->
      <g transform="translate(60.773438 106.391307) scale(0.1 -0.1)">
       <use xlink:href="#DejaVuSans-35"/>
       <use xlink:href="#DejaVuSans-30" x="63.623047"/>
       <use xlink:href="#DejaVuSans-25" x="127.246094"/>
      </g>
     </g>
    </g>
    <g id="text_15">
     <!-- Porcentaje de mejora -->
     <g transform="translate(54.69375 271.424062) rotate(-90) scale(0.1 -0.1)">
      <defs>
       <path id="DejaVuSans-50" d="M 1259 4147 
L 1259 2394 
L 2053 2394 
Q 2494 2394 2734 2622 
Q 2975 2850 2975 3272 
Q 2975 3691 2734 3919 
Q 2494 4147 2053 4147 
L 1259 4147 
z
M 628 4666 
L 2053 4666 
Q 2838 4666 3239 4311 
Q 3641 3956 3641 3272 
Q 3641 2581 3239 2228 
Q 2838 1875 2053 1875 
L 1259 1875 
L 1259 0 
L 628 0 
L 628 4666 
z
" transform="scale(0.015625)"/>
       <path id="DejaVuSans-72" d="M 2631 2963 
Q 2534 3019 2420 3045 
Q 2306 3072 2169 3072 
Q 1681 3072 1420 2755 
Q 1159 2438 1159 1844 
L 1159 0 
L 581 0 
L 581 3500 
L 1159 3500 
L 1159 2956 
Q 1341 3275 1631 3429 
Q 1922 3584 2338 3584 
Q 2397 3584 2469 3576 
Q 2541 3569 2628 3553 
L 2631 2963 
z
" transform="scale(0.015625)"/>
       <path id="DejaVuSans-63" d="M 3122 3366 
L 3122 2828 
Q 2878 2963 2633 3030 
Q 2388 3097 2138 3097 
Q 1578 3097 1268 2742 
Q 959 2388 959 1747 
Q 959 1106 1268 751 
Q 1578 397 2138 397 
Q 2388 397 2633 464 
Q 2878 531 3122 666 
L 3122 134 
Q 2881 22 2623 -34 
Q 2366 -91 2075 -91 
Q 1284 -91 818 406 
Q 353 903 353 1747 
Q 353 2603 823 3093 
Q 1294 3584 2113 3584 
Q 2378 3584 2631 3529 
Q 2884 3475 3122 3366 
z
" transform="scale(0.015625)"/>
       <path id="DejaVuSans-74" d="M 1172 4494 
L 1172 3500 
L 2356 3500 
L 2356 3053 
L 1172 3053 
L 1172 1153 
Q 1172 725 1289 603 
Q 1406 481 1766 481 
L 2356 481 
L 2356 0 
L 1766 0 
Q 1100 0 847 248 
Q 594 497 594 1153 
L 594 3053 
L 172 3053 
L 172 3500 
L 594 3500 
L 594 4494 
L 1172 4494 
z
" transform="scale(0.015625)"/>
       <path id="DejaVuSans-61" d="M 2194 1759 
Q 1497 1759 1228 1600 
Q 959 1441 959 1056 
Q 959 750 1161 570 
Q 1363 391 1709 391 
Q 2188 391 2477 730 
Q 2766 1069 2766 1631 
L 2766 1759 
L 2194 1759 
z
M 3341 1997 
L 3341 0 
L 2766 0 
L 2766 531 
Q 2569 213 2275 61 
Q 1981 -91 1556 -91 
Q 1019 -91 701 211 
Q 384 513 384 1019 
Q 384 1609 779 1909 
Q 1175 2209 1959 2209 
L 2766 2209 
L 2766 2266 
Q 2766 2663 2505 2880 
Q 2244 3097 1772 3097 
Q 1472 3097 1187 3025 
Q 903 2953 641 2809 
L 641 3341 
Q 956 3463 1253 3523 
Q 1550 3584 1831 3584 
Q 2591 3584 2966 3190 
Q 3341 2797 3341 1997 
z
" transform="scale(0.015625)"/>
       <path id="DejaVuSans-6a" d="M 603 3500 
L 1178 3500 
L 1178 -63 
Q 1178 -731 923 -1031 
Q 669 -1331 103 -1331 
L -116 -1331 
L -116 -844 
L 38 -844 
Q 366 -844 484 -692 
Q 603 -541 603 -63 
L 603 3500 
z
M 603 4863 
L 1178 4863 
L 1178 4134 
L 603 4134 
L 603 4863 
z
" transform="scale(0.015625)"/>
      </defs>
      <use xlink:href="#DejaVuSans-50"/>
      <use xlink:href="#DejaVuSans-6f" x="56.677734"/>
      <use xlink:href="#DejaVuSans-72" x="117.859375"/>
      <use xlink:href="#DejaVuSans-63" x="156.722656"/>
      <use xlink:href="#DejaVuSans-65" x="211.703125"/>
      <use xlink:href="#DejaVuSans-6e" x="273.226562"/>
      <use xlink:href="#DejaVuSans-74" x="336.605469"/>
      <use xlink:href="#DejaVuSans-61" x="375.814453"/>
      <use xlink:href="#DejaVuSans-6a" x="437.09375"/>
      <use xlink:href="#DejaVuSans-65" x="464.876953"/>
      <use xlink:href="#DejaVuSans-20" x="526.400391"/>
      <use xlink:href="#DejaVuSans-64" x="558.1875"/>
      <use xlink:href="#DejaVuSans-65" x="621.664062"/>
      <use xlink:href="#DejaVuSans-20" x="683.1875"/>
      <use xlink:href="#DejaVuSans-6d" x="714.974609"/>
      <use xlink:href="#DejaVuSans-65" x="812.386719"/>
      <use xlink:href="#DejaVuSans-6a" x="873.910156"/>
      <use xlink:href="#DejaVuSans-6f" x="901.693359"/>
      <use xlink:href="#DejaVuSans-72" x="962.875"/>
      <use xlink:href="#DejaVuSans-61" x="1003.988281"/>
     </g>
    </g>
   </g>
   <g id="line2d_27">
    <path d="M 115.363636 369.36 
L 115.701593 349.601525 
L 116.377506 328.634629 
L 116.546484 327.526171 
L 117.222397 316.655427 
L 117.560354 314.258832 
L 117.89831 310.015611 
L 118.574223 306.866682 
L 119.250136 303.876049 
L 119.588093 303.36705 
L 119.926049 302.690436 
L 120.432984 301.780624 
L 120.601962 301.613158 
L 120.939919 300.737428 
L 121.108897 300.221926 
L 121.446854 300.00245 
L 121.78481 299.14421 
L 122.122767 298.576427 
L 122.967658 297.608625 
L 123.136636 297.442503 
L 123.305614 296.619977 
L 123.643571 296.238771 
L 124.150506 295.066353 
L 125.502332 294.014829 
L 126.347223 293.79506 
L 126.854158 293.478652 
L 127.361093 292.510407 
L 127.699049 292.119544 
L 128.881897 291.324736 
L 129.219853 290.568182 
L 129.388832 290.376611 
L 130.233723 290.230993 
L 131.078614 289.709824 
L 131.585549 289.491613 
L 131.923506 289.370816 
L 132.092484 289.326863 
L 132.768397 288.703325 
L 133.106353 288.582266 
L 133.44431 288.501291 
L 133.951245 288.222636 
L 134.289201 287.983718 
L 134.627158 287.760647 
L 136.654897 287.065567 
L 136.992853 286.932002 
L 137.837745 286.825423 
L 138.513658 286.218088 
L 138.851614 286.065417 
L 139.696505 285.872539 
L 140.034462 285.713251 
L 141.048331 285.395509 
L 142.062201 284.731556 
L 142.907092 284.435588 
L 143.583005 284.329948 
L 144.596875 284.046907 
L 144.934831 283.792218 
L 145.779723 283.441995 
L 146.793592 282.94388 
L 147.469505 282.851323 
L 148.990309 282.515115 
L 151.86294 281.80571 
L 152.369875 281.492631 
L 153.552722 281.387919 
L 156.087396 281.092362 
L 156.763309 281.01859 
L 157.608201 280.921593 
L 158.115135 280.869221 
L 159.297983 280.792899 
L 159.804918 280.74065 
L 160.480831 280.669006 
L 160.987766 280.607057 
L 161.325722 280.602981 
L 161.494701 280.399411 
L 167.239961 279.791521 
L 167.915874 279.690896 
L 170.112592 279.58627 
L 173.830113 279.048413 
L 174.337048 278.780599 
L 175.350918 278.706667 
L 175.857852 278.561054 
L 176.364787 278.48716 
L 176.702744 278.406756 
L 182.110048 278.105468 
L 183.123917 278.035772 
L 185.658591 277.953672 
L 186.334504 277.87632 
L 189.376113 277.871251 
L 189.714069 277.539765 
L 191.065895 277.524352 
L 192.417722 277.425957 
L 192.924656 277.169598 
L 193.262613 277.169598 
L 193.600569 276.931033 
L 194.276482 276.818292 
L 210.160438 276.450269 
L 216.074677 276.371167 
L 216.750591 276.336205 
L 219.116286 276.228137 
L 219.792199 276.031182 
L 223.171764 275.953787 
L 223.678699 275.82298 
L 239.05572 275.73014 
L 239.731633 275.693283 
L 249.701351 275.587697 
L 251.053177 275.476838 
L 254.432742 275.367234 
L 254.939677 275.326472 
L 257.136394 275.251105 
L 257.643329 275.187923 
L 258.995155 275.119722 
L 260.178003 275.049823 
L 260.684937 275.002872 
L 264.064502 274.907332 
L 265.754285 274.749544 
L 266.768155 274.650194 
L 268.288959 274.63693 
L 270.823633 274.541321 
L 271.330568 274.495362 
L 277.582763 274.396066 
L 278.596633 274.288606 
L 282.483132 274.18518 
L 282.990067 274.047496 
L 287.045545 273.9482 
L 289.242263 273.854191 
L 293.635697 273.768852 
L 294.142632 273.585273 
L 304.281328 273.487294 
L 305.126219 273.462469 
L 307.491914 273.375705 
L 307.829871 273.311883 
L 319.489371 273.200812 
L 320.165284 273.095433 
L 325.572588 272.994078 
L 327.262371 272.967785 
L 342.80837 272.954425 
L 342.977348 272.735233 
L 362.071891 272.698376 
L 362.409848 272.309903 
L 363.085761 272.15362 
L 363.423718 272.031029 
L 385.559869 271.96048 
L 386.066804 271.786072 
L 399.923021 271.678405 
L 401.781782 271.655516 
L 421.552238 271.553803 
L 422.566107 271.502471 
L 435.070498 271.410682 
L 436.084368 271.388882 
L 475.963237 271.289249 
L 476.977106 271.267449 
L 508.57604 271.200005 
L 508.913997 271.133932 
L 525.304888 271.080983 
L 525.811822 270.807173 
L 616.384168 270.697243 
L 622.636364 270.694629 
L 622.636364 270.694629 
" clip-path="url(#p8cf07f8432)" style="fill: none; stroke-dasharray: 5.55,2.4; stroke-dashoffset: 0; stroke: #e41a1c; stroke-opacity: 0.5; stroke-width: 1.5"/>
   </g>
   <g id="line2d_28">
    <path d="M 115.363636 369.36 
L 115.532615 307.872803 
L 115.870571 296.539595 
L 116.377506 285.23618 
L 116.715462 279.689909 
L 117.391375 274.622125 
L 118.405245 270.217632 
L 119.588093 267.493366 
L 119.926049 267.191321 
L 120.264006 266.589476 
L 120.770941 265.651515 
L 121.108897 264.467711 
L 121.446854 264.053997 
L 121.78481 263.559094 
L 122.291745 263.221329 
L 122.79868 263.12582 
L 123.136636 262.896421 
L 123.474593 262.674289 
L 123.812549 262.610574 
L 124.150506 262.48975 
L 124.826419 262.233274 
L 125.164375 262.020019 
L 126.854158 261.918941 
L 128.205984 261.660011 
L 130.571679 261.590117 
L 130.909636 261.486345 
L 131.416571 261.45135 
L 131.923506 261.212972 
L 133.613288 261.117266 
L 134.120223 261.044662 
L 135.641027 260.984234 
L 136.147962 260.93015 
L 137.668766 260.653901 
L 138.175701 260.514728 
L 139.527527 260.445064 
L 140.034462 260.333561 
L 140.710375 260.245239 
L 143.414027 260.155365 
L 143.920962 260.105869 
L 148.652353 260.024617 
L 149.159288 259.873215 
L 149.497244 259.756099 
L 150.680092 259.739778 
L 151.693962 259.695911 
L 152.031918 259.595515 
L 164.536309 259.490931 
L 167.070983 259.463902 
L 170.788505 259.357163 
L 171.633396 259.289874 
L 181.096178 259.183716 
L 183.630852 259.176273 
L 185.996548 259.102235 
L 186.503483 259.049356 
L 201.204591 258.940739 
L 202.049482 258.776991 
L 218.609351 258.695029 
L 218.947308 258.6361 
L 249.194416 258.541174 
L 250.377264 258.501004 
L 268.964872 258.416011 
L 269.640785 258.386053 
L 318.982436 258.291602 
L 319.658349 258.260171 
L 384.377021 258.173471 
L 385.390891 258.117402 
L 461.431107 258.012392 
L 462.444976 257.961252 
L 622.636364 257.948992 
L 622.636364 257.948992 
" clip-path="url(#p8cf07f8432)" style="fill: none; stroke: #e41a1c; stroke-width: 1.5; stroke-linecap: square"/>
   </g>
   <g id="line2d_29">
    <path d="M 115.363636 369.36 
L 115.701593 354.899168 
L 116.377506 332.346822 
L 117.053419 315.929919 
L 117.222397 314.717587 
L 118.067288 302.403959 
L 118.236267 301.670716 
L 118.574223 298.626414 
L 118.91218 294.380978 
L 119.588093 289.212334 
L 119.757071 288.430501 
L 120.095028 285.638535 
L 120.264006 284.799598 
L 120.432984 284.614952 
L 120.939919 282.337143 
L 121.277875 281.217956 
L 121.446854 280.909231 
L 121.615832 279.998805 
L 121.78481 279.811545 
L 122.122767 278.543874 
L 122.629701 277.584945 
L 123.474593 275.855019 
L 123.812549 275.400372 
L 123.981527 274.635047 
L 124.488462 274.423148 
L 124.826419 274.120329 
L 125.164375 273.489087 
L 125.502332 273.263454 
L 126.009267 272.56234 
L 126.178245 272.451877 
L 126.347223 272.206205 
L 126.516201 271.515917 
L 127.530071 270.814002 
L 128.205984 270.622319 
L 129.050875 270.164657 
L 129.388832 270.021141 
L 130.233723 269.870705 
L 131.078614 268.883525 
L 131.247593 268.349627 
L 132.092484 268.089987 
L 133.275332 267.307306 
L 133.951245 266.575183 
L 134.120223 266.303544 
L 134.627158 266.198693 
L 135.134092 265.815801 
L 136.31694 265.593978 
L 136.654897 264.936059 
L 136.823875 264.936059 
L 137.33081 264.705161 
L 138.513658 264.418674 
L 139.020592 264.264578 
L 139.865484 264.071865 
L 140.372418 263.826299 
L 141.21731 263.66419 
L 141.386288 263.422872 
L 141.724244 263.358042 
L 142.907092 262.746898 
L 143.414027 262.230328 
L 144.08994 262.106681 
L 144.596875 261.936516 
L 145.441766 261.648972 
L 145.948701 261.312289 
L 146.793592 261.137156 
L 146.96257 260.732816 
L 147.638483 260.625255 
L 148.145418 260.444611 
L 148.990309 259.98521 
L 149.666223 259.720997 
L 150.004179 259.541921 
L 150.342136 259.444348 
L 150.680092 259.13923 
L 151.356005 259.062294 
L 151.693962 258.928265 
L 152.200896 258.454602 
L 153.045788 258.269865 
L 153.552722 258.06065 
L 153.721701 257.910262 
L 153.890679 257.608772 
L 154.566592 257.327748 
L 154.73557 257.08532 
L 154.904548 257.074809 
L 155.411483 256.746765 
L 156.256375 256.617846 
L 156.763309 256.392737 
L 157.270244 256.338263 
L 158.284114 256.256867 
L 159.129005 255.966154 
L 161.663679 255.540958 
L 161.832657 255.47457 
L 162.339592 254.804017 
L 162.677548 254.546319 
L 163.353461 254.424875 
L 163.691418 254.31509 
L 163.860396 254.31509 
L 164.367331 253.753517 
L 165.212222 253.399569 
L 166.057113 253.30413 
L 168.591787 252.502503 
L 169.098722 252.194093 
L 171.633396 251.674285 
L 172.140331 251.128008 
L 174.506026 250.925985 
L 176.702744 250.464316 
L 177.0407 250.237035 
L 177.547635 249.99194 
L 177.885591 249.77215 
L 178.392526 249.727674 
L 178.730483 249.60058 
L 179.744352 249.538904 
L 180.082309 249.422822 
L 181.772091 249.181749 
L 182.785961 248.945953 
L 183.292896 248.839865 
L 183.630852 248.452689 
L 183.968809 248.258909 
L 184.982678 248.0934 
L 185.658591 247.770515 
L 185.996548 247.700446 
L 187.855309 247.462862 
L 188.193265 247.355152 
L 188.7002 247.264825 
L 189.376113 247.227643 
L 190.052026 247.121885 
L 193.093635 246.73226 
L 194.952395 246.627719 
L 195.290352 246.489768 
L 195.966265 246.196633 
L 196.304221 246.099124 
L 196.642178 246.038311 
L 196.980134 245.864309 
L 197.656047 245.276241 
L 198.838895 245.183176 
L 199.514808 244.86624 
L 200.190721 244.610319 
L 200.866634 244.456425 
L 202.894373 244.209382 
L 203.401308 243.639337 
L 204.077221 243.562844 
L 204.2462 243.562844 
L 204.753134 243.218073 
L 205.935982 243.174734 
L 206.611895 242.902161 
L 207.11883 242.838462 
L 207.625765 242.755268 
L 208.301678 242.668398 
L 208.808612 242.493958 
L 215.736721 241.373816 
L 217.933438 241.300534 
L 218.440373 241.249555 
L 219.454243 241.176765 
L 220.130156 241.114218 
L 223.847677 240.544514 
L 224.354612 240.416951 
L 225.53746 240.266382 
L 226.889286 239.921013 
L 229.42396 239.546034 
L 229.761916 239.461586 
L 231.958634 239.386816 
L 233.479438 238.967596 
L 235.000242 238.857415 
L 235.169221 238.827841 
L 235.507177 238.411192 
L 237.027981 238.3507 
L 237.365938 237.989694 
L 238.379807 237.914412 
L 238.717764 237.477868 
L 242.097329 236.975362 
L 242.604264 236.72539 
L 243.449155 236.632907 
L 243.95609 236.479313 
L 245.307916 236.394688 
L 246.321785 236.143281 
L 247.673612 235.895662 
L 248.856459 235.866648 
L 249.532372 235.557704 
L 250.71522 235.379925 
L 253.418872 235.294015 
L 254.094785 235.229436 
L 255.784568 235.040873 
L 256.122524 234.919265 
L 258.826176 234.81451 
L 260.684937 234.762917 
L 261.022894 234.698039 
L 261.36085 234.633167 
L 263.388589 234.433763 
L 264.064502 234.388973 
L 265.24735 234.249672 
L 266.092242 234.221592 
L 267.444068 234.116992 
L 267.613046 234.09397 
L 267.782024 233.876117 
L 268.964872 233.611008 
L 269.471807 233.50755 
L 272.513415 233.220294 
L 274.03422 233.063109 
L 276.230937 232.953121 
L 277.244806 232.816872 
L 277.92072 232.545846 
L 279.610502 232.44424 
L 280.286415 232.296024 
L 283.497002 232.192374 
L 284.67985 232.036405 
L 285.017806 231.947582 
L 285.355763 231.858759 
L 286.369632 231.760322 
L 286.707589 231.685104 
L 288.059415 231.574118 
L 288.904306 231.476369 
L 290.087154 231.367351 
L 291.270002 231.324167 
L 292.114893 231.220522 
L 293.128763 231.106399 
L 293.466719 231.077262 
L 293.804676 230.947768 
L 294.480589 230.891981 
L 294.987523 230.794163 
L 296.508328 230.706823 
L 297.522197 230.621548 
L 297.691176 230.621548 
L 298.19811 230.23243 
L 299.21198 229.993576 
L 299.887893 229.876935 
L 301.915632 229.720465 
L 303.943371 229.613603 
L 307.998849 229.08362 
L 308.843741 228.954916 
L 310.87148 228.876854 
L 311.378414 228.776533 
L 312.392284 228.687054 
L 313.406153 228.409391 
L 313.913088 228.098431 
L 314.589001 228.015364 
L 317.63061 227.948411 
L 318.137545 227.755986 
L 319.827327 227.673827 
L 320.50324 227.644866 
L 321.855066 227.551007 
L 322.699958 227.527819 
L 323.882805 227.452964 
L 324.38974 227.363442 
L 326.586458 227.278338 
L 327.262371 227.210067 
L 327.769305 227.119184 
L 328.27624 227.071481 
L 331.486827 227.009116 
L 331.993762 226.867019 
L 333.345588 226.769131 
L 333.683544 226.681082 
L 334.021501 226.589159 
L 337.570044 226.326638 
L 337.908001 226.157934 
L 338.752892 226.11571 
L 341.118588 226.004996 
L 345.343044 225.747832 
L 347.370783 225.639492 
L 347.70874 225.497001 
L 348.553631 225.331492 
L 350.074435 225.259412 
L 350.750348 224.879486 
L 351.088305 224.804274 
L 351.426261 224.729061 
L 356.495609 224.64584 
L 358.692326 224.359998 
L 360.720065 224.249871 
L 361.733935 224.19377 
L 363.592696 224.096272 
L 364.268609 224.065625 
L 367.817152 223.972091 
L 369 223.847233 
L 370.01387 223.825646 
L 373.224456 223.481612 
L 373.562413 223.372477 
L 374.238326 223.271313 
L 374.745261 223.217618 
L 376.097087 223.125765 
L 376.604022 222.931819 
L 386.066804 222.506644 
L 386.742717 222.380479 
L 388.939434 222.31041 
L 390.798195 222.206226 
L 392.150021 222.136861 
L 394.008782 222.046438 
L 395.360608 221.959946 
L 396.712434 221.914505 
L 397.050391 221.824786 
L 399.416086 221.741618 
L 399.923021 221.684647 
L 402.795651 221.597611 
L 403.302586 221.548158 
L 407.020108 221.452772 
L 407.864999 221.383205 
L 409.047847 221.276156 
L 410.568651 221.216587 
L 411.075586 221.178999 
L 411.413542 221.099732 
L 414.455151 220.879365 
L 415.806977 220.771943 
L 416.48289 220.690542 
L 419.355521 220.597482 
L 419.862455 220.555845 
L 423.24202 220.453113 
L 425.776694 220.331942 
L 434.732542 220.096012 
L 442.505542 219.989369 
L 443.181455 219.960883 
L 449.264672 219.861891 
L 449.771607 219.815234 
L 452.982194 219.749854 
L 453.658107 219.656533 
L 457.20665 219.549597 
L 458.389498 219.409351 
L 463.289867 219.320795 
L 463.96578 219.241202 
L 468.359215 219.160404 
L 469.035128 219.122795 
L 482.553389 218.676849 
L 483.060323 218.459519 
L 486.946823 218.37131 
L 487.960693 218.33289 
L 491.678215 218.237568 
L 492.861062 218.196139 
L 504.520562 218.116525 
L 505.196475 218.035966 
L 509.927866 217.945388 
L 510.434801 217.819292 
L 514.659257 217.722338 
L 516.518018 217.62437 
L 525.642844 217.53734 
L 526.487735 217.395254 
L 540.174974 217.2843 
L 541.864757 217.103815 
L 542.371692 216.925988 
L 546.765126 216.859306 
L 547.103083 216.79262 
L 549.468778 216.697485 
L 550.651626 216.541548 
L 558.255648 216.442007 
L 560.114409 216.341382 
L 564.8458 216.230844 
L 565.859669 216.209252 
L 568.394343 216.17772 
L 569.070256 215.922012 
L 572.280843 215.855325 
L 572.6188 215.762447 
L 580.222821 215.529383 
L 580.898734 215.463064 
L 583.26443 215.357819 
L 584.616256 215.2821 
L 587.657864 215.202982 
L 588.840712 215.022177 
L 599.993277 214.918036 
L 600.66919 214.804089 
L 602.865908 214.704478 
L 604.386712 214.691385 
L 617.735994 214.581151 
L 619.08782 214.465347 
L 622.636364 214.412965 
L 622.636364 214.412965 
" clip-path="url(#p8cf07f8432)" style="fill: none; stroke-dasharray: 5.55,2.4; stroke-dashoffset: 0; stroke: #377eb8; stroke-opacity: 0.5; stroke-width: 1.5"/>
   </g>
   <g id="line2d_30">
    <path d="M 115.363636 369.36 
L 115.701593 237.322374 
L 116.208528 227.215487 
L 117.222397 210.095097 
L 117.391375 208.05604 
L 117.729332 206.376384 
L 118.236267 202.831348 
L 118.405245 202.507054 
L 120.601962 194.758359 
L 121.108897 193.731414 
L 121.953788 192.905111 
L 122.967658 190.916703 
L 123.136636 190.852519 
L 123.305614 190.642274 
L 123.812549 189.675272 
L 124.319484 188.743825 
L 124.65744 188.063279 
L 125.502332 187.568841 
L 126.009267 187.019411 
L 126.516201 186.73136 
L 127.699049 185.568124 
L 129.388832 184.637755 
L 129.726788 184.6092 
L 130.402701 184.217473 
L 130.740658 184.13573 
L 131.754527 183.825687 
L 132.261462 183.680325 
L 132.768397 183.090592 
L 132.937375 182.777524 
L 133.951245 182.43334 
L 134.796136 181.831196 
L 134.965114 181.831196 
L 135.303071 181.490347 
L 135.641027 181.305584 
L 136.654897 181.136634 
L 136.992853 181.012763 
L 137.668766 180.662993 
L 139.358549 180.327719 
L 139.865484 180.037033 
L 141.555266 179.938638 
L 143.07607 179.171856 
L 143.920962 179.113754 
L 144.427897 178.823831 
L 145.10381 178.733722 
L 146.117679 178.528327 
L 147.638483 178.446536 
L 148.990309 178.214042 
L 150.511114 178.129023 
L 151.356005 177.922476 
L 153.552722 177.690969 
L 154.059657 177.498971 
L 154.904548 177.389772 
L 156.256375 177.187237 
L 157.439222 177.098163 
L 157.777179 176.967174 
L 158.960027 176.836186 
L 160.649809 176.435271 
L 161.494701 176.376641 
L 163.860396 176.376641 
L 164.198353 176.242563 
L 164.536309 176.145028 
L 164.874266 176.075892 
L 167.577918 175.985767 
L 168.591787 175.805619 
L 169.098722 175.711066 
L 169.436679 175.551005 
L 170.619526 175.449345 
L 171.802374 175.411363 
L 172.985222 175.311911 
L 178.561504 174.656068 
L 178.899461 174.556393 
L 179.068439 174.340273 
L 181.772091 174.273821 
L 182.448004 174.15837 
L 183.461874 174.066778 
L 183.79983 174.000326 
L 186.165526 173.930779 
L 186.841439 173.834705 
L 189.883048 173.742692 
L 190.558961 173.705617 
L 193.938526 173.629139 
L 194.614439 173.535525 
L 200.528678 173.440497 
L 201.711526 173.422042 
L 206.273939 173.314593 
L 207.287808 173.236276 
L 211.681243 173.176376 
L 212.188178 173.011305 
L 214.384895 172.908669 
L 215.229786 172.884035 
L 228.072134 172.785657 
L 230.775786 172.618601 
L 237.19696 172.61564 
L 240.407546 172.529378 
L 241.252438 172.457532 
L 246.152807 172.397168 
L 246.659742 172.238521 
L 254.432742 172.128431 
L 261.022894 172.107687 
L 263.726546 172.057743 
L 264.233481 171.853991 
L 273.02035 171.746393 
L 275.89298 171.429185 
L 276.230937 171.352777 
L 279.610502 171.242762 
L 279.77948 171.234369 
L 280.117437 170.90816 
L 282.821089 170.811238 
L 284.341893 170.678953 
L 286.369632 170.647443 
L 291.607958 170.571937 
L 292.45285 170.426527 
L 298.874023 170.322076 
L 301.408697 170.233163 
L 313.913088 170.129683 
L 315.771849 169.972045 
L 316.954697 169.935178 
L 317.461632 169.820446 
L 332.500697 169.717591 
L 334.697414 169.697605 
L 351.426261 169.602726 
L 352.271153 169.543525 
L 380.490521 169.438376 
L 381.842348 169.401466 
L 407.189086 169.314238 
L 408.033977 169.252807 
L 412.089456 169.154038 
L 412.765369 169.044973 
L 436.591303 168.933998 
L 440.477803 168.821854 
L 465.148628 168.74463 
L 465.824541 168.627433 
L 474.442432 168.52692 
L 475.456302 168.423308 
L 480.694628 168.319642 
L 481.201563 168.267809 
L 560.452365 168.200279 
L 560.790322 168.117608 
L 602.358973 168.043612 
L 602.865908 168.001132 
L 620.10169 167.897092 
L 621.453516 167.869546 
L 622.467385 167.869546 
L 622.467385 167.869546 
" clip-path="url(#p8cf07f8432)" style="fill: none; stroke: #377eb8; stroke-width: 1.5; stroke-linecap: square"/>
   </g>
   <g id="line2d_31">
    <path d="M 115.363636 369.36 
L 115.870571 356.114178 
L 116.208528 338.213299 
L 116.884441 324.472271 
L 117.729332 307.801789 
L 119.588093 283.378312 
L 119.757071 282.923803 
L 119.926049 281.832152 
L 120.432984 277.152141 
L 120.601962 276.545649 
L 121.277875 272.331533 
L 121.446854 271.911549 
L 122.122767 267.466902 
L 122.460723 265.701913 
L 122.79868 265.545688 
L 122.967658 265.507391 
L 123.474593 263.707513 
L 123.812549 263.251953 
L 124.319484 261.246969 
L 125.333354 260.869577 
L 125.67131 260.512274 
L 126.009267 260.305801 
L 126.68518 259.297802 
L 127.023136 259.129813 
L 127.361093 258.920165 
L 127.530071 258.875674 
L 127.868027 258.590259 
L 128.54394 258.483237 
L 128.881897 258.325204 
L 129.050875 258.308445 
L 129.55781 257.425764 
L 130.064745 257.113634 
L 130.571679 257.054231 
L 130.909636 256.023141 
L 131.247593 255.758091 
L 131.585549 255.561003 
L 132.261462 255.426978 
L 133.106353 254.630986 
L 133.44431 254.490948 
L 133.782266 254.490948 
L 134.289201 253.521034 
L 134.965114 253.295401 
L 135.810005 253.211903 
L 136.31694 252.870915 
L 137.837745 252.20184 
L 138.344679 252.093254 
L 138.682636 251.610212 
L 139.189571 251.577475 
L 139.527527 251.064299 
L 140.710375 250.890814 
L 141.386288 250.561286 
L 141.724244 250.356169 
L 141.893223 250.356169 
L 142.231179 250.044834 
L 142.569136 249.592369 
L 142.907092 249.518885 
L 143.414027 249.313714 
L 143.751984 249.239777 
L 144.258918 249.116898 
L 144.765853 248.987804 
L 145.10381 248.69246 
L 146.624614 248.418687 
L 147.469505 248.185649 
L 147.807462 248.115281 
L 147.97644 247.756547 
L 148.314396 246.328331 
L 148.483375 246.147873 
L 148.821331 245.635134 
L 149.328266 245.527483 
L 150.173157 244.438269 
L 150.84907 244.438269 
L 151.187027 244.085863 
L 151.524983 244.023952 
L 153.383744 243.405989 
L 153.721701 243.360906 
L 154.228635 242.717109 
L 154.904548 242.49112 
L 155.242505 242.328573 
L 157.608201 242.221545 
L 162.001635 241.308954 
L 162.339592 240.628365 
L 162.846527 240.454869 
L 164.029374 240.370928 
L 167.577918 239.509615 
L 168.084853 239.029923 
L 168.422809 238.896587 
L 170.619526 238.755478 
L 170.957483 238.323511 
L 171.802374 238.128851 
L 173.1542 237.414969 
L 173.999092 237.307168 
L 174.506026 237.233887 
L 175.012961 236.751709 
L 175.519896 236.61044 
L 176.364787 236.576443 
L 176.871722 236.434389 
L 178.05457 236.407237 
L 178.561504 236.218712 
L 180.589244 236.118733 
L 182.448004 235.972053 
L 182.785961 235.319662 
L 183.123917 235.06143 
L 183.461874 234.876117 
L 183.79983 234.661209 
L 184.644722 234.22833 
L 185.827569 234.046101 
L 186.165526 233.656492 
L 186.841439 233.568763 
L 187.348374 233.502674 
L 187.68633 233.360081 
L 188.193265 233.252248 
L 189.883048 232.853851 
L 190.221004 232.787426 
L 190.727939 232.681034 
L 191.910787 232.537251 
L 195.797287 231.572714 
L 196.980134 231.498404 
L 197.318091 231.266017 
L 198.500939 230.541897 
L 199.683787 230.45182 
L 200.190721 230.309926 
L 200.528678 230.179706 
L 200.866634 230.090381 
L 201.204591 229.714511 
L 202.387439 229.627139 
L 204.077221 228.822263 
L 204.415178 228.720106 
L 204.922113 228.681601 
L 205.260069 228.295476 
L 205.429047 228.275981 
L 205.767004 227.827058 
L 206.949852 227.735898 
L 207.456786 227.650223 
L 207.963721 226.762937 
L 208.470656 226.341684 
L 208.808612 225.751246 
L 210.329417 225.642693 
L 211.174308 225.333296 
L 211.512265 225.168417 
L 213.371025 225.018664 
L 214.046938 224.917922 
L 214.553873 224.553725 
L 215.905699 224.456174 
L 216.243656 223.799439 
L 217.257525 223.780573 
L 217.933438 223.232258 
L 218.609351 223.149411 
L 219.116286 223.040025 
L 219.454243 222.954153 
L 220.299134 222.658329 
L 220.468112 222.630697 
L 220.806069 222.311301 
L 221.819938 222.246844 
L 222.157895 222.000959 
L 222.495851 221.831081 
L 223.171764 221.831081 
L 223.509721 221.33 
L 223.847677 221.062715 
L 225.030525 220.977861 
L 225.53746 220.762724 
L 231.113742 219.925057 
L 231.451699 219.311704 
L 232.465568 219.217172 
L 232.803525 218.944396 
L 233.479438 218.927286 
L 233.986373 218.737123 
L 234.662286 218.689718 
L 235.169221 218.48595 
L 235.676155 218.389396 
L 237.027981 218.119096 
L 237.534916 218.033805 
L 237.872873 217.767123 
L 238.210829 217.254118 
L 241.759373 217.146151 
L 242.435286 217.092168 
L 243.111199 217.043515 
L 243.618133 216.765826 
L 244.294046 216.629016 
L 247.335655 216.418366 
L 248.180546 216.364879 
L 248.687481 216.09627 
L 248.856459 216.08099 
L 249.363394 214.975968 
L 249.701351 214.944414 
L 250.208285 214.758253 
L 251.053177 214.648766 
L 251.898068 213.595108 
L 252.405003 213.513642 
L 252.911937 213.308353 
L 253.756829 213.061902 
L 254.432742 212.968038 
L 255.446611 212.733506 
L 255.784568 212.628831 
L 256.460481 212.56358 
L 256.967416 212.294774 
L 258.48822 212.19146 
L 258.995155 212.006643 
L 260.346981 211.901062 
L 262.37472 211.755017 
L 263.388589 211.652231 
L 264.064502 211.570686 
L 265.24735 211.495767 
L 266.430198 211.156539 
L 267.782024 211.089778 
L 268.457937 210.931558 
L 269.809763 210.874208 
L 270.485676 210.569485 
L 270.992611 210.474467 
L 272.006481 210.294415 
L 272.851372 210.197487 
L 273.527285 209.998292 
L 273.865241 209.890213 
L 275.048089 209.798269 
L 275.555024 209.673881 
L 276.399915 209.604676 
L 276.90685 209.375005 
L 279.272546 208.716403 
L 281.807219 208.342405 
L 282.821089 208.161595 
L 283.328024 208.094337 
L 283.66598 208.027085 
L 285.524741 207.928808 
L 285.862698 207.333446 
L 286.200654 207.212899 
L 286.538611 207.005166 
L 288.228393 206.661799 
L 288.56635 205.579441 
L 289.073284 205.534118 
L 289.411241 205.345059 
L 294.142632 205.243501 
L 294.649567 205.132461 
L 296.170371 205.103149 
L 296.677306 204.820705 
L 299.21198 204.651447 
L 299.887893 204.494059 
L 301.577675 204.470444 
L 302.253589 204.204258 
L 305.633154 204.102257 
L 307.491914 203.852407 
L 307.829871 203.514636 
L 310.87148 203.414054 
L 311.547393 203.337044 
L 311.885349 203.291714 
L 312.392284 203.11942 
L 312.899219 203.045328 
L 313.237175 202.922588 
L 313.74411 202.843875 
L 314.251045 202.697468 
L 315.264914 202.61645 
L 315.771849 202.496063 
L 318.813458 202.385451 
L 320.334262 202.200362 
L 320.672219 201.982396 
L 320.841197 201.982396 
L 321.179153 201.29087 
L 321.51711 201.208166 
L 323.037914 201.139308 
L 323.206892 201.08993 
L 323.713827 200.728432 
L 324.051784 200.638019 
L 327.600327 200.334635 
L 330.472957 200.247156 
L 330.979892 199.998064 
L 331.655805 199.94661 
L 332.16274 199.874754 
L 335.711283 199.780142 
L 336.894131 199.680723 
L 337.739022 199.581955 
L 338.752892 199.479094 
L 343.82224 198.960988 
L 344.160196 198.837016 
L 344.667131 198.652162 
L 347.201805 198.554599 
L 347.539761 198.479483 
L 349.736479 198.415768 
L 350.243413 198.295925 
L 351.088305 198.232706 
L 351.426261 198.169488 
L 351.764218 198.102081 
L 352.271153 197.942009 
L 353.791957 197.790869 
L 356.326631 197.681409 
L 356.833566 197.54683 
L 359.030283 197.448089 
L 365.282478 196.715555 
L 366.465326 196.632659 
L 367.479196 196.341055 
L 376.435043 195.844605 
L 376.773 195.085672 
L 377.955848 194.978223 
L 380.997456 194.584324 
L 381.335413 194.475713 
L 384.039065 194.373642 
L 386.235782 194.34116 
L 387.925565 194.237788 
L 388.601478 194.203332 
L 389.615347 194.115645 
L 390.122282 194.064821 
L 391.812065 193.971815 
L 392.825934 193.732342 
L 394.684695 193.630085 
L 400.260978 193.29177 
L 403.809521 193.208469 
L 404.316456 192.702928 
L 404.82339 192.6515 
L 406.513173 192.541192 
L 409.554782 192.40379 
L 413.272303 192.283377 
L 413.948216 192.224373 
L 414.624129 192.06158 
L 417.49676 191.96158 
L 418.510629 191.826392 
L 419.355521 191.738364 
L 419.862455 191.682322 
L 422.228151 191.593099 
L 423.24202 191.50514 
L 424.086912 191.470577 
L 424.931803 191.470577 
L 425.26976 191.069812 
L 427.466477 191.017798 
L 428.14239 190.835889 
L 430.677064 190.731246 
L 432.704803 190.60498 
L 434.563564 190.509066 
L 435.577433 190.07322 
L 436.929259 190.007019 
L 437.436194 189.961861 
L 440.477803 189.864362 
L 443.181455 189.71144 
L 446.898976 189.610378 
L 447.574889 189.580207 
L 451.630368 189.470581 
L 452.475259 189.435704 
L 453.489128 189.372458 
L 453.996063 189.298964 
L 456.361759 189.199652 
L 460.07928 188.870198 
L 461.262128 188.797627 
L 461.769063 188.587974 
L 467.514324 188.448524 
L 468.86615 188.348966 
L 469.542063 188.316452 
L 470.217976 188.212162 
L 471.400824 188.18023 
L 471.73878 187.561937 
L 474.273454 187.45388 
L 476.977106 187.300557 
L 481.370541 187.19838 
L 482.046454 187.086375 
L 492.692084 186.768126 
L 493.030041 186.226646 
L 496.91654 186.12067 
L 498.94428 186.067305 
L 505.872388 185.996276 
L 506.548301 185.905964 
L 506.886258 185.905964 
L 507.393192 185.614851 
L 512.124584 185.505433 
L 514.997214 185.462382 
L 516.855975 185.405326 
L 517.531888 185.293316 
L 518.545757 185.199403 
L 520.742475 185.054062 
L 524.12204 184.948134 
L 524.966931 184.923837 
L 529.360366 184.836849 
L 530.036279 184.765163 
L 531.557083 184.75206 
L 532.401974 184.65915 
L 533.246866 184.397242 
L 534.76767 184.342822 
L 539.161105 184.231793 
L 540.005996 184.206823 
L 541.019866 184.11537 
L 541.5268 184.038946 
L 543.892496 183.927917 
L 544.568409 183.870888 
L 547.610018 183.629009 
L 560.9593 183.5295 
L 561.973169 183.475949 
L 563.156017 183.418679 
L 563.662952 183.318748 
L 566.197626 183.230848 
L 567.211495 183.118842 
L 569.239234 183.025132 
L 569.746169 182.931635 
L 582.419538 182.834062 
L 584.616256 182.751775 
L 585.123191 182.69577 
L 585.630125 182.63977 
L 590.361517 182.568831 
L 590.868451 182.320897 
L 596.613712 182.218928 
L 597.289625 182.116366 
L 599.993277 182.010769 
L 601.514082 181.955073 
L 603.710799 181.874968 
L 604.048755 181.794863 
L 615.370299 181.706706 
L 616.384168 181.654607 
L 622.636364 181.612735 
L 622.636364 181.612735 
" clip-path="url(#p8cf07f8432)" style="fill: none; stroke-dasharray: 5.55,2.4; stroke-dashoffset: 0; stroke: #984ea3; stroke-opacity: 0.5; stroke-width: 1.5"/>
   </g>
   <g id="line2d_32">
    <path d="M 115.363636 369.36 
L 115.701593 198.548341 
L 116.377506 181.660348 
L 118.067288 154.850146 
L 118.405245 150.857991 
L 118.743202 148.621024 
L 120.095028 140.212863 
L 120.432984 138.882923 
L 120.939919 136.360355 
L 121.277875 135.518974 
L 121.615832 134.324692 
L 121.953788 133.125618 
L 122.122767 132.856028 
L 122.291745 132.260143 
L 122.79868 129.536122 
L 123.305614 127.872296 
L 123.981527 125.978111 
L 124.319484 125.073986 
L 124.65744 123.300652 
L 125.333354 122.347074 
L 126.516201 119.502256 
L 127.023136 118.476811 
L 127.530071 118.07223 
L 127.868027 117.315965 
L 128.205984 117.192761 
L 129.219853 115.754369 
L 129.55781 115.550575 
L 129.726788 115.381182 
L 130.909636 113.05073 
L 131.754527 112.37999 
L 132.092484 112.230904 
L 132.43044 111.562282 
L 133.275332 111.288349 
L 133.613288 111.039529 
L 134.289201 110.023896 
L 134.796136 109.425754 
L 135.472049 109.349992 
L 136.147962 109.135217 
L 136.31694 108.920096 
L 136.654897 108.119578 
L 136.823875 107.902984 
L 137.668766 107.764772 
L 138.175701 107.414287 
L 138.682636 106.576849 
L 139.189571 106.232067 
L 140.879353 106.126966 
L 141.386288 105.684131 
L 141.893223 105.542088 
L 144.258918 104.683117 
L 144.596875 104.552646 
L 146.455636 104.342486 
L 147.300527 104.067128 
L 147.638483 103.384704 
L 148.145418 103.384704 
L 148.652353 103.136076 
L 148.821331 103.136076 
L 149.328266 102.524004 
L 150.84907 101.960478 
L 153.214766 101.590055 
L 154.397614 101.390224 
L 155.580462 100.361941 
L 157.439222 99.755641 
L 157.608201 99.731702 
L 157.946157 98.995145 
L 158.62207 98.89858 
L 160.142874 98.695596 
L 160.649809 98.695596 
L 161.325722 98.15791 
L 162.170614 97.835393 
L 162.339592 97.67291 
L 162.50857 97.67291 
L 163.015505 97.371755 
L 163.353461 97.30978 
L 163.860396 96.853223 
L 164.198353 96.71772 
L 165.719157 96.57484 
L 166.39507 96.450387 
L 167.239961 96.256569 
L 168.591787 96.241935 
L 171.802374 96.152466 
L 172.309309 95.952924 
L 174.506026 95.846713 
L 175.519896 95.750527 
L 176.195809 95.652996 
L 177.378657 95.007866 
L 178.730483 94.910923 
L 179.913331 94.713104 
L 180.420265 94.706482 
L 181.096178 94.272302 
L 183.968809 94.01207 
L 184.475743 93.858315 
L 185.489613 93.858315 
L 185.996548 93.56065 
L 187.348374 93.324032 
L 188.193265 93.302286 
L 188.869178 93.026426 
L 190.221004 92.929547 
L 190.896917 92.734107 
L 192.417722 92.720758 
L 192.924656 92.614761 
L 193.431591 92.402755 
L 194.445461 92.402755 
L 195.121374 92.023774 
L 197.487069 91.778977 
L 197.825026 91.315334 
L 201.542547 91.218156 
L 203.063352 91.090358 
L 210.667373 91.040014 
L 211.343286 90.824556 
L 213.033069 90.742898 
L 213.540004 90.629933 
L 215.398764 90.564687 
L 215.905699 90.434184 
L 217.426504 90.339465 
L 218.102417 90.283086 
L 219.285264 90.193276 
L 220.63709 89.92916 
L 221.481982 89.860905 
L 221.988916 89.665833 
L 223.509721 89.58918 
L 224.016656 89.550851 
L 227.396221 89.456954 
L 228.072134 89.269379 
L 229.086003 89.183394 
L 229.592938 88.965242 
L 233.986373 88.863241 
L 234.155351 88.846242 
L 234.493307 88.563997 
L 237.872873 88.347248 
L 238.548786 88.255645 
L 241.252438 88.202382 
L 241.928351 87.998545 
L 243.618133 87.884624 
L 249.532372 87.755941 
L 251.560111 87.598756 
L 253.418872 87.524973 
L 254.094785 87.312108 
L 255.61559 87.203075 
L 257.136394 86.779394 
L 259.164133 86.691995 
L 260.178003 86.638765 
L 261.36085 86.533834 
L 261.698807 86.428898 
L 262.036763 86.428898 
L 262.712676 86.036419 
L 263.557568 85.968185 
L 264.064502 85.839528 
L 266.092242 85.754568 
L 266.599176 85.705733 
L 272.513415 85.630248 
L 273.358307 85.506324 
L 276.568893 85.404184 
L 277.244806 85.372487 
L 278.596633 85.280089 
L 278.934589 85.187691 
L 287.721458 85.085359 
L 288.735328 84.998238 
L 291.43898 84.892278 
L 295.32548 84.646328 
L 298.029132 84.303638 
L 302.760523 84.204497 
L 304.450306 83.933146 
L 312.223306 83.831849 
L 312.899219 83.746419 
L 315.095936 83.68805 
L 315.602871 83.434605 
L 320.50324 83.33264 
L 321.010175 83.128707 
L 323.713827 83.082508 
L 324.220762 82.897702 
L 325.234631 82.825883 
L 325.741566 82.682244 
L 327.093392 82.610201 
L 327.600327 82.368856 
L 334.528436 82.259993 
L 337.232088 82.070012 
L 337.739022 82.027297 
L 344.498153 81.931127 
L 349.229544 81.503226 
L 354.129913 81.440274 
L 354.805826 81.248756 
L 357.171522 81.143826 
L 357.847435 80.831798 
L 358.35437 80.759525 
L 359.030283 80.507115 
L 361.058022 80.414189 
L 361.902913 79.98935 
L 368.155109 79.892647 
L 368.662043 79.760666 
L 374.407304 79.669448 
L 375.252196 79.581542 
L 376.773 79.521205 
L 377.786869 79.276578 
L 378.462782 79.228528 
L 378.969717 79.138206 
L 382.349282 79.138206 
L 382.856217 78.693104 
L 385.052934 78.589838 
L 385.559869 78.526011 
L 387.41863 78.422521 
L 388.263521 78.394612 
L 391.812065 78.346071 
L 392.318999 77.757842 
L 392.656956 77.641344 
L 393.163891 76.800108 
L 393.501847 76.74772 
L 394.008782 76.663293 
L 397.388347 76.552291 
L 398.402217 76.406028 
L 399.923021 76.351698 
L 401.612804 76.274031 
L 402.119738 76.2352 
L 402.96463 76.157117 
L 403.302586 76.065386 
L 409.72376 75.987917 
L 410.399673 75.605767 
L 411.582521 75.509725 
L 412.765369 75.493367 
L 415.806977 75.447685 
L 416.144934 74.691062 
L 419.355521 74.678055 
L 429.494216 74.596114 
L 430.170129 74.239248 
L 432.704803 74.152191 
L 433.380716 74.122745 
L 439.294955 74.013173 
L 439.80189 73.840217 
L 440.308824 73.786249 
L 446.223063 73.732288 
L 447.405911 73.396475 
L 447.912846 73.295711 
L 448.419781 73.245329 
L 449.602629 73.177496 
L 456.023802 73.099829 
L 456.868694 72.324559 
L 458.727454 72.242154 
L 459.572346 72.183268 
L 465.317606 72.094866 
L 466.162498 72.067186 
L 475.62528 71.964369 
L 477.315063 71.952583 
L 481.877476 71.857416 
L 482.722367 71.728343 
L 490.495367 71.649262 
L 491.002301 71.595562 
L 491.509236 71.595562 
L 492.185149 71.226099 
L 497.93041 71.137089 
L 498.606323 70.691405 
L 499.451214 70.632343 
L 501.309975 70.530806 
L 501.81691 70.480035 
L 509.927866 70.415135 
L 510.603779 70.337794 
L 511.448671 70.242328 
L 511.955605 70.154679 
L 515.504149 70.086056 
L 516.011084 69.948814 
L 529.022409 69.841302 
L 529.529344 69.793406 
L 540.512931 69.689297 
L 541.864757 69.652408 
L 544.568409 69.579442 
L 544.906365 69.50647 
L 552.679365 69.412232 
L 553.524257 69.386222 
L 567.71843 69.311383 
L 568.563321 69.235589 
L 573.632669 69.167174 
L 574.139604 69.113729 
L 574.984495 69.113729 
L 575.49143 68.346964 
L 581.405669 68.309179 
L 582.081582 67.906743 
L 584.785234 67.806252 
L 585.461147 67.722828 
L 598.641451 67.633616 
L 599.486342 67.490095 
L 606.076494 67.383275 
L 606.921386 67.316151 
L 612.835625 67.230551 
L 613.34256 67.180937 
L 619.763733 67.108963 
L 620.270668 66.96 
L 622.636364 66.96 
L 622.636364 66.96 
" clip-path="url(#p8cf07f8432)" style="fill: none; stroke: #984ea3; stroke-width: 1.5; stroke-linecap: square"/>
   </g>
   <g id="patch_3">
    <path d="M 90 384.48 
L 90 51.84 
" style="fill: none; stroke: #000000; stroke-width: 0.8; stroke-linejoin: miter; stroke-linecap: square"/>
   </g>
   <g id="patch_4">
    <path d="M 648 384.48 
L 648 51.84 
" style="fill: none; stroke: #000000; stroke-width: 0.8; stroke-linejoin: miter; stroke-linecap: square"/>
   </g>
   <g id="patch_5">
    <path d="M 90 384.48 
L 648 384.48 
" style="fill: none; stroke: #000000; stroke-width: 0.8; stroke-linejoin: miter; stroke-linecap: square"/>
   </g>
   <g id="patch_6">
    <path d="M 90 51.84 
L 648 51.84 
" style="fill: none; stroke: #000000; stroke-width: 0.8; stroke-linejoin: miter; stroke-linecap: square"/>
   </g>
   <g id="text_16">
    <!-- Progreso de las soluciones obtenidas por -->
    <g transform="translate(246.274687 32.402625) scale(0.12 -0.12)">
     <defs>
      <path id="DejaVuSans-6c" d="M 603 4863 
L 1178 4863 
L 1178 0 
L 603 0 
L 603 4863 
z
" transform="scale(0.015625)"/>
      <path id="DejaVuSans-62" d="M 3116 1747 
Q 3116 2381 2855 2742 
Q 2594 3103 2138 3103 
Q 1681 3103 1420 2742 
Q 1159 2381 1159 1747 
Q 1159 1113 1420 752 
Q 1681 391 2138 391 
Q 2594 391 2855 752 
Q 3116 1113 3116 1747 
z
M 1159 2969 
Q 1341 3281 1617 3432 
Q 1894 3584 2278 3584 
Q 2916 3584 3314 3078 
Q 3713 2572 3713 1747 
Q 3713 922 3314 415 
Q 2916 -91 2278 -91 
Q 1894 -91 1617 61 
Q 1341 213 1159 525 
L 1159 0 
L 581 0 
L 581 4863 
L 1159 4863 
L 1159 2969 
z
" transform="scale(0.015625)"/>
     </defs>
     <use xlink:href="#DejaVuSans-50"/>
     <use xlink:href="#DejaVuSans-72" x="58.552734"/>
     <use xlink:href="#DejaVuSans-6f" x="97.416016"/>
     <use xlink:href="#DejaVuSans-67" x="158.597656"/>
     <use xlink:href="#DejaVuSans-72" x="222.074219"/>
     <use xlink:href="#DejaVuSans-65" x="260.9375"/>
     <use xlink:href="#DejaVuSans-73" x="322.460938"/>
     <use xlink:href="#DejaVuSans-6f" x="374.560547"/>
     <use xlink:href="#DejaVuSans-20" x="435.742188"/>
     <use xlink:href="#DejaVuSans-64" x="467.529297"/>
     <use xlink:href="#DejaVuSans-65" x="531.005859"/>
     <use xlink:href="#DejaVuSans-20" x="592.529297"/>
     <use xlink:href="#DejaVuSans-6c" x="624.316406"/>
     <use xlink:href="#DejaVuSans-61" x="652.099609"/>
     <use xlink:href="#DejaVuSans-73" x="713.378906"/>
     <use xlink:href="#DejaVuSans-20" x="765.478516"/>
     <use xlink:href="#DejaVuSans-73" x="797.265625"/>
     <use xlink:href="#DejaVuSans-6f" x="849.365234"/>
     <use xlink:href="#DejaVuSans-6c" x="910.546875"/>
     <use xlink:href="#DejaVuSans-75" x="938.330078"/>
     <use xlink:href="#DejaVuSans-63" x="1001.708984"/>
     <use xlink:href="#DejaVuSans-69" x="1056.689453"/>
     <use xlink:href="#DejaVuSans-6f" x="1084.472656"/>
     <use xlink:href="#DejaVuSans-6e" x="1145.654297"/>
     <use xlink:href="#DejaVuSans-65" x="1209.033203"/>
     <use xlink:href="#DejaVuSans-73" x="1270.556641"/>
     <use xlink:href="#DejaVuSans-20" x="1322.65625"/>
     <use xlink:href="#DejaVuSans-6f" x="1354.443359"/>
     <use xlink:href="#DejaVuSans-62" x="1415.625"/>
     <use xlink:href="#DejaVuSans-74" x="1479.101562"/>
     <use xlink:href="#DejaVuSans-65" x="1518.310547"/>
     <use xlink:href="#DejaVuSans-6e" x="1579.833984"/>
     <use xlink:href="#DejaVuSans-69" x="1643.212891"/>
     <use xlink:href="#DejaVuSans-64" x="1670.996094"/>
     <use xlink:href="#DejaVuSans-61" x="1734.472656"/>
     <use xlink:href="#DejaVuSans-73" x="1795.751953"/>
     <use xlink:href="#DejaVuSans-20" x="1847.851562"/>
     <use xlink:href="#DejaVuSans-70" x="1879.638672"/>
     <use xlink:href="#DejaVuSans-6f" x="1943.115234"/>
     <use xlink:href="#DejaVuSans-72" x="2004.296875"/>
    </g>
    <!-- M0 y M1 con 10T, 30T y 50T -->
    <g transform="translate(283.981875 45.84) scale(0.12 -0.12)">
     <defs>
      <path id="DejaVuSans-4d" d="M 628 4666 
L 1569 4666 
L 2759 1491 
L 3956 4666 
L 4897 4666 
L 4897 0 
L 4281 0 
L 4281 4097 
L 3078 897 
L 2444 897 
L 1241 4097 
L 1241 0 
L 628 0 
L 628 4666 
z
" transform="scale(0.015625)"/>
      <path id="DejaVuSans-79" d="M 2059 -325 
Q 1816 -950 1584 -1140 
Q 1353 -1331 966 -1331 
L 506 -1331 
L 506 -850 
L 844 -850 
Q 1081 -850 1212 -737 
Q 1344 -625 1503 -206 
L 1606 56 
L 191 3500 
L 800 3500 
L 1894 763 
L 2988 3500 
L 3597 3500 
L 2059 -325 
z
" transform="scale(0.015625)"/>
      <path id="DejaVuSans-2c" d="M 750 794 
L 1409 794 
L 1409 256 
L 897 -744 
L 494 -744 
L 750 256 
L 750 794 
z
" transform="scale(0.015625)"/>
     </defs>
     <use xlink:href="#DejaVuSans-4d"/>
     <use xlink:href="#DejaVuSans-30" x="86.279297"/>
     <use xlink:href="#DejaVuSans-20" x="149.902344"/>
     <use xlink:href="#DejaVuSans-79" x="181.689453"/>
     <use xlink:href="#DejaVuSans-20" x="240.869141"/>
     <use xlink:href="#DejaVuSans-4d" x="272.65625"/>
     <use xlink:href="#DejaVuSans-31" x="358.935547"/>
     <use xlink:href="#DejaVuSans-20" x="422.558594"/>
     <use xlink:href="#DejaVuSans-63" x="454.345703"/>
     <use xlink:href="#DejaVuSans-6f" x="509.326172"/>
     <use xlink:href="#DejaVuSans-6e" x="570.507812"/>
     <use xlink:href="#DejaVuSans-20" x="633.886719"/>
     <use xlink:href="#DejaVuSans-31" x="665.673828"/>
     <use xlink:href="#DejaVuSans-30" x="729.296875"/>
     <use xlink:href="#DejaVuSans-54" x="792.919922"/>
     <use xlink:href="#DejaVuSans-2c" x="854.003906"/>
     <use xlink:href="#DejaVuSans-20" x="885.791016"/>
     <use xlink:href="#DejaVuSans-33" x="917.578125"/>
     <use xlink:href="#DejaVuSans-30" x="981.201172"/>
     <use xlink:href="#DejaVuSans-54" x="1044.824219"/>
     <use xlink:href="#DejaVuSans-20" x="1105.908203"/>
     <use xlink:href="#DejaVuSans-79" x="1137.695312"/>
     <use xlink:href="#DejaVuSans-20" x="1196.875"/>
     <use xlink:href="#DejaVuSans-35" x="1228.662109"/>
     <use xlink:href="#DejaVuSans-30" x="1292.285156"/>
     <use xlink:href="#DejaVuSans-54" x="1355.908203"/>
    </g>
   </g>
   <g id="legend_1">
    <g id="patch_7">
     <path d="M 571.998438 379.48 
L 641 379.48 
Q 643 379.48 643 377.48 
L 643 290.41125 
Q 643 288.41125 641 288.41125 
L 571.998438 288.41125 
Q 569.998438 288.41125 569.998438 290.41125 
L 569.998438 377.48 
Q 569.998438 379.48 571.998438 379.48 
z
" style="fill: #ffffff; opacity: 0.8; stroke: #cccccc; stroke-linejoin: miter"/>
    </g>
    <g id="line2d_33">
     <path d="M 573.998438 296.509688 
L 583.998438 296.509688 
L 593.998438 296.509688 
" style="fill: none; stroke-dasharray: 5.55,2.4; stroke-dashoffset: 0; stroke: #e41a1c; stroke-opacity: 0.5; stroke-width: 1.5"/>
    </g>
    <g id="text_17">
     <!-- M0 10T -->
     <g transform="translate(601.998438 300.009688) scale(0.1 -0.1)">
      <use xlink:href="#DejaVuSans-4d"/>
      <use xlink:href="#DejaVuSans-30" x="86.279297"/>
      <use xlink:href="#DejaVuSans-20" x="149.902344"/>
      <use xlink:href="#DejaVuSans-31" x="181.689453"/>
      <use xlink:href="#DejaVuSans-30" x="245.3125"/>
      <use xlink:href="#DejaVuSans-54" x="308.935547"/>
     </g>
    </g>
    <g id="line2d_34">
     <path d="M 573.998438 311.187813 
L 583.998438 311.187813 
L 593.998438 311.187813 
" style="fill: none; stroke: #e41a1c; stroke-width: 1.5; stroke-linecap: square"/>
    </g>
    <g id="text_18">
     <!-- M1 10T -->
     <g transform="translate(601.998438 314.687813) scale(0.1 -0.1)">
      <use xlink:href="#DejaVuSans-4d"/>
      <use xlink:href="#DejaVuSans-31" x="86.279297"/>
      <use xlink:href="#DejaVuSans-20" x="149.902344"/>
      <use xlink:href="#DejaVuSans-31" x="181.689453"/>
      <use xlink:href="#DejaVuSans-30" x="245.3125"/>
      <use xlink:href="#DejaVuSans-54" x="308.935547"/>
     </g>
    </g>
    <g id="line2d_35">
     <path d="M 573.998438 325.865938 
L 583.998438 325.865938 
L 593.998438 325.865938 
" style="fill: none; stroke-dasharray: 5.55,2.4; stroke-dashoffset: 0; stroke: #377eb8; stroke-opacity: 0.5; stroke-width: 1.5"/>
    </g>
    <g id="text_19">
     <!-- M0 30T -->
     <g transform="translate(601.998438 329.365938) scale(0.1 -0.1)">
      <use xlink:href="#DejaVuSans-4d"/>
      <use xlink:href="#DejaVuSans-30" x="86.279297"/>
      <use xlink:href="#DejaVuSans-20" x="149.902344"/>
      <use xlink:href="#DejaVuSans-33" x="181.689453"/>
      <use xlink:href="#DejaVuSans-30" x="245.3125"/>
      <use xlink:href="#DejaVuSans-54" x="308.935547"/>
     </g>
    </g>
    <g id="line2d_36">
     <path d="M 573.998438 340.544062 
L 583.998438 340.544062 
L 593.998438 340.544062 
" style="fill: none; stroke: #377eb8; stroke-width: 1.5; stroke-linecap: square"/>
    </g>
    <g id="text_20">
     <!-- M1 30T -->
     <g transform="translate(601.998438 344.044062) scale(0.1 -0.1)">
      <use xlink:href="#DejaVuSans-4d"/>
      <use xlink:href="#DejaVuSans-31" x="86.279297"/>
      <use xlink:href="#DejaVuSans-20" x="149.902344"/>
      <use xlink:href="#DejaVuSans-33" x="181.689453"/>
      <use xlink:href="#DejaVuSans-30" x="245.3125"/>
      <use xlink:href="#DejaVuSans-54" x="308.935547"/>
     </g>
    </g>
    <g id="line2d_37">
     <path d="M 573.998438 355.222188 
L 583.998438 355.222188 
L 593.998438 355.222188 
" style="fill: none; stroke-dasharray: 5.55,2.4; stroke-dashoffset: 0; stroke: #984ea3; stroke-opacity: 0.5; stroke-width: 1.5"/>
    </g>
    <g id="text_21">
     <!-- M0 50T -->
     <g transform="translate(601.998438 358.722188) scale(0.1 -0.1)">
      <use xlink:href="#DejaVuSans-4d"/>
      <use xlink:href="#DejaVuSans-30" x="86.279297"/>
      <use xlink:href="#DejaVuSans-20" x="149.902344"/>
      <use xlink:href="#DejaVuSans-35" x="181.689453"/>
      <use xlink:href="#DejaVuSans-30" x="245.3125"/>
      <use xlink:href="#DejaVuSans-54" x="308.935547"/>
     </g>
    </g>
    <g id="line2d_38">
     <path d="M 573.998438 369.900313 
L 583.998438 369.900313 
L 593.998438 369.900313 
" style="fill: none; stroke: #984ea3; stroke-width: 1.5; stroke-linecap: square"/>
    </g>
    <g id="text_22">
     <!-- M1 50T -->
     <g transform="translate(601.998438 373.400313) scale(0.1 -0.1)">
      <use xlink:href="#DejaVuSans-4d"/>
      <use xlink:href="#DejaVuSans-31" x="86.279297"/>
      <use xlink:href="#DejaVuSans-20" x="149.902344"/>
      <use xlink:href="#DejaVuSans-35" x="181.689453"/>
      <use xlink:href="#DejaVuSans-30" x="245.3125"/>
      <use xlink:href="#DejaVuSans-54" x="308.935547"/>
     </g>
    </g>
   </g>
  </g>
 </g>
 <defs>
  <clipPath id="p8cf07f8432">
   <rect x="90" y="51.84" width="558" height="332.64"/>
  </clipPath>
 </defs>
</svg>
