<svg width="1217" height="582" viewBox="0 0 1217 582" fill="none" xmlns="http://www.w3.org/2000/svg">
<path d="M521 391L221 241L1 351L301 501L521 391Z" fill="#4A370D" stroke="#4A370D" stroke-miterlimit="1"/>
<path d="M521 391L221 241V1L521 151V391Z" fill="#956E19" stroke="#4A370D" stroke-miterlimit="1"/>
<path d="M221 241L1 351V111L221 1V241Z" fill="#956E19" stroke="#4A370D" stroke-miterlimit="1"/>
<path d="M301 501L1 351V111L301 261V501Z" fill="#C69222" stroke="#4A370D" stroke-miterlimit="1"/>
<path d="M301 501L521 391V151L301 261V501Z" fill="#C69222" stroke="#4A370D" stroke-miterlimit="1"/>
<path d="M521 151L221 1L1 111L301 261L521 151Z" fill="#F8B72A" stroke="#4A370D" stroke-miterlimit="1"/>
<path d="M586 391C585.448 391 585 391.448 585 392C585 392.552 585.448 393 586 393V391ZM647 392L637 386.226V397.774L647 392ZM586 393H638V391H586V393Z" fill="#1C41A0"/>
<path d="M586.486 391.126C586.003 390.858 585.394 391.032 585.126 391.514C584.858 391.997 585.032 392.606 585.514 392.874L586.486 391.126ZM640 422L634.062 412.097L628.455 422.191L640 422ZM585.514 392.874L631.647 418.503L632.618 416.755L586.486 391.126L585.514 392.874Z" fill="#1C41A0"/>
<path d="M585 392C585 392.552 585.448 393 586 393C586.552 393 587 392.552 587 392H585ZM586 331L580.226 341H591.774L586 331ZM587 392V340H585V392H587Z" fill="#1C41A0"/>
<path d="M606.063 410L608.938 414.906L611.813 410H613.938L610.063 416L613.938 422H611.813L608.938 417.344L606.063 422H603.938L607.75 416L603.938 410H606.063Z" fill="#1C41A0"/>
<path d="M630.875 387.5C630.563 387.5 630.284 387.474 630.039 387.422C629.794 387.375 629.625 387.328 629.531 387.281L630 385.656C630.448 385.771 630.844 385.813 631.188 385.781C631.531 385.75 631.836 385.596 632.102 385.32C632.372 385.049 632.62 384.609 632.844 384L633.188 383.063L628.75 371H630.75L634.063 380.562H634.188L637.5 371H639.5L634.406 384.75C634.177 385.37 633.893 385.883 633.555 386.289C633.216 386.701 632.823 387.005 632.375 387.203C631.932 387.401 631.432 387.5 630.875 387.5Z" fill="#1C41A0"/>
<path d="M572.344 359V357.594L579.156 348.844V348.719H572.562V347H581.531V348.469L574.906 357.156V357.281H581.75V359H572.344Z" fill="#1C41A0"/>
<path d="M1216 351L996 241L696 391L916 501L1216 351Z" fill="#4A370D" stroke="#4A370D" stroke-miterlimit="1"/>
<path d="M1216 351L996 241V1L1216 111V351Z" fill="#956E19" stroke="#4A370D" stroke-miterlimit="1"/>
<path d="M996 241L696 391V151L996 1V241Z" fill="#956E19" stroke="#4A370D" stroke-miterlimit="1"/>
<path d="M916 501L696 391V151L916 261V501Z" fill="#C69222" stroke="#4A370D" stroke-miterlimit="1"/>
<path d="M916 501L1216 351V111L916 261V501Z" fill="#C69222" stroke="#4A370D" stroke-miterlimit="1"/>
<path d="M1216 111L996 1L696 151L916 261L1216 111Z" fill="#F8B72A" stroke="#4A370D" stroke-miterlimit="1"/>
<path d="M740.998 481.931C740.96 481.103 740.259 480.463 739.431 480.502L725.945 481.123C725.118 481.161 724.478 481.863 724.516 482.69C724.554 483.518 725.256 484.158 726.083 484.119L738.071 483.567L738.623 495.555C738.661 496.382 739.362 497.022 740.19 496.984C741.018 496.946 741.658 496.244 741.619 495.417L740.998 481.931ZM502.865 482.981C560.904 550.104 667.453 563.23 740.608 483.011L738.392 480.989C666.547 559.77 562.096 546.896 505.135 481.019L502.865 482.981Z" fill="black"/>
<path d="M281.219 572.281C280.458 572.281 279.768 572.138 279.148 571.852C278.529 571.56 278.036 571.141 277.672 570.594C277.307 570.042 277.125 569.375 277.125 568.594C277.125 567.906 277.26 567.349 277.531 566.922C277.802 566.49 278.164 566.151 278.617 565.906C279.07 565.661 279.57 565.479 280.117 565.359C280.669 565.234 281.224 565.135 281.781 565.063C282.51 564.969 283.102 564.898 283.555 564.852C284.013 564.799 284.346 564.714 284.555 564.594C284.768 564.474 284.875 564.266 284.875 563.969V563.906C284.875 563.135 284.664 562.536 284.242 562.109C283.826 561.682 283.193 561.469 282.344 561.469C281.464 561.469 280.773 561.661 280.273 562.047C279.773 562.432 279.422 562.844 279.219 563.281L277.469 562.656C277.781 561.927 278.198 561.359 278.719 560.953C279.245 560.542 279.818 560.255 280.438 560.094C281.063 559.927 281.677 559.844 282.281 559.844C282.667 559.844 283.109 559.891 283.609 559.984C284.115 560.073 284.602 560.258 285.07 560.539C285.544 560.82 285.938 561.245 286.25 561.812C286.563 562.38 286.719 563.141 286.719 564.094V572H284.875V570.375H284.781C284.656 570.635 284.448 570.914 284.156 571.211C283.865 571.508 283.477 571.76 282.992 571.969C282.508 572.177 281.917 572.281 281.219 572.281ZM281.5 570.625C282.229 570.625 282.844 570.482 283.344 570.195C283.849 569.909 284.229 569.539 284.484 569.086C284.745 568.633 284.875 568.156 284.875 567.656V565.969C284.797 566.062 284.625 566.148 284.359 566.227C284.099 566.299 283.797 566.365 283.453 566.422C283.115 566.474 282.784 566.521 282.461 566.562C282.143 566.599 281.885 566.63 281.688 566.656C281.208 566.719 280.76 566.82 280.344 566.961C279.932 567.096 279.599 567.302 279.344 567.578C279.094 567.849 278.969 568.219 278.969 568.687C278.969 569.328 279.206 569.812 279.68 570.141C280.159 570.464 280.766 570.625 281.5 570.625ZM294.021 565.25C294.021 567.219 293.764 569.031 293.248 570.687C292.738 572.339 292.006 573.859 291.053 575.25H289.428C289.803 574.734 290.152 574.099 290.475 573.344C290.803 572.594 291.089 571.771 291.334 570.875C291.579 569.974 291.769 569.044 291.904 568.086C292.045 567.122 292.115 566.177 292.115 565.25C292.115 564.01 291.995 562.753 291.756 561.477C291.516 560.201 291.193 559.016 290.787 557.922C290.381 556.828 289.928 555.937 289.428 555.25H291.053C292.006 556.641 292.738 558.164 293.248 559.82C293.764 561.471 294.021 563.281 294.021 565.25Z" fill="black"/>
<path d="M925.938 577V561H927.781V566.906H927.938C928.073 566.698 928.26 566.432 928.5 566.109C928.745 565.781 929.094 565.49 929.547 565.234C930.005 564.974 930.625 564.844 931.406 564.844C932.417 564.844 933.307 565.096 934.078 565.602C934.849 566.107 935.451 566.823 935.883 567.75C936.315 568.677 936.531 569.771 936.531 571.031C936.531 572.302 936.315 573.404 935.883 574.336C935.451 575.263 934.852 575.982 934.086 576.492C933.32 576.997 932.438 577.25 931.438 577.25C930.667 577.25 930.049 577.122 929.586 576.867C929.122 576.607 928.766 576.312 928.516 575.984C928.266 575.651 928.073 575.375 927.938 575.156H927.719V577H925.938ZM927.75 571C927.75 571.906 927.883 572.706 928.148 573.398C928.414 574.086 928.802 574.625 929.313 575.016C929.823 575.401 930.448 575.594 931.188 575.594C931.958 575.594 932.602 575.391 933.117 574.984C933.638 574.573 934.029 574.021 934.289 573.328C934.555 572.63 934.688 571.854 934.688 571C934.688 570.156 934.557 569.396 934.297 568.719C934.042 568.036 933.654 567.497 933.133 567.102C932.617 566.701 931.969 566.5 931.188 566.5C930.438 566.5 929.807 566.69 929.297 567.07C928.786 567.445 928.401 567.971 928.141 568.648C927.88 569.32 927.75 570.104 927.75 571ZM943.031 570.25C943.031 572.219 942.773 574.031 942.258 575.687C941.747 577.339 941.016 578.859 940.063 580.25H938.438C938.813 579.734 939.161 579.099 939.484 578.344C939.813 577.594 940.099 576.771 940.344 575.875C940.589 574.974 940.779 574.044 940.914 573.086C941.055 572.122 941.125 571.177 941.125 570.25C941.125 569.01 941.005 567.753 940.766 566.477C940.526 565.201 940.203 564.016 939.797 562.922C939.391 561.828 938.938 560.937 938.438 560.25H940.063C941.016 561.641 941.747 563.164 942.258 564.82C942.773 566.471 943.031 568.281 943.031 570.25Z" fill="black"/>
</svg>
