<svg width="1819" height="654" viewBox="0 0 1819 654" fill="none" xmlns="http://www.w3.org/2000/svg">
<g opacity="0.5">
<path d="M322 292L222 242L202 252L302 302L322 292Z" fill="#0D2D4A" stroke="#0D2D4A" stroke-miterlimit="1"/>
<path d="M322 292L222 242V2L322 52V292Z" fill="#195995" stroke="#0D2D4A" stroke-miterlimit="1"/>
<path d="M222 242L202 252V12L222 2V242Z" fill="#195995" stroke="#0D2D4A" stroke-miterlimit="1"/>
<path d="M302 302L202 252V12L302 62V302Z" fill="#2277C6" stroke="#0D2D4A" stroke-miterlimit="1"/>
<path d="M302 302L322 292V52L302 62V302Z" fill="#2277C6" stroke="#0D2D4A" stroke-miterlimit="1"/>
<path d="M322 52L222 2L202 12L302 62L322 52Z" fill="#2A95F8" stroke="#0D2D4A" stroke-miterlimit="1"/>
</g>
<path d="M822 542L222 242V2L822 302V542Z" stroke="#524E4C" stroke-width="3" stroke-miterlimit="1"/>
<path d="M222 242L2 352V112L222 2V242Z" stroke="#524E4C" stroke-width="3" stroke-miterlimit="1"/>
<path d="M822 542L222 242L2 352L602 652L822 542Z" stroke="#524E4C" stroke-width="3" stroke-miterlimit="1"/>
<path d="M602 652L2 352V112L602 412V652Z" stroke="#524E4C" stroke-width="3" stroke-miterlimit="1"/>
<path d="M602 652L822 542V302L602 412V652Z" stroke="#524E4C" stroke-width="3" stroke-miterlimit="1"/>
<path d="M302 301L202 251L102 301L202 351L302 301Z" fill="#4A370D" stroke="#4A370D" stroke-miterlimit="1"/>
<path d="M302 301L202 251V151L302 201V301Z" fill="#956E19" stroke="#4A370D" stroke-miterlimit="1"/>
<path d="M202 251L102 301V201L202 151V251Z" fill="#956E19" stroke="#4A370D" stroke-miterlimit="1"/>
<path d="M202 351L102 301V201L202 251V351Z" fill="#C69222" stroke="#4A370D" stroke-miterlimit="1"/>
<path d="M202 351L302 301V201L202 251V351Z" fill="#C69222" stroke="#4A370D" stroke-miterlimit="1"/>
<path d="M302 201L202 151L102 201L202 251L302 201Z" fill="#F8B72A" stroke="#4A370D" stroke-miterlimit="1"/>
<path d="M202 351L102 301L2 351L102 401L202 351Z" fill="#4A370D" stroke="#4A370D" stroke-miterlimit="1"/>
<path d="M202 351L102 301V201L202 251V351Z" fill="#956E19" stroke="#4A370D" stroke-miterlimit="1"/>
<path d="M102 301L2 351V251L102 201V301Z" fill="#956E19" stroke="#4A370D" stroke-miterlimit="1"/>
<path d="M102 401L2 351V251L102 301V401Z" fill="#C69222" stroke="#4A370D" stroke-miterlimit="1"/>
<path d="M102 401L202 351V251L102 301V401Z" fill="#C69222" stroke="#4A370D" stroke-miterlimit="1"/>
<path d="M202 251L102 201L2 251L102 301L202 251Z" fill="#F8B72A" stroke="#4A370D" stroke-miterlimit="1"/>
<path d="M822 302L222 2L2 112L602 412L822 302Z" stroke="#524E4C" stroke-width="3" stroke-miterlimit="1"/>
<path d="M172.963 583.537C171.511 583.537 170.194 583.263 169.011 582.717C167.827 582.16 166.888 581.359 166.192 580.315C165.496 579.261 165.148 577.989 165.148 576.497C165.148 575.185 165.406 574.121 165.923 573.305C166.44 572.48 167.131 571.834 167.996 571.366C168.862 570.899 169.816 570.551 170.86 570.322C171.914 570.084 172.973 569.895 174.037 569.756C175.429 569.577 176.558 569.442 177.423 569.353C178.298 569.254 178.934 569.089 179.332 568.861C179.739 568.632 179.943 568.234 179.943 567.668V567.548C179.943 566.077 179.54 564.933 178.735 564.118C177.94 563.303 176.732 562.895 175.111 562.895C173.43 562.895 172.113 563.263 171.158 563.999C170.204 564.734 169.533 565.52 169.145 566.355L165.804 565.162C166.401 563.77 167.196 562.686 168.19 561.911C169.195 561.125 170.288 560.578 171.472 560.27C172.665 559.952 173.838 559.793 174.991 559.793C175.727 559.793 176.572 559.882 177.527 560.061C178.491 560.23 179.421 560.583 180.316 561.12C181.221 561.657 181.972 562.467 182.568 563.551C183.165 564.635 183.463 566.087 183.463 567.906V583H179.943V579.898H179.764C179.526 580.395 179.128 580.927 178.571 581.494C178.014 582.06 177.273 582.543 176.349 582.94C175.424 583.338 174.295 583.537 172.963 583.537ZM173.5 580.375C174.892 580.375 176.065 580.102 177.02 579.555C177.984 579.008 178.71 578.302 179.197 577.437C179.695 576.572 179.943 575.662 179.943 574.707V571.486C179.794 571.665 179.466 571.829 178.959 571.978C178.462 572.117 177.885 572.241 177.229 572.351C176.582 572.45 175.951 572.54 175.335 572.619C174.728 572.689 174.236 572.749 173.858 572.798C172.943 572.918 172.088 573.112 171.293 573.38C170.507 573.638 169.871 574.031 169.384 574.558C168.906 575.075 168.668 575.781 168.668 576.676C168.668 577.899 169.12 578.824 170.025 579.45C170.94 580.067 172.098 580.375 173.5 580.375ZM197.405 570.114C197.405 573.872 196.912 577.332 195.928 580.494C194.954 583.646 193.557 586.55 191.737 589.205H188.635C189.351 588.22 190.017 587.007 190.633 585.565C191.26 584.134 191.807 582.562 192.274 580.852C192.741 579.132 193.104 577.357 193.363 575.528C193.631 573.688 193.765 571.884 193.765 570.114C193.765 567.747 193.537 565.346 193.079 562.91C192.622 560.474 192.006 558.212 191.23 556.124C190.454 554.036 189.589 552.335 188.635 551.023H191.737C193.557 553.678 194.954 556.586 195.928 559.748C196.912 562.9 197.405 566.355 197.405 570.114Z" fill="black"/>
<path d="M1211.7 568V537.455H1215.22V548.73H1215.52C1215.78 548.332 1216.13 547.825 1216.59 547.209C1217.06 546.582 1217.72 546.026 1218.59 545.538C1219.46 545.041 1220.65 544.793 1222.14 544.793C1224.07 544.793 1225.77 545.275 1227.24 546.239C1228.71 547.204 1229.86 548.571 1230.69 550.341C1231.51 552.111 1231.92 554.199 1231.92 556.605C1231.92 559.031 1231.51 561.134 1230.69 562.914C1229.86 564.684 1228.72 566.056 1227.25 567.031C1225.79 567.995 1224.11 568.477 1222.2 568.477C1220.73 568.477 1219.55 568.234 1218.66 567.746C1217.78 567.249 1217.1 566.687 1216.62 566.061C1216.14 565.425 1215.78 564.898 1215.52 564.48H1215.1V568H1211.7ZM1215.16 556.545C1215.16 558.276 1215.41 559.802 1215.92 561.124C1216.43 562.437 1217.17 563.466 1218.14 564.212C1219.12 564.947 1220.31 565.315 1221.72 565.315C1223.19 565.315 1224.42 564.928 1225.41 564.152C1226.4 563.366 1227.15 562.312 1227.64 560.99C1228.15 559.658 1228.4 558.176 1228.4 556.545C1228.4 554.935 1228.15 553.483 1227.66 552.19C1227.17 550.888 1226.43 549.859 1225.44 549.103C1224.45 548.337 1223.21 547.955 1221.72 547.955C1220.29 547.955 1219.09 548.317 1218.11 549.043C1217.14 549.759 1216.4 550.763 1215.9 552.056C1215.41 553.339 1215.16 554.835 1215.16 556.545ZM1244.33 555.114C1244.33 558.872 1243.84 562.332 1242.86 565.494C1241.88 568.646 1240.48 571.55 1238.66 574.205H1235.56C1236.28 573.22 1236.94 572.007 1237.56 570.565C1238.19 569.134 1238.73 567.562 1239.2 565.852C1239.67 564.132 1240.03 562.357 1240.29 560.528C1240.56 558.688 1240.69 556.884 1240.69 555.114C1240.69 552.747 1240.46 550.346 1240.01 547.91C1239.55 545.474 1238.93 543.212 1238.16 541.124C1237.38 539.036 1236.52 537.335 1235.56 536.023H1238.66C1240.48 538.678 1241.88 541.586 1242.86 544.748C1243.84 547.9 1244.33 551.355 1244.33 555.114Z" fill="black"/>
<path d="M1817 542L1217 242V2L1817 302V542Z" stroke="#524E4C" stroke-width="3" stroke-miterlimit="1"/>
<path d="M1217 242L997 352V112L1217 2V242Z" stroke="#524E4C" stroke-width="3" stroke-miterlimit="1"/>
<path d="M1817 542L1217 242L997 352L1597 652L1817 542Z" stroke="#524E4C" stroke-width="3" stroke-miterlimit="1"/>
<path d="M1597 652L997 352V112L1597 412V652Z" stroke="#524E4C" stroke-width="3" stroke-miterlimit="1"/>
<path d="M1597 652L1817 542V302L1597 412V652Z" stroke="#524E4C" stroke-width="3" stroke-miterlimit="1"/>
<path d="M1297 301L1197 251L1097 301L1197 351L1297 301Z" fill="#4A370D" stroke="#4A370D" stroke-miterlimit="1"/>
<path d="M1297 301L1197 251V151L1297 201V301Z" fill="#956E19" stroke="#4A370D" stroke-miterlimit="1"/>
<path d="M1197 251L1097 301V201L1197 151V251Z" fill="#956E19" stroke="#4A370D" stroke-miterlimit="1"/>
<path d="M1197 351L1097 301V201L1197 251V351Z" fill="#C69222" stroke="#4A370D" stroke-miterlimit="1"/>
<path d="M1197 351L1297 301V201L1197 251V351Z" fill="#C69222" stroke="#4A370D" stroke-miterlimit="1"/>
<path d="M1297 201L1197 151L1097 201L1197 251L1297 201Z" fill="#F8B72A" stroke="#4A370D" stroke-miterlimit="1"/>
<path d="M1197 351L1097 301L997 351L1097 401L1197 351Z" fill="#4A370D" stroke="#4A370D" stroke-miterlimit="1"/>
<path d="M1197 351L1097 301V201L1197 251V351Z" fill="#956E19" stroke="#4A370D" stroke-miterlimit="1"/>
<path d="M1097 301L997 351V251L1097 201V301Z" fill="#956E19" stroke="#4A370D" stroke-miterlimit="1"/>
<path d="M1097 401L997 351V251L1097 301V401Z" fill="#C69222" stroke="#4A370D" stroke-miterlimit="1"/>
<path d="M1097 401L1197 351V251L1097 301V401Z" fill="#C69222" stroke="#4A370D" stroke-miterlimit="1"/>
<path d="M1197 251L1097 201L997 251L1097 301L1197 251Z" fill="#F8B72A" stroke="#4A370D" stroke-miterlimit="1"/>
<path d="M1817 302L1217 2L997 112L1597 412L1817 302Z" stroke="#524E4C" stroke-width="3" stroke-miterlimit="1"/>
<g opacity="0.5">
<path d="M1297 202L1197 152L1097 202L1197 252L1297 202Z" fill="#0D2D4A" stroke="#0D2D4A" stroke-miterlimit="1"/>
<path d="M1297 202L1197 152V12L1297 62V202Z" fill="#195995" stroke="#0D2D4A" stroke-miterlimit="1"/>
<path d="M1197 152L1097 202V62L1197 12V152Z" fill="#195995" stroke="#0D2D4A" stroke-miterlimit="1"/>
<path d="M1197 252L1097 202V62L1197 112V252Z" fill="#2277C6" stroke="#0D2D4A" stroke-miterlimit="1"/>
<path d="M1197 252L1297 202V62L1197 112V252Z" fill="#2277C6" stroke="#0D2D4A" stroke-miterlimit="1"/>
<path d="M1297 62L1197 12L1097 62L1197 112L1297 62Z" fill="#2A95F8" stroke="#0D2D4A" stroke-miterlimit="1"/>
</g>
</svg>
