<svg width="1134" height="619" viewBox="0 0 1134 619" fill="none" xmlns="http://www.w3.org/2000/svg">
<rect x="0.5" y="0.5" width="99" height="99" fill="#F8B72A" stroke="black"/>
<rect x="0.5" y="100.5" width="99" height="99" fill="#F8B72A" stroke="black"/>
<rect x="100.5" y="100.5" width="99" height="99" fill="#F8B72A" stroke="black"/>
<rect x="200" y="100" width="100" height="100" fill="#F8432A" fill-opacity="0.89"/>
<rect x="300" width="67" height="200" fill="#F8432A" fill-opacity="0.89"/>
<rect x="100.5" y="0.5" width="99" height="99" fill="#F8B72A" stroke="black"/>
<rect x="200.5" y="0.5" width="99" height="99" fill="#F8B72A" stroke="black"/>
<rect x="0.5" y="200.5" width="119" height="99" fill="#39DC18" stroke="black"/>
<rect x="120.5" y="200.5" width="119" height="99" fill="#39DC18" stroke="black"/>
<rect x="0.5" y="0.5" width="366" height="618" stroke="black"/>
<rect x="767.5" y="0.5" width="99" height="99" fill="#F8B72A" stroke="black"/>
<rect x="767.5" y="100.5" width="99" height="99" fill="#F8B72A" stroke="black"/>
<rect x="867.5" y="100.5" width="99" height="99" fill="#F8B72A" stroke="black"/>
<rect x="1007" y="100" width="60" height="100" fill="#F8432A" fill-opacity="0.89"/>
<rect x="1067" width="67" height="200" fill="#F8432A" fill-opacity="0.89"/>
<rect x="867.5" y="0.5" width="99" height="99" fill="#F8B72A" stroke="black"/>
<rect x="967.5" y="0.5" width="99" height="99" fill="#F8B72A" stroke="black"/>
<rect x="767.5" y="200.5" width="119" height="99" fill="#39DC18" stroke="black"/>
<rect x="887.5" y="200.5" width="119" height="99" fill="#39DC18" stroke="black"/>
<rect x="767.5" y="0.5" width="366" height="618" stroke="black"/>
<path d="M144.963 587.537C143.511 587.537 142.194 587.263 141.011 586.717C139.827 586.16 138.888 585.359 138.192 584.315C137.496 583.261 137.148 581.989 137.148 580.497C137.148 579.185 137.406 578.121 137.923 577.305C138.44 576.48 139.131 575.834 139.996 575.366C140.862 574.899 141.816 574.551 142.86 574.322C143.914 574.084 144.973 573.895 146.037 573.756C147.429 573.577 148.558 573.442 149.423 573.353C150.298 573.254 150.934 573.089 151.332 572.861C151.739 572.632 151.943 572.234 151.943 571.668V571.548C151.943 570.077 151.54 568.933 150.735 568.118C149.94 567.303 148.732 566.895 147.111 566.895C145.43 566.895 144.113 567.263 143.158 567.999C142.204 568.734 141.533 569.52 141.145 570.355L137.804 569.162C138.401 567.77 139.196 566.686 140.19 565.911C141.195 565.125 142.288 564.578 143.472 564.27C144.665 563.952 145.838 563.793 146.991 563.793C147.727 563.793 148.572 563.882 149.527 564.061C150.491 564.23 151.421 564.583 152.316 565.12C153.221 565.657 153.972 566.467 154.568 567.551C155.165 568.635 155.463 570.087 155.463 571.906V587H151.943V583.898H151.764C151.526 584.395 151.128 584.927 150.571 585.494C150.014 586.06 149.273 586.543 148.349 586.94C147.424 587.338 146.295 587.537 144.963 587.537ZM145.5 584.375C146.892 584.375 148.065 584.102 149.02 583.555C149.984 583.008 150.71 582.302 151.197 581.437C151.695 580.572 151.943 579.662 151.943 578.707V575.486C151.794 575.665 151.466 575.829 150.959 575.978C150.462 576.117 149.885 576.241 149.229 576.351C148.582 576.45 147.951 576.54 147.335 576.619C146.728 576.689 146.236 576.749 145.858 576.798C144.943 576.918 144.088 577.112 143.293 577.38C142.507 577.638 141.871 578.031 141.384 578.558C140.906 579.075 140.668 579.781 140.668 580.676C140.668 581.899 141.12 582.824 142.025 583.45C142.94 584.067 144.098 584.375 145.5 584.375ZM169.405 574.114C169.405 577.872 168.912 581.332 167.928 584.494C166.954 587.646 165.557 590.55 163.737 593.205H160.635C161.351 592.22 162.017 591.007 162.633 589.565C163.26 588.134 163.807 586.562 164.274 584.852C164.741 583.132 165.104 581.357 165.363 579.528C165.631 577.688 165.765 575.884 165.765 574.114C165.765 571.747 165.537 569.346 165.079 566.91C164.622 564.474 164.006 562.212 163.23 560.124C162.454 558.036 161.589 556.335 160.635 555.023H163.737C165.557 557.678 166.954 560.586 167.928 563.748C168.912 566.9 169.405 570.355 169.405 574.114Z" fill="black"/>
<path d="M934.699 587V556.455H938.219V567.73H938.517C938.776 567.332 939.134 566.825 939.591 566.209C940.058 565.582 940.724 565.026 941.589 564.538C942.464 564.041 943.648 563.793 945.139 563.793C947.068 563.793 948.768 564.275 950.24 565.239C951.712 566.204 952.86 567.571 953.685 569.341C954.511 571.111 954.923 573.199 954.923 575.605C954.923 578.031 954.511 580.134 953.685 581.914C952.86 583.684 951.717 585.056 950.255 586.031C948.793 586.995 947.108 587.477 945.199 587.477C943.727 587.477 942.549 587.234 941.664 586.746C940.779 586.249 940.098 585.687 939.621 585.061C939.143 584.425 938.776 583.898 938.517 583.48H938.099V587H934.699ZM938.159 575.545C938.159 577.276 938.413 578.802 938.92 580.124C939.427 581.437 940.168 582.466 941.142 583.212C942.116 583.947 943.31 584.315 944.722 584.315C946.193 584.315 947.421 583.928 948.406 583.152C949.4 582.366 950.146 581.312 950.643 579.99C951.15 578.658 951.403 577.176 951.403 575.545C951.403 573.935 951.155 572.483 950.658 571.19C950.17 569.888 949.43 568.859 948.435 568.103C947.451 567.337 946.213 566.955 944.722 566.955C943.29 566.955 942.087 567.317 941.112 568.043C940.138 568.759 939.402 569.763 938.905 571.056C938.408 572.339 938.159 573.835 938.159 575.545ZM967.332 574.114C967.332 577.872 966.84 581.332 965.856 584.494C964.881 587.646 963.484 590.55 961.665 593.205H958.562C959.278 592.22 959.945 591.007 960.561 589.565C961.188 588.134 961.734 586.562 962.202 584.852C962.669 583.132 963.032 581.357 963.29 579.528C963.559 577.688 963.693 575.884 963.693 574.114C963.693 571.747 963.464 569.346 963.007 566.91C962.55 564.474 961.933 562.212 961.158 560.124C960.382 558.036 959.517 556.335 958.562 555.023H961.665C963.484 557.678 964.881 560.586 965.856 563.748C966.84 566.9 967.332 570.355 967.332 574.114Z" fill="black"/>
<path d="M978.199 141.487C979.02 141.376 979.597 140.622 979.487 139.801L977.694 126.42C977.584 125.599 976.829 125.023 976.008 125.133C975.187 125.243 974.61 125.998 974.72 126.819L976.314 138.712L964.42 140.306C963.599 140.416 963.023 141.171 963.133 141.992C963.243 142.813 963.998 143.389 964.819 143.279L978.199 141.487ZM978.91 138.808C936.119 106.129 867.725 70.6165 801.7 70.6123C768.641 70.6102 736.144 79.5131 707.804 102.158C679.476 124.793 655.426 161.06 639.063 215.569L641.937 216.431C658.174 162.34 681.945 126.66 709.677 104.501C737.398 82.3511 769.201 73.6102 801.7 73.6123C866.791 73.6164 934.548 108.704 977.09 141.192L978.91 138.808Z" fill="black"/>
<path d="M535.699 272V241.455H554.134V244.736H539.398V255.057H553.179V258.338H539.398V268.719H554.372V272H535.699ZM576.55 254.222L573.388 255.116C573.19 254.589 572.896 254.077 572.509 253.58C572.131 253.073 571.614 252.656 570.957 252.327C570.301 251.999 569.461 251.835 568.437 251.835C567.035 251.835 565.866 252.158 564.932 252.805C564.007 253.441 563.545 254.251 563.545 255.236C563.545 256.111 563.863 256.802 564.499 257.309C565.136 257.816 566.13 258.239 567.482 258.577L570.883 259.412C572.931 259.909 574.457 260.67 575.462 261.694C576.466 262.708 576.968 264.016 576.968 265.616C576.968 266.929 576.59 268.102 575.835 269.136C575.089 270.17 574.045 270.986 572.702 271.582C571.36 272.179 569.799 272.477 568.019 272.477C565.683 272.477 563.749 271.97 562.217 270.956C560.686 269.942 559.717 268.46 559.309 266.511L562.65 265.676C562.968 266.909 563.57 267.834 564.455 268.45C565.349 269.067 566.518 269.375 567.96 269.375C569.6 269.375 570.903 269.027 571.867 268.331C572.842 267.625 573.329 266.78 573.329 265.795C573.329 265 573.05 264.334 572.494 263.797C571.937 263.25 571.082 262.842 569.928 262.574L566.11 261.679C564.012 261.182 562.471 260.411 561.487 259.367C560.512 258.313 560.025 256.996 560.025 255.415C560.025 254.122 560.388 252.979 561.114 251.984C561.849 250.99 562.849 250.21 564.112 249.643C565.384 249.076 566.826 248.793 568.437 248.793C570.704 248.793 572.484 249.29 573.776 250.284C575.079 251.278 576.004 252.591 576.55 254.222ZM582.267 280.591V249.091H585.667V252.73H586.085C586.343 252.332 586.701 251.825 587.159 251.209C587.626 250.582 588.292 250.026 589.157 249.538C590.032 249.041 591.215 248.793 592.707 248.793C594.636 248.793 596.336 249.275 597.808 250.239C599.279 251.204 600.428 252.571 601.253 254.341C602.078 256.111 602.491 258.199 602.491 260.605C602.491 263.031 602.078 265.134 601.253 266.914C600.428 268.684 599.284 270.056 597.823 271.031C596.361 271.995 594.676 272.477 592.767 272.477C591.295 272.477 590.117 272.234 589.232 271.746C588.347 271.249 587.666 270.687 587.188 270.061C586.711 269.425 586.343 268.898 586.085 268.48H585.786V280.591H582.267ZM585.727 260.545C585.727 262.276 585.98 263.802 586.487 265.124C586.994 266.437 587.735 267.466 588.71 268.212C589.684 268.947 590.877 269.315 592.289 269.315C593.761 269.315 594.989 268.928 595.973 268.152C596.968 267.366 597.713 266.312 598.21 264.99C598.718 263.658 598.971 262.176 598.971 260.545C598.971 258.935 598.722 257.483 598.225 256.19C597.738 254.888 596.997 253.859 596.003 253.103C595.019 252.337 593.781 251.955 592.289 251.955C590.857 251.955 589.654 252.317 588.68 253.043C587.705 253.759 586.97 254.763 586.472 256.056C585.975 257.339 585.727 258.835 585.727 260.545ZM614.602 272.537C613.15 272.537 611.833 272.263 610.649 271.717C609.466 271.16 608.526 270.359 607.83 269.315C607.134 268.261 606.786 266.989 606.786 265.497C606.786 264.185 607.045 263.121 607.562 262.305C608.079 261.48 608.77 260.834 609.635 260.366C610.5 259.899 611.455 259.551 612.499 259.322C613.553 259.084 614.612 258.895 615.676 258.756C617.068 258.577 618.196 258.442 619.061 258.353C619.936 258.254 620.573 258.089 620.97 257.861C621.378 257.632 621.582 257.234 621.582 256.668V256.548C621.582 255.077 621.179 253.933 620.374 253.118C619.578 252.303 618.37 251.895 616.749 251.895C615.069 251.895 613.752 252.263 612.797 252.999C611.843 253.734 611.171 254.52 610.784 255.355L607.443 254.162C608.039 252.77 608.835 251.686 609.829 250.911C610.833 250.125 611.927 249.578 613.11 249.27C614.303 248.952 615.477 248.793 616.63 248.793C617.366 248.793 618.211 248.882 619.166 249.061C620.13 249.23 621.06 249.583 621.955 250.12C622.86 250.657 623.61 251.467 624.207 252.551C624.803 253.635 625.102 255.087 625.102 256.906V272H621.582V268.898H621.403C621.164 269.395 620.767 269.927 620.21 270.494C619.653 271.06 618.912 271.543 617.987 271.94C617.063 272.338 615.934 272.537 614.602 272.537ZM615.139 269.375C616.531 269.375 617.704 269.102 618.659 268.555C619.623 268.008 620.349 267.302 620.836 266.437C621.333 265.572 621.582 264.662 621.582 263.707V260.486C621.433 260.665 621.105 260.829 620.597 260.978C620.1 261.117 619.524 261.241 618.867 261.351C618.221 261.45 617.59 261.54 616.973 261.619C616.367 261.689 615.874 261.749 615.497 261.798C614.582 261.918 613.727 262.112 612.931 262.38C612.146 262.638 611.509 263.031 611.022 263.558C610.545 264.075 610.306 264.781 610.306 265.676C610.306 266.899 610.759 267.824 611.664 268.45C612.578 269.067 613.737 269.375 615.139 269.375ZM640.833 272.477C638.685 272.477 636.836 271.97 635.285 270.956C633.734 269.942 632.54 268.545 631.705 266.765C630.87 264.985 630.452 262.952 630.452 260.665C630.452 258.338 630.88 256.285 631.735 254.505C632.6 252.715 633.803 251.318 635.344 250.314C636.896 249.3 638.705 248.793 640.773 248.793C642.384 248.793 643.836 249.091 645.129 249.688C646.421 250.284 647.48 251.119 648.305 252.193C649.131 253.267 649.643 254.52 649.842 255.952H646.322C646.053 254.908 645.457 253.983 644.532 253.178C643.617 252.362 642.384 251.955 640.833 251.955C639.461 251.955 638.258 252.312 637.224 253.028C636.2 253.734 635.399 254.734 634.822 256.026C634.256 257.309 633.972 258.815 633.972 260.545C633.972 262.315 634.251 263.857 634.808 265.169C635.374 266.482 636.17 267.501 637.194 268.227C638.228 268.952 639.441 269.315 640.833 269.315C641.748 269.315 642.578 269.156 643.324 268.838C644.07 268.52 644.701 268.062 645.218 267.466C645.735 266.869 646.103 266.153 646.322 265.318H649.842C649.643 266.67 649.151 267.888 648.365 268.972C647.589 270.046 646.56 270.901 645.278 271.538C644.005 272.164 642.523 272.477 640.833 272.477ZM654.987 272V249.091H658.507V272H654.987ZM656.777 245.273C656.091 245.273 655.499 245.039 655.002 244.572C654.515 244.104 654.271 243.543 654.271 242.886C654.271 242.23 654.515 241.668 655.002 241.201C655.499 240.734 656.091 240.5 656.777 240.5C657.463 240.5 658.05 240.734 658.537 241.201C659.034 241.668 659.283 242.23 659.283 242.886C659.283 243.543 659.034 244.104 658.537 244.572C658.05 245.039 657.463 245.273 656.777 245.273ZM674.261 272.477C672.193 272.477 670.378 271.985 668.817 271.001C667.266 270.016 666.053 268.639 665.178 266.869C664.313 265.099 663.88 263.031 663.88 260.665C663.88 258.278 664.313 256.195 665.178 254.415C666.053 252.636 667.266 251.254 668.817 250.269C670.378 249.285 672.193 248.793 674.261 248.793C676.329 248.793 678.139 249.285 679.69 250.269C681.251 251.254 682.464 252.636 683.329 254.415C684.204 256.195 684.642 258.278 684.642 260.665C684.642 263.031 684.204 265.099 683.329 266.869C682.464 268.639 681.251 270.016 679.69 271.001C678.139 271.985 676.329 272.477 674.261 272.477ZM674.261 269.315C675.832 269.315 677.124 268.913 678.139 268.107C679.153 267.302 679.904 266.243 680.391 264.93C680.878 263.618 681.122 262.196 681.122 260.665C681.122 259.134 680.878 257.707 680.391 256.384C679.904 255.062 679.153 253.993 678.139 253.178C677.124 252.362 675.832 251.955 674.261 251.955C672.69 251.955 671.397 252.362 670.383 253.178C669.369 253.993 668.618 255.062 668.131 256.384C667.644 257.707 667.4 259.134 667.4 260.665C667.4 262.196 667.644 263.618 668.131 264.93C668.618 266.243 669.369 267.302 670.383 268.107C671.397 268.913 672.69 269.315 674.261 269.315ZM535.222 323V300.091H538.741V323H535.222ZM537.011 296.273C536.325 296.273 535.734 296.039 535.237 295.572C534.749 295.104 534.506 294.543 534.506 293.886C534.506 293.23 534.749 292.668 535.237 292.201C535.734 291.734 536.325 291.5 537.011 291.5C537.697 291.5 538.284 291.734 538.771 292.201C539.268 292.668 539.517 293.23 539.517 293.886C539.517 294.543 539.268 295.104 538.771 295.572C538.284 296.039 537.697 296.273 537.011 296.273ZM548.708 309.219V323H545.188V300.091H548.589V303.67H548.887C549.424 302.507 550.24 301.572 551.333 300.866C552.427 300.151 553.839 299.793 555.569 299.793C557.12 299.793 558.477 300.111 559.641 300.747C560.804 301.374 561.709 302.328 562.355 303.611C563.002 304.884 563.325 306.494 563.325 308.443V323H559.805V308.682C559.805 306.882 559.338 305.48 558.403 304.476C557.468 303.462 556.186 302.955 554.555 302.955C553.431 302.955 552.427 303.198 551.542 303.685C550.667 304.173 549.976 304.884 549.469 305.818C548.962 306.753 548.708 307.886 548.708 309.219ZM584.194 313.634V300.091H587.714V323H584.194V319.122H583.956C583.419 320.286 582.583 321.275 581.45 322.09C580.316 322.896 578.885 323.298 577.154 323.298C575.723 323.298 574.45 322.985 573.336 322.359C572.223 321.722 571.348 320.768 570.711 319.495C570.075 318.212 569.757 316.597 569.757 314.648V300.091H573.277V314.409C573.277 316.08 573.744 317.412 574.679 318.406C575.623 319.401 576.826 319.898 578.288 319.898C579.163 319.898 580.053 319.674 580.958 319.227C581.873 318.779 582.638 318.093 583.255 317.168C583.881 316.244 584.194 315.065 584.194 313.634ZM604.124 300.091V303.074H592.252V300.091H604.124ZM595.712 294.602H599.232V316.438C599.232 317.432 599.376 318.178 599.665 318.675C599.963 319.162 600.341 319.49 600.798 319.659C601.265 319.818 601.758 319.898 602.275 319.898C602.662 319.898 602.981 319.878 603.229 319.838C603.478 319.788 603.677 319.749 603.826 319.719L604.542 322.881C604.303 322.97 603.97 323.06 603.542 323.149C603.115 323.249 602.573 323.298 601.917 323.298C600.922 323.298 599.948 323.085 598.993 322.657C598.049 322.229 597.263 321.578 596.637 320.703C596.02 319.828 595.712 318.724 595.712 317.392V294.602ZM609.419 323V300.091H612.939V323H609.419ZM611.209 296.273C610.523 296.273 609.931 296.039 609.434 295.572C608.947 295.104 608.703 294.543 608.703 293.886C608.703 293.23 608.947 292.668 609.434 292.201C609.931 291.734 610.523 291.5 611.209 291.5C611.895 291.5 612.481 291.734 612.969 292.201C613.466 292.668 613.714 293.23 613.714 293.886C613.714 294.543 613.466 295.104 612.969 295.572C612.481 296.039 611.895 296.273 611.209 296.273ZM622.906 292.455V323H619.386V292.455H622.906ZM629.352 323V300.091H632.872V323H629.352ZM631.142 296.273C630.456 296.273 629.865 296.039 629.367 295.572C628.88 295.104 628.637 294.543 628.637 293.886C628.637 293.23 628.88 292.668 629.367 292.201C629.865 291.734 630.456 291.5 631.142 291.5C631.828 291.5 632.415 291.734 632.902 292.201C633.399 292.668 633.648 293.23 633.648 293.886C633.648 294.543 633.399 295.104 632.902 295.572C632.415 296.039 631.828 296.273 631.142 296.273ZM638.663 323V320.315L651.669 303.611V303.372H639.081V300.091H656.203V302.895L643.555 319.48V319.719H656.62V323H638.663ZM668.783 323.537C667.332 323.537 666.014 323.263 664.831 322.717C663.648 322.16 662.708 321.359 662.012 320.315C661.316 319.261 660.968 317.989 660.968 316.497C660.968 315.185 661.227 314.121 661.744 313.305C662.261 312.48 662.952 311.834 663.817 311.366C664.682 310.899 665.636 310.551 666.68 310.322C667.734 310.084 668.793 309.895 669.857 309.756C671.249 309.577 672.378 309.442 673.243 309.353C674.118 309.254 674.754 309.089 675.152 308.861C675.56 308.632 675.763 308.234 675.763 307.668V307.548C675.763 306.077 675.361 304.933 674.555 304.118C673.76 303.303 672.552 302.895 670.931 302.895C669.251 302.895 667.933 303.263 666.979 303.999C666.024 304.734 665.353 305.52 664.965 306.355L661.624 305.162C662.221 303.77 663.016 302.686 664.011 301.911C665.015 301.125 666.109 300.578 667.292 300.27C668.485 299.952 669.658 299.793 670.812 299.793C671.548 299.793 672.393 299.882 673.347 300.061C674.312 300.23 675.241 300.583 676.136 301.12C677.041 301.657 677.792 302.467 678.388 303.551C678.985 304.635 679.283 306.087 679.283 307.906V323H675.763V319.898H675.585C675.346 320.395 674.948 320.927 674.391 321.494C673.835 322.06 673.094 322.543 672.169 322.94C671.244 323.338 670.116 323.537 668.783 323.537ZM669.32 320.375C670.712 320.375 671.886 320.102 672.84 319.555C673.805 319.008 674.531 318.302 675.018 317.437C675.515 316.572 675.763 315.662 675.763 314.707V311.486C675.614 311.665 675.286 311.829 674.779 311.978C674.282 312.117 673.705 312.241 673.049 312.351C672.403 312.45 671.771 312.54 671.155 312.619C670.548 312.689 670.056 312.749 669.678 312.798C668.763 312.918 667.908 313.112 667.113 313.38C666.327 313.638 665.691 314.031 665.204 314.558C664.727 315.075 664.488 315.781 664.488 316.676C664.488 317.899 664.94 318.824 665.845 319.45C666.76 320.067 667.918 320.375 669.32 320.375ZM686.185 323V292.455H689.705V303.73H690.003C690.262 303.332 690.62 302.825 691.077 302.209C691.545 301.582 692.211 301.026 693.076 300.538C693.951 300.041 695.134 299.793 696.626 299.793C698.555 299.793 700.255 300.275 701.726 301.239C703.198 302.204 704.346 303.571 705.172 305.341C705.997 307.111 706.41 309.199 706.41 311.605C706.41 314.031 705.997 316.134 705.172 317.914C704.346 319.684 703.203 321.056 701.741 322.031C700.28 322.995 698.594 323.477 696.685 323.477C695.214 323.477 694.035 323.234 693.15 322.746C692.265 322.249 691.584 321.687 691.107 321.061C690.63 320.425 690.262 319.898 690.003 319.48H689.586V323H686.185ZM689.645 311.545C689.645 313.276 689.899 314.802 690.406 316.124C690.913 317.437 691.654 318.466 692.628 319.212C693.603 319.947 694.796 320.315 696.208 320.315C697.68 320.315 698.907 319.928 699.892 319.152C700.886 318.366 701.632 317.312 702.129 315.99C702.636 314.658 702.89 313.176 702.89 311.545C702.89 309.935 702.641 308.483 702.144 307.19C701.657 305.888 700.916 304.859 699.922 304.103C698.937 303.337 697.699 302.955 696.208 302.955C694.776 302.955 693.573 303.317 692.599 304.043C691.624 304.759 690.888 305.763 690.391 307.056C689.894 308.339 689.645 309.835 689.645 311.545ZM715.314 292.455V323H711.794V292.455H715.314ZM731.366 323.477C729.158 323.477 727.254 322.99 725.653 322.016C724.062 321.031 722.835 319.659 721.969 317.899C721.114 316.129 720.687 314.071 720.687 311.724C720.687 309.378 721.114 307.31 721.969 305.52C722.835 303.72 724.038 302.318 725.579 301.314C727.13 300.3 728.94 299.793 731.008 299.793C732.201 299.793 733.379 299.991 734.543 300.389C735.706 300.787 736.765 301.433 737.719 302.328C738.674 303.213 739.435 304.386 740.001 305.848C740.568 307.31 740.852 309.109 740.852 311.247V312.739H723.192V309.696H737.272C737.272 308.403 737.013 307.25 736.496 306.236C735.989 305.222 735.263 304.421 734.319 303.835C733.384 303.248 732.281 302.955 731.008 302.955C729.606 302.955 728.393 303.303 727.369 303.999C726.354 304.685 725.574 305.58 725.027 306.683C724.48 307.787 724.207 308.97 724.207 310.233V312.261C724.207 313.991 724.505 315.458 725.102 316.661C725.708 317.854 726.548 318.764 727.622 319.391C728.696 320.007 729.944 320.315 731.366 320.315C732.29 320.315 733.126 320.186 733.871 319.928C734.627 319.659 735.278 319.261 735.825 318.734C736.372 318.197 736.795 317.531 737.093 316.736L740.494 317.69C740.136 318.844 739.534 319.858 738.689 320.733C737.844 321.598 736.8 322.274 735.557 322.761C734.314 323.239 732.917 323.477 731.366 323.477Z" fill="black"/>
</svg>
