<svg width="2944" height="654" viewBox="0 0 2944 654" fill="none" xmlns="http://www.w3.org/2000/svg">
<path d="M822 542L222 242L2 352L602 652L822 542Z" stroke="#524E4C" stroke-width="3" stroke-miterlimit="1"/>
<path d="M822 542L222 242V2L822 302V542Z" stroke="#524E4C" stroke-width="3" stroke-miterlimit="1"/>
<path d="M222 242L2 352V112L222 2V242Z" stroke="#524E4C" stroke-width="3" stroke-miterlimit="1"/>
<path d="M602 652L2 352V112L602 412V652Z" stroke="#524E4C" stroke-width="3" stroke-miterlimit="1"/>
<path d="M602 652L822 542V302L602 412V652Z" stroke="#524E4C" stroke-width="3" stroke-miterlimit="1"/>
<path d="M822 302L222 2L2 112L602 412L822 302Z" stroke="#524E4C" stroke-width="3" stroke-miterlimit="1"/>
<path d="M202 351L102 301L2 351L102 401L202 351Z" fill="#4A370D" stroke="#4A370D" stroke-miterlimit="1"/>
<path d="M202 351L102 301V201L202 251V351Z" fill="#956E19" stroke="#4A370D" stroke-miterlimit="1"/>
<path d="M102 301L2 351V251L102 201V301Z" fill="#956E19" stroke="#4A370D" stroke-miterlimit="1"/>
<path d="M102 401L2 351V251L102 301V401Z" fill="#C69222" stroke="#4A370D" stroke-miterlimit="1"/>
<path d="M102 401L202 351V251L102 301V401Z" fill="#C69222" stroke="#4A370D" stroke-miterlimit="1"/>
<path d="M202 251L102 201L2 251L102 301L202 251Z" fill="#F8B72A" stroke="#4A370D" stroke-miterlimit="1"/>
<g style="mix-blend-mode:difference" opacity="0.3">
<path d="M822 541L322 291L102 401L602 651L822 541Z" fill="#4A370D" stroke="#4A370D" stroke-miterlimit="1"/>
<path d="M822 541L322 291V51L822 301V541Z" fill="#956E19" stroke="#4A370D" stroke-miterlimit="1"/>
<path d="M322 291L102 401V161L322 51V291Z" fill="#956E19" stroke="#4A370D" stroke-miterlimit="1"/>
<path d="M602 651L102 401V161L602 411V651Z" fill="#C69222" stroke="#4A370D" stroke-miterlimit="1"/>
<path d="M602 651L822 541V301L602 411V651Z" fill="#C69222" stroke="#4A370D" stroke-miterlimit="1"/>
<path d="M822 301L322 51L102 161L602 411L822 301Z" fill="#F8B72A" stroke="#4A370D" stroke-miterlimit="1"/>
</g>
<path d="M1882 542L1282 242L1062 352L1662 652L1882 542Z" stroke="#524E4C" stroke-width="3" stroke-miterlimit="1"/>
<path d="M1882 542L1282 242V2L1882 302V542Z" stroke="#524E4C" stroke-width="3" stroke-miterlimit="1"/>
<path d="M1282 242L1062 352V112L1282 2V242Z" stroke="#524E4C" stroke-width="3" stroke-miterlimit="1"/>
<path d="M1662 652L1062 352V112L1662 412V652Z" stroke="#524E4C" stroke-width="3" stroke-miterlimit="1"/>
<path d="M1662 652L1882 542V302L1662 412V652Z" stroke="#524E4C" stroke-width="3" stroke-miterlimit="1"/>
<path d="M1882 302L1282 2L1062 112L1662 412L1882 302Z" stroke="#524E4C" stroke-width="3" stroke-miterlimit="1"/>
<g style="mix-blend-mode:difference" opacity="0.3">
<path d="M1382 291L1282 241L1162 301L1262 351L1382 291Z" fill="#4A370D" stroke="#4A370D" stroke-miterlimit="1"/>
<path d="M1382 291L1282 241V1L1382 51V291Z" fill="#956E19" stroke="#4A370D" stroke-miterlimit="1"/>
<path d="M1282 241L1162 301V61L1282 1V241Z" fill="#956E19" stroke="#4A370D" stroke-miterlimit="1"/>
<path d="M1262 351L1162 301V61L1262 111V351Z" fill="#C69222" stroke="#4A370D" stroke-miterlimit="1"/>
<path d="M1262 351L1382 291V51L1262 111V351Z" fill="#C69222" stroke="#4A370D" stroke-miterlimit="1"/>
<path d="M1382 51L1282 1L1162 61L1262 111L1382 51Z" fill="#F8B72A" stroke="#4A370D" stroke-miterlimit="1"/>
</g>
<path d="M1262 351L1162 301L1062 351L1162 401L1262 351Z" fill="#4A370D" stroke="#4A370D" stroke-miterlimit="1"/>
<path d="M1262 351L1162 301V201L1262 251V351Z" fill="#956E19" stroke="#4A370D" stroke-miterlimit="1"/>
<path d="M1162 301L1062 351V251L1162 201V301Z" fill="#956E19" stroke="#4A370D" stroke-miterlimit="1"/>
<path d="M1162 401L1062 351V251L1162 301V401Z" fill="#C69222" stroke="#4A370D" stroke-miterlimit="1"/>
<path d="M1162 401L1262 351V251L1162 301V401Z" fill="#C69222" stroke="#4A370D" stroke-miterlimit="1"/>
<path d="M1262 251L1162 201L1062 251L1162 301L1262 251Z" fill="#F8B72A" stroke="#4A370D" stroke-miterlimit="1"/>
<g style="mix-blend-mode:difference" opacity="0.3">
<path d="M2322 252L2222 202L2122 252L2222 302L2322 252Z" fill="#4A370D" stroke="#4A370D" stroke-miterlimit="1"/>
<path d="M2322 252L2222 202V62L2322 112V252Z" fill="#956E19" stroke="#4A370D" stroke-miterlimit="1"/>
<path d="M2222 202L2122 252V112L2222 62V202Z" fill="#956E19" stroke="#4A370D" stroke-miterlimit="1"/>
<path d="M2222 302L2122 252V112L2222 162V302Z" fill="#C69222" stroke="#4A370D" stroke-miterlimit="1"/>
<path d="M2222 302L2322 252V112L2222 162V302Z" fill="#C69222" stroke="#4A370D" stroke-miterlimit="1"/>
<path d="M2322 112L2222 62L2122 112L2222 162L2322 112Z" fill="#F8B72A" stroke="#4A370D" stroke-miterlimit="1"/>
</g>
<path d="M2942 542L2342 242L2122 352L2722 652L2942 542Z" stroke="#524E4C" stroke-width="3" stroke-miterlimit="1"/>
<path d="M2942 542L2342 242V2L2942 302V542Z" stroke="#524E4C" stroke-width="3" stroke-miterlimit="1"/>
<path d="M2342 242L2122 352V112L2342 2V242Z" stroke="#524E4C" stroke-width="3" stroke-miterlimit="1"/>
<path d="M2722 652L2122 352V112L2722 412V652Z" stroke="#524E4C" stroke-width="3" stroke-miterlimit="1"/>
<path d="M2722 652L2942 542V302L2722 412V652Z" stroke="#524E4C" stroke-width="3" stroke-miterlimit="1"/>
<path d="M2942 302L2342 2L2122 112L2722 412L2942 302Z" stroke="#524E4C" stroke-width="3" stroke-miterlimit="1"/>
<path d="M2322 351L2222 301L2122 351L2222 401L2322 351Z" fill="#4A370D" stroke="#4A370D" stroke-miterlimit="1"/>
<path d="M2322 351L2222 301V201L2322 251V351Z" fill="#956E19" stroke="#4A370D" stroke-miterlimit="1"/>
<path d="M2222 301L2122 351V251L2222 201V301Z" fill="#956E19" stroke="#4A370D" stroke-miterlimit="1"/>
<path d="M2222 401L2122 351V251L2222 301V401Z" fill="#C69222" stroke="#4A370D" stroke-miterlimit="1"/>
<path d="M2222 401L2322 351V251L2222 301V401Z" fill="#C69222" stroke="#4A370D" stroke-miterlimit="1"/>
<path d="M2322 251L2222 201L2122 251L2222 301L2322 251Z" fill="#F8B72A" stroke="#4A370D" stroke-miterlimit="1"/>
<path d="M157.963 598.537C156.511 598.537 155.194 598.263 154.011 597.717C152.827 597.16 151.888 596.359 151.192 595.315C150.496 594.261 150.148 592.989 150.148 591.497C150.148 590.185 150.406 589.121 150.923 588.305C151.44 587.48 152.131 586.834 152.996 586.366C153.862 585.899 154.816 585.551 155.86 585.322C156.914 585.084 157.973 584.895 159.037 584.756C160.429 584.577 161.558 584.442 162.423 584.353C163.298 584.254 163.934 584.089 164.332 583.861C164.739 583.632 164.943 583.234 164.943 582.668V582.548C164.943 581.077 164.54 579.933 163.735 579.118C162.94 578.303 161.732 577.895 160.111 577.895C158.43 577.895 157.113 578.263 156.158 578.999C155.204 579.734 154.533 580.52 154.145 581.355L150.804 580.162C151.401 578.77 152.196 577.686 153.19 576.911C154.195 576.125 155.288 575.578 156.472 575.27C157.665 574.952 158.838 574.793 159.991 574.793C160.727 574.793 161.572 574.882 162.527 575.061C163.491 575.23 164.421 575.583 165.316 576.12C166.221 576.657 166.972 577.467 167.568 578.551C168.165 579.635 168.463 581.087 168.463 582.906V598H164.943V594.898H164.764C164.526 595.395 164.128 595.927 163.571 596.494C163.014 597.06 162.273 597.543 161.349 597.94C160.424 598.338 159.295 598.537 157.963 598.537ZM158.5 595.375C159.892 595.375 161.065 595.102 162.02 594.555C162.984 594.008 163.71 593.302 164.197 592.437C164.695 591.572 164.943 590.662 164.943 589.707V586.486C164.794 586.665 164.466 586.829 163.959 586.978C163.462 587.117 162.885 587.241 162.229 587.351C161.582 587.45 160.951 587.54 160.335 587.619C159.728 587.689 159.236 587.749 158.858 587.798C157.943 587.918 157.088 588.112 156.293 588.38C155.507 588.638 154.871 589.031 154.384 589.558C153.906 590.075 153.668 590.781 153.668 591.676C153.668 592.899 154.12 593.824 155.025 594.45C155.94 595.067 157.098 595.375 158.5 595.375ZM182.405 585.114C182.405 588.872 181.912 592.332 180.928 595.494C179.954 598.646 178.557 601.55 176.737 604.205H173.635C174.351 603.22 175.017 602.007 175.633 600.565C176.26 599.134 176.807 597.562 177.274 595.852C177.741 594.132 178.104 592.357 178.363 590.528C178.631 588.688 178.765 586.884 178.765 585.114C178.765 582.747 178.537 580.346 178.079 577.91C177.622 575.474 177.006 573.212 176.23 571.124C175.454 569.036 174.589 567.335 173.635 566.023H176.737C178.557 568.678 179.954 571.586 180.928 574.748C181.912 577.9 182.405 581.355 182.405 585.114Z" fill="black"/>
<path d="M1286.7 582V551.455H1290.22V562.73H1290.52C1290.78 562.332 1291.13 561.825 1291.59 561.209C1292.06 560.582 1292.72 560.026 1293.59 559.538C1294.46 559.041 1295.65 558.793 1297.14 558.793C1299.07 558.793 1300.77 559.275 1302.24 560.239C1303.71 561.204 1304.86 562.571 1305.69 564.341C1306.51 566.111 1306.92 568.199 1306.92 570.605C1306.92 573.031 1306.51 575.134 1305.69 576.914C1304.86 578.684 1303.72 580.056 1302.25 581.031C1300.79 581.995 1299.11 582.477 1297.2 582.477C1295.73 582.477 1294.55 582.234 1293.66 581.746C1292.78 581.249 1292.1 580.687 1291.62 580.061C1291.14 579.425 1290.78 578.898 1290.52 578.48H1290.1V582H1286.7ZM1290.16 570.545C1290.16 572.276 1290.41 573.802 1290.92 575.124C1291.43 576.437 1292.17 577.466 1293.14 578.212C1294.12 578.947 1295.31 579.315 1296.72 579.315C1298.19 579.315 1299.42 578.928 1300.41 578.152C1301.4 577.366 1302.15 576.312 1302.64 574.99C1303.15 573.658 1303.4 572.176 1303.4 570.545C1303.4 568.935 1303.15 567.483 1302.66 566.19C1302.17 564.888 1301.43 563.859 1300.44 563.103C1299.45 562.337 1298.21 561.955 1296.72 561.955C1295.29 561.955 1294.09 562.317 1293.11 563.043C1292.14 563.759 1291.4 564.763 1290.9 566.056C1290.41 567.339 1290.16 568.835 1290.16 570.545ZM1319.33 569.114C1319.33 572.872 1318.84 576.332 1317.86 579.494C1316.88 582.646 1315.48 585.55 1313.66 588.205H1310.56C1311.28 587.22 1311.94 586.007 1312.56 584.565C1313.19 583.134 1313.73 581.562 1314.2 579.852C1314.67 578.132 1315.03 576.357 1315.29 574.528C1315.56 572.688 1315.69 570.884 1315.69 569.114C1315.69 566.747 1315.46 564.346 1315.01 561.91C1314.55 559.474 1313.93 557.212 1313.16 555.124C1312.38 553.036 1311.52 551.335 1310.56 550.023H1313.66C1315.48 552.678 1316.88 555.586 1317.86 558.748C1318.84 561.9 1319.33 565.355 1319.33 569.114Z" fill="black"/>
<path d="M2379.53 588.477C2377.38 588.477 2375.53 587.97 2373.98 586.956C2372.43 585.942 2371.24 584.545 2370.4 582.765C2369.57 580.985 2369.15 578.952 2369.15 576.665C2369.15 574.338 2369.58 572.285 2370.43 570.505C2371.3 568.715 2372.5 567.318 2374.04 566.314C2375.59 565.3 2377.4 564.793 2379.47 564.793C2381.08 564.793 2382.53 565.091 2383.82 565.688C2385.12 566.284 2386.18 567.119 2387 568.193C2387.83 569.267 2388.34 570.52 2388.54 571.952H2385.02C2384.75 570.908 2384.15 569.983 2383.23 569.178C2382.31 568.362 2381.08 567.955 2379.53 567.955C2378.16 567.955 2376.95 568.312 2375.92 569.028C2374.89 569.734 2374.09 570.734 2373.52 572.026C2372.95 573.309 2372.67 574.815 2372.67 576.545C2372.67 578.315 2372.95 579.857 2373.5 581.169C2374.07 582.482 2374.87 583.501 2375.89 584.227C2376.92 584.952 2378.14 585.315 2379.53 585.315C2380.44 585.315 2381.27 585.156 2382.02 584.838C2382.76 584.52 2383.4 584.062 2383.91 583.466C2384.43 582.869 2384.8 582.153 2385.02 581.318H2388.54C2388.34 582.67 2387.85 583.888 2387.06 584.972C2386.28 586.046 2385.26 586.901 2383.97 587.538C2382.7 588.164 2381.22 588.477 2379.53 588.477ZM2401.2 575.114C2401.2 578.872 2400.71 582.332 2399.72 585.494C2398.75 588.646 2397.35 591.55 2395.53 594.205H2392.43C2393.15 593.22 2393.81 592.007 2394.43 590.565C2395.05 589.134 2395.6 587.562 2396.07 585.852C2396.54 584.132 2396.9 582.357 2397.16 580.528C2397.43 578.688 2397.56 576.884 2397.56 575.114C2397.56 572.747 2397.33 570.346 2396.87 567.91C2396.42 565.474 2395.8 563.212 2395.02 561.124C2394.25 559.036 2393.38 557.335 2392.43 556.023H2395.53C2397.35 558.678 2398.75 561.586 2399.72 564.748C2400.71 567.9 2401.2 571.355 2401.2 575.114Z" fill="black"/>
</svg>
